<?xml version="1.0" encoding="UTF-8" standalone="no"?>
<svg xmlns:rdf="http://www.w3.org/1999/02/22-rdf-syntax-ns#" xmlns="http://www.w3.org/2000/svg" height="236.76" width="236.75999" version="1.1" xmlns:cc="http://creativecommons.org/ns#" xmlns:dc="http://purl.org/dc/elements/1.1/" viewBox="0 0 236.75999 236.76"><path d="M236.76,118.42373A118.38,118.38,0,1,1,118.37745,0h.04628A118.382,118.382,0,0,1,236.76,118.42373Z" fill="#fff"/><path d="M232.38689,118.42373A114.0069,114.0069,0,1,1,118.42373,4.37311,113.97738,113.97738,0,0,1,232.38689,118.42373Z" fill="#006bb6"/><polygon points="22.04 137.753 24.314 145.187 32.274 145.187 25.801 149.91 28.163 157.169 22.04 152.709 15.743 157.169 18.105 149.91 11.72 145.187 19.592 145.187 22.04 137.753" fill="#fff"/><polygon points="214.894 137.753 217.168 145.187 225.128 145.187 218.655 149.91 221.017 157.169 214.894 152.709 208.597 157.169 210.959 149.91 204.574 145.187 212.446 145.187 214.894 137.753" fill="#fff"/><polygon points="49.678 177.636 52.04 185.07 59.912 185.07 53.527 189.793 55.888 197.052 49.678 192.592 43.469 197.052 45.83 189.705 39.358 185.07 47.23 185.07 49.678 177.636" fill="#fff"/><polygon points="189.705 177.636 192.067 185.07 200.026 185.07 193.554 189.793 195.915 197.052 189.705 192.592 183.496 197.052 185.857 189.705 179.472 185.07 187.344 185.07 189.705 177.636" fill="#fff"/><polygon points="92.885 203.612 95.246 211.046 103.118 211.046 96.646 215.682 99.007 223.028 92.885 218.568 86.588 223.028 88.949 215.682 82.564 211.046 90.436 211.046 92.885 203.612" fill="#fff"/><polygon points="145.362 203.612 147.724 211.046 155.595 211.046 149.123 215.682 151.484 223.028 145.362 218.568 139.065 223.028 141.426 215.682 135.042 211.046 142.913 211.046 145.362 203.612" fill="#fff"/><path d="M203.78678,118.9485a85.40678,85.40678,0,1,1-85.363-85.4505A85.40678,85.40678,0,0,1,203.78678,118.9485Z" fill="#fff"/><path d="M38.046,135.74124a82.22636,82.22636,0,0,0,97.17043,63.585,81.10972,81.10972,0,0,0,51.9525-35.42216,83.9604,83.9604,0,0,0,11.63246-61.83573,80.94578,80.94578,0,0,0-35.42217-51.865A82.131,82.131,0,0,0,38.046,135.74124Z" fill="#006bb6"/><path d="M146.41162,54.92622c.26238,3.14864-1.22447,6.29728-4.46057,9.271-15.39334-11.28262-30.087-16.79273-44.43077-16.88019a59.70173,59.70173,0,0,0-9.0086.69969,71.87139,71.87139,0,0,1,14.16887-4.3731,76.01215,76.01215,0,0,1,38.1335,1.66178C143.4379,47.84179,146.06176,51.16535,146.41162,54.92622Z" fill="#fff"/><path d="M130.31858,187.60628c16.1805-14.86856,23.61479-46.79224,28.16281-65.77152l.6997-2.97372c2.274-9.62083,6.38473-16.88019,10.75784-21.2533,16.268,25.1891,14.08141,51.25281,9.97068,67.60819a76.23613,76.23613,0,0,1-45.74269,29.03744,74.898,74.898,0,0,1-15.83065,1.66178A55.05593,55.05593,0,0,0,130.31858,187.60628Z" fill="#fff"/><path d="M159.70585,79.50308c6.55966-5.51006,11.89486-9.70825,15.56826-12.41962a75.83814,75.83814,0,0,1,17.3175,31.224c-3.06118-4.11072-6.9095-7.95906-11.10769-8.83368-3.586-.78716-7.34682.26238-10.84531,2.71132A117.59916,117.59916,0,0,0,159.70585,79.50308Z" fill="#fff"/><path d="M42.85645,115.45c7.52174-20.1163,34.89739-28.25027,45.21792-31.31145l.43731-.17492a128.172,128.172,0,0,1,13.90647-2.79879c13.29425-2.274,29.64966-5.0728,39.62035-12.41962a157.294,157.294,0,0,1,12.33216,10.58292c-22.39031,18.97929-57.02531,50.99041-94.02179,90.26092a77.78056,77.78056,0,0,1-17.31751-34.8974A80.09348,80.09348,0,0,1,41.457,118.94849C42.33168,116.93683,42.85645,115.45,42.85645,115.45Z" fill="#fff"/><path d="M157.082,76.96668a147.39036,147.39036,0,0,0-12.33216-10.58292c3.84833-3.67341,5.51011-7.60916,5.16026-11.71992a15.50869,15.50869,0,0,0-2.62386-6.997A73.1713,73.1713,0,0,1,160.493,54.57638a78.65136,78.65136,0,0,1,12.24471,9.88322C168.88938,67.34585,163.55419,71.63149,157.082,76.96668Z" fill="#fff"/><path d="M139.0648,66.55865c-9.271,6.38474-24.66432,9.0086-37.17141,11.19515A117.1074,117.1074,0,0,0,87.5496,80.64005l-.43731.175c-9.88322,2.88625-34.80992,10.32053-45.043,28.25024A76.71285,76.71285,0,0,1,54.0516,76.87918,79.69269,79.69269,0,0,1,74.69267,55.276C92.88479,47.5794,113.26346,48.01671,139.0648,66.55865Z" fill="#fff"/><path d="M180.69677,93.05971c5.33519,1.04955,11.19515,10.05815,13.90648,15.30587a76.0715,76.0715,0,0,1-9.35845,48.629,78.47424,78.47424,0,0,0,.96209-8.22144,84.5546,84.5546,0,0,0-13.55663-53.43937C175.449,93.3221,178.33529,92.44748,180.69677,93.05971Z" fill="#fff"/><path d="M156.99453,81.7771a94.60136,94.60136,0,0,1,10.84531,12.76947c-5.24773,5.07281-9.70831,13.38171-12.15724,23.52731l-.6997,2.97372c-4.3731,18.62947-11.71993,49.85342-27.11326,63.93482A43.70541,43.70541,0,0,1,109.765,195.47788a76.18036,76.18036,0,0,1-33.498-12.15724,79.1887,79.1887,0,0,1-13.46916-11.1077C100.05668,132.50514,134.86661,100.58146,156.99453,81.7771Z" fill="#fff"/><path d="M139.58957,141.77613l2.09909-.52485c1.22447-.34984,2.0991-.78716,2.0991-2.62386,0-1.48686-.43732-4.19818-2.18655-4.19818-2.01163,0-2.01163,3.23614-2.01163,5.07281Z" fill="#fff"/><path d="M114.57539,140.63912c0-6.55966-.17492-12.2447-4.63549-12.2447-3.6734,0-4.28565,5.685-4.28565,12.2447s-.17493,12.2447,4.28565,12.2447C113.70078,152.88381,114.57539,147.19878,114.57539,140.63912Z" fill="#fff"/><path d="M139.58957,141.77613l2.09909-.52485c1.22447-.34984,2.0991-.78716,2.0991-2.62386,0-1.48686-.43732-4.19818-2.18655-4.19818-2.01163,0-2.01163,3.23614-2.01163,5.07281Z" fill="#fff"/><path d="M105.12949,125.50816h.08746c2.09909-3.32356,6.20981-4.89788,10.23306-4.89788,9.0086,0,14.60619,7.78414,14.60619,18.27959,0,12.41963-8.48383,19.76644-18.80436,19.76644-16.00558,0-21.86554-12.85693-21.86554-27.813,0-17.23,7.52174-31.39891,26.15118-31.39891,7.25937,0,13.20678,4.63549,13.20678,11.80739a6.71215,6.71215,0,0,1-6.997,6.9095c-4.98534,0-6.55966-4.19818-7.25936-7.87159-.34985-1.57432.26238-4.98534-2.36149-4.98534-5.42265,0-6.29727,10.58292-6.4722,14.43125Z" fill="#fff"/><path d="M114.57539,140.63912c0-6.55966-.17492-12.2447-4.63549-12.2447-3.6734,0-4.28565,5.685-4.28565,12.2447s-.17493,12.2447,4.28565,12.2447C113.70078,152.88381,114.57539,147.19878,114.57539,140.63912Z" fill="#fff"/><path d="M19.24167,108.36558c.34985-2.5364-.43731-3.93579-2.274-4.19818-1.57432-.17492-2.79879.78716-2.97372,2.71133-.17492,1.39939.34985,1.66178,1.74925,1.83671l3.411.34984A1.70467,1.70467,0,0,0,19.24167,108.36558Zm-1.57432-8.3089c3.06118.43732,4.37311,2.5364,3.84834,6.4722l-.34985,2.79879,1.66178.26239c2.09909.26238,2.88625.17493,3.14864-1.48685l1.92416.26238-.96208,7.69667-1.92417-.17493c.17493-1.74924-.61223-1.92417-2.71132-2.18655l-6.03489-.6997c-2.09909-.26239-2.88625-.26239-3.14864,1.48685l-1.8367-.26239.96208-8.57129C12.682,101.5435,14.60618,99.70678,17.66735,100.05668Z" fill="#fff"/><path d="M29.03743,91.39793c.61224-1.57432,0-2.01163-1.92417-2.79878l-5.685-2.36148c-1.92417-.78716-2.71133-.962-3.411.61223l-1.8367-.78716,3.06117-7.17189,1.74925.6997c-.61224,1.57432,0,2.01163,1.92416,2.79878l1.48686.61224,2.274-5.4227-1.48686-.61223c-2.01162-.78716-2.71132-.96209-3.411.61223l-1.74924-.6997,2.97371-7.17189,1.83671.6997c-.61224,1.66178,0,2.09908,1.92416,2.88625L32.361,75.65475c2.01163.78716,2.79879.96208,3.49849-.61223l1.74924.78716L34.635,83.00157l-1.74924-.69969c.61223-1.57433-.08746-2.01164-1.92417-2.79879l-2.5364-1.04955-2.18656,5.42265,2.44894.96208c1.92417.87462,2.71133,1.04955,3.411-.52477l1.74924.6997-2.97371,7.17189Z" fill="#fff"/><path d="M36.64664,53.00206c-.96209,1.39939-.43731,2.01163,1.31193,3.2361L42.769,59.91157c1.74925,1.22451,2.44894,1.66178,3.49849.26239l1.57432,1.137-4.723,6.29727-1.57431-1.137c.96208-1.39939.43731-2.01159-1.31194-3.23605l-4.81041-3.67341c-1.74925-1.22447-2.44894-1.66178-3.49849-.26239l-1.57432-1.13705,4.723-6.29727Z" fill="#fff"/><path d="M54.314,53.96414l-1.22447-1.48686c1.22447-1.137.87462-1.8367-.52477-3.49848l-3.9358-4.6355c-1.39939-1.66178-1.92416-2.18655-3.23609-1.137l-1.31194-1.48685L50.1158,36.7341,51.34027,38.221c-1.22447,1.137-.87462,1.74925.52477,3.411l4.37311,5.16026c1.04955,1.22451,1.48686,1.48686,2.71133.34985,1.66178-1.31193,2.36147-3.84833,1.74924-6.9095l1.74925-.43731,1.74924,5.7725Z" fill="#fff"/><path d="M78.71592,28.51266l-3.32356-3.586.26239,4.98534Zm-5.7725,11.10769-.78716-1.74924c1.48686-.96209,1.3994-1.92417,1.31194-3.586l-.43731-12.15724,3.32356-1.48685,9.0086,8.83367c1.04954.96214,1.57432,1.48686,2.97371,1.04959l.78716,1.74924-7.1719,3.2361-.69969-1.74924.08746-.08746c1.04955-.43731,1.39939-.87462,1.137-1.3994a1.56929,1.56929,0,0,0-.43731-.61223l-1.66178-1.66178-4.548,2.09909.26238,2.36148c0,.08746,0,.34985.08747.43731.34985.6997.96208.78716,2.09909.26239l.78716,1.74924Z" fill="#fff"/><path d="M102.768,25.10164c.17493,1.57431.43731,1.92416,2.09909,1.74924,3.14865-.43731,4.81043-2.88625,4.37311-6.73459-.61223-3.76087-2.88625-5.685-6.03489-5.24772-1.66178.17492-1.74923.69969-1.57432,2.18655Zm-5.685,2.79878c1.74924-.34984,1.74924-1.137,1.48685-3.23609l-.87462-6.03489c-.26239-2.09909-.61223-2.88625-2.274-2.62387l-.26239-1.92416,7.95905-1.137c6.03489-.87462,9.7083,1.48686,10.408,6.55966.6997,4.98534-2.0991,8.3089-8.22144,9.18352l-7.8716,1.137Z" fill="#fff"/><path d="M124.63354,25.539c1.74924.26238,2.01163-.52478,2.274-2.62387l.87462-5.94742c.34985-2.09909.26239-2.97371-1.39939-3.2361l.26239-1.92417L139.677,13.73156l1.39939,5.0728-1.57432.52477q-1.9679-3.93579-5.51011-4.46057c-1.48685-.26238-1.83671.17493-2.01163,1.74925l-.34984,2.18655.78716.17492c1.57432.17493,2.09909-.26238,2.44894-2.18655l1.66178.26239-1.04955,7.08443-1.66178-.17492c.08746-1.92417-.43731-2.79879-1.74924-2.97372l-.6997-.08746-.61223,3.586c-.17493,1.57432,0,2.09909,1.48685,2.274,2.36148.34985,5.07281-.78716,7.17189-3.32356L140.814,24.4894l-3.14864,4.98534-13.29425-2.01163Z" fill="#fff"/><path d="M149.29786,32.53592l.6997-1.83671c1.66178.6997,2.0991,0,2.88626-1.92416l2.44894-5.59758c.78716-1.92417,1.04955-2.71133-.52478-3.49849l.78717-1.74924,7.17189,3.06118-.78716,1.8367c-1.57432-.61223-2.01163,0-2.88626,2.01163l-2.71133,6.20981c-.6997,1.39939-.61223,1.92417.87462,2.5364,1.92417.87462,4.548.43731,6.997-1.48686l1.04955,1.31194-4.37311,4.19818Z" fill="#fff"/><path d="M181.57139,41.01974q3.0175,2.49267,4.72295.26239c1.04954-1.22447.78716-2.79879-.6997-3.9358-1.04955-.87462-1.57432-.61223-2.44894.52478L180.95914,40.495C181.13408,40.6699,181.39647,40.84482,181.57139,41.01974Zm7.87158,3.06118c-1.92418,2.36148-4.37311,2.274-7.52175-.17493l-2.18655-1.8367-1.04955,1.22447c-1.31193,1.66178-1.66178,2.36148-.34984,3.49848l-1.22446,1.48686-6.12234-4.89788,1.22446-1.48686c1.31194.96209,1.92417.52478,3.2361-1.137l3.84834-4.723c1.31193-1.66178,1.66178-2.36151.34984-3.49848l1.22447-1.48686,6.73458,5.42265c3.2361,2.62387,3.84834,5.24773,1.83672,7.60921Z" fill="#fff"/><path d="M190.66746,58.33725c1.04954,1.39939,1.74924,1.04954,3.411-.17493l5.07279-3.49848c1.74924-1.137,2.274-1.74925,1.31193-3.14864l1.57432-1.137,4.548,6.4722-1.57432,1.04955c-1.04955-1.31194-1.74924-1.04955-3.49847.17492l-1.31193.87462,3.411,4.81042,1.31192-.87462c1.74924-1.22447,2.274-1.74925,1.39941-3.2361l1.57432-1.137,4.46056,6.4722-1.57432,1.04954c-1.04954-1.31193-1.74924-.96208-3.49847.17493l-4.98534,3.49848c-1.74924,1.22447-2.274,1.74925-1.39941,3.2361l-1.57432,1.137-4.46059-6.4722,1.57433-1.137c1.04954,1.3994,1.74923,1.04955,3.411-.08746l2.18656-1.57432L198.714,59.999l-2.18656,1.57432c-1.74923,1.137-2.36147,1.74925-1.3994,3.14864l-1.57432,1.137-4.46057-6.4722Z" fill="#fff"/><path d="M219.09265,85.27558c-.61223-1.57432-1.3994-1.39939-3.32356-.61223l-5.685,2.18655c-2.01163.78717-2.62387,1.137-2.09909,2.79879l-1.8367.6997-2.79881-7.34682,1.8367-.6997c.69969,1.57432,1.3994,1.39939,3.411.6997l5.685-2.18656c1.92417-.78716,2.62387-1.22451,2.09909-2.79878l1.74924-.6997,2.79879,7.25936Z" fill="#fff"/><path d="M217.78071,107.66589l4.46056-2.18655-4.89788-1.22447ZM208.947,98.83222l1.8367-.26239c.43732,1.74924,1.48686,1.92417,3.06118,2.36148L225.56483,104.08l.52477,3.58594-11.10768,6.03488c-1.22446.78716-1.92418,1.137-1.8367,2.5364l-1.92417.26238-1.04955-7.69666,1.92418-.34985v.17493c.17491,1.137.43731,1.57432,1.04954,1.48685a2.0582,2.0582,0,0,0,.69969-.17493l2.0991-1.137-.69969-4.98534-2.274-.43732h-.52478c-.78715.17493-.96209.6997-.87463,1.92417l-1.83669.26239Z" fill="#fff"/><path d="M166.44044,128.91919a5.51027,5.51027,0,0,0-4.11072,1.83671,5.16148,5.16148,0,0,0-.34984-.6997l-.87462-1.57432-12.2447,3.58594v6.73459h2.62387c.17492.175.34984.78722.34984,2.88626v7.78413l-2.274.34985v7.34682h17.05511v-7.34683l-2.274-.34985v-2.274a29.37623,29.37623,0,0,1,.61223-5.33515,8.28515,8.28515,0,0,0,2.274.34984c3.06118,0,5.16027-2.71132,5.16027-6.64712C172.3004,131.63052,169.93893,128.91919,166.44044,128.91919Z" fill="#fff"/><path d="M187.78121,136.79078a3.949,3.949,0,0,1-.26237-1.137c0-2.01163-.78715-6.73459-8.22144-6.73459-4.11072,0-12.2447,3.1486-12.2447,10.49545a9.92733,9.92733,0,0,0,2.01162,6.20982,5.51121,5.51121,0,0,0-2.62387,5.07281c0,2.62386,1.31194,7.08443,10.23307,7.08443,7.60921,0,12.06978-3.93579,12.06978-10.84531C188.65582,140.37673,188.131,138.19018,187.78121,136.79078Z" fill="#fff"/><path d="M97.87013,97.25785a2.361,2.361,0,0,0-1.92417-.87462c-1.137,0-2.01162.69971-3.06117,1.83671a19.1189,19.1189,0,0,1-14.25633,5.86c-7.43428,0-15.21841-3.411-21.42822-9.35845a2.33088,2.33088,0,0,0-1.74924-.78716c-3.06118,0-3.84834,4.89788-3.84834,4.89788v24.40194l1.92417.26238a45.86149,45.86149,0,0,0,19.41659-.6997c-6.20981,5.59757-20.29121,20.816-20.02882,35.24724,0,2.71133,1.66178,2.97372,2.36147,2.97372a3.563,3.563,0,0,0,1.92417-.78717,1.20758,1.20758,0,0,1,.34985-.26238c1.92417-1.48685,5.24773-2.36148,8.92114-2.36148a19.96733,19.96733,0,0,1,8.22144,1.66178,2.99528,2.99528,0,0,0,1.57432.34984,2.202,2.202,0,0,0,1.74924-.78716,3.53619,3.53619,0,0,0,.6997-2.62387c-1.04955-10.49545,1.22447-21.953,5.685-28.60012l.6997-1.04955c3.84833-5.59757,11.71992-17.31746,13.20677-27.0258A2.325,2.325,0,0,0,97.87013,97.25785Z" fill="#fff"/><path d="M144.8373,148.0734a2.124,2.124,0,0,1-1.83671-1.22447l4.3731-1.22451A9.2693,9.2693,0,0,1,144.8373,148.0734Zm9.53337-4.28565-.08746-1.83671a13.92623,13.92623,0,0,0-.52477-3.411l-.08746-2.18655-.34985.61223a11.62354,11.62354,0,0,0-11.19515-8.04651c-7.87159,0-13.38171,6.20982-13.38171,15.13091,0,6.82205,3.93579,13.819,12.94439,13.819a14.177,14.177,0,0,0,12.24471-6.73458l.34984-.52478-.34984-6.64712Z" fill="#fff"/><path d="M125.07086,122.1846c-.43732-.6123-.96209-1.31193-1.3994-1.92416a8.74929,8.74929,0,0,0,7.25937-9.0086c0-8.04651-6.64712-14.08146-15.48081-14.08146-17.75481,0-28.42519,12.59455-28.42519,33.673,0,19.15414,8.83367,30.0869,24.05209,30.0869,12.41962,0,21.16583-9.0086,21.16583-22.0404C132.24275,132.41762,127.9571,126.29532,125.07086,122.1846Z" fill="#fff"/><path d="M139.677,139.41464c0-1.74923,0-5.07281,1.92417-5.07281,1.8367,0,2.274,2.79879,2.274,4.28565,0,1.74924-.87462,2.18656-2.18656,2.5364l-2.01162.52478Zm5.24772,10.93277c-2.79878,0-4.3731-2.5364-4.63549-5.07281l11.80739-3.14863c-.34985-5.7725-3.67341-10.93277-9.97068-10.93277-6.64712,0-11.1077,5.24773-11.1077,12.94436,0,6.03489,3.411,11.45754,10.67038,11.45754a11.901,11.901,0,0,0,10.408-5.59761l-2.36148-2.79879C148.5107,148.948,147.11131,150.34741,144.92475,150.34741Z" fill="#006bb6"/><path d="M164.34135,154.89545H151.83427V151.7468l2.274-.34984V141.6012c0-3.49849-.43731-5.16027-2.97371-5.16027V133.7296l8.83367-2.62387a15.88859,15.88859,0,0,1,1.48685,6.3847h.08746c.87462-2.62387,2.01163-6.3847,4.89788-6.3847,2.5364,0,3.67341,2.0116,3.67341,4.37311,0,2.44894-1.04955,4.46057-2.88626,4.46057a7.21352,7.21352,0,0,1-2.97371-.78716c-1.66178-.52478-2.0991,6.47215-2.0991,7.959V151.397l2.18656.34984Z" fill="#006bb6"/><path d="M185.33226,135.74124c0,1.92417-1.74924,2.88625-3.49849,2.88625a4.29949,4.29949,0,0,1-4.02326-3.84833c-.96209,0-1.57432.52477-1.57432,2.01159,0,3.58595,10.23307,1.04959,10.23307,10.23307,0,6.9095-4.98534,8.57128-9.79576,8.57128-2.88626,0-7.95906-.34984-7.95906-4.81042,0-2.01162,1.137-3.49849,3.14865-3.49849,3.06117,0,3.6734,2.79879,4.11072,4.81042a.95.95,0,0,0,1.04954.61224c1.66178,0,2.88626-.61224,2.88626-1.74924,0-4.11072-10.49545-2.5364-10.49545-11.45754,0-5.685,6.73458-8.22144,9.88322-8.22144C182.97078,131.28066,185.33226,132.50508,185.33226,135.74124Z" fill="#006bb6"/><path d="M109.9399,152.88378c-4.46056,0-4.28565-5.685-4.28565-12.24471s.61224-12.2447,4.28565-12.2447c4.46057,0,4.63549,5.685,4.63549,12.2447S113.70078,152.88378,109.9399,152.88378ZM115.45,120.69771c-4.02326,0-8.04651,1.57432-10.23306,4.89788h-.08746l.43732-5.7725c.17492-3.93579,1.04954-14.51871,6.4722-14.51871,2.62387,0,2.01162,3.49848,2.274,5.0728.6997,3.67341,2.36148,7.8716,7.34682,7.8716a6.71216,6.71216,0,0,0,6.997-6.90951c0-7.17189-5.94742-11.8949-13.20677-11.8949-18.62944,0-26.15119,14.25637-26.15119,31.48637,0,14.86856,5.7725,27.813,21.77808,27.813,10.408,0,18.80436-7.43428,18.80436-19.76644.17491-10.49538-5.33521-18.27951-14.43128-18.27951Z" fill="#006bb6"/><path d="M53.96414,99.18206V121.31c12.41962,1.92417,27.28818.61224,37.69618-14.69364.43731-.61223.6997-.17492.43731.43732-2.97371,5.94743-9.88322,11.45754-15.83065,16.18049-5.7725,4.46057-21.2533,20.64106-20.99091,34.98485,0,1.0496,0,.78716.96208,0,4.723-3.49848,13.90648-3.58594,19.50406-.87461.78716.43731.78716.26238.78716-.78722-1.137-11.02018,1.39939-23.09,6.12235-30.08692,3.2361-4.89795,11.98231-17.3175,13.55663-27.11331.17493-1.04951-.43732-.87462-1.66178.52477-9.97068,10.49545-27.90042,10.23307-39.53289-.87462C54.314,98.22,53.96414,98.56983,53.96414,99.18206Z" fill="#ed174c"/><path d="M96.73312,85.88782a21.2533,21.2533,0,1,1-21.2533-21.2533A21.2533,21.2533,0,0,1,96.73312,85.88782Z" fill="#fff"/><polygon points="75.48 65.334 76.18 67.608 78.628 67.608 76.617 69.008 77.317 71.194 75.48 69.882 73.556 71.194 74.255 69.008 72.331 67.608 74.78 67.608 75.48 65.334" fill="#006bb6"/><polygon points="89.649 73.556 90.348 75.83 92.71 75.83 90.873 77.317 91.573 79.503 89.649 78.104 87.725 79.503 88.512 77.317 86.5 75.83 88.949 75.83 89.649 73.556" fill="#006bb6"/><polygon points="83.526 67.258 84.313 69.445 86.675 69.445 84.751 70.844 85.451 73.118 83.526 71.719 81.69 73.118 82.389 70.844 80.465 69.445 82.827 69.445 83.526 67.258" fill="#006bb6"/><polygon points="91.923 81.34 92.71 83.614 95.071 83.614 93.147 85.013 93.847 87.287 92.01 85.888 90.086 87.287 90.786 85.013 88.774 83.614 91.223 83.614 91.923 81.34" fill="#006bb6"/><polygon points="90.961 89.649 91.66 91.835 94.022 91.835 92.098 93.322 92.797 95.509 90.961 94.197 89.124 95.509 89.736 93.322 87.812 91.835 90.261 91.835 90.961 89.649" fill="#006bb6"/><polygon points="86.413 96.208 87.112 98.482 89.561 98.482 87.55 99.882 88.249 102.068 86.413 100.756 84.488 102.068 85.188 99.882 83.264 98.482 85.625 98.482 86.413 96.208" fill="#006bb6"/><polygon points="79.241 99.882 79.94 102.156 82.389 102.156 80.378 103.555 81.077 105.829 79.241 104.43 77.317 105.829 78.016 103.555 76.092 102.156 78.454 102.156 79.241 99.882" fill="#006bb6"/><polygon points="61.049 72.856 60.349 75.13 57.9 75.13 59.824 76.529 59.124 78.716 61.049 77.404 62.973 78.716 62.186 76.529 64.197 75.13 61.748 75.13 61.049 72.856" fill="#006bb6"/><polygon points="66.909 67.258 66.209 69.445 63.847 69.445 65.772 70.844 65.072 73.118 66.909 71.719 68.833 73.118 68.133 70.844 70.145 69.445 67.696 69.445 66.909 67.258" fill="#006bb6"/><polygon points="58.25 80.378 57.638 82.652 55.101 82.652 57.113 84.051 56.413 86.325 58.25 84.838 60.174 86.325 59.474 84.051 61.398 82.652 59.037 82.652 58.25 80.378" fill="#006bb6"/><polygon points="59.037 88.599 58.337 90.873 55.888 90.873 57.9 92.273 57.2 94.547 59.037 93.147 60.961 94.547 60.174 92.273 62.098 90.873 59.737 90.873 59.037 88.599" fill="#006bb6"/><polygon points="63.585 95.334 62.885 97.608 60.436 97.608 62.448 99.007 61.661 101.194 63.585 99.882 65.509 101.194 64.722 99.007 66.734 97.608 64.285 97.608 63.585 95.334" fill="#006bb6"/><polygon points="70.757 99.619 69.97 101.893 67.608 101.893 69.532 103.293 68.833 105.567 70.757 104.167 72.594 105.567 71.894 103.293 73.906 101.893 71.457 101.893 70.757 99.619" fill="#006bb6"/></svg>