<?xml version="1.0" encoding="UTF-8" standalone="no"?>
<svg xmlns:rdf="http://www.w3.org/1999/02/22-rdf-syntax-ns#" xmlns="http://www.w3.org/2000/svg" xml:space="preserve" height="365.4" viewBox="0 0 295.20181 365.39999" width="295.2" version="1.1" xmlns:cc="http://creativecommons.org/ns#" xmlns:dc="http://purl.org/dc/elements/1.1/"><g transform="translate(1.9713 2.6858)"><path d="m145.8 361.4c-80.4 0-145.8-65.4-145.8-145.8 0-39.3 15.5-76.2 43.6-103.9 0.2-0.2 0.5-0.4 0.7-0.6-9.7-14.6-15.1-31.7-11-52.4 7.6-38.1 38.4-49.6 39.7-50.1 0.5-0.2 1-0.3 1.5-0.3 1.6 0 3.2 0.9 4 2.4 0.5 0.9 0.6 2 0.4 3 10.1-8.5 19.7-12.2 23.7-13.5 0.5-0.1 0.9-0.2 1.4-0.2 1.7 0 3.4 1 4.1 2.6 0.9 2.1 0.2 4.5-1.8 5.7-9.2 5.5-17.2 13.1-23.2 21.7 7.3-1.7 12.1-1.9 13.8-1.9h0.9c2.2 0.1 4 1.9 4.2 4.1s-1.2 4.2-3.4 4.8c-0.1 0-12.2 3.1-25.5 12.6-2.5 7.7-3.8 15.7-3.8 23.8 0 15.4 4.9 31.3 13.5 43.4 2 2.8 3.9 5.3 6 7.5-0.8-15.9 3.9-40.5 32.5-51.9 0.5-0.2 1.1-0.3 1.7-0.3 1.7 0 3.2 0.9 4 2.5 1.1 2.1 0.3 4.6-1.7 5.9l-0.2 0.1c-4.3 2.8-8 6.4-10.8 10.6 3-0.9 5.6-1.2 7.3-1.4h0.3 0.5c1.9 0 3.6 1.2 4.2 3 0.7 2-0.1 4.2-1.8 5.3l-0.3 0.2c-9.1 5.3-14.2 11.4-15.1 18.2-1 7.4 3.1 14.4 6 18.4 7.7-8.9 12.6-24 14-29.7 0.5-2 2.3-3.4 4.4-3.4h0.5c2.3 0.3 4 2.2 4 4.4 0.1 18.7-4.9 31.5-10 39.6 7.7 3.8 15.1 4.1 16.8 4.1h0.5 0.2 0.3c1.6 0 9.1-0.2 16.8-4.1-5.1-8.2-10.1-21-10-39.6 0-2.3 1.7-4.2 4-4.4h0.5c2 0 3.9 1.4 4.4 3.4 1.4 5.7 6.4 20.8 14 29.7 3-4 7-11 6-18.4-0.9-6.8-6-13-15.1-18.2-0.1 0-0.3-0.2-0.3-0.2-1.8-1.1-2.6-3.4-1.9-5.3 0.6-1.8 2.3-3 4.2-3h0.5 0.3c1.8 0.2 4.3 0.5 7.3 1.4-2.8-4.2-6.5-7.8-10.8-10.6l-0.2-0.1c-2-1.2-2.7-3.8-1.7-5.9 0.8-1.6 2.4-2.5 4-2.5 0.6 0 1.1 0.1 1.7 0.3 28.5 11.4 33.2 36 32.5 51.9 2.1-2.2 4-4.7 6-7.5 8.6-12.2 13.5-28 13.5-43.4 0-8.1-1.3-16.1-3.8-23.8-13.4-9.6-25.3-12.6-25.5-12.6-2.2-0.5-3.6-2.6-3.4-4.8s2-4 4.2-4.1h0.9c1.7 0 6.6 0.2 13.8 1.9-6.1-8.7-14.1-16.2-23.2-21.7-2-1.2-2.7-3.6-1.8-5.7 0.7-1.6 2.4-2.6 4.1-2.6 0.5 0 0.9 0.1 1.4 0.2 4 1.3 13.6 5 23.7 13.5-0.2-1-0.1-2 0.5-3 0.8-1.5 2.3-2.4 4-2.4 0.5 0 1 0.1 1.5 0.3 1.3 0.5 32.1 12 39.7 50.1 4.1 20.7-1.3 37.8-11 52.4 0.3 0.2 0.5 0.4 0.7 0.6 28.1 27.7 43.6 64.6 43.6 103.9 0.4 80.4-65 145.8-145.4 145.8z" class="st0" fill="#eee1c6"/><path fill="#00471b" d="m104 4.5996c-10.1 3.2-30.6 13.7-42.6 39.6-4.8 3.3-8.9004 7.5-13.4 13 4.6-21.101 15.7-36.2 26.5-44.2 0 0-29.601 10.699-36.801 46.699-8.4 41.9 25.101 68.102 52.201 90.602l-20.6-8.4004c-1.4-0.6-2.4016 0.80039-2.1016 2.4004l0.60156 5.0996c0.3 2.8 2.3992 16.999 10.199 21.299 1.6 0.9 4.4996 2.0016 13.1 2.6016l15.5 1-2.6 8.7 15.2 24.3-7.8-8.2-15.9 56.5 43.6 35.9-13.6-61.7 20.3 24.7 20.1-24.7-13.6 61.7 43.6-35.9-15.9-56.5-7.8 8.2 15.2-24.3-2.5996-8.6992 15.5-1c8.5-0.6 11.4-1.7016 13.1-2.6016 7.8-4.3 9.8992-18.499 10.199-21.299l0.59961-5.0996c0.3-1.6-0.69961-3.0004-2.0996-2.4004l-20.6 8.4c27.1-22.5 60.599-48.702 52.199-90.602-7.2-35.999-36.8-46.698-36.8-46.698 10.9 8 21.9 22.999 26.5 44.199-4.4-5.5-8.5004-9.7-13.4-13-12.1-25.9-32.5-36.399-42.6-39.599 13.1 7.9 24 19.599 30.6 33.099-15.1-5.4-24.199-4.8984-24.199-4.8984s13.499 3.2992 28.199 14.199c2.9 8.4 4.5 17.3 4.5 26.6 0 16.3-5.3004 33.1-14.4 46-5.1 7.2-10.099 12.201-16.199 16.801 2-5.1 9.8004-44.6-27.6-59.6l0.3 0.199c8.9 5.7 15.4 14.6 18 25.1-6.8-6.6-13.999-7.1992-17.799-7.6992 0.1 0 0.0992 0.09961 0.19922 0.09961 34.7 20 7.0996 47.1 7.0996 47.1-10.9-9.2-17.299-29.699-18.699-35.299-0.1 21.7 7.1 34.7 12 41-11.2 7.7-23.701 7.1992-23.701 7.1992s-12.499 0.50078-23.699-7.1992c4.9-6.3 12.1-19.3 12-41-1.4 5.6-7.7992 26.099-18.699 35.299 0 0-27.6-27.1 7.0996-47.1 0.1 0 0.0992-0.09961 0.19922-0.09961-3.8 0.5-10.999 1.1992-17.799 7.6992 2.7-10.5 9.2-19.4 18-25.1l0.29883-0.19922c-37.4 15-29.6 54.499-27.6 59.599-6.1-4.6-11.099-9.6008-16.199-16.801-9.1-12.8-14.4-29.6-14.4-46 0-9.3 1.6-18.3 4.5-26.6 14.7-10.9 28.199-14.199 28.199-14.199s-9.0992-0.50156-24.199 4.8984c6.699-13.499 17.599-25.198 30.599-33.098zm-57.301 110.3c-26 25.7-42.199 61.299-42.199 100.7 0 77.9 63.401 141.3 141.3 141.3 77.9 0 141.3-63.401 141.3-141.3 0-39.4-16.099-74.999-42.199-100.7l-3.0996 3.7988c25 24.7 40.398 59 40.398 96.9 0 75.3-61.1 136.4-136.4 136.4-75.299 0-136.4-61.1-136.4-136.4 0-37.9 15.5-72.2 40.4-96.9l-3.1016-3.7988zm6.801 7.2c-24.1 23.9-39.1 57-39.1 93.5 0 72.4 58.9 131.4 131.4 131.4 72.4 0 131.4-58.9 131.4-131.4 0-36.5-14.9-69.499-39-93.299l-3.3984 3.5996c22.9 22.9 37.398 54.799 37.398 89.699 0 8.1-0.79922 16-2.1992 23.6l-39.1-10.799c-6.2 41.8-42.201 74-85.701 74-43.3 0-79.3-31.9-85.6-73.5l-38.1 10.3c-1.4-7.7-2.1992-15.5-2.1992-23.6 0-34.8 14.7-67.2 37.6-90.1l-3.401-3.4z"/><path fill="#eee1c6" d="m56.801 58.4c-1.3 1.4-2.6008 2.7988-3.8008 4.2988-11.6 15.1 5.5 42.102 5.5 42.102s-6.3992-29.2-1.6992-46.4zm177.9 0c4.9 17.2-1.5996 46.4-1.5996 46.4s17.1-27.002 5.4004-42.102c-1.2-1.5-2.5008-2.9988-3.8008-4.2988z"/><path fill="#fff" d="m74.5 149.2s1.5008 12.702 6.8008 15.602c3.6 2 12.3 1.7984 20 2.3984-8.5-3.3-21.001-12.3-26.801-18zm142.6 0c-5.9 5.7-18.299 14.7-26.799 18 7.6-0.6 16.4-0.39844 20-2.3984 5.3-2.9 6.7988-15.602 6.7988-15.602zm-45.979 19.076c-0.20937-0.0125-0.42109 0.025-0.62109 0.125-4.2 1.9-8.3 3.7988-10.5 4.7988-0.9 0.4-1.1004 1.6012-0.40039 2.2012 2.1 2.1 6.0012 4.1 10.701 0.5 2.5-1.9 2.4992-4.7 2.1992-6.5-0.15-0.6-0.75078-1.0875-1.3789-1.125zm-50.641 0.0859c-0.62344 0.0141-1.2062 0.46367-1.2812 1.1387-0.3 1.8-0.29883 4.6 2.2012 6.5 4.6 3.6 8.5992 1.6 10.699-0.5 0.6-0.7 0.4-1.7992-0.5-2.1992-2.2-1-6.4-2.9008-10.5-4.8008-0.2-0.1-0.41133-0.14336-0.61914-0.13867zm20.619 9.7383l-4.1 13.39s-1.3992 5.3-7.1992 9l-2.5 11 6.0996 8.3008h6.5l-6-8.9004 1-5.5c2.7 2.9 6.6004 4.7988 10.9 4.7988 4.3 0 8.1984-1.7988 10.898-4.7988l1 5.5-6 8.9004h6.5l6.1016-8.3008-2.5-11c-5.8-3.7-7.2012-9-7.2012-9l-4.1-13.4-4.6992 2.3008-4.7012-2.3008zm-4.1 46.79l4.1992 5.6992h9.2012l4.1992-5.6992h-17.6zm100.4 11.699-3.5 11.5-1 3.2012 13.1 3.8984 3.3008 1 3.0996-10.199 8.0996 2.4004-1.6992 5.6992-3.5-1.0996-1.4004 4.5 4.9004 1.5 3.2988 1 4.4004-14.801-3.3008-0.69922-10.898-3.3008-3.3008-1-3.0996 10.201-7-2.0996 1.6992-5.7012 3.5 1 1.4004-4.5-4.8008-1.5-3.2988-1zm-183.2 0.70117-29 10 1.5 4.5l18.3-6.3-6.5 5.4004 8.4004 0.29883-18.201 6.3008 1.5 4.5 29-10-1.5996-4.5-8.4004-0.30078 6.5-5.3984-1.5-4.5zm177.2 15.8-2.4 4.4l5.5996 7.5996-7.5-4-2.1992 4.2012 27.1 14.4 2.2-4.2-11.8-6.3 14.2 1.8 2.3008-4.4004-19.5-2.5996-8-10.9zm-170.2 2.9-27.199 14.2 2.199 4.2 27.201-14.2-2.201-4.2zm4.3008 8.4004-24.9 17.9 8.5996 12 4-2.9004-5.7988-8.2012 20.9-14.898l-2.801-3.9zm157.9 3.6l-9.5996 12 2.6992 2.1992 21.1 16.9 2.0996-2.5996 7.5-9.4004-2.7-2.1-4.5-3.8008-2.9004 3.7012 3.5 2.7988-3.6992 4.7012-16.201-12.9 3.7012-4.6992 3.4004 2.6992 2.8984-3.6992-4.5996-3.6016-2.7-2.2zm-149.8 7.7-19.6 23.7l3.1992 3.1992 8.4004-5.7988-5.6992 8.5 3.199 3.2 23.4-19.9-2.9-3.1-9.9004 8.0996 7.1016-10.9-1.1016-1.0996-10.799 7.2012 7.9004-10-3.2012-3.1016zm137.6 7.1016-3.6992 3 16.699 19.5-4.5996 3.7988-16.5-19.6-3.5996 3.0996 19.5 23.5 2.6992-2.2988 6.7012-5.6016 2.5-2.0996-19.701-23.299zm-122.3 7.5-0.09961 0.0996-16.4 25.699 4 2.5 7.1992-11.299 5 3.1992-7.1992 11.301 4 2.5 13.9-21.701 1.5996-2.5 0.90039-1.4004 0.0996-0.0996-13-8.2988zm104.4 6.0996-10.602 5.6992 14.5 26.801 10.602-5.7012 1.2988-4.5-4.5-8.2988-2.6992-1.2012 0.5-3-4.7012-8.5996-4.3984-1.1992zm-103.1 0.6l5 3.1992-4 6.3008-5-3.1992 4-6.3008zm14 3.0996-11.1 28.4 3.3008 1.3008 8.1992 3.0996 3.0996 1.1992 11-28.5-4.5-1.6992-9.1992 23.9-5.5996-2.1016 9.1992-23.898-4.4004-1.7012zm90.301 1.3008 3.5 6.5-5.3008 2.7988-3.5-6.5 5.3008-2.7988zm-23.199 4.6992-14.5 2.8008 5.8984 29.9 14.5-2.8008-0.89844-4.8008-9.9004 1.9004-1.7012-8.4004 9.8008-1.8984-0.90039-4.7012-9.7988 1.9004-1.4004-7.1992 9.7988-1.9004-0.89844-4.8008zm-49.201 0.30078-5.2988 30.199 4.6992 0.80078 2.3008-13.201 2.6992 14 4.9004 0.90039-3.5996-19.299 7.8984-11-4.8984-0.90039-5.5 7.6992 1.5-8.4004-4.7012-0.79883zm31.4 2.7988-14.699 0.20117 0.5 30.5 14.699-0.20117-0.0996-4.8984-10 0.29883-0.0996-8.5996 10-0.19922-0.10156-4.8008-10 0.19922-0.0996-7.3984 10-0.20117-0.0996-4.9004zm46.699 2.9004 4.1016 7.5-5.3008 2.8008-4.0996-7.5 5.2988-2.8008z"/></g></svg>
