<?xml version="1.0" encoding="UTF-8" standalone="no"?>
<svg xmlns:rdf="http://www.w3.org/1999/02/22-rdf-syntax-ns#" xmlns="http://www.w3.org/2000/svg" xml:space="preserve" height="257.93" viewBox="0 0 127.00017 257.93487" width="127" version="1.1" xmlns:cc="http://creativecommons.org/ns#" xmlns:dc="http://purl.org/dc/elements/1.1/"><g transform="matrix(1.25 0 0 -1.25 -37.812 404.35)"><g fill-rule="evenodd" transform="matrix(4.8621 0 0 4.8621 -309.18 -847.02)"><path d="m13.549 0-0.62109 1.3633c-0.5225 1.1438-0.77008 2.3435-0.89258 3.5723-0.11875 1.2025-0.11875 2.4683-0.125 3.8008l-0.098 10.596c-3.8225 1.5838-7.3924 3.8795-9.5137 5.627-0.0475 0.075-1.0745 1.6614-1.6582 2.5664 0.80625-0.19875 2.8672-0.70703 2.8672-0.70703l-0.66602 0.83984c-4.035 5.0675-2.6439 8.2998-2.4727 8.6523l0.009766 0.01953 0.007813 0.01953c0.41875 1.1712 1.3822 2.0684 2.8672 2.6621 0.97625 0.38875 2.1832 0.54391 3.6895 0.47266 1.515-0.07 3.1059-0.40352 4.6934-0.91602l-0.0078 1.0391c-1.3612 0.7425-2.458 2.041-3.043 3.6035-0.2225 0.6125-0.36273 1.267-0.39648 1.9395-0.005 0.11-0.00297 0.48203-0.042969 0.98828-0.03875 0.4775-0.11727 1.0805-0.29102 1.6855l-0.095703 0.3418-0.35938 0.8418c0.035 0.1425 1.0078-0.1843 1.4453-0.3418 0.06625-0.02375 0.16367-0.06547 0.29492-0.13672 0.2325-0.13 0.535-0.34367 0.90625-0.70117 0.225-0.2175 0.42766-0.46781 0.59766-0.69531 0.165-0.22 0.31742-0.43859 0.45117-0.62109 0.19125-0.26375 0.36938-0.5293 0.54688-0.7793l0.01367 2.2539 0.0078 1.498v0.40234c-0.0675 0.09625-0.14867 0.22195-0.23242 0.37695-0.20125 0.37-0.6943 1.573-0.74805 2.248-0.0125 0.16125 0.46375 0.13766 1.1562 0.09766 0.095-0.0037 0.23148-0.01656 0.39648-0.03906 0.3175-0.0425 0.74523-0.12086 1.1777-0.25586 0.775-0.24125 2.017-0.79688 2.1895-2.0469l0.0625-0.44336 0.02734-0.22656c1.5338-1.4138 1.9519-2.9338 1.8906-4.2051-0.02125-0.44875-0.10383-0.86094-0.20508-1.2109l0.5957 0.10156 0.69922 0.12109 0.12305-0.70117c0.415-2.3975-0.94453-4.3868-3.6445-4.7793v-1.373l0.002-0.40039c2.6538-1.2775 5.1161-2.9243 6.9648-4.5293l0.59375-3.082c-0.42375 0.235-0.93945 0.5-0.93945 0.5l-0.01563 0.0078c-2.5475 1.1162-4.8673 2.0018-6.6035 2.623l0.0039-9.8203c0.44-0.24875 0.87125-0.46617 1.2812-0.63867 1.2738-0.5375 2.2659-0.83258 2.6484-0.73633 0.3825 0.095 0.26758 0.5293 0.26758 0.5293-0.1175 0.36875-0.26156 0.74602-0.50781 1.2285-0.1375 0.27125-1.0334 2.2163-1.6172 3.3613 1.8-1.0275 5.6635-3.5091 8.4785-5.1504v-1.582c-0.1275-0.12875-0.37109-0.37695-0.37109-0.37695-2.4962-2.3738-6.2922-2.387-10.18-1.3145l0.002-9.6133c0.0062-1.3312 0.02031-2.6005-0.08594-3.7793-0.107-1.2071-0.344-2.3744-0.865-3.4356l-0.66-1.3438zm-1.791 25.318-0.07617 8.5137c-2.4438 0.73875-3.8253 0.93406-4.8516 0.69531l-0.011719-0.002-0.13672-0.04102-0.011719-0.0059c-0.4075-0.15875-0.52695-0.52695-0.5332-0.7207-0.0575-2.4025 4.5709-7.4031 4.6172-7.4531 0.30875-0.33125 0.64641-0.66258 1.0039-0.98633z" transform="matrix(.8 0 0 -.8 69.966 240.56)" fill="#ffb81c"/><path d="m19.342 17.838c-1.3395 0.03962-2.7553 0.29406-4.1836 0.69531v2.2363c2.925-1.4012 6.2536-1.8046 3.9961 2.6191l5.9512-3.6504c-1.5109-1.4375-3.5311-1.9664-5.7637-1.9004zm-7.5332 1.877c-3.7863 1.5875-7.2978 3.8603-9.2891 5.5078 1.2762-0.35625 2.5798-0.63664 3.8711-0.93164-14.198 13.576 0.23398 18.979 15.521 6.0645-5.4038 2.3725-9.7539 3.6895-9.7539 3.6895-11.192 3.484-7.6118-3.79-2.5018-9.233 0.36-0.38375 1.1693-1.1555 2.123-1.918l0.0293-3.1797z" transform="matrix(.8 0 0 -.8 69.966 240.56)" fill="#6f2633"/><path d="m87.411 214.66c-3.121-2.71-7.916-5.221-11.903-5.407-0.934-0.044-1.96 0.011-2.836 0.36-1.197 0.479-1.86 1.171-2.143 1.981 0.369-0.486 0.932-0.904 1.736-1.226 0.876-0.35 1.903-0.404 2.836-0.36 4.303 0.201 9.545 3.108 12.611 6.052l-0.301-1.4zm-14.437 4.7842c-0.621-0.151-1.25-0.307-1.812-0.445 0.079 0.104 0.657 0.896 0.788 1.07 0.686 0.159 1.39 0.318 2.029 0.466-0.307-0.309-0.651-0.678-1.005-1.091m17.331 5.0996 0.013-1-5.879-3.557c0.064 0.064 0.728 1.347 0.766 1.437l5.1 3.12zm-7.7022-0.7373c-0.167-0.07-0.339-0.15-0.511-0.236v-0.967c0.311 0.171 0.618 0.322 0.918 0.448 1.057 0.445 1.962 0.728 2.46 0.567 0.074 1.183-1.209 0.887-2.867 0.188m-3.2168-2.0186c-0.529-0.433-1.018-0.885-1.425-1.322-1.151-1.238-3.807-4.462-3.767-6.157 0.011-0.443 0.168-0.753 0.424-0.963-0.01 0.066-0.015 0.135-0.018 0.209-0.04 1.694 2.617 4.919 3.768 6.156 0.298 0.32 0.639 0.648 1.008 0.971l0.01 1.106zm2.134-12.874-0.001 1.667c-0.265-0.12-0.533-0.235-0.801-0.344l-0.004-1.715c-0.001-0.334-0.542-0.39-0.52-0.142l0.01 1.656c-0.121-0.046-0.243-0.091-0.364-0.134l-0.007-1.36-0.068-0.047c-1.06-0.496-1.941-1.475-2.382-2.652-0.005-0.014-0.011-0.029-0.016-0.044-0.16-0.438-0.259-0.904-0.283-1.382-0.009-0.18 0.013-1.218-0.287-2.267 0.001 0.004 0.278 0.046 0.813 0.562 0.296 0.285 0.562 0.689 0.773 0.98 0.489 0.671 0.88 1.356 1.458 1.65l0.004-0.601c0.007-1.147 0.023-4.26 0.021-4.274-0.004-0.017-0.494-0.534-0.563-1.421-0.003-0.037 2.411 0.134 2.584 1.384 0 0-0.465 0.305-0.45 0.316 3.399 2.358 1.509 5.188 1.509 5.188 0.823-0.118 1.28-0.197 1.498-0.235 0.296 1.71-0.72 3.117-2.924 3.215m-1.309-8.928c0.004-0.027-0.306-0.215-0.585-0.644 0.123 0.32 0.268 0.642 0.481 0.919 0.347-0.076 0.731 0.139 1.052 0.279-0.423-0.534-0.679-0.49-0.948-0.554m-0.045 0.661 0.019 4.886c0.038 0.038 0.333 0.174 0.451 0.183l-0.041-5.022c-0.001-0.208-0.43-0.206-0.429-0.047m1.004 0.56c1.058 2.546 0.287 4.438 0.297 4.471 1.307-0.192 1.74-3.032-0.297-4.471m1.363 0.977c0.499 1.058 0.647 2.919-0.508 3.75l0.394-0.004c1.159-0.928 0.645-3.324 0.114-3.746m1.501 4.008c-1.901 0.52-4.124 0.054-5.136-1.171-0.419-0.502-0.794-1.243-1.532-2.006 0.158 0.918 0.15 1.216 0.177 1.547 0.119 1.468 0.884 2.704 2.414 3.437h0.003c0-0.016-0.001-0.031 0.001-0.046 0.03-0.241 0.368-0.398 0.757-0.35 0.313 0.039 0.559 0.199 0.628 0.386 0.001 0.002 0.003 0.005 0.005 0.008 0.548-0.119 1.031-0.406 1.242-0.737-0.985 0.043-2.425-0.28-3.609-1.65 1.627 1.292 3.497 1.299 4.697 0.997 0.041 0.719-0.939 1.481-1.482 1.78 0.978-0.319 2.024-1.173 1.835-2.195m-3.8106 7.5957 0.095 17.075 0.021 4.444c0.083-0.157 0.393-0.775 0.421-2.961l-0.03-18.389c0.232 0.078 0.496 0.168 0.788 0.27l0.008 19.496c0.011 2.092 0.049 3.99-0.702 5.517-0.767-1.681-0.753-3.574-0.764-5.667l-0.167-19.891c0.09 0.028 0.2 0.064 0.33 0.106" fill="#041e42"/></g></g></svg>
