<?xml version="1.0" encoding="UTF-8" standalone="no"?>
<svg xmlns:rdf="http://www.w3.org/1999/02/22-rdf-syntax-ns#" xmlns="http://www.w3.org/2000/svg" height="268.60722" width="216" version="1.1" xmlns:cc="http://creativecommons.org/ns#" xmlns:dc="http://purl.org/dc/elements/1.1/" viewBox="0 0 216 268.60722"><path d="M149.64,217.48723h3.96v-17.4h5.16v17.4h4.44v-21.72H149.64Zm15.48,0h4.08v-44.28h-4.08Zm-38.52-27v-7.44h2.76c1.32,0,2.4,1.32,2.4,3v1.44c0,1.68-1.08,3-2.4,3Zm9.24-1.08v-4.8a5.19082,5.19082,0,0,0-5.4-5.28h-8.28v15.12h8.28C133.08,194.44719,135.84,192.88719,135.84,189.40721Zm7.32-9.48v37.56006h4.56v-44.28h-6.96Zm62.04,3.96-2.16-.12c-1.92,0-3-.84-3-2.88v-5.87994a1.77072,1.77072,0,0,1,1.56-1.92h.72a1.77073,1.77073,0,0,1,1.56,1.92v4.43994h5.04v-4.2a7.1231,7.1231,0,0,0-1.68-5.04c-1.2-1.32-3-1.92-5.52-1.92q-3.42,0-5.04,1.8a6.00035,6.00035,0,0,0-1.44,4.08c0,4.08,0,8.64.12,9.12.12,1.08.6,3.36,4.2,4.32a19.07213,19.07213,0,0,0,3.12.48c3.48.24,8.28.6,8.28,7.32v9.96c0,.12-.36,7.31995-9.12,7.31995-8.64,0-8.64-6.36-8.64-9.12v-4.8h-5.16v6.96c0,8.4,6.48,11.64,12.24,11.64h3c7.44,0,12.72-4.56006,12.72-11.88v-10.92C216,186.6472,210.72,183.88719,205.2,183.88719Zm-74.16-10.32H114l2.28,6.48v37.2h3.96v-39.84h10.2a7.15845,7.15845,0,0,1,7.32,7.2v4.8c0,4.56-3.72,6.96-7.32,6.96h-8.28v20.88h4.44v-17.28s5.4-.12,5.52-.12c6,0,9.36-5.4,9.36-10.44l.12-6.48C141.6,176.80717,136.2,173.56718,131.04,173.56718Zm69.48,20.64c4.08,0,3.48,2.64,3.48,5.4v4.56a1.77914,1.77914,0,0,1-1.68,1.92h-.6a1.86005,1.86005,0,0,1-1.68-1.92v-5.4h-4.92v4.8c0,2.88,0,7.2,6.72,7.2,6.96,0,7.2-5.16,7.2-5.4v-9.96c0-4.68-2.52-5.16-6.48-5.4-1.2-.12006-2.4-.24005-3.6-.48-4.68-1.32-5.28-4.68-5.52-5.88-.12-.84,0-7.32,0-9.36a7.68063,7.68063,0,0,1,1.92-5.52,8.31859,8.31859,0,0,1,6.36-2.4c3,0,5.4.84,6.96,2.64a8.87415,8.87415,0,0,1,2.16,5.87994v4.56h5.04v-7.08c0-6.6-5.4-11.04-12.36-11.04h-2.4c-6.84,0-13.08,3.6-13.08,11.28v10.2C188.04,190.36723,195,194.2072,200.52,194.2072Zm-26.76-13.8.12,36.84h4.68v-43.92h-7.32Zm6.72-7.08v43.92h4.68v-43.92Zm-148.44-11.88H0l2.64,7.2v48.24H7.32v-51l23.88.12006c3.96,0,7.56,2.87994,7.56,8.52v42.36h4.2v-45.24C42.96,165.16722,37.56,161.44719,32.04,161.44719Zm-22.8,55.44H13.8v-44.16h3.72v44.16H22.2v-48.96c-5.64,0-12-.12-12.96-.12Zm48.96-16.08h8.4v-4.67993H54v14.28H71.4v-4.2H58.2Zm100.56-10.31995H153.6v-17.28h-3.96v20.64H163.2v-20.64h-4.44Zm-56.4-16.92H73.32l2.4,6.6v36.96h4.2v-39.6h21.84c3.6,0,6.72,2.76,6.72,7.92v31.68005h3.84V182.80717C112.32,176.92717,107.4,173.56718,102.36,173.56718ZM54,194.2072H66.6v-4.44H58.2v-5.16H71.4v-4.56H54Zm-22.8-26.28H24.12v48.96h4.44v-44.16h1.68a2.02708,2.02708,0,0,1,1.68,2.16l-.12,42h5.04v-42.36C36.84,170.2072,34.2,167.92717,31.2,167.92717Zm50.64,49.20007h4.08v-33.36h3.36v33.36h4.08V179.44719H81.84Zm19.92-37.68005H95.28v37.68005h4.08v-33.36h1.44c.84,0,1.44.84,1.44,2.04v31.32007h4.32V185.44719C106.56,181.36723,104.28,179.44719,101.76,179.44719Zm-54.36,0v37.56006c2.16,0,24-.12006,24-.12006v-4.56H52.08v-34.2H71.4v-4.8H45.12Z" fill="#00285e"/><path d="M147.72,217.48723v-44.28h1.92v20.64H163.2v-20.64h1.92v44.28H163.2v-21.72H149.64v21.72Zm-11.88-28.08v-4.8a5.19081,5.19081,0,0,0-5.4-5.28h-8.28v15.12h8.28C133.08,194.44719,135.84,192.88719,135.84,189.40721Zm59.28,9.36v4.8c0,2.88,0,7.2,6.72,7.2,6.96,0,7.2-5.16,7.2-5.4v-9.96c0-4.68-2.52-5.16-6.48-5.4-1.2-.12006-2.4-.24005-3.6-.48-4.68-1.32-5.28-4.68-5.52-5.88-.12-.84,0-7.32,0-9.36a7.68059,7.68059,0,0,1,1.92-5.52,8.31871,8.31871,0,0,1,6.36-2.4c3,0,5.4.84,6.96,2.64a8.87423,8.87423,0,0,1,2.16,5.87994v4.56h-1.92v-4.2a7.12307,7.12307,0,0,0-1.68-5.04c-1.2-1.32-3-1.92-5.52-1.92q-3.42,0-5.04,1.8a6.0004,6.0004,0,0,0-1.44,4.08c0,4.08,0,8.64.12,9.11993.12,1.08008.6,3.36,4.2,4.32007a19.07181,19.07181,0,0,0,3.12.48c3.48.24,8.28.6,8.28,7.32v9.96c0,.12-.36,7.31995-9.12,7.31995-8.64,0-8.64-6.48-8.64-9.12v-4.8Zm-74.88,18.48v-39.84h10.2a7.15843,7.15843,0,0,1,7.32,7.2v4.8c0,4.56-3.72,6.96-7.32,6.96h-8.28v20.87994Zm58.32-43.92h1.92v43.92h-1.92Zm-171.24,43.56v-51l23.88.12006c3.96,0,7.56,2.87994,7.56,8.52v42.36H36.84v-42.36c0-4.32-2.64-6.6-5.64-6.6H24.12v48.96H22.2v-48.96c-5.64,0-12-.12-12.96-.12v49.08Zm64.08-36.84H54v14.16H66.6v1.92H54v14.28H71.4v1.92H52.08v-34.2H71.4Zm8.52,37.08v-39.6h21.84c3.6,0,6.72,2.75995,6.72,7.92v31.68005h-1.92V185.44719c0-4.08-2.28-6-4.8-6H95.28v37.68005H93.36V179.44719H81.84v37.68005Z" fill="#6189b9"/><path d="M184.92,39.88719c-.72-1.08-1.44-2.04-2.04-3.12,17.4-28.68-23.88-50.64-38.76-26.28-18.36-3.36-33.72,3.36-35.88,4.32a64.13844,64.13844,0,0,0-35.4-4.44c-18.12-25.32-55.32.96-38.88,26.16-.84,1.08-1.56,2.16-2.4,3.36-23.28,35.4-5.76,59.52-5.76,59.52l3.6-3.6s5.04,24.72,32.04,41.04l.96-5.4c16.56,17.76,31.92,17.4,46.2,33.6,13.32-15.36,32.52-15.36,47.52-34.55994v6.84c27.6-13.44,30.24-42.6,30.24-42.6l2.52,4.68S208.2,75.28721,184.92,39.88719Z" fill="#00285e"/><path d="M126.24,64.96721c1.32-.48,3.6.96,4.8,3.24,5.64-1.56,5.28-9.12,5.28-9.72A39.54392,39.54392,0,0,0,126.24,64.96721Z" fill="#fdb927"/><path d="M129.6,69.40721c13.56,36.6-3.72,60.12-3.72,60.12,10.68-27.84,3.72-51.12-.84-59.76a44.34426,44.34426,0,0,1-5.28.12,54.49328,54.49328,0,0,0,5.88-4.32l.6-.6h0c1.32-.48,3.6.96,4.8,3.24,5.64-1.56,5.28-9.12,5.28-9.6a15.58914,15.58914,0,0,1,5.16-1.32S140.28,69.28721,129.6,69.40721Zm6.72-10.8Zm-90.6-24.72c-.48-4.56,5.28-9.12,5.28-9.12-2.4-2.52-6.6-.36-6.6-.36,3.84-7.44,12.36-3.84,12.36-3.84-3.24-3.96-10.08-3.72-10.08-3.72,8.52-8.4,18.72,4.44,18.72,4.44C56.28,23.32719,45.72,33.88719,45.72,33.88719Zm105.24-11.64s5.64-13.8,22.56-10.44c0,0-15.6-10.32-26.4,8.28,0,0-15.36-7.32-38.52,2.64,0,0-21.96-7.68-38.4-3.24,0,0-9.72-16.8-23.28-9.84-13.56,6.84-6.48,22.8-4.08,26.88,0,0-22.56,22.92-14.04,51.36l4.44-5.76s6.48,30.96,23.16,40.68l.96-7.55994s17.52,21,37.92,29.88c1.92.96,12.84,6.24,13.2,9v-14.76s-14.28,1.2-18-5.4c-2.52-4.44-18.84-33.6-10.8-64.08,0,0-7.8-1.2-9.36-14.4a27.60871,27.60871,0,0,0-13.08-2.28s12.96-4.08,25.2.6c12.24,4.8,15.48,16.8,23.76,11.52l2.4-33.96,2.28,33.96c8.28,5.28,11.64-6.72,23.76-11.52,12.24-4.68,25.32-.6,25.32-.6a40.41109,40.41109,0,0,0-13.68-5.28c-6.96-1.44-17.16,3-17.16,3s1.32-9.6,6-14.64C139.2,31.84721,148.2,30.88719,150.96,22.24724Zm-42.48,79.31995c1.56-.24,26.16-1.2,11.04,14.16C130.08,101.80717,111,101.68718,108.48,101.56718Z" fill="#6189b9"/><path d="M81.36,58.48723c0,.6-.36,8.16,5.28,9.72,1.2-2.28,3.36-3.6,4.68-3.24A64.21137,64.21137,0,0,0,81.36,58.48723Z" fill="#fdb927"/><path d="M108.48,120.04716v6.96l-4.8.24005a50.875,50.875,0,0,0-11.4,2.16c-12-29.88-5.4-52.32-2.16-60.36-11.88,2.52-13.8-11.76-13.8-11.76,1.2-.24,3,.24,5.04,1.2,0,.6-.36,8.16,5.28,9.72,1.2-2.28,3.36-3.6,4.68-3.24.84.72,1.68,1.32,2.4,1.92,8.16,6.84,14.4,5.52,14.4,5.52s.12,25.92.12,29.16c0,0-23.52-1.92-10.92,14.16,0,0,2.04-5.88,4.2-4.08C104.52,114.28721,108.48,119.44719,108.48,120.04716ZM81.36,58.48723Zm27.12,77.4c-17.16,0-14.88-3.84-14.88-3.84,1.92-1.08,13.92-1.31995,14.88-1.31995.84,0,12.96.24,14.76,1.31995C123.24,132.04716,125.64,135.88719,108.48,135.88719Z" fill="#b8cfe9"/><path d="M57.84,237.04716l-9.12-3.36v3.84l-6.96,19.2,5.52,1.92,3.24-8.88,1.56.6c.48.12.72.72.48,1.43994l-2.88,7.8,5.4,1.92,2.88-8.04a3.27668,3.27668,0,0,0-.36-3.36s1.8-.24,2.76-3l1.32-3.24C62.88,240.76719,60.6,238.00719,57.84,237.04716Zm-1.92,6.6-.24.72a1.65091,1.65091,0,0,1-1.92,1.08l-1.56-.6,1.44-3.84,1.56.6A1.50446,1.50446,0,0,1,55.92,243.6472Z" fill="#6189b9"/><path d="M169.8,239.44719l-1.92-5.4-13.56,4.68,2.28,2.76,6.84,19.43994c1.08-.36,12.36-4.31995,12.36-4.31995l-1.92-5.28-6.84,2.28c-.24-.48-1.08-3.12-1.08-3.12l4.32-1.56006-1.92-5.52-4.32,1.56-1.08-3.12Z" fill="#6189b9"/><polygon points="131.88 261.887 130.08 243.527 122.88 244.247 124.68 247.847 126.6 267.887 140.76 266.567 140.28 261.167 131.88 261.887" fill="#6189b9"/><polygon points="68.88 244.247 68.4 240.167 75.36 241.607 70.44 265.127 64.8 263.927 68.88 244.247" fill="#6189b9"/><polygon points="143.76 245.207 141.72 241.727 148.56 240.287 153.6 263.687 147.96 264.887 143.76 245.207" fill="#6189b9"/><polygon points="96.36 244.487 81.96 242.927 81.36 249.647 85.44 248.567 87.72 248.807 79.56 266.807 93.84 268.247 94.32 262.727 88.2 262.127 96.36 244.487" fill="#6189b9"/><polygon points="116.28 244.727 101.88 244.727 101.88 251.327 105.84 250.007 108.12 250.007 101.76 268.607 116.16 268.607 116.16 263.207 109.92 263.207 116.28 244.727" fill="#6189b9"/><path d="M187.56,241.84721l1.2,1.8a.75938.75938,0,0,1-.12,1.08l-.72.48a.73225.73225,0,0,1-1.08-.36l-1.32-1.92-4.56,2.88,1.8,2.64c2.04,3.12,5.16,2.76,7.44,1.32l1.56-1.08c2.76-1.8,3.6-4.8,1.8-7.56l-2.76-4.08c-1.92-3-4.56-2.64-6.6-1.31995l-1.32.84a1.269,1.269,0,0,1-1.92-.36l-1.44-2.16a.90939.90939,0,0,1,.12-1.2l.72-.48a.96767.96767,0,0,1,1.08.36l1.2,1.68,4.44-3-1.8-2.64c-1.68-2.52-4.68-2.76-7.32-1.08l-1.32.96c-2.64,1.68-4.08,4.56-2.16,7.44l2.52,3.84c1.92,2.88,5.4,2.52,7.56,1.2C186.36,239.80717,186.96,240.88719,187.56,241.84721Z" fill="#6189b9"/><path d="M34.2,248.44719a5.41818,5.41818,0,0,1-7.68,1.44l-2.4-1.56a5.43235,5.43235,0,0,1-1.56-7.8l7.8-11.76a5.5408,5.5408,0,0,1,7.8-1.44l2.4,1.68005a5.49,5.49,0,0,1,1.56,7.67993l-1.56,2.28-4.8-3.12.96-1.44c.36-.6.36-1.32,0-1.56l-.84-.48c-.36-.24-.96,0-1.32.48,0,0-.36.6-.96,1.56-1.08,1.56-5.76,8.52-5.76,8.52-.36.6-.36,1.20007,0,1.44006l.84.6c.36.24.96,0,1.32-.6l1.8-2.64-.84-.48,2.28-3.36,5.64,3.72Z" fill="#6189b9"/></svg>