<?xml version="1.0" encoding="UTF-8" standalone="no"?>
<svg xmlns:rdf="http://www.w3.org/1999/02/22-rdf-syntax-ns#" xmlns="http://www.w3.org/2000/svg" height="243" width="243" version="1.1" xmlns:cc="http://creativecommons.org/ns#" xmlns:dc="http://purl.org/dc/elements/1.1/" viewBox="0 0 243 243"><path d="M121.56,243C54.48,243,0,188.52,0,121.55994A121.6314,121.6314,0,0,1,121.56,0C188.52,0,243,54.48,243,121.55994A121.58047,121.58047,0,0,1,121.56,243Z" fill="#e03a3e"/><path d="M121.56,237.48a115.92,115.92,0,1,1,115.92-115.92C237.48,185.4,185.4,237.48,121.56,237.48Z" fill="#fff"/><path d="M121.56,231.84a110.28,110.28,0,1,1,110.28-110.28A110.36457,110.36457,0,0,1,121.56,231.84Z" fill="#e03a3e"/><polygon points="82.2 28.32 84.24 33.12 78.36 30 75 31.56 81.84 47.04 85.2 45.6 80.88 35.76 86.88 39 89.04 43.92 92.4 42.48 85.44 26.88 82.2 28.32" fill="#fff"/><polygon points="154.32 25.68 151.8 33.72 147.72 32.4 150.36 24.48 146.88 23.4 144.36 31.32 143.16 30.96 143.64 33.36 141.72 39.6 145.2 40.68 146.76 35.52 150.84 36.84 149.16 42 152.64 43.08 157.8 26.88 154.32 25.68" fill="#fff"/><path d="M210.84,73.2c-.6-1.08-1.32-2.04-1.92-3.12a34.11909,34.11909,0,0,1-7.92,3.24l-1.44-2.28,7.08-4.44-1.92-3.12-7.08,4.56-.72-1.08-1.08,2.16-5.52,3.6,1.92,3,4.56-2.88,1.8,2.64a27.83016,27.83016,0,0,1-4.08,3.84c.72.96,1.32,2.04,2.04,3,1.08-.84,4.44-3.84,5.16-5.64A33.40013,33.40013,0,0,0,210.84,73.2Z" fill="#fff"/><path d="M215.4,83.16a17.79111,17.79111,0,0,0-7.32,1.8l-.96,8.88c-.72.24-1.44.36-2.16.6l-1.56-3.72,1.32-.6-1.32-3.36-4.32,1.68s3.72,9.36,3.84,9.84a19.639,19.639,0,0,0,7.68-2.04l.84-8.75995a11.23609,11.23609,0,0,1,1.92-.48l1.44,3.72-1.2.6,1.32,3.36,4.2-1.68S215.64,83.87994,215.4,83.16Z" fill="#fff"/><polygon points="32.16 73.44 34.92 75.12 36.96 71.76 48.84 78.96 50.64 75.84 38.88 68.64 40.92 65.28 38.16 63.6 32.16 73.44" fill="#fff"/><polygon points="94.68 23.76 95.4 26.88 99.24 26.04 102.36 39.48 105.84 38.64 102.84 25.2 106.68 24.36 105.96 21.12 94.68 23.76" fill="#fff"/><polygon points="46.44 53.52 44.04 56.16 56.64 67.68 62.52 61.2 60.12 59.04 56.64 62.76 46.44 53.52" fill="#fff"/><path d="M29.16,88.67993l.84-2.4a24.49539,24.49539,0,0,1,5.16.96L33.72,91.2A19.00459,19.00459,0,0,1,29.16,88.67993Zm15.36-1.92-7.8-2.76a22.15348,22.15348,0,0,0-9-1.08c0,.12006-2.28,6.6-2.4,6.96a23.63225,23.63225,0,0,0,7.2,4.8l-.48,1.08,2.4-.36,6.12,2.16,1.2-3.36-5.04-1.8,1.44-4.08,5.04,1.92Z" fill="#fff"/><path d="M169.56,36.12l2.16,1.2a19.88155,19.88155,0,0,1-1.8,4.92L166.2,40.2A21.7099,21.7099,0,0,1,169.56,36.12Zm-.84,15.36,4.08-7.08a20.80608,20.80608,0,0,0,2.64-8.64c-.12,0-6-3.48-6.36-3.6a22.82107,22.82107,0,0,0-6,6.24l-1.08-.72V40.2l-3.24,5.52,3.12,1.92,2.76-4.68,3.6,2.16-2.64,4.55994Z" fill="#fff"/><path d="M61.68,43.79993,63.6,42.36a21.99265,21.99265,0,0,1,3.84,3.6l-3.36,2.52A21.53062,21.53062,0,0,1,61.68,43.79993ZM75.6,50.52l-5.04-6.48a21.836,21.836,0,0,0-6.96-5.76c-.12.12-5.52,4.2-5.88,4.44a23.74315,23.74315,0,0,0,3.48,7.92l-.96.84,2.28.84,3.96,5.16,2.88-2.16-3.24-4.32,3.36-2.52,3.24,4.31995Z" fill="#fff"/><path d="M122.04,28.67993h-4.2a19.11941,19.11941,0,0,1,.72-5.16h2.52A24.49826,24.49826,0,0,1,122.04,28.67993Zm-4.2,8.64v-5.4h4.2V37.2h3.72l-.12-6.48,1.2-2.16h-1.2a21.77947,21.77947,0,0,0-2.16-8.4c-.36,0-7.2.12-7.32.12a21.20416,21.20416,0,0,0-2.04,8.76l.12,8.28Z" fill="#fff"/><path d="M195.96,52.8l-5.52,5.64a20.62527,20.62527,0,0,1-4.68,3.72l-1.08-1.08a17.51811,17.51811,0,0,1,3.24-4.92l5.52-5.76-2.52-2.52-5.52,5.64a24.214,24.214,0,0,1-4.92,3.48l-1.08-1.08a20.53682,20.53682,0,0,1,3.48-4.8l5.52-5.64-2.64-2.52-5.64,5.88a20.66874,20.66874,0,0,0-4.68,7.68c0,.12,4.2,4.08,4.44,4.32.48-.12.96-.36,1.44-.48-.24.48-.36.96-.6,1.44.24.24,4.44,4.2,4.44,4.32a21.146,21.146,0,0,0,7.68-4.92l5.76-5.88Z" fill="#fff"/><path d="M50.4,167.16a17.09356,17.09356,0,0,0-6.48,3.6l1.44,8.88c-.72.36-1.32.72-2.04,1.08l-2.4-3.24,1.08-.72L39.84,173.88l-3.6,2.64s6,8.04,6.24,8.4c3-.84,4.68-2.28,6.96-3.96l-1.56-8.64a7.651,7.651,0,0,1,1.68-.96l2.4,3.24-1.08.72,2.16,3,3.72-2.76S50.76,167.64,50.4,167.16Z" fill="#fff"/><polygon points="89.16 199.56 88.2 202.68 91.92 203.88 87.36 216.96 90.84 218.16 95.28 205.08 99 206.4 100.08 203.28 89.16 199.56" fill="#fff"/><path d="M25.2,139.67993l3.6-.72.72,3.24c-1.2.48-2.4.96-3.48,1.32Zm10.32-2.16.84,3.96a19.29573,19.29573,0,0,1-3.72.12l-.72-3.24Zm4.8,6.96c-.12-.84-2.4-11.16-2.4-11.16l-6.72,1.44-.24-1.32-1.92,1.8-7.8,1.68s2.28,10.2,2.4,10.92a25.91563,25.91563,0,0,0,8.04-2.88A21.57666,21.57666,0,0,0,40.32,144.48Z" fill="#fff"/><polygon points="83.04 200.28 84.72 197.4 74.88 191.88 71.4 197.76 70.2 197.16 70.32 199.8 66.36 206.64 76.2 212.28 77.76 209.4 71.16 205.56 72.96 202.44 77.04 204.84 78.72 201.96 74.52 199.56 76.32 196.44 83.04 200.28" fill="#fff"/><path d="M189.24,190.55994l.84,1.08-3,2.76L180,186.48l2.76-2.4a7.76449,7.76449,0,0,1,1.08.96l2.64-2.4a34.42067,34.42067,0,0,0-3.6-3.12c-.36.36-7.68,7.08-7.68,7.08l11.4,12.6,8.4-7.68-3.12-3.36Z" fill="#fff"/><polygon points="144.72 202.44 141.24 203.4 145.68 219.84 154.2 217.56 153.36 214.44 148.32 215.76 144.72 202.44" fill="#fff"/><path d="M41.16,156.12l1.08,2.28a16.97272,16.97272,0,0,1-4.32,2.88l-1.8-3.84A22.18734,22.18734,0,0,1,41.16,156.12Zm-9.6,12.12,7.56-3.48a20.66322,20.66322,0,0,0,7.08-5.52c0-.12-2.88-6.36-3-6.72a21.58016,21.58016,0,0,0-8.52,1.68l-.6-1.2-1.44,2.04-5.88,2.75995L28.32,161.04l4.92-2.16,1.68,3.72-4.8,2.28Z" fill="#fff"/><path d="M106.8,218.4l.48-3.72,3.24.48c.12,1.20007.12,2.52.12,3.72Zm1.32-10.56,3.96.6a16.76172,16.76172,0,0,1-1.08,3.48l-3.36-.36Zm8.04-2.16c-.72-.12-11.16-1.43994-11.16-1.43994l-.96,6.84-1.2-.24.96,2.4-1.08,7.79993S113.16,222.48,113.88,222.6a29.76786,29.76786,0,0,0,0-8.64C115.32,211.43994,115.8,209.15991,116.16,205.67993Z" fill="#fff"/><path d="M216.96,143.88l-3.6-.84.72-3.12c1.32,0,2.52,0,3.72.12Zm-10.32-2.28.84-3.84a14.968,14.968,0,0,1,3.48,1.32l-.72,3.36Zm-1.44-8.16c-.24.72-2.52,11.04-2.52,11.04l6.84,1.44-.36,1.32,2.52-.84,7.68,1.68s2.28-10.2,2.4-10.92a24.863,24.863,0,0,0-8.52-.72C210.84,134.75995,208.68,134.16,205.2,133.43994Z" fill="#fff"/><path d="M127.44,208.79993l2.52-.24a19.56673,19.56673,0,0,1,1.32,5.04l-4.2.36A19.03532,19.03532,0,0,1,127.44,208.79993ZM135.72,221.88,135,213.6a21.39188,21.39188,0,0,0-3-8.52s-6.96.72-7.2.72a21.42809,21.42809,0,0,0-1.32,8.52l-1.2.12,1.44,2.04.6,6.48,3.6-.36-.48-5.4,4.2-.36.48,5.28Z" fill="#fff"/><polygon points="189.36 171.6 187.2 174.48 200.88 184.68 206.16 177.6 203.52 175.68 200.52 179.76 189.36 171.6" fill="#fff"/><polygon points="158.76 197.04 155.52 198.6 162.96 213.96 170.88 210.12 169.44 207.12 164.76 209.4 158.76 197.04" fill="#fff"/><path d="M198.96,155.04l7.2,3.24a20.52132,20.52132,0,0,1,5.04,3.12l-1.2,2.52a20.60593,20.60593,0,0,1-5.64-1.68l-7.2-3.24-1.44,3.24,7.44,3.36a21.353,21.353,0,0,0,8.88,1.8c0-.12,2.88-6.48,3-6.84a20.66317,20.66317,0,0,0-7.08-5.52l-7.56-3.36Z" fill="#fff"/><path d="M69.84,188.28c-.96-.84-1.8-1.68-2.76-2.52a31.19878,31.19878,0,0,1-6.72,5.28l-1.92-1.8L63.96,183l-2.64-2.4-5.64,6.24-.96-.84-.48,2.4-4.32,4.8,2.64,2.4,3.72-3.96,2.28,2.04a44.17809,44.17809,0,0,1-2.76,4.8c.84.84,1.68,1.56,2.64,2.4.84-1.20007,3.36-4.92,3.48-6.84A35.33956,35.33956,0,0,0,69.84,188.28Z" fill="#fff"/><path d="M196.8,121.55994A75.3,75.3,0,1,1,121.56,46.2,75.38608,75.38608,0,0,1,196.8,121.55994Z" fill="#fff"/><path d="M121.56,176.64A54.35269,54.35269,0,0,1,82.44,160.2c28.32-14.64,46.08-10.8,46.08-7.92s-4.44,9.6-4.44,9.6c23.16-3.24005,39.96-17.16,39.96-36.00006,0-18.72-17.52-27.84-21.96-30.6-4.8-3-2.64-7.08-18.36-12.96-9.6-3.6-23.04-7.2-28.32-8.52a54.74172,54.74172,0,1,1,26.16,102.84Zm0-124.92a69.88424,69.88424,0,0,0-56.28,28.2c1.8.6,5.4,1.56006,9.72,2.88,6.84,2.04,29.64,8.64,33.96,10.08,12.48,3.96,15.72,5.52,19.32,9.36a89.3,89.3,0,0,0,14.04,11.64c5.16,3.72,7.68,7.68,7.68,14.04,0,6.24005-4.8,11.52-7.8,13.44006,0,0,1.08-3.12-.36-4.44006s-6.12-3.84-17.88-3S96.48,140.52,85.8,146.16c0,0,5.16-8.04,12.72-11.64,0,0-6.24,0-41.4,15.36a70.21918,70.21918,0,1,0,64.44-98.16Z" fill="#e03a3e"/><path d="M120.96,103.67993a17.06276,17.06276,0,0,1-8.16-1.68c-4.08-2.16-10.32-6.72-15.84-1.68,0,0,4.56-.6,4.2.6-.36,1.32007-.84,8.28,5.52,10.92C112.92,114.6,120.24,112.55994,120.96,103.67993Z" fill="#e03a3e"/></svg>