<?xml version="1.0" encoding="UTF-8" standalone="no"?>
<!-- Created with Inkscape (http://www.inkscape.org/) -->

<svg
   xmlns:dc="http://purl.org/dc/elements/1.1/"
   xmlns:cc="http://creativecommons.org/ns#"
   xmlns:rdf="http://www.w3.org/1999/02/22-rdf-syntax-ns#"
   xmlns:svg="http://www.w3.org/2000/svg"
   xmlns="http://www.w3.org/2000/svg"
   version="1.1"
   width="715.74799"
   height="527.24408"
   id="svg7669">
  <defs
     id="defs7671" />
  <metadata
     id="metadata7674">
    <rdf:RDF>
      <cc:Work
         rdf:about="">
        <dc:format>image/svg+xml</dc:format>
        <dc:type
           rdf:resource="http://purl.org/dc/dcmitype/StillImage" />
        <dc:title></dc:title>
      </cc:Work>
    </rdf:RDF>
  </metadata>
  <g
     transform="translate(5.7592782,-176.68814)"
     id="layer1">
    <g
       transform="translate(134.97185,67.948001)"
       id="g7802">
      <g
         transform="matrix(7.8459447,0,0,-7.8459447,289.27063,247.05202)"
         id="g5403">
        <path
           d="m 0,0 0.298,-0.02 0.636,-2.877 7.82,-0.696 0,-1.329 L 0,-4.191 0,0 z m 35.968,-11.947 0,12.559 -0.018,0.006 C 35.858,0.649 28.791,3.122 24.673,4.049 19.829,5.139 18.431,1.411 18.226,0.748 l 0,4.737 c 0,0 -13.273,2.559 -22.754,2.415 C -6.164,7.875 -8.623,7.284 -9.403,3.846 l 0,4.165 c 0,0 -9.115,-0.26 -12.5,-0.57 -0.84,-0.078 -4.484,-0.394 -5.642,-4.525 l 0.002,4.018 c 0,0 -12.014,-1.44 -22.772,-4.908 -1.562,-0.504 -4.039,-2.323 -4.039,-5.056 l 0,-27.609 9.038,2.884 0,4.762 8.239,1.95 10e-4,-4.742 c 0,0 2.1,0.442 4.058,0.848 -4.161,-3.55 -7.546,-8.031 -9.639,-12.976 5.468,4.697 10.907,9.255 18.991,11.441 l -1.832,-4.258 c 6.431,3.521 15.066,3.634 21.936,1.424 l -0.519,-1.138 c -4.245,1.792 -9.095,2.011 -13.954,1.266 4.751,-1.636 8.75,-2.898 12.734,-5.521 -0.265,-7.411 5.817,-14.494 13.656,-14.428 12.605,0.096 18.408,14.869 11.368,23.993 0.721,-0.555 1.6,-0.948 2.931,-1.352 4.448,-1.248 13.314,-3.87 13.314,-3.87 l 0,11.79 -6.769,2.021 -0.74,-3.293 c -0.444,0.145 -1.082,0.172 -1.093,0.497 -0.006,0.162 -0.002,8.884 -0.003,13.312 l 0.537,-3.433 8.068,-2.485 z"
           id="path5405"
           style="fill:#c4ced4;fill-opacity:1;fill-rule:nonzero;stroke:none" />
      </g>
      <g
         transform="matrix(7.8459447,0,0,-7.8459447,507.78095,278.55882)"
         id="g5407"
         style="fill:#0c1e24;fill-opacity:1">
        <path
           d="m 0,0 0.753,-4.814 6.518,-2.007 0,10e-4 0.015,-0.004 0,10.882 c 0,0 -6.492,2.277 -10.672,3.225 C -4.818,7.68 -9.04,7.928 -9.135,2.606 l 0,-18.391 c 0,-3.169 1.673,-5.283 4.838,-6.115 4.816,-1.265 11.583,-3.338 11.583,-3.338 l 0,10.09 -5.357,1.599 -0.737,-3.28 c -0.593,0.171 -1.074,0.304 -1.675,0.461 -0.659,0.172 -0.799,0.525 -0.826,0.876 l 0,15.859 C -1.22,0.343 -0.186,0.055 0,0"
           id="path5409"
           style="fill:#0c1e24;fill-opacity:1;fill-rule:nonzero;stroke:none" />
      </g>
      <g
         transform="matrix(7.8459447,0,0,-7.8459447,364.15465,199.78867)"
         id="g5411"
         style="fill:#0c1e24;fill-opacity:1">
        <path
           d="m 0,0 0,-29.304 1.465,-0.127 c 0.44,-0.054 3.961,-0.636 4.386,-0.725 l 2.001,-0.507 0,29.451 C 7.867,-1.167 2.956,-0.356 0,0"
           id="path5413"
           style="fill:#0c1e24;fill-opacity:1;fill-rule:nonzero;stroke:none" />
      </g>
      <g
         transform="matrix(7.8459447,0,0,-7.8459447,290.44043,331.69972)"
         id="g5415"
         style="fill:#0c1e24;fill-opacity:1">
        <path
           d="m 0,0 0,-5.448 c -0.151,0.01 -0.878,-0.049 -0.96,0.433 l 0,5.086 L 0,0 z m 0.789,11.544 0.639,-2.892 6.487,-0.578 0,8.943 c 0,0 -9.447,0.896 -12.09,0.896 -1.581,0 -4.598,-0.578 -4.709,-4.594 l 0,-19.14 c 0,-3.311 1.915,-5.289 5.253,-5.428 0,0 6.941,-0.338 9.609,-0.73 l 1.937,-0.365 0,17.465 0,0.004 -8.875,0.713 0,5.804 1.749,-0.098 z"
           id="path5417"
           style="fill:#0c1e24;fill-opacity:1;fill-rule:nonzero;stroke:none" />
      </g>
      <g
         transform="matrix(7.8459447,0,0,-7.8459447,139.3448,286.82154)"
         id="g5419"
         style="fill:#0c1e24;fill-opacity:1">
        <path
           d="m 0,0 0,5.571 c 0.017,0.35 0.822,0.316 0.934,0.323 l 0,-5.844 C 0.625,0.034 0.313,0.018 0,0 M -2.741,11.708 C -5.972,11.408 -7.9,9.241 -7.9,5.911 l 0.009,-24.024 1.901,0.358 c 0.427,0.061 3.98,0.416 4.425,0.442 L 0,-17.273 0,-6.531 c 0.309,0.023 0.62,0.045 0.934,0.065 l 0,-10.78 1.791,0.206 c 0.385,0.03 3.872,0.161 4.46,0.161 l 1.69,-0.093 0,29.225 c 0,0 -8.101,-0.222 -11.616,-0.545"
           id="path5421"
           style="fill:#0c1e24;fill-opacity:1;fill-rule:nonzero;stroke:none" />
      </g>
      <g
         transform="matrix(7.8459447,0,0,-7.8459447,66.650547,199.98263)"
         id="g5423"
         style="fill:#0c1e24;fill-opacity:1">
        <path
           d="m 0,0 c 0,0 -7.36,-1.104 -9.546,-1.595 -0.504,-0.114 -0.984,-0.302 -1.433,-0.555 l -0.002,0.254 c 0,0 -6.122,-1.354 -10.731,-2.842 -1.444,-0.467 -3.478,-2.105 -3.478,-4.285 l 0,-26.424 7.417,2.35 0,22.008 c 0,0.402 0.352,0.713 1.046,0.925 0.034,0.01 0.078,0.021 0.13,0.033 l 0,-17.936 7.849,1.86 0,17.169 c 0.091,0.786 0.764,0.862 0.826,0.87 l 0,-22.569 c 0,0 6.099,1.227 6.446,1.271 l 1.475,0.129 L 0,0 z"
           id="path5425"
           style="fill:#0c1e24;fill-opacity:1;fill-rule:nonzero;stroke:none" />
      </g>
      <g
         transform="matrix(7.8459447,0,0,-7.8459447,528.41421,394.24194)"
         id="g5427">
        <path
           d="m 0,0 -0.736,-3.276 c -1.183,0.35 -1.763,0.515 -2.615,0.737 -0.831,0.217 -1.329,0.695 -1.485,1.424 l 0,16.762 c 0.276,0.948 1.509,0.146 3.048,-0.167 l 0.754,-4.82 4.73,-1.456 0,8.931 c 0,0 -5.878,2 -9.932,2.972 -0.443,0.107 -4.488,1.059 -4.583,-3.756 l 0,-18.392 c 0,-2.73 1.39,-4.48 4.133,-5.2 3.962,-1.041 10.394,-2.973 10.394,-2.973 l 0,8.106 L 0,0 z"
           id="path5429"
           style="fill:#ffffff;fill-opacity:1;fill-rule:nonzero;stroke:none" />
      </g>
      <g
         transform="matrix(7.8459447,0,0,-7.8459447,418.33793,215.5176)"
         id="g5431">
        <path
           d="m 0,0 -5.96,0.925 0,-27.357 c 0,0 4.818,-0.727 5.122,-0.799 L 0.003,-27.444 0,0 z"
           id="path5433"
           style="fill:#ffffff;fill-opacity:1;fill-rule:nonzero;stroke:none" />
      </g>
      <g
         transform="matrix(7.8459447,0,0,-7.8459447,284.92002,232.96133)"
         id="g5435">
        <path
           d="m 0,0 c 0.054,0 1.677,-0.106 2.265,-0.154 l 0.641,-2.898 4.766,-0.424 0,7.054 c 0,0 -9.872,0.857 -11.144,0.805 C -4.654,4.335 -7.067,4.132 -7.235,0.734 l 0,-19.14 c 0,-2.815 1.503,-4.365 4.347,-4.483 0,0 6.555,-0.325 9.433,-0.698 l 1.127,-0.203 0,15.47 0,0.003 -7.211,0.581 0,-3.883 c 0,0 0.965,-0.07 1.201,-0.087 l 0,-7.331 c -0.9,0.061 -2.79,-0.145 -2.864,1.424 l 0,16.922 C -1.137,-0.381 -0.896,0 0,0"
           id="path5437"
           style="fill:#ffffff;fill-opacity:1;fill-rule:nonzero;stroke:none" />
      </g>
      <g
         transform="matrix(7.8459447,0,0,-7.8459447,153.56479,292.98783)"
         id="g5439">
        <path
           d="m 0,0 c -0.031,-0.001 -1.819,-0.089 -2.69,-0.148 l 0,6.55 c 0.066,0.687 0.537,1.067 1.393,1.131 0,0 0.871,0.056 1.297,0.082 L 0,0 z M -4.473,11.62 C -7.222,11.35 -8.81,9.595 -8.833,6.762 l -0.002,0 0,-23.031 0.006,10e-4 0,-10e-4 0.099,0.019 0.933,0.166 c 0.788,0.095 4.079,0.423 4.382,0.435 l 0.725,0.018 0,10.7 c 0.872,0.069 1.772,0.132 2.69,0.186 l 0.008,-10.716 0.817,0.08 c 0.281,0.028 3.907,0.166 4.547,0.166 l 0.813,-0.043 0,27.394 c 0,0 -7.058,-0.163 -10.658,-0.516"
           id="path5441"
           style="fill:#ffffff;fill-opacity:1;fill-rule:nonzero;stroke:none" />
      </g>
      <g
         transform="matrix(7.8459447,0,0,-7.8459447,59.260477,208.59622)"
         id="g5443">
        <path
           d="m 0,0 -0.004,-0.001 0,0.001 c 0,0 -7.165,-1.096 -8.392,-1.42 -0.974,-0.257 -1.69,-0.643 -2.544,-1.601 l 0,1.049 c 0,0 -4.973,-1.093 -9.539,-2.568 -1.139,-0.368 -2.823,-1.698 -2.823,-3.385 l 0,-25.042 5.528,1.728 -0.003,21.248 c -0.03,1.786 2.557,2.014 3.067,2.101 l 0,-17.884 5.951,1.409 c 0,0 0.004,15.563 0.004,16.471 0.202,1.952 2.38,1.817 2.726,1.938 l 0.005,-22.462 2.912,0.506 0.002,10e-4 3.096,0.537 0,0.086 L 0,-27.285 0,0 z"
           id="path5445"
           style="fill:#ffffff;fill-opacity:1;fill-rule:nonzero;stroke:none" />
      </g>
      <g
         transform="matrix(7.8459447,0,0,-7.8459447,552.1121,406.84504)"
         id="g5447">
        <path
           d="m 0,0 -2.52,0.752 -0.736,-3.275 c -1.637,0.486 -2.273,0.673 -3.286,0.937 -0.965,0.251 -1.944,0.934 -2.035,2.395 l 0,16.269 c 0.191,1.257 1.025,1.482 2.03,1.208 0.009,0.018 1.075,-0.294 2.34,-0.674 L -3.452,12.788 0,11.725 0,19.261 c -1.911,0.666 -5.657,1.894 -9.414,2.796 -2.406,0.577 -3.75,-0.642 -3.75,-3.1 l 0,-18.391 c 0,-2.464 1.228,-3.917 3.629,-4.547 4.904,-1.289 9.546,-2.712 9.546,-2.712 L 0,0 z"
           id="path5449"
           style="fill:#0474bc;fill-opacity:1;fill-rule:nonzero;stroke:none" />
      </g>
      <g
         transform="matrix(7.8459447,0,0,-7.8459447,376.87293,418.04403)"
         id="g5451">
        <path
           d="m 0,0 c 0.286,-0.025 4.33,-0.692 4.609,-0.762 l 0,26.009 C 3.225,25.493 1.993,25.702 0,25.967 L 0,0 z"
           id="path5453"
           style="fill:#0474bc;fill-opacity:1;fill-rule:nonzero;stroke:none" />
      </g>
      <g
         transform="matrix(7.8459447,0,0,-7.8459447,293.83772,319.19642)"
         id="g5455">
        <path
           d="m 0,0 c 0.238,-0.018 1.201,-0.086 1.201,-0.086 l 0,-8.688 c -0.712,0.055 -1.425,0.103 -2.132,0.149 -1.041,0.067 -2.09,0.74 -2.09,2.134 0,0.045 -0.003,16.758 -0.003,16.758 0.146,1.252 1.356,1.441 2.093,1.393 0,0.019 1.215,-0.074 2.612,-0.192 L 2.32,8.575 5.859,8.258 l 0,5.696 -0.019,0 0,10e-4 c -6.43,0.625 -10.024,0.733 -10.024,0.733 -0.754,0.034 -1.888,0.032 -2.668,-0.721 -0.495,-0.472 -0.844,-1.262 -0.844,-2.242 l 0,-19.14 c 0,-2.462 1.246,-3.706 3.7,-3.808 0.005,0.079 8.616,-0.527 9.855,-0.756 l 0,14.038 0,0.003 C 3.799,2.264 2.619,2.384 0,2.538 L 0,0 z"
           id="path5457"
           style="fill:#0474bc;fill-opacity:1;fill-rule:nonzero;stroke:none" />
      </g>
      <g
         transform="matrix(7.8459447,0,0,-7.8459447,126.62577,242.50514)"
         id="g5459"
         style="fill:#0474bc;fill-opacity:1">
        <path
           d="m 0,0 c 0.041,0.504 0.328,1.71 2.088,1.84 0.696,0.045 1.391,0.09 2.088,0.127 l 0,-9.108 C 2.787,-7.212 1.391,-7.27 0,-7.382 L 0,0 z m -4.658,0.264 c 0,0 0.009,-21.762 0.009,-22.071 0.285,0.054 4.362,0.459 4.649,0.466 l 0,10.66 c 1.391,0.119 2.787,0.213 4.176,0.288 l 0,-10.683 c 0.29,0.033 4.413,0.185 4.699,0.169 l 0,25.845 C 6.109,4.863 2.305,4.746 -0.97,4.446 -3.421,4.218 -4.658,2.72 -4.658,0.264"
           id="path5461"
           style="fill:#0474bc;fill-opacity:1;fill-rule:nonzero;stroke:none" />
      </g>
      <g
         transform="matrix(7.8459447,0,0,-7.8459447,-5.4560732,224.90825)"
         id="g5463">
        <path
           d="m 0,0 c -1.707,-0.384 -2.993,-2.006 -3.367,-3.955 l 0,3.223 c 0,0 -4.068,-0.89 -8.656,-2.372 -0.916,-0.296 -2.355,-1.419 -2.355,-2.742 l 0,-24.055 c 0.27,0.105 3.896,1.222 4.174,1.284 l 0,20.705 c 0,1.447 1.188,2.169 2.2,2.477 0.558,0.166 2.218,0.417 2.218,0.417 l 0,-17.815 4.614,1.084 0,16.039 c 0.165,1.209 0.828,2.006 2.048,2.296 1.168,0.198 2.019,0.327 2.019,0.327 l 0.004,-22.381 c 0.28,0.072 4.371,0.768 4.657,0.793 0,5.162 0.012,25.97 0.012,25.97 C 7.568,1.295 2.154,0.484 0,0"
           id="path5465"
           style="fill:#0474bc;fill-opacity:1;fill-rule:nonzero;stroke:none" />
      </g>
      <g
         transform="matrix(7.8459447,0,0,-7.8459447,377.37664,404.02803)"
         id="g5467">
        <path
           d="m 0,0 c 17.964,-7.096 10.498,-28.007 -2.668,-28.16 -7.21,-0.086 -13.348,6.613 -12.831,13.764 -3.241,2.606 -7.329,3.864 -11.27,4.978 3.567,0.377 8.584,-0.556 11.841,-2.064 l 1.211,2.643 c -6.026,2.213 -15.582,2.595 -21.446,-0.236 l 1.609,3.754 c -6.223,-1.375 -13.176,-5.212 -18.309,-10.028 3.598,6.9 11.751,13.89 19.194,16.213 l -0.547,-1.627 c 4.792,1.744 9.79,2.695 14.872,2.985 5.4,0.31 9.768,10e-4 13.509,-0.828 -0.671,0.869 -1.752,2.42 -1.752,2.42 0,0 2.901,-0.738 3.458,-0.88 0.298,0.483 0.885,1.43 0.885,1.43 l 0.904,1.47 c 0,0 0.442,-3.04 0.517,-3.569 C -0.317,2.101 2.479,1.181 2.479,1.181 L 0,0 z"
           id="path5469"
           style="fill:#0c1e24;fill-opacity:1;fill-rule:nonzero;stroke:none" />
      </g>
      <g
         transform="matrix(7.8459447,0,0,-7.8459447,393.02616,484.89148)"
         id="g5471"
         style="fill:#c4ced4;fill-opacity:1">
        <path
           d="M 0,0 C 0.679,-0.903 1.401,-1.965 1.945,-2.96 3.24,-2.082 4.359,-1.165 5.373,0.021 4.735,1.246 3.61,2.628 2.82,3.312 2.091,2.009 1.151,0.939 0,0 m 2.375,-3.829 c 0.317,-0.722 0.597,-1.455 0.84,-2.206 1.109,0.365 2.175,0.551 3.331,0.617 0.03,1.667 -0.195,2.889 -0.733,4.446 C 4.756,-2.063 3.639,-2.986 2.375,-3.829 m 1.071,-3.075 c 0.398,-1.782 0.517,-3.57 0.415,-5.377 1.429,1.902 2.183,3.529 2.591,5.959 C 5.429,-6.41 4.412,-6.579 3.446,-6.904 M 2.677,-7.317 c -3.558,-1.676 -5.002,-5.415 -6.403,-8.827 2.342,0.271 4.499,1.063 6.308,2.603 0.545,2.021 0.477,4.18 0.095,6.224 m -0.284,0.938 c -0.211,0.714 -0.472,1.405 -0.761,2.087 -5.056,-2.969 -10.98,-4.439 -16.83,-4.395 1.698,-4.473 5.655,-7.441 10.481,-7.493 1.533,3.777 3.227,7.898 7.11,9.801 m -1.175,2.958 c -0.552,1.036 -1.241,1.999 -1.955,2.925 -4.619,-2.951 -9.253,-1.245 -13.935,0.475 -1.167,-2.442 -1.453,-5.071 -0.814,-7.704 5.687,-0.145 11.808,1.388 16.704,4.304 m -2.464,3.654 c -6.442,7.075 -19.259,8.476 -28.148,6.062 6.169,0.166 18.398,-0.166 22.766,-5.364 -1.409,0.783 -4.263,2.1 -5.956,2.002 -0.603,-0.664 -1.133,-1.399 -1.606,-2.16 4.292,-1.583 8.686,-3.175 12.944,-0.54 m 0.7,0.495 C 0.58,1.613 1.572,2.619 2.254,3.864 0.248,5.829 -3.577,8.252 -13.315,8.916 -9.186,7.98 -5.332,6.678 -3.151,5.13 -4.933,5.811 -6.042,6 -6.042,6 -6.567,5.927 -7.307,5.857 -7.857,5.73 -4.889,4.568 -2.727,3.169 -0.546,0.728"
           id="path5473"
           style="fill:#c4ced4;fill-opacity:1;fill-rule:evenodd;stroke:none" />
      </g>
      <g
         transform="matrix(7.8459447,0,0,-7.8459447,341.64388,411.64927)"
         id="g5475"
         style="fill:#c4ced4;fill-opacity:1">
        <path
           d="M 0,0 1.999,0.699 3.518,-1.024 3.34,1.225 5.276,2.069 3.169,2.761 2.843,5.005 1.718,3.183 -0.416,3.727 0.999,1.909 0,0 z"
           id="path5477"
           style="fill:#c4ced4;fill-opacity:1;fill-rule:nonzero;stroke:none" />
      </g>
      <g
         transform="matrix(7.8459447,0,0,-7.8459447,282.39677,498.40721)"
         id="g5479"
         style="fill:#0474bc;fill-opacity:1">
        <path
           d="M 0,0 C 3.062,-1.436 5.487,-1.496 8.609,-1.642 L 3.575,-3.131 c 2.53,-0.121 5.502,0.132 7.981,0.637 C 6.13,-5.202 -0.445,-5.003 -0.445,-5.003 -0.936,-3.338 -0.705,-1.263 0,0 m 0.589,-8.339 c 3.355,0.127 8.106,1.035 11.76,3.163 -2.11,-2.137 -4.361,-3.306 -7.788,-5.086 3.753,0.634 5.6,2.111 8.059,3.939 -1.911,-2.139 -2.853,-4.394 -4.329,-6.728 0,0 -4.377,-0.548 -7.702,4.712 m 11.107,-5.114 c 2.114,0.734 3.201,1.578 3.648,1.934 0.328,0.71 0.48,2.233 0.459,4.075 l -1.345,-2.255 0.426,2.194 c -1.885,-2.287 -2.601,-3.922 -3.188,-5.948"
           id="path5481"
           style="fill:#0474bc;fill-opacity:1;fill-rule:evenodd;stroke:none" />
      </g>
      <g
         transform="matrix(7.8459447,0,0,-7.8459447,258.06254,424.35091)"
         id="g5483">
        <path
           d="M 0,0 1.389,0.685 2.546,-0.344 2.32,1.186 3.658,1.964 2.131,2.224 1.802,3.734 1.086,2.362 -0.456,2.519 0.626,1.413 0,0 z"
           id="path5485"
           style="fill:#ffffff;fill-opacity:1;fill-rule:nonzero;stroke:none" />
      </g>
      <g
         transform="matrix(7.8459447,0,0,-7.8459447,135.55288,448.45177)"
         id="g5487">
        <path
           d="M 0,0 0.914,0.452 1.674,-0.226 1.526,0.78 2.404,1.293 1.4,1.466 1.184,2.458 0.712,1.559 -0.302,1.659 0.411,0.932 0,0 z"
           id="path5489"
           style="fill:#ffffff;fill-opacity:1;fill-rule:nonzero;stroke:none" />
      </g>
      <g
         transform="matrix(7.8459447,0,0,-7.8459447,362.00097,433.67566)"
         id="g5491"
         style="fill:#ffffff;fill-opacity:1">
        <path
           d="M 0,0 C -0.174,0.09 -0.349,0.177 -0.532,0.259 2.286,-0.577 4.185,-1.665 5.248,-2.492 5.084,-2.734 4.901,-2.967 4.714,-3.194 3.411,-1.842 1.818,-0.741 0,0 m 8.681,-15.78 -0.01,0.184 c 0.153,0.758 0.239,1.519 0.265,2.27 0.199,0.053 0.403,0.094 0.608,0.133 -0.218,-0.934 -0.491,-1.781 -0.863,-2.587 m 1.177,4.943 c -0.367,-0.048 -0.708,-0.101 -1.045,-0.174 -0.075,0.545 -0.184,1.085 -0.323,1.615 0.366,0.307 0.716,0.619 1.071,0.954 0.203,-0.785 0.289,-1.52 0.297,-2.395 M 8.601,-6.209 C 8.288,-6.546 7.986,-6.844 7.678,-7.123 c -0.342,0.735 -0.741,1.439 -1.203,2.104 0.241,0.291 0.474,0.591 0.692,0.905 0.589,-0.652 1.1,-1.414 1.434,-2.095"
           id="path5493"
           style="fill:#ffffff;fill-opacity:1;fill-rule:evenodd;stroke:none" />
      </g>
      <g
         transform="matrix(7.8459447,0,0,-7.8459447,361.28536,170.37831)"
         id="g5495"
         style="fill:#0c1e24;fill-opacity:1">
        <path
           d="m 0,0 c 0,-0.201 -0.103,-0.295 -0.243,-0.276 -0.115,0.016 -0.453,0.051 -0.679,0.081 -0.153,0.02 -0.245,0.061 -0.245,0.345 l 0,4.263 c 0,0.225 0.113,0.293 0.27,0.276 C -0.74,4.673 -0.471,4.618 -0.312,4.595 -0.154,4.572 0,4.537 0,4.337 L 0,0 z M 0.471,5.81 C -0.022,5.897 -1.798,6.19 -1.911,6.186 -2.863,6.157 -2.978,5.394 -2.977,5.149 l 0,-5.088 c 0,-1.083 0.927,-1.34 1.206,-1.37 0.551,-0.059 2,-0.259 2.487,-0.309 0.515,-0.054 1.08,0.294 1.08,1.005 l 0,5.056 C 1.797,4.688 1.718,5.588 0.471,5.81"
           id="path5497"
           style="fill:#0c1e24;fill-opacity:1;fill-rule:nonzero;stroke:none" />
      </g>
      <g
         transform="matrix(7.8459447,0,0,-7.8459447,273.16837,113.88688)"
         id="g5499"
         style="fill:#0c1e24;fill-opacity:1">
        <path
           d="m 0,0 c -0.982,0.083 -3.352,0.164 -3.352,0.164 l 0,-7.712 1.846,-0.066 0,6.36 c 0,0 0.366,-0.011 0.74,-0.029 0.373,-0.018 0.485,-0.172 0.485,-0.361 l 0,-6.014 1.831,-0.111 c 0,0 10e-4,5.994 10e-4,6.449 C 1.551,-0.895 1.252,-0.105 0,0"
           id="path5501"
           style="fill:#0c1e24;fill-opacity:1;fill-rule:nonzero;stroke:none" />
      </g>
      <g
         transform="matrix(7.8459447,0,0,-7.8459447,224.69298,139.77598)"
         id="g5503"
         style="fill:#0c1e24;fill-opacity:1">
        <path
           d="m 0,0 -1.232,-0.004 0,1.848 c 0.004,0.147 0.12,0.346 0.515,0.346 L 0,2.19 0,0 z m -1.643,3.512 c -0.902,0 -1.428,-0.414 -1.428,-1.365 0,-0.456 0.005,-6.347 0.005,-6.347 l 1.834,0.013 0,3.026 1.232,0.005 0,-3.048 1.849,-0.007 0,7.687 c 0,0 -1.472,0.036 -1.957,0.036 l -1.535,0 z"
           id="path5505"
           style="fill:#0c1e24;fill-opacity:1;fill-rule:nonzero;stroke:none" />
      </g>
      <g
         transform="matrix(7.8459447,0,0,-7.8459447,193.56812,153.74804)"
         id="g5507"
         style="fill:#0c1e24;fill-opacity:1">
        <path
           d="m 0,0 -1.469,-0.041 -0.361,-1.278 -0.491,-0.019 0,6.502 -1.838,-0.104 0,-7.649 c 0,0 0.76,0.039 2.075,0.078 C -0.754,-2.473 0,-2.456 0,-2.456 L 0,0 z"
           id="path5509"
           style="fill:#0c1e24;fill-opacity:1;fill-rule:nonzero;stroke:none" />
      </g>
      <g
         transform="matrix(7.8459447,0,0,-7.8459447,136.22914,142.02181)"
         id="g5511">
        <path
           d="m 0,0 c -0.371,-0.048 -0.81,-0.082 -0.81,-0.082 l 0,2 c 0.206,0.025 0.574,0.065 0.779,0.083 0.377,0.032 0.412,-0.225 0.412,-0.325 0,-0.086 -0.001,-1.263 0,-1.289 l 0,-0.007 C 0.381,0.38 0.371,0.048 0,0 m 2.226,-1.05 -0.002,0 c 0.026,0.256 -0.139,0.608 -0.45,0.705 0.202,0.104 0.431,0.39 0.433,0.717 l 0,1.962 C 2.207,2.818 1.826,3.447 0.975,3.402 0.001,3.351 -2.637,3.058 -2.637,3.058 l 0,-7.561 1.827,0.154 0,3.098 c 0.211,0.026 0.818,0.089 0.866,0.092 0.265,0.018 0.34,-0.142 0.34,-0.217 l 0,-2.884 1.83,0.121 0,0.003 0,3.086 z"
           id="path5513"
           style="fill:#0c1e24;fill-opacity:1;fill-rule:nonzero;stroke:none" />
      </g>
      <g
         transform="matrix(7.8459447,0,0,-7.8459447,92.222047,169.66464)"
         id="g5515"
         style="fill:#0c1e24;fill-opacity:1">
        <path
           d="m 0,0 c -0.117,-0.02 -0.464,-0.066 -0.688,-0.085 -0.172,-0.014 -0.254,0.186 -0.254,0.276 0,0.048 -0.003,4.289 -0.003,4.289 0,0.082 0.04,0.234 0.202,0.265 0.167,0.03 0.519,0.081 0.692,0.113 0.159,0.029 0.269,-0.125 0.269,-0.224 0,-0.18 0.005,-4.227 0.005,-4.34 C 0.223,0.182 0.158,0.027 0,0 M 0.914,6.299 C 0.701,6.299 -0.967,6.088 -1.46,5.994 -1.837,5.921 -2.769,5.596 -2.743,4.589 l 0,-5.185 c 0,-0.438 0.244,-1.006 1.009,-0.926 0.232,0.025 1.917,0.256 2.538,0.31 0.941,0.082 1.25,0.808 1.23,1.326 l 0,5.176 C 2.035,6.299 1.081,6.299 0.914,6.299"
           id="path5517"
           style="fill:#0c1e24;fill-opacity:1;fill-rule:nonzero;stroke:none" />
      </g>
      <g
         transform="matrix(7.8459447,0,0,-7.8459447,316.87028,165.76238)"
         id="g5519"
         style="fill:#0c1e24;fill-opacity:1">
        <path
           d="m 0,0 c -0.03,-0.15 -0.159,-0.2 -0.366,-0.182 l -0.855,0.076 0,4.991 c 0,0 0.454,-0.047 0.771,-0.083 C -0.151,4.768 -0.038,4.664 0,4.516 L 0,0 z M 0.436,6.114 C 0.005,6.19 -3.043,6.472 -3.043,6.472 l 0,-7.695 c 0,0 2.815,-0.226 3.474,-0.287 0.659,-0.062 1.396,0.167 1.396,1.068 l 0,5.087 c 0,1.097 -0.791,1.363 -1.391,1.469"
           id="path5521"
           style="fill:#0c1e24;fill-opacity:1;fill-rule:nonzero;stroke:none" />
      </g>
    </g>
  </g>
</svg>
