<?xml version="1.0" encoding="UTF-8" standalone="no"?>
<svg xmlns:rdf="http://www.w3.org/1999/02/22-rdf-syntax-ns#" xmlns="http://www.w3.org/2000/svg" height="257.64001" width="248.16117" version="1.1" xmlns:cc="http://creativecommons.org/ns#" xmlns:dc="http://purl.org/dc/elements/1.1/" viewBox="0 0 248.16117 257.64001"><path d="M239.16,132.24005c1.44-3.48,6.84-16.8,6.84-16.8l-22.8,12.6c-.12.12-6.84,3.72-16.44,7.92a333.10482,333.10482,0,0,0,13.32-40.44c8.04-30.6,12.36-64.32,12.48-65.76l1.8-13.56S191.4,28.08,187.32,29.16C172.08,10.8,148.56,0,123.96,0,99.12,0,75.6,10.92,60.36,29.4,56.16,28.2,13.2,16.2,13.2,16.2L15,29.76c0,.48,4.56,35.04,12.96,66.12A368.16486,368.16486,0,0,0,41.4,135c-10.2-4.44-18.84-8.4-19.08-8.52L1.2,116.4s5.04,12.72,6.48,16.2c-.36,0-7.68-2.88-7.68-2.88l7.08,18.96v-.12c.48,1.44,3.48,9.48,26.28,70.8l3.24,8.4s5.04-1.68,6.6-2.16c1.2,3.36,4.56,12.24,4.56,12.24L57,233.16c6.96-3.6,22.08-9.72,34.2-11.64,14.52,19.8,25.8,30.12,26.4,30.48l6.24,5.64,6.12-5.64c.6-.48,12-11.16,26.16-30.36a92.49435,92.49435,0,0,1,31.08,10.44l9,4.92,3.96-9.36a17.00522,17.00522,0,0,1,.96-2.4c.72.12,5.04,1.67993,5.04,1.67993l3.36-8.4c.6-1.68,15.24-35.64,29.28-68.52l9.36-21.84C248.28,128.16,239.16,132.24005,239.16,132.24005Z" fill="#fff"/><path d="M225,131.4a231.70377,231.70377,0,0,1-25.2,11.4,331.0594,331.0594,0,0,0,16.68-48.24c8.04-30.6,12.36-64.92,12.48-65.28l.96-8.04-7.8,2.16S126,49.92,123.24,50.76c-2.76-.72-105.6-29.4-105.6-29.4l1.08,8.04c0,.36,4.44,34.56,12.84,65.52,5.16,18.72,11.04,33.24,16.8,46.92-13.8-5.4-27.48-11.88-27.6-12L8.28,123.96l5.04,12.72c12.24,30.6,18.48,47.4,26.4,68.76L49.8,232.68,55.2,229.92c8.16-4.08,24.84-10.68,37.8-12.36,14.76,20.64,26.52,31.2,27.12,31.68005l3.6,3.36,3.6-3.36c.6-.48,12.48-11.76,27-31.68005,15.12,1.56,28.08,7.68005,34.68,11.28l5.4,2.88,2.28-5.52c6-14.52,35.64-87.48,36-88.2l5.76-14.16Z"/><path d="M235.8,134.88007c-.24.11993-24,10.2-43.44,15,7.56-17.4,14.16-33.12006,20.4-56.28,8.04-30.36,12.24-64.44,12.36-64.8l.24-2.4-2.28.6s-99.12,27.36-99.96,27.6c-.72-.24-101.04-28.2-101.04-28.2l.24,2.4c.12.36,4.56,34.44,12.84,65.04,5.52,20.16,11.88,35.4,18.12,50.04,0,0,1.08,2.64,2.04,4.91992-16.8-4.2-39.6-12.24-39.84-12.36l-3.24-1.08,1.2,3.12C23.4,165,28.56,179.16,33.96,194.28l10.92,30.24,1.44-.48a313.139,313.139,0,0,1,48.12-10.2c14.52,20.88,27.96,32.64,28.08,32.76l1.08.84,1.08-.84a228.67462,228.67462,0,0,0,27.84-32.64c12.84.84,36.96,6.36,46.08,9.84l1.44.6.6-1.44c6-14.4,36.96-85.32,37.2-85.92l1.56-3.72Z" fill="#fff"/><path d="M186.96,154.44l1.32-2.88c8.4-19.31995,15-34.55994,21.36-58.8,6.72-25.56,10.92-53.75995,12-61.92-4.44,1.2-98.04,27-98.04,27l-.48.12s-92.76-25.8-97.32-27c1.2,8.28,5.4,36.48,12.48,62.28,5.4,19.92,11.76,34.92,17.88,49.55994L60.6,153.48,96,210.6l.6.84c12.12,17.76,23.52,28.8,27,31.92,3.36-3.12,14.4-14.16,26.88-31.68005l.48-.72Z" fill="#c4ced4"/><path d="M56.4,119.76c-.96-1.32-5.04-7.8-5.04-18.6v-.96a69.87765,69.87765,0,0,1-4.32-24.12c0-20.04,8.64-38.16,22.56-51.36a79.8516,79.8516,0,0,1,108.72,0A70.04873,70.04873,0,0,1,201,76.08a66.41559,66.41559,0,0,1-3.48,21.36,67.498,67.498,0,0,1-11.04,37.32,7.59014,7.59014,0,0,1-1.44,1.08h-.12c-.12.12-.12.12-.12.36,0,0-.24.84-.48,1.56l.24-.12-.36.48a72.94938,72.94938,0,0,1-59.04,29.52C93.12,167.76,66,147.6,56.4,119.76Z"/><path d="M227.88,141.24005c-.48.12-48.96,21-104.64,20.75995-48.96-.24-104.52-21.12-105-21.36L6.6,136.2l4.2,11.16c0,.36,0,.36,26.28,70.79993L39,223.2l5.16-1.56a270.01481,270.01481,0,0,1,78.96-12.24c33.96,0,63.6,6.96,75.84,11.16l5.16,1.68005,2.04-5.04c.84-1.92,18-42,29.4-68.64l5.64-13.08Z" fill="#007dc5"/><path d="M228.36,147.96l-4.92,1.8s-10.92,4.08-11.04,4.08a22.04039,22.04039,0,0,0-7.56,3.96,18.71614,18.71614,0,0,0-3.12,3.6,2.88445,2.88445,0,0,0,.24-.96l1.56-4.08-4.2,1.2-9.96,2.64c-.96.24-7.8,1.56-9.84,2.04l-2.28.36-11.64,2.04c-.6,0-5.04.84-7.44,3.12a17.17786,17.17786,0,0,0-1.32,1.8l.72-3.96-3,.36-9.36.84-.36,2.4a5.54333,5.54333,0,0,0-.84-.84c-1.8-1.32-4.8-1.32-5.64-1.2l-13.8.36-11.16-.12a11.113,11.113,0,0,0-6.48,2.4c-.36.36-.6.84-.96,1.2v-2.16l-.12-1.92s-11.28-1.08-11.64-1.08l-13.68-1.68.6,3,.12.84c-3.12-3.6-7.92-4.8-8.16-4.92-.12,0-14.04-3.12-14.04-3.12l.96,3.6.6,2.64a15.30353,15.30353,0,0,0-1.2-2.04,16.06846,16.06846,0,0,0-7.8-5.88c-3.48-1.2-10.44-2.88-10.68-2.88l-3.96-.96c-3.6-1.55994-11.64-4.08-14.28-5.04l-4.44-1.44,1.68,4.44,23.04,62.16s9.12-2.52,9.6-2.64c0,0,9.48-2.28,10.2-2.4.36-.12,9.96-1.8,9.96-1.8v-.12c2.64-.36,7.92-1.2,8.4-1.2.48-.12,5.04-.84,7.68-1.08l9.6-.96c.96-.12,4.08-.36,5.76-1.8a4.4934,4.4934,0,0,0,1.44-1.55994l.12,2.64,11.4-.36c.48-.12006,3.48-.36,5.4-2.28a5.22115,5.22115,0,0,0,.72-.84009l-.12,3s8.76.24005,9.24.24005l10.32.24,7.44.6,9.48,1.08a12.71891,12.71891,0,0,0,6.72-1.31995c.24-.24005.48-.36.72-.6l-.72,2.75995,9.6,1.68005v-.12c.36.12,7.08,1.32,8.64,1.56l.96.36c.24,0,5.04,1.2,8.64.72,4.44-.48,9-4.08,11.04-8.76l9.6-21.96C214.92,179.16,228.36,147.96,228.36,147.96Z" fill="#fff"/><polygon points="143.04 201.48 149.04 201.96 154.8 168.24 147.12 168.96 143.04 201.48"/><path d="M168,170.76l-2.88,12,7.44-.12L177.6,165l-11.64,1.92s-4.2.72-6.12,2.64c-2.64,2.64-3.24,7.44-3.24,7.44l-4.68,25.2,7.44.84a10.67275,10.67275,0,0,0,5.52-.96c1.8-.84,2.88-2.88,3.48-4.68s2.4-9,2.4-9h-6.84l-1.56,7.2a7.27435,7.27435,0,0,1-1.2,2.76,3.66332,3.66332,0,0,1-3.12,1.2l4.92-22.44a19.46015,19.46015,0,0,1,1.92-4.68A3.70707,3.70707,0,0,1,168,170.76Z"/><path d="M180.96,183.36l6.36-20.4-6.6,1.44-11.52,39.84,5.16.72,5.4-16.92,1.56-.12s1.08.36,1.08,1.32007a7.09337,7.09337,0,0,1-.48,2.15991l-4.56,14.04,6,1.2L188.4,192a9.75515,9.75515,0,0,0,.6-3.6,6.81708,6.81708,0,0,0-1.2-3.24s1.2,0,2.88-1.68c1.68-1.56,1.68-2.87994,2.04-4.08.48-1.2,7.2-19.55994,7.2-19.55994L191.16,162l-5.04,16.44a9.19031,9.19031,0,0,1-1.2,2.88c-.84,1.2-1.44,1.68-1.92,1.68A7.19115,7.19115,0,0,1,180.96,183.36Z"/><path d="M211.08,163.2l-5.64,15.12,7.68-.36,11.04-25.92L213.12,156a22.41977,22.41977,0,0,0-6.84,3.6,30.68327,30.68327,0,0,0-5.64,7.92c-.6,1.44-3.12,7.08-3.48,8.88-.48,1.8-4.2,11.75995-4.2,11.75995h8.76L198,198.12a11.00947,11.00947,0,0,1-1.92,4.08,5.736,5.736,0,0,1-3.48,2.04l4.92-12.72h-5.4l-5.88,15.84a25.50638,25.50638,0,0,0,7.68.84c3.48-.36,7.44-3.12,9.24-7.44,1.92-4.2,8.16-18.72,8.16-18.72l-10.44.6,3.24-9.24s2.16-5.4,3.72-7.2A12.49922,12.49922,0,0,1,211.08,163.2Z"/><path d="M21.96,151.56,44.4,211.8l6.6-1.91992L34.32,161.16s2.52.24,4.68,4.08a40.27709,40.27709,0,0,1,3.72,9.12c.6,2.4,11.16,34.92,11.16,34.92l6.72-1.56-12.84-42.84s1.56,0,3.24,2.87994a27.18929,27.18929,0,0,1,2.4,5.28l9.84,34.2,6.48-1.32-8.28-31.68s-1.92-5.64-3.96-8.52a12.914,12.914,0,0,0-6.72-5.16c-3.24-1.08-10.44-3-10.44-3l1.08,3.24a21.37364,21.37364,0,0,0-4.68-3.84C34.92,155.88007,21.96,151.56,21.96,151.56Z"/><path d="M74.52,184.56l-3.6-15.6a8.70853,8.70853,0,0,1,3.36,1.68c1.32,1.2,1.68,4.56,1.68,4.56l1.8,9.36Zm7.44,19.2,5.64-.72-4.8-25.08s-1.08-5.52-2.52-7.8c-2.52-3.72-7.8-5.16-7.8-5.16l-10.32-2.04L72.84,205.2l6.36-.96L75.24,188.4h3.72Z"/><path d="M83.4,166.8l7.2,36,7.56-.84s3.6-.12,4.56-.96a5.37605,5.37605,0,0,0,2.04-3.96l-.84-28.08-7.44-.72,2.64,26.52s.24,2.4-.96,3.6a2.4196,2.4196,0,0,1-2.16.84l-3.84-31.44Z"/><path d="M107.88,201.24005l9-.36A7.61925,7.61925,0,0,0,120.96,199.2a8.033,8.033,0,0,0,1.8-3.96l.12-5.04h-6.12l.12,5.04a3.35981,3.35981,0,0,1-.72,2.4c-.6.6-2.64.6-2.64.6v-10.2h9.36l.24-3H113.4v-8.88a2.32524,2.32524,0,0,1,.72-1.92,4.15053,4.15053,0,0,1,2.76-.6v9.12h6.48l.84-13.08L113.4,169.44a8.4968,8.4968,0,0,0-4.8,1.8c-2.28,2.04-1.92,6.72-1.92,6.72Z"/><path d="M136.56,174.48l-.48,7.92a2.8716,2.8716,0,0,1-.48,1.56,2.0149,2.0149,0,0,1-.96.72l-2.16-.12.6-11.64,1.56-.12a2.37858,2.37858,0,0,1,1.32.36C136.56,173.4,136.56,174.48,136.56,174.48Zm6-3.84c-1.2-1.2-4.08-1.08-4.08-1.08l-11.76.36-1.2,30.96,5.88.12.72-12.72s1.92-.6,2.88.72a2.794,2.794,0,0,1,.48,1.8l-.72,10.2,5.76.36L141.6,191.04a5.98247,5.98247,0,0,0-.24-3.12,3.24958,3.24958,0,0,0-1.8-1.55994s.84,0,2.04-1.32007a5.70527,5.70527,0,0,0,1.32-3.48l.72-7.2C143.52,174.36,143.88,171.96,142.56,170.64Z"/><path d="M137.52,214.92l7.32-1.8-7.44-.72c-.36,0-7.32-.6-10.8-.6-.48-1.43994-3.48-10.43994-3.48-10.43994l-1.2,3.48c-.12.24-1.68,4.56-2.52,6.96-4.08,0-9.48.48-9.6.48l-7.92.84,7.68,1.68c2.4.48,7.2,2.16,7.56,4.2-.6,2.4-2.16,6.6-2.16,6.6l-1.56,3.84s8.4-5.88,9.6-6.6c1.2.72,9.36,6.48,9.36,6.48s-3.36-9.72-3.6-10.56C129.6,217.56,133.8,215.76,137.52,214.92Z"/><path d="M126.72,218.64c.6-2.04,4.08-3.6,6.84-4.56-2.76-.24-6.24-.48-8.04-.48h-.36s-1.44-3.96-2.16-6c-.6,1.8-1.56,4.43994-1.92,5.64l-.12.48h-.48c-1.92,0-4.68.12-6.72.24,2.4,1.08,5.28,2.64,5.64,4.92v.36c-.36,1.31995-1.08,3.6-1.68,5.16,1.92-1.44,5.4-3.84,5.4-3.84s3.72,2.52,5.64,3.84c-.84-2.04-2.04-5.4-2.04-5.4Z" fill="#fff"/><path d="M51,76.2C51,38.28,83.76,7.44,123.96,7.44s72.96,30.84,72.96,68.76c0,37.8-32.64,68.64-72.96,68.64C83.76,144.84,51,114,51,76.2Z" fill="#fff"/><path d="M79.92,35.4l3-2.52c2.04-1.56,2.64-3.72,1.56-5.04-1.44-1.8-3.72-1.2-6.12.6l-2.4,2.04ZM79.68,30l.12-.12c.96-.72,1.68-.84,2.28-.12.48.6.12,1.44-.72,2.04l-.12.24005Z"/><path d="M98.04,23.04l2.16-.96.6.6,3.12-1.32L98.64,16.8,95.4,18l-.36,6.96,3.12-1.2Zm-.12-1.68-.12-1.92v-.12a3.1814,3.1814,0,0,0,.6.72l.72.84Z"/><polygon points="113.28 12.96 116.4 12.6 116.88 16.8 119.52 16.56 119.76 18.6 114 19.2 113.28 12.96"/><polygon points="131.16 12.6 134.4 13.08 133.68 17.28 136.32 17.64 135.96 19.68 130.32 18.84 131.16 12.6"/><path d="M149.16,22.8l2.16.96-.12.84,3.12,1.44-.36-7.08-3.24-1.32-5.28,4.56,3.12,1.44Zm1.08-1.08,1.32-1.56v.12c0,.36-.12.48-.12.84l-.12,1.08Z"/><path d="M164.76,30l.12.24005a5.03423,5.03423,0,0,0,1.08,1.68c.24.24.72.48.84.24s-.12-.6-.24-.72l-.48-.48c-.84-.96-1.32-1.92-.72-2.76.96-1.08,3-.6,4.44.6a10.13739,10.13739,0,0,1,1.8,2.16l-1.68.72a3.37092,3.37092,0,0,0-1.2-1.43994C168.6,30,168.12,29.76,168,30s.12.48.36.72l.36.48c.96.96,1.32,2.04.6,2.88-.96,1.08-2.88.48-4.32-.72a7.32935,7.32935,0,0,1-2.16-2.52Z"/><path d="M185.16,58.56c-.48-.36-1.44-.96-1.44-.96a1.43707,1.43707,0,0,1-.48-.48,7.50232,7.50232,0,0,0-.48-1.68005,71.5672,71.5672,0,0,0-23.52-19.56,11.15747,11.15747,0,0,0-3.12-.84.91816.91816,0,0,1-.6-.24,7.81774,7.81774,0,0,0-2.76-1.8,73.14348,73.14348,0,0,0-27.72-5.4,70.02358,70.02358,0,0,0-8.76.6l3.84-5.16c-15.12-.48-26.04,11.4-26.04,11.4A79.86744,79.86744,0,0,0,83.64,40.2a17.09955,17.09955,0,0,0-10.2,9.24c-2.04,1.56-6,6.84-6,6.84a23.15657,23.15657,0,0,0-2.64,2.04,28.39925,28.39925,0,0,0-6.96,13.44.44088.44088,0,0,0-.12.36c-.12.36-.12.84-.24,1.31995-.12.96-.36,1.8-.48,2.76l.12-.12a.52556.52556,0,0,1-.12.36A38.105,38.105,0,0,0,55.68,81c-.12.6-2.28,6.84-2.28,6.84h0C48,106.8,55.2,118.2,56.4,120c9.6,27.84,36.72,47.76,68.52,47.76a72.78894,72.78894,0,0,0,59.04-29.52,5.59,5.59,0,0,0,.48-1.8.82748.82748,0,0,1,.36-.6c.96-.48,1.32-.84,1.32-.96A67.49856,67.49856,0,0,0,197.16,97.56,66.70684,66.70684,0,0,0,185.16,58.56Z"/><path d="M94.8,44.88c.12-.24.36-.36.48-.48l.36-.36h.12a25.71032,25.71032,0,0,1,.84-6.48c6.6-9.12,17.4-11.52,17.4-11.52,1.32-.48.48.12.48.12-6.84,7.68-6.12,13.92-6.12,13.92l6.6,23.64s-5.28-1.92-9.36-10.08c-1.92,16.56,13.8,30,13.8,30,.6.6-.48-.12-.48-.12-3.84-1.92-8.4-6.12-9.6-7.2.24,1.32,7.92,39.48,8.04,39.72a2.48781,2.48781,0,0,0,.24.72l2.52-6.48,2.28,19.32c-10.08,9.24-20.64,5.64-21.24,5.4a6.23342,6.23342,0,0,1,.36.6s8.64,16.8,43.8,15.12c0,0,.84,0,.72.12a.37164.37164,0,0,0-.24.12,8.35729,8.35729,0,0,1-1.68.36C101.76,162.6,79.8,126.6,78.84,125.04a37.04329,37.04329,0,0,1-3.48-6.12c0-.12006,0-.36.12-.12006,0,0,4.44,4.56006,17.28,5.76h.12c-9.84-10.8-14.04-18.72-14.64-19.92,0,0-1.2-1.8-2.64-6.84,0,0,.12-.24005.12,0,.48.96,3.84,5.75995,7.8,6.84-3.36-5.4-5.52-13.92-5.76-15.12,4.56,6.36,12.72,6.84,12.72,6.84a.11753.11753,0,0,0-.12-.12v.12C77.04,83.04,79.92,68.64,85.32,58.2A57.37645,57.37645,0,0,1,94.8,44.88Z" fill="#fff"/><polygon points="134.64 132.6 125.88 141.72 136.68 133.44 131.04 114.24 133.56 91.2 129.24 113.16 134.64 132.6" fill="#c4ced4"/><path d="M132.48,85.8a.90993.90993,0,0,0,.48-.24005,7.97163,7.97163,0,0,0,2.4-1.92,12.48081,12.48081,0,0,0,3.48-9.24,24.33246,24.33246,0,0,0-1.2-7.2C137.52,70.44,136.56,82.32,132.48,85.8Z" fill="#c4ced4"/><path d="M136.56,46.56c3-4.56,8.04-4.92,10.2-4.92a16.36679,16.36679,0,0,0-5.04-.84,14.40248,14.40248,0,0,0-5.16.84q-1.44.54-1.8.72A36.62511,36.62511,0,0,1,136.56,46.56Z" fill="#c4ced4"/><path d="M128.88,58.8l.12-.12Zm3.72-2.52a.11752.11752,0,0,1,.12.12v1.32c0,9.84-2.52,20.64-3.6,24.48a56.52684,56.52684,0,0,0,4.8-23.04,50.51179,50.51179,0,0,0-.72-8.64,23.97494,23.97494,0,0,0-.48-2.52c-.96,7.44-3.84,10.8-3.84,10.8l-.12.12006c-.12,0-.12,0-.24-.12006a46.93088,46.93088,0,0,0-10.44-12.72,29.04568,29.04568,0,0,0-5.52-3.84c8.88,19.2,11.52,33.96,12.24,38.88V79.44a102.96486,102.96486,0,0,0-2.04-17.76c-.96-5.16-2.04-8.88-2.04-8.88v-.24h.24c3.96,3.12,6.84,11.88,7.2,13.56006a23.78253,23.78253,0,0,0,2.64-5.28c.72-2.28,1.44-4.44,1.44-4.44Z" fill="#c4ced4"/><path d="M57.84,96.24005c0,9.12,1.56,18.6,9.48,30.84,7.56,15.72,21.24,24.12,27.72,27.36,2.16.96,3.48,1.56,3.48,1.56a65.85685,65.85685,0,0,0,28.32,6.48,68.084,68.084,0,0,0,37.32-11.52c1.92-1.32,3-2.16,3-2.16v0l.84-.84c0,.12-.24.24-.36.24l-.72.48C152.88,156.84,140.04,159.36,129.48,159.36c-16.56,0-27.12-6.12-27.12-6.12C67.32,135,66.84,103.32,66.84,103.32a.11752.11752,0,0,1,.12-.12h.24c4.44,8.76,9.96,11.64,12.36,12.6a4.35227,4.35227,0,0,0,.84.36C70.2,103.44,67.32,92.64,67.32,84.6c0-10.8,5.16-16.8,5.16-16.8L72.6,67.68a.11756.11756,0,0,1,.12.12006,54.155,54.155,0,0,0-.96,9.96A36.69042,36.69042,0,0,0,73.2,88.44a26.77963,26.77963,0,0,0,1.08,2.76,53.91951,53.91951,0,0,1-.48-7.44,58.65375,58.65375,0,0,1,17.04-41.4c-2.28.96-4.92,3.36-7.08,5.64-2.4,2.4-4.32,4.8-4.32,4.8h-.12c-.12,0-.12,0-.12-.12006a13.01234,13.01234,0,0,1,1.8-5.4,22.21606,22.21606,0,0,0-4.44,6.48,28.45326,28.45326,0,0,0-1.8,4.56v.12A49.8855,49.8855,0,0,0,67.2,70.2a37.69167,37.69167,0,0,0-2.16,5.64c-.12.48-.24.72-.24.84,0,0,0,.12-.24.12s-.12-.12-.12-.24v-.12a2.61543,2.61543,0,0,1,.12-.72c0-4.56,1.92-9.48,2.64-11.4-5.28,5.64-6.6,13.44-6.6,19.56A43.74361,43.74361,0,0,0,61.8,94.2a76.83938,76.83938,0,0,0,1.32,11.64c.84,3.6,1.44,6.24,1.44,6.24a5.1407,5.1407,0,0,1,.36,1.2v.12H64.8c-.24,0-.24-.12-.36-.24-.12,0-.12-.12-.24-.36l-.24-.48c-3.84-5.76-5.64-15.12-6-17.4A4.923,4.923,0,0,0,57.84,96.24005Z" fill="#c4ced4"/><path d="M175.8,55.92s-17.04-22.8-49.08-22.8H126a.62351.62351,0,0,0-.48.24c0,.24.24.36.48.48a58.547,58.547,0,0,1,7.2,6.72v.12006l.12-.12006a12.15658,12.15658,0,0,1,2.04-.72,22.02569,22.02569,0,0,1,5.52-.72,21.5443,21.5443,0,0,1,10.32,2.64c-1.68.84-9.6,4.8-11.4,9.48l.12.12s8.04,7.2,24.6,7.2a55.10834,55.10834,0,0,0,8.64-.6,5.14175,5.14175,0,0,0,1.44-.24c.72-.24,1.56-.48,1.56-1.32A2.2383,2.2383,0,0,1,175.8,55.92Z" fill="#007dc5"/><path d="M141.36,87.84c-.12-.12-.24-.12-.24,0-.12,0-.12.12,0,.12a4.33037,4.33037,0,0,1,.48.6c.96,1.32,2.76,4.44,2.76,9.96a34.7205,34.7205,0,0,1-3.72,14.88,26.78269,26.78269,0,0,0-.6-5.28c-.6-3.12006-1.68-6.36-4.2-7.08h-.24l-1.44,13.56,5.4,20.16-10.68,8.64c-.12,0-.12,0-.12.12a.11753.11753,0,0,0,.12.12,41.218,41.218,0,0,0,11.28,1.32,67.77109,67.77109,0,0,0,13.56-1.44,2.56781,2.56781,0,0,0,1.68-1.56,69.21335,69.21335,0,0,0,1.2-13.32C156.72,116.76,154.2,99.84,141.36,87.84Z" fill="#007dc5"/><path d="M159,141.96c-.24-.12-.24-.36-.24-.72v-.6a33.67685,33.67685,0,0,0,.84-4.44,67.1988,67.1988,0,0,0,.84-11.16c0-12.12-2.88-29.04-16.44-42.12a.419.419,0,0,0-.24-.12l-.36-.36a.419.419,0,0,1,.12-.24h.24a1.6059,1.6059,0,0,1,.6.12,15.23719,15.23719,0,0,1,6.12,3.84c-.12-.6-.36-1.92-.72-3.6a23.19227,23.19227,0,0,0-4.2-7.92l-.36-.36c-.12-.24-.24-.24-.24-.48V73.56h.24c.12,0,.24.12006.6.36.84.36,34.92,16.8,36.12,49.92v.6a4.64277,4.64277,0,0,1-1.2,3.36c-.36.36-8.4,10.44006-20.4,14.16a1.52123,1.52123,0,0,1-.72.24C159.48,142.2,159.12,142.2,159,141.96Z" fill="#007dc5"/><path d="M184.56,117.72c-.72-27.36-26.64-45.96-39.6-53.64a59.05153,59.05153,0,0,0-7.2-3.84L137.16,60H138a10.91175,10.91175,0,0,1,8.16,3.72,12.831,12.831,0,0,0-.6-3.48l-.24-.36.36.12c3.72,1.44,8.4,1.92,13.08,1.92A89.00064,89.00064,0,0,0,171,60.96c3.24-.36,5.4-.84,5.4-.84h.48c1.92,0,2.52,1.08,2.52,1.2,4.44,4.92,9.84,16.2,10.8,29.76.12,1.68.12,3.36.12,4.92,0,10.2-2.16,18.12006-3.72,21.36-.6,1.2-1.08,1.8-1.56,1.8C184.68,119.04,184.56,118.56,184.56,117.72Z" fill="#007dc5"/><path d="M109.8,29.28l.12-.12c-.36.12-7.44,2.28-9.48,12.84,0,0,0,.24005.12,0,.6-.96,2.76-4.32,4.8-3.36V38.4C105.48,37.56,106.2,33.84,109.8,29.28Z"/><path d="M104.52,125.4c-1.56-3-11.28-24.24-11.28-24.24-3,1.08-6.72-1.44-6.72-1.44,4.8,12.6,16.08,23.64,17.88,25.68.24.36.24.24.24.24C104.52,125.64,104.52,125.4,104.52,125.4Z"/><path d="M94.8,56.52c-8.76,19.92,10.92,28.2,11.28,28.32L105,80.16l-.6-2.52a7.3407,7.3407,0,0,0-1.44-.6c-.12,0-.24-.12006-.36-.24A.91666.91666,0,0,1,102,76.56C93.36,72,94.2,61.08,94.8,57.48v-.36a2.11184,2.11184,0,0,0,.12-.72h0C94.92,56.16,94.92,56.4,94.8,56.52Z"/><path d="M107.76,112.68,106.32,87.6l8.52,27.96S112.08,108.96,107.76,112.68Z" fill="#c4ced4"/><path d="M114.84,63.72l-6.48-23.64v.48l1.8,15a1.4559,1.4559,0,0,1,.12.6c0,.84-.48,1.92-4.56-2.28-.12-.24-.24-.24-.24-.24C109.56,61.92,114.84,63.72,114.84,63.72Z" fill="#c4ced4"/><path d="M99.36,68.04a7.7784,7.7784,0,0,1-.84-3.48,7.46224,7.46224,0,0,1,2.76-5.64l.12-.12a38.55246,38.55246,0,0,1,0-6c-2.16,3.12-6.72,10.68-1.2,16.56-.12-.12-.24-.24-.24-.36A11.06822,11.06822,0,0,1,99.36,68.04Z" fill="#c4ced4"/><path d="M105.12,71.04a31.97387,31.97387,0,0,1-3.72-12.12V58.8A7.55349,7.55349,0,0,0,98.64,64.56a9.97009,9.97009,0,0,0,.72,3.36,4.31688,4.31688,0,0,1,.6,1.08c.12,0,.24.24005.24.36l.36.36a7.33534,7.33534,0,0,0,5.04,2.16A2.6609,2.6609,0,0,1,105.12,71.04Z"/><path d="M112.92,115.92s-4.2-1.08-3.84,7.56a1.70576,1.70576,0,0,1,.24-.72c1.2-2.87994,2.4-3.96,3.48-4.08.84,0,1.56.84,2.04,1.92a30.60923,30.60923,0,0,1,1.32,3.96,19.99457,19.99457,0,0,1,.72,3.48,12.38267,12.38267,0,0,1,.12,2.28v.12C117.12,129.48,118.92,117.6,112.92,115.92Z" fill="#c4ced4"/><path d="M117,130.44h0c-.12-1.08-.12-1.8-.24-2.4-.12-.96-.36-2.16-.6-3.36a20.423,20.423,0,0,0-1.44-4.08c-.48-1.08-1.2-1.8-2.04-1.8-1.08,0-2.16,1.2-3.48,3.96a2.22493,2.22493,0,0,1-.24.84l2.16,4.44S112.32,115.92,117,130.44Z"/></svg>