<?xml version="1.0" encoding="UTF-8" standalone="no"?>
<svg xmlns:rdf="http://www.w3.org/1999/02/22-rdf-syntax-ns#" xmlns="http://www.w3.org/2000/svg" height="247.47764" width="247.47789" version="1.1" xmlns:cc="http://creativecommons.org/ns#" xmlns:dc="http://purl.org/dc/elements/1.1/" viewBox="0 0 247.47789 247.47764"><path d="M246.47789,123.2725A123.23883,123.23883,0,1,1,123.20539,0,123.27378,123.27378,0,0,1,246.47789,123.2725Z" fill="#b3b2b1"/><path d="M242.97506,123.2725A119.736,119.736,0,1,1,123.20539,3.50284,119.75207,119.75207,0,0,1,242.97506,123.2725Z" fill="#003da6"/><path d="M225.25885,123.2725A102.12082,102.12082,0,1,1,123.138,21.15168,102.14355,102.14355,0,0,1,225.25885,123.2725h0Z" fill="#dd0031"/><path d="M123.20539,219.53281A96.271,96.271,0,0,1,33.54654,158.166c17.11,23.37461,50.85832,39.40677,89.65885,39.40677,38.86789,0,72.5489-15.9648,89.7262-39.40679A96.59755,96.59755,0,0,1,123.20539,219.53281Zm0-192.45329a96.36185,96.36185,0,0,1,89.7262,61.36677c-17.17732-23.37462-50.85833-39.40678-89.72621-39.40678-38.80052,0-72.5489,15.89741-89.65885,39.40678a96.20275,96.20275,0,0,1,89.65886-61.36676Zm-96.193,99.15689h18.794V120.2412h-18.794c.06736-2.223.20209-4.51325.40417-6.7362,6.7362-33.61365,47.01869-59.4133,95.78879-59.4133,48.70274,0,89.11995,25.93438,95.78879,59.4133.26945,2.223.33681,4.51325.40417,6.7362H200.537v5.99522h18.794c-.06736,2.29031-.13472,4.51325-.40417,6.80356-6.66884,33.47893-47.08605,59.34594-95.78879,59.34594S34.01808,166.51892,27.34924,133.04c-.13473-2.29031-.26946-4.51329-.33682-6.8036Zm96.193-105.08475A102.12082,102.12082,0,1,0,225.32621,123.27249,102.27331,102.27331,0,0,0,123.20539,21.15167Z" fill="#fff"/><rect x="80.02633" y="125.89961" width="7.20774" height="32.40111" fill="#fff"/><path d="M107.71212,125.89961h-.26945c-2.02086,0-9.43068-.06736-10.84529,0h-.33681c-2.15558,0-3.57019,1.01043-3.907,2.96393a1.51906,1.51906,0,0,0-.13473.47153c0,.06736-.47153,6.1973.13473,7.88135.94306,2.76184,3.23337,3.83963,5.25424,4.37853.06736,0,.13473.13473.20209.13473a1.24878,1.24878,0,0,1,.47153.13473,1.4161,1.4161,0,0,1,.47153.33681v11.721H92.8251v4.31117h7.88135c2.69448-.06736,4.58062-1.34724,5.25424-3.30074.13473-1.61669.20209-12.462.06736-14.75228a2.76213,2.76213,0,0,0-1.27988-2.15558,8.4533,8.4533,0,0,0-1.14515-.741c-.40417-.26945-.94306-.40417-1.34724-.67362-1.68405-.80835-3.57019-1.75141-3.57019-3.907V130.8844H104.344a3.02868,3.02868,0,0,0,2.69448-1.68405,7.40309,7.40309,0,0,0,.5389-1.68405,4.4596,4.4596,0,0,0,0-1.34724Z" fill="#fff"/><path d="M138.36184,133.24207a7.54068,7.54068,0,0,1,.20209-1.9535l.20209-.13473a5.09817,5.09817,0,0,1,1.01043-.06736h.13473c2.425,0,2.4924.741,2.4924,5.18688v14.68492a5.2356,5.2356,0,0,1-.13473,1.0778l-.20209.20208a7.32157,7.32157,0,0,1-1.21252.06736,2.36129,2.36129,0,0,1-1.9535-.60625c-.5389-.53889-.5389-1.54933-.5389-2.69447Zm2.425-7.34246a20.7207,20.7207,0,0,0-4.71534.47153c-3.50283.80835-5.25424,3.166-5.25424,7.20773v19.3329c0,4.91743,3.50283,5.92786,8.82443,5.92786,6.46675,0,10.1043-2.2903,10.1043-6.26467V132.43373C149.746,125.89961,145.56958,125.89961,140.78688,125.89961Z" fill="#fff"/><path d="M166.4518,139.70883c-3.3681-12.52934-9.0265-13.87658-11.24946-13.87658a8.03432,8.03432,0,0,0-1.01042.06736l-.13472.13473v32.40112h7.34245V145.36723l5.05215,13.06823H173.929V126.03434H166.4518Z" fill="#fff"/><path d="M68.37271,140.38245H64.26362v-9.43068s2.15558-.06736,2.4924,0c.8757.06736,1.54933.40417,1.54933,1.4146C68.37271,132.63581,68.37271,140.38245,68.37271,140.38245Zm2.89657-14.48284H52.81208v.26945a4.88246,4.88246,0,0,0,4.10908,4.78271v27.4837h7.54455V144.62625h6.26467c3.30074,0,5.25424-2.15558,5.25424-5.99522v-1.21251C75.84989,128.25728,75.51308,126.43851,71.26928,125.89961Z" fill="#fff"/><path d="M128.59435,126.03434H111.68649v5.05215h4.85007v27.41635h7.40982V131.08649h.26945a4.33409,4.33409,0,0,0,3.166-1.14515,5.585,5.585,0,0,0,1.27988-3.70491Z" fill="#fff"/><path d="M193.59868,125.89961h-.26945c-1.9535,0-9.43068-.06736-10.84529,0h-.33681c-2.15558,0-3.57018,1.01043-3.907,2.96393a2.81906,2.81906,0,0,0-.06736.47153c0,.06736-.53889,6.1973.06736,7.88135a7.03472,7.03472,0,0,0,5.25423,4.37853c.06736,0,.20208.13473.26945.13473a.95754.95754,0,0,1,.40417.13473c.26945.06736.40417.26945.53889.33681v11.721H178.779v4.31117h7.814c2.76185-.06736,4.58062-1.34724,5.25423-3.30074.20208-1.61669.26945-12.462.06736-14.75228a2.86893,2.86893,0,0,0-1.21252-2.15558,6.35468,6.35468,0,0,0-1.21252-.741c-.40417-.26945-.8757-.40417-1.27988-.67362-1.68405-.80835-3.63756-1.75141-3.63756-3.907V130.8844h5.72578a2.86009,2.86009,0,0,0,2.62711-1.68405,10.71561,10.71561,0,0,0,.60625-1.68405,8.8775,8.8775,0,0,0,0-1.34724Z" fill="#fff"/><path d="M127.31447,92.69014h1.4146c1.9535,0,2.55976,0,2.4924,3.3681,0,2.62711,0,2.8292-.06736,4.04172v.26945a1.52986,1.52986,0,0,1-.40417,1.07779.73144.73144,0,0,1-.60626.26945h-2.89657v-9.0265Zm0,13.203h1.27988c1.14515,0,3.23337.40417,3.23337,2.55976,0,1.01043.06736,4.31117.13473,5.52368v.5389c0,.13473.13473,1.75141.20209,2.08822.47153,1.88614,2.02086,2.96393,4.24381,3.23337h2.08822v-11.5189a5.52423,5.52423,0,0,0-1.34724-3.3681l-.13473-.13473a6.3278,6.3278,0,0,0,1.54932-4.58062V99.02216c0-8.89178-.33681-10.77792-4.51325-11.18209h-14.0113v31.66015h7.20773V105.89309Z" fill="#fff"/><rect x="165.03719" y="87.70533" width="7.00566" height="31.5928" fill="#fff"/><path d="M104.54611,119.43283h7.20773V92.69014h.26945a4.16994,4.16994,0,0,0,3.09866-1.14515,5.35726,5.35726,0,0,0,1.27988-3.63755v-.20209H99.83077v4.98479h4.71534Z" fill="#fff"/><path d="M180.53047,119.43283h7.20773V92.69014h.26945a4.16989,4.16989,0,0,0,3.09865-1.14515,5.35722,5.35722,0,0,0,1.27988-3.63755v-.20209H175.81513v4.98479h4.71534Z" fill="#fff"/><polygon points="95.991 114.313 88.379 114.313 88.379 106.567 93.566 106.567 93.566 99.696 88.379 99.696 88.379 92.623 95.991 92.623 95.991 87.705 81.373 87.705 81.306 119.298 95.991 119.298 95.991 114.313" fill="#fff"/><path d="M69.71994,114.31335H65.67822V92.69014c2.4924-.06736,3.03129.06736,3.09865.20209.94307.26945.94307,2.02086.94307,2.15558C69.85466,97.47284,69.71994,112.29248,69.71994,114.31335Zm2.49239-26.608h-18.053v.13473a4.26414,4.26414,0,0,0,.94307,3.23337,4.65908,4.65908,0,0,0,3.30074,1.54932v26.608h13.4724c3.09866,0,5.11951-2.55976,5.11951-6.46676V98.01174c0-8.01608,0-10.17167-4.78269-10.30639Z" fill="#fff"/><path d="M149.88073,94.84573a7.53993,7.53993,0,0,1,.20208-1.9535l.20208-.13473a5.09874,5.09874,0,0,1,1.01042-.06736H151.43c2.425,0,2.4924.741,2.4924,5.11951v14.41548a5.23383,5.23383,0,0,1-.13472,1.07779l-.20208.06736a3.72969,3.72969,0,0,1-1.21252.13473,2.71489,2.71489,0,0,1-1.9535-.60626,4.13376,4.13376,0,0,1-.53889-2.69448V94.84573Zm2.2903-7.14037a20.95727,20.95727,0,0,0-4.648.40417c-3.50282.80835-5.18688,3.166-5.18688,7.073V114.0439c0,4.85007,3.50283,5.8605,8.75706,5.8605,6.332,0,10.03694-2.223,10.03694-6.06258V94.10474c.06738-6.39939-4.10907-6.39939-8.95911-6.39939Z" fill="#fff"/></svg>