<?xml version="1.0" encoding="UTF-8" standalone="no"?>
<svg xmlns:rdf="http://www.w3.org/1999/02/22-rdf-syntax-ns#" xmlns="http://www.w3.org/2000/svg" height="241.55994" width="241.44" version="1.1" xmlns:cc="http://creativecommons.org/ns#" xmlns:dc="http://purl.org/dc/elements/1.1/" viewBox="0 0 241.44 241.55994"><path d="M241.44,120.84A120.72006,120.72006,0,1,1,120.72,0,120.81205,120.81205,0,0,1,241.44,120.84Z" fill="#cd1141"/><path d="M120.72,235.2A114.48389,114.48389,0,0,1,119.4,6.24h1.32a114.4689,114.4689,0,0,1,81.84,194.52,113.99257,113.99257,0,0,1-80.64,34.44Z"/><path d="M120.36,22.55994l-1.2,1.2V38.4l1.2,1.2h3.96l1.2-1.2v-14.64l-1.2-1.2ZM132,42.24l-4.08,3.96H116.76l-3.96-3.96V20.04l3.96-3.96h11.16l3.96,3.96v22.2Z" fill="#fff"/><path d="M209.16,75.36l-1.56-.48-13.08,6.36-.6,1.56,1.68,3.6,1.56.6,13.2-6.36.6-1.56Zm-12.6,18.96-5.28-1.92-4.8-9.96,1.92-5.4,19.92-9.48,5.28,1.8,4.8,10.08-1.8,5.4Z" fill="#fff"/><path d="M50.64,53.64v1.68L61.2,65.52h1.68l2.88-2.88v-1.8L55.32,50.64h-1.8Zm22.08,5.28.12,5.64-7.8,8.04H59.4L43.56,57.24l-.12-5.64,7.8-8.04,5.76-.12Z" fill="#fff"/><polygon points="172.92 28.8 161.28 56.52 156.36 54.48 155.16 34.8 148.32 51 143.04 48.84 154.8 21.12 161.28 23.88 161.4 41.16 167.52 26.52 172.92 28.8" fill="#fff"/><path d="M83.28,37.92l4.68-2.16a8.33288,8.33288,0,0,0,.6-1.56L87,30.48l-1.68-.6-4.68,2.16Zm12.24-2.76L94.2,39.84l8.4,8.16-5.88,2.64-7.8-7.56L86.16,44.4l3.96,9.12-5.4,2.28-12-27.6,12.96-5.64,5.52,2.28Z" fill="#fff"/><polygon points="196.56 55.8 192.6 51.96 176.04 68.76 171.6 64.44 188.16 47.52 184.2 43.68 188.76 39 201.12 51.24 196.56 55.8" fill="#fff"/><polygon points="36 72.96 33.72 78 55.32 87.6 52.8 93.36 31.2 83.76 28.92 88.8 22.92 86.04 30.12 70.32 36 72.96" fill="#fff"/><polygon points="201 149.76 198 155.4 195.84 154.32 195.24 155.4 193.44 159 193.92 160.56 196.92 162.24 196.56 162 198.12 161.52 201.72 154.8 207.24 153.12 216.36 157.8 217.92 163.2 212.76 173.16 207.36 174.84 202.8 172.44 205.8 166.8 208.08 168 210.6 163.32 210 161.64 207.6 160.44 205.92 160.92 202.56 167.52 196.92 169.2 187.8 164.52 186 159 191.16 149.04 196.68 147.48 201 149.76" fill="#fff"/><path d="M42.72,158.4l2.4,4.56a9.40568,9.40568,0,0,0,1.68.6l3.6-1.92.48-1.68-2.4-4.56Zm3.6,12.12-4.8-.96-7.56,8.88-3-5.64,6.96-8.28-1.44-2.76-8.88,4.56-2.64-5.16L51.6,147.24l6.6,12.48-1.8,5.52Z" fill="#fff"/><path d="M87.96,201.6l4.2,1.8,1.56-.72,1.68-3.84-.6-1.56-4.32-1.8Zm-2.28,5.28-4.32,10.43994-5.28-2.16,11.52-27.84,12.72,5.28,2.16,5.4-4.2,10.2-4.2,2.16Z" fill="#fff"/><polygon points="131.4 201.72 125.88 201.84 126.12 225.36 119.76 225.48 119.52 201.84 114.12 201.96 114 195.36 131.28 195.24 131.4 201.72" fill="#fff"/><path d="M148.56,197.4l-.72,1.56L153,212.64l1.56.6,3.84-1.44006.72-1.55994-5.16-13.68005-1.56-.6Zm17.76,14.16-2.16,5.16-10.44,3.96-5.16-2.28-7.92-20.76,2.28-5.16,10.44-3.96,5.16,2.28Z" fill="#fff"/><path d="M177.48,188.64l3.96-3.48.12-1.55994-2.64-3.24-1.56-.12-3.96,3.36Zm10.92-6.24.12,4.92,10.44,5.52-4.92,4.08-9.6-4.92-2.28,2.04L188.52,201.6l-4.32,3.84L164.64,182.4l10.68-9,5.88.48Z" fill="#fff"/><path d="M60.96,192.84l4.2-8.28-8.04,4.8Zm-.12,14.28-4.68-4.32007L58.32,198.36l-6.48-6L47.52,195l-4.68-4.44006L70.08,174.24l4.68,4.31995Z" fill="#fff"/><path d="M144.12,181.31995l.24.24a6.46128,6.46128,0,0,0,.96-.12l.72-.24,1.92-.84,4.68-2.16.84-.48.48-.24.48-.36.84-.48.96-.6,1.32-.84,2.16-1.56,1.2-.84,1.56-1.08,1.44-1.08.6-.48,1.08-.96.96-.96,1.56-1.68005,1.8-1.8,2.16-2.52,1.2-1.56.36-.48,1.32-1.56,2.4-3.6.72-1.08,1.68-3.24.84-1.68,1.56-3.24.84-2.04.96-3s1.08-3.96,1.68-6c.12-.12006.12-.36-.12-.6a9.91949,9.91949,0,0,1-.84-1.56,5.21729,5.21729,0,0,0-.48-.84c-.24-.24005-.6-.72-.84-.96-.12-.24005-.36-.36-.6-.6-.48-.36-.96-.96-1.32-1.2-.24-.12-.36-.24-.6-.36a15.044,15.044,0,0,0-4.2-2.52,12.49289,12.49289,0,0,0-1.92-.72,8.84,8.84,0,0,0-1.68-.48.56536.56536,0,0,0-.72.12c-.12.12-.12.36-.12.72a17.90427,17.90427,0,0,0-.24,2.52,17.90371,17.90371,0,0,0-.24,2.52c-.12.84-.12,1.56-.24,2.4a25.98665,25.98665,0,0,1-.48,3c-.36,1.92-.72,3.84-1.08,5.64a5.95441,5.95441,0,0,1-.36,1.56,19.04316,19.04316,0,0,0-.84,2.4,36.67474,36.67474,0,0,1-1.56,5.16,15.62887,15.62887,0,0,1-1.8,4.08c0,.12,0,.12-.12.36-.36.84-.72,1.68-1.08,2.64-.24.48-.6.96-.84,1.56a11.39437,11.39437,0,0,1-1.2,2.04c-.6,1.08-1.32,2.04-1.92,3.12a11.88739,11.88739,0,0,1-1.32,2.04c-.12.24005-.24.36-.36.6a8.51733,8.51733,0,0,1-1.2,1.68c-.84,1.08-1.68,2.16-2.52,3.12q-.9.9-1.8,1.8l-1.56,1.55994c-.12.24-.24.24-.36.36a3.23487,3.23487,0,0,0-.96.84,10.75487,10.75487,0,0,1-2.16,1.8,6.01119,6.01119,0,0,0-.96.84A12.05785,12.05785,0,0,1,144.12,181.31995Z" fill="#a0a0a3"/><path d="M186.48,130.67993l.12-.12v-.48l.48-4.08.24-3.84v-4.44l-.36-4.32s-.6-3.96-.96-6c-.12-.72-.6-.96-1.2-1.32-.24-.12-.36-.24-.6-.24a5.84965,5.84965,0,0,1-1.32-.48c-.96-.12-1.92-.6-2.88-.72-1.2-.24-2.4-.24-3.6-.48-.96,0-1.92-.12-2.88-.12h-2.04c-.48,0-.84,0-1.08.36-.24.24,0,.72,0,1.2.12.96.36,1.44.48,2.28a64.27314,64.27314,0,0,1,1.08,8.4c0,1.32.12,2.52.12,3.84v.96a5.19647,5.19647,0,0,0,.12.6,2.62506,2.62506,0,0,0,.6.36,2.11133,2.11133,0,0,1,.72.12,3.70993,3.70993,0,0,1,.96.24c1.08.36,2.28.72,3.48,1.2a18.12644,18.12644,0,0,1,2.16,1.08.37171.37171,0,0,0,.24.12c.48.36.96.72,1.32.96a15.06855,15.06855,0,0,1,2.88,2.64.93682.93682,0,0,0,.48.48c.36.36.84,1.32,1.2,1.68C186.36,130.55994,186.36,130.67993,186.48,130.67993Z" fill="#a0a0a3"/><path d="M157.44,84.36h1.08c.24,0,.48,0,.48-.36.12-.24,0-.36-.12-.6s-.84-1.44-.84-1.44l-.72-1.2-3.12-4.32-.6-.84-.6-.84-.96-1.08-2.52-2.64-.96-1.08-3.84-3.6-3.12-2.4-1.2-.6-3.6-2.16-2.64-1.44-.48-.24-2.16-.72-3.12-1.2-.24-.12-.96-.24-1.2-.24005-1.8-.36h-.96l-1.68-.36-1.92-.12-.72-.12h-1.2l-2.16.12-2.04.24h-1.56l-1.44.12-1.32.24-1.2.36-1.8.36h-.36l-1.68.6-.96.36-.6.36-1.44.36-.6.36-.84.48-2.16.96L94.8,62.04l-.84.36-1.92,1.08-1.68,1.08-1.56.84-.6.24-1.68.96-.36.12-1.92,1.44-1.56,1.08-.36.24-1.8,1.43994-.6.48a7.24138,7.24138,0,0,0-.96.96l.6-.12,1.32-.48h.24l1.8-.72h.24l1.92-.84,1.08-.24.96-.36,1.44-.6,3.6-1.32h.24l1.8-.6,1.44-.6.24.12,2.76.12,1.8.12h.12l3.48.36,4.92.24v.12l1.8,1.44h.12l1.8,1.8.12-.12006,2.52.12006.12-.12006,6.12.36v.12l2.76,1.68h.12l4.8,2.28v.24L132,74.28l4.08,1.32.72,1.2h1.44l1.44,1.56h.12l1.2,1.31995V79.8h.12l3.12.72,1.2,1.8,2.88,1.08a40.05852,40.05852,0,0,0,4.8.96A17.28128,17.28128,0,0,0,157.44,84.36Z" fill="#a0a0a3"/><path d="M184.8,102.96c-.12-.36-.48-1.32-.48-1.32l-.12-.6-.24-.6L183.48,98.88,183,97.55994l-1.56-3.36-.72-1.68L180,90.6l-1.08-1.56-.96-1.8-.6-1.08L177,85.8l-4.32-6-.72-.72a.25809.25809,0,0,0-.24-.24s-1.32,2.16-1.92,2.88c-.6.6-1.8,1.68-1.8,1.68s-.96.72-1.08.84a11.06725,11.06725,0,0,1-.96.6l-.96.6a5.84931,5.84931,0,0,1-.84.36c-.24.12-.36.12-.36.24-.12.12-.12.12-.12.36s.12.24.12.36A25.67729,25.67729,0,0,0,165,89.4a21.90178,21.90178,0,0,1,1.68,3.84,12.44928,12.44928,0,0,1,.48,1.2c.36,1.2.84,2.28,1.08,3.36.12.6.36.96.48,1.56.12.48.24,1.08.36,1.43994s.24.6.72.48h.96c1.2,0,2.28-.12,3.48-.12.36,0,2.76.24,2.76.24s.72.12,1.2.24c.96.12,1.8.36,2.76.48a15.19711,15.19711,0,0,1,2.16.72l1.08.36a1.209,1.209,0,0,1,.36.12C184.8,103.2,184.8,103.08,184.8,102.96Z" fill="#a0a0a3"/><path d="M169.32,76.8a2.62215,2.62215,0,0,0-.36-.6l-.24-.36-.6-.84-.36-.6-.84-.72a1.48538,1.48538,0,0,0-.36-.24c-1.44-1.08-4.2-3.36-4.2-3.36l-.72-.6-1.44-1.32L153,63.84l-5.76-2.64-3.12-1.2-1.08-.36-3.72-1.32-2.64-.72-2.52-.48h-.36l-.24.24s.24.24.36.24c.84.24,1.68.6,2.4.84.6.24,1.08.48,1.68.72a1.48134,1.48134,0,0,1,.96.48c1.2.6,2.4,1.32,3.72,2.04A13.10134,13.10134,0,0,1,144.72,63.24l1.44,1.08a3.18067,3.18067,0,0,1,.72.6c.12.12.24.24.36.24.72.6,1.56,1.2,2.16,1.8a17.37818,17.37818,0,0,0,2.04,2.16c.72.72,1.32,1.31995,1.92,2.04a20.86274,20.86274,0,0,0,1.56,1.8c1.08,1.08,1.8,2.28,2.88,3.36.12.12.12.24.24.48a24.02868,24.02868,0,0,0,1.92,2.87994,12.45815,12.45815,0,0,1,1.44,2.04,7.17061,7.17061,0,0,0,.72,1.32c.24.12.48.36.6.36a.838.838,0,0,0,.48-.24l.48-.12a6.8849,6.8849,0,0,0,.84-.48,1.934,1.934,0,0,0,.84-.48,6.92268,6.92268,0,0,0,1.2-.96c.36-.36,1.2-1.32,1.2-1.32l.6-.72.96-1.68C169.2,77.4,169.44,77.04,169.32,76.8Z" fill="#a0a0a3"/><path d="M166.32,101.04c-.36-1.2-.6-2.4-1.08-3.6a28.09532,28.09532,0,0,0-1.08-2.88c-.24-.6-.36-1.2-.6-1.8-.12-.36-.24-.6-.36-.96a22.48942,22.48942,0,0,0-2.04-4.2.37164.37164,0,0,0-.12-.24c-.12-.12-.12-.24-.24-.36-.24-.12006-.36,0-.72,0-.6,0-1.44.12-1.68.12-.36,0-1.56.12-2.52.12h-1.44l-3.12-.48c-1.2-.12-3.72-.72-3.72-.72l-2.04-.72-2.4-.84-.12.12-3.72-.36-.12.12-2.04-1.56h-.24l-1.32-1.2v-.24l-1.44-.24-.24.12-1.2-.48-.12-.12-2.64.24-2.52-.96-8.52.48-.12-.12-1.68.12-.12.24-4.2.24-.12-.12-6,3.48-.12.24-.24.24-.12-.12-3-.24H97.56L96,84.24,95.52,84,90,88.31995v.12L88.08,90l-2.16-1.08-.12.12-.84-.24s-4.08.96-3.96.96l-3.84-.6-.24-.12-.6.72-1.56.72v.12l-3,2.4-4.32,3-4.8,3.6-2.16,1.56-.12.96-.84,2.04-.36,1.8-.6,3.72L58.2,111.24l-.24,1.92-.48,3.96-.24,8.64.24.48.12,2.4s0,.48.12.48L68.4,118.2l3.36-1.44,3-.12,1.8-2.04.12-.36h.24l4.8-.48.24-.12H84l.6-.72,2.16-1.32,2.4-1.56h6.36l.12.12,2.52.24,2.04-.36,3.6-3.6,2.88-2.76,4.32-.48.12-.24.24.24,2.16.96.24-.12,1.92-.24005h.12l1.8-.36h.12l2.04,1.68005.12-.12,4.08-.12.36-.24005,3.36.12.12.12006.6-.12006v-.12l1.32-.6h.24l1.44-.72.12-.12,1.68-.6.12-.24,4.68-1.8.84-.24.12-.12.24.24,1.32.6H141l1.44.84.12-.12006.36-.24h.12l.72-.36v-.12l1.08-.24005,2.76.72.6-.12.48.24,2.04.36,1.92.72,1.08-.12.48.24.24-.12s3.84-.48,5.76-.6c1.32-.12,2.52-.24,3.72-.36.72-.12,1.44-.12,2.16-.24C166.32,101.64,166.56,101.4,166.32,101.04Z" fill="#a0a0a3"/><path d="M169.2,120.72c0-.36-.12-.48-.12-.72a13.041,13.041,0,0,1-.12-2.16c0-.24-.12-.6-.12-.84a20.33974,20.33974,0,0,1-.12-2.75995c-.12-1.2-.36-2.28-.48-3.48a20.345,20.345,0,0,0-.48-2.64,22.14786,22.14786,0,0,0-.48-2.76c-.24-.96-.36-.96-1.32-.96-.12,0-.24,0-.24.12a4.08256,4.08256,0,0,1-1.2.12c-1.92.24-3.72.36-5.52.6l-5.4,1.92-7.8-.24005-.84-.36v.24l-2.4,1.68005h-.24l-1.8,1.68-.12.24-4.68.6-4.2,3.36h-.48l-2.28,1.31995-.84.12-.96.72-.24-.12-4.32-.36-.72.84v.12l-3.72,4.2-.12.24h-.12l-4.8,5.4H111.6l-.12.12-3.96.72h-.36v.24l-6.6,3.6-2.88-.36-.6.24-2.88-.24-2.88,3.12-1.8.36h-.96l-.96.36H87V135.12l-3.6,2.75995-.48.12-5.52,4.32v.24l-3.48,8.4.24.36-5.76.48L66.6,153.48l-.24.6,2.64,3.48,1.8,2.88,1.68,2.16,2.64,2.76v.24c.12,0,.48,0,.48.12l1.56.48,1.92.6a.11752.11752,0,0,0,.12.12h.12L82.56,168.24h.24l.12.12h.36l.72.6,1.32-.72h.12l.6-.48,4.92,1.2,3.6-1.8,7.92-.72,3.24-5.28c.6-.6,1.44-1.44,1.44-1.44h.24l1.08-1.08v-.12l2.04-1.92.96-.96.24-.12,1.08-1.08.96-.96.24-.12-.24-.72.84-3.48,1.8-.48.12-.12.48-.12v-.24l2.4-3.96h.24l.96-2.04,1.68-.84.24-.36.24.12006.96-.48h.12l1.68-.84.24-.24,5.76-2.64H132v-.36l.24-.12.6-2.04,1.92-.84,2.04-.12,1.92-1.44,2.88.24005.24.12.12-.12,3.96-1.68005v-.6l.84-1.8,1.92-.48.12-.12,2.52-.6,1.08-1.2h.12l.6-.6,1.8.24v.12l1.08.12.6.12s2.52-1.2,3.72-1.68a5.84965,5.84965,0,0,0,1.32-.48c.6-.24,1.2-.36,1.8-.6a2.82424,2.82424,0,0,0,.96-.24l1.2-.24,1.32-.24.96-.12h.6a.77556.77556,0,0,0,.6-.24005c.24-.12.12-.36.24-.48A2.11174,2.11174,0,0,1,169.2,120.72Z" fill="#a0a0a3"/><path d="M169.2,125.75995a1.0143,1.0143,0,0,0-.24-.72.90942.90942,0,0,0-.48-.24005c-.12,0-.84.12-.84.12l-1.08.12006c-.24,0-.24.12-.36.12a10.16241,10.16241,0,0,0-2.04.48,9.10454,9.10454,0,0,0-2.16.72,14.57587,14.57587,0,0,0-2.4,1.08c-.24.12-2.76,1.32-3.84,1.92l-1.56,1.55994V131.16H153v.12l-3,.96v.36l-.36.24v.24l-1.44,2.52h-.24v.24s-.24.36-.6.96l-6.24,3.96H141l-1.08.84-.6,2.64-.6.6-2.52,9.12.36,1.08-3.6,1.68h-.6l-.72,3.12-.12.12-.96,2.88.12.12-.36,2.4-.12.24.12.24-3.6,5.52h-.24l-.84,1.43994v.24l-3,4.20007-3.12,1.91992.12.24005-.12,1.32.24.48-.36.12-2.28,1.32h-.24l-3.36,1.92-.36.6,1.2.24005,2.16.12,1.56.12h5.04l4.68-.6,2.76-.6,2.16-.6,2.28-.6,2.88-1.20007.24-.12.84-.48a30.52361,30.52361,0,0,0,3.36-2.04,57.84489,57.84489,0,0,0,5.28-4.2,19.92425,19.92425,0,0,0,1.56-1.68,19.133,19.133,0,0,0,1.56-1.56c.12-.12.24-.12.24-.36a6.86209,6.86209,0,0,1,.84-.96,3.18105,3.18105,0,0,0,.6-.72,15.68363,15.68363,0,0,1,1.32-1.43994,3.404,3.404,0,0,0,1.08-1.2,16.48129,16.48129,0,0,0,1.56-2.4,30.40424,30.40424,0,0,0,2.16-3.24c.6-1.2,1.2-2.4,1.92-3.6.6-.96,1.08-2.04,1.56-3,.72-1.8,1.56-3.6,2.16-5.28a35.38778,35.38778,0,0,0,1.8-5.76,30.47187,30.47187,0,0,1,1.2-4.44,1.30485,1.30485,0,0,1,.12-.6c.24-1.2.36-2.4.6-3.6.12-1.08.24-2.16.48-3.36a15.00529,15.00529,0,0,0,.36-2.28c0-1.08.12-2.16.12-3.24v-.36A.89648.89648,0,0,0,169.2,125.75995Z" fill="#a0a0a3"/></svg>