<?xml version="1.0" encoding="UTF-8" standalone="no"?>
<svg xmlns:rdf="http://www.w3.org/1999/02/22-rdf-syntax-ns#" xmlns="http://www.w3.org/2000/svg" height="227.16003" width="246.59998" version="1.1" xmlns:cc="http://creativecommons.org/ns#" xmlns:dc="http://purl.org/dc/elements/1.1/" viewBox="0 0 246.59998 227.16003"><path d="M39.96,95.28l6.96-3.36L17.4,31.32l6.96-3.48L21,21,0,31.2l3.36,6.96,6.96-3.48Zm15.48-7.56,7.44-2.4L52.44,53.28l7.44-2.4L70.32,82.92l7.44-2.4L54.6,9l-7.44,2.4L57.6,43.44l-7.44,2.4L39.6,13.8l-7.44,2.4ZM94.56,1.44l-7.68,1.2L97.44,69.12l-7.68,1.2L79.2,3.84l-7.68,1.2L81.6,68.28a11.65977,11.65977,0,0,0,23.04-3.6ZM111,75.12l7.8.12006.36-21.72c.24-6.6-.24-20.04-.6-26.28h.24c2.04,16.8,5.76,32.4,8.16,48.24l7.44.12L135.72.48l-7.8-.24-.36,21.84c-.24,6.6.24,19.92.6,26.28h-.24c-2.04-16.8-5.76-32.4-8.16-48.24L112.32,0Zm29.16.48L155.52,78a7.66639,7.66639,0,0,0,8.88-6.36l9.36-58.8a7.95861,7.95861,0,0,0-6.48-9L151.8,1.44ZM158.4,10.44l7.68,1.2-9.36,58.8-7.68-1.2Zm54.72,6-14.76-4.8a7.621,7.621,0,0,0-9.84,5.04L170.16,73.2a7.621,7.621,0,0,0,5.04,9.84l14.76,4.8,2.4-7.44-14.88-4.8L185.52,51l11.04,3.6,2.4-7.32-11.04-3.6,8.04-24.6,14.76,4.8ZM193.32,89.4l33-67.68,14.04,6.84A7.69842,7.69842,0,0,1,243.96,39L231.84,63.96c-1.56,3.24-4.32,4.56-7.32,3.12l-8.4,33.36-6.96-3.36,8.28-33.6-2.28-1.08L200.4,92.76Zm36.6-57.12-11.4,23.28,7.08,3.48L237,35.64Z" fill="#002d62"/><path d="M13.8,227.16a366.27421,366.27421,0,0,1,48.48-36.12Q67.32,188.52,72.36,186c1.32-.6,4.08-1.92,7.44-3.6,2.4,2.64,4.68,5.16,7.2,7.56C61.44,201.84,36.96,214.32,13.8,227.16Zm182.28-91.08a368.34481,368.34481,0,0,1,50.52-7.68c-18.12,5.52-36.6,11.64-55.2,18.48C193.08,143.4,194.52,139.8,196.08,136.08Z" fill="#007ac1"/><path d="M1.2,176.64a380.12895,380.12895,0,0,1,55.32-28.68c.6,1.32,1.32,2.64,2.04,3.96-1.08,2.16-2.16,4.44-3.24,6.6C36.72,164.28,18.6,170.28,1.2,176.64Zm201.96-61.8a397.45592,397.45592,0,0,1,43.32.6c-15,2.16-30.24,4.56-45.72,7.44C201.6,120.24,202.44,117.6,203.16,114.84Z" fill="#f05133"/><path d="M123.84,90.96c28.2,0,50.28,6.6,75.36,19.08-12.24,45.96-34.68,77.04-75.36,102.12-15.24-9.48-28.32-20.04-39.12-32.04,4.8-2.28,10.2-4.92,15-7.08,2.04.12,3.84.24,5.64.24a8.60206,8.60206,0,0,1-2.4,6c.84.96,1.56,1.8,2.4,2.64,2.16-1.92,3.48-4.68,3.6-8.64a65.60594,65.60594,0,0,0,14.16-1.56c-.12,7.32-1.2,12.6-3.24,14.75995a.11753.11753,0,0,0-.12.12,13.16479,13.16479,0,0,1-1.44,1.32c2.04-.36,4.08-.84,5.88-1.32,2.52-5.16,2.52-14.16,2.52-15.72,4.68-1.2,8.76-2.4,12.48-3.6.12,4.2,1.92,8.16,5.16,9.72,1.44-1.08,2.76-2.16,4.2-3.24-.84.12-5.88.48-5.76-7.68,10.8-4.2,17.88-9,24.12-16.44A63.01632,63.01632,0,0,0,170.76,138c-7.44,11.76-14.16,18.6-27.6,24a55.33065,55.33065,0,0,1,2.16-8.52c3.96-1.67993,8.04-3.6,10.44-4.67993l5.88-6.12c1.56-5.64,2.88-11.28,4.32-17.04l-4.56,1.44,5.4-5.64c1.2-4.44,2.28-8.88,3.36-13.32-2.64.36-5.4.84-8.04,1.2.48-2.28.72-4.44.96-6.6-1.32-.24005-2.64-.72-3.96-.84a61.958,61.958,0,0,1-1.44,8.16l-.36.12a15.81961,15.81961,0,0,0-7.32,3.12l.72-2.16c-4.32.72-8.64,1.56006-12.96,2.4l-4.32,4.56.12-.48L135,114c-4.2.96-8.52,1.8-12.84,2.76-.84-5.76-1.8-10.92-2.52-15.12l-3.6.36c.72,4.32,1.68,9.6,2.64,15.48l-3,.72-3.84,4.08c-2.64-2.88-8.16-1.08-11.64-.24-3.72.96-7.44,2.04-11.16,3a25.5417,25.5417,0,0,0-3.24.96,95.3682,95.3682,0,0,1-7.68-12.6l-.36-.84c-1.08.48-2.16.84-3.36,1.44l.48.96a99.86012,99.86012,0,0,0,7.32,12.48,32.20833,32.20833,0,0,0-10.92,7.8s-5.28,5.4-5.88,6.12a33.393,33.393,0,0,0-3.48,4.92,179.497,179.497,0,0,1-13.2-36.24C73.56,97.56,95.64,90.96,123.84,90.96Zm2.76,69.72c2.64-1.08008,5.16-2.28,7.8-3.36l1.2-1.32a9.08258,9.08258,0,0,0,1.8.12,18.0463,18.0463,0,0,0,3.6-.96,53.286,53.286,0,0,0-1.68,8.28c-3.6,1.32-7.8,2.64-12.48,3.84C126.72,165,126.72,162.96,126.6,160.68005Zm-18,8.16,2.52-1.2,6.24-5.04,1.44-3.72c.84,1.8,1.32,2.52,2.28,4.32l2.04-.96V168a61.51274,61.51274,0,0,1-14.4,1.68005Z" fill="#fff"/><path d="M139.08,100.44a142.255,142.255,0,0,1,17.64.96,122.95388,122.95388,0,0,1,13.08,3.36A65.03077,65.03077,0,0,1,172.32,123a69.50165,69.50165,0,0,1-1.68,15.12c-7.44,11.76-14.28,18.48-27.6,23.88a55.3289,55.3289,0,0,1,2.16-8.52c3.96-1.67993,7.92-3.6,10.44-4.55994l5.88-6.12c1.44-5.76,2.88-11.4,4.32-17.04l-4.56,1.44,5.4-5.64c1.08-4.44,2.28-8.87994,3.36-13.32-2.64.36-5.4.84-8.04,1.2.36-2.28.72-4.44.96-6.6-1.32-.36-2.64-.72-3.96-.96a63.45638,63.45638,0,0,1-1.44,8.28l-.36.12a14.03745,14.03745,0,0,0-7.44,3.12l.84-2.16c-4.44.72-8.64,1.56006-13.08,2.4l-4.2,4.44.12-.36,1.44-3.6c-4.32.96-8.52,1.8-12.84,2.76-.84-5.88-1.8-11.04-2.52-15.24A147.63846,147.63846,0,0,1,139.08,100.44Zm27.72,49.32a67.00651,67.00651,0,0,1-18.24,24.12c-.84.12-6,.48-5.88-7.68C153.48,162,160.56,157.08,166.8,149.76Zm-22.56,27.36a64.40694,64.40694,0,0,1-20.04,9.6c2.4-5.16,2.52-14.16,2.52-15.72,4.56-1.2,8.64-2.4,12.48-3.6C139.32,171.6,141,175.68005,144.24,177.12Zm-25.92,10.92c-2.04.36-4.2.6-6.24.84-2.28-2.28-4.56-4.68-6.72-6.96,2.16-1.92,3.48-4.68,3.6-8.64a65.60594,65.60594,0,0,0,14.16-1.56c-.12,7.32-1.2,12.6-3.24,14.75995a.11753.11753,0,0,0-.12.12Q118.86,187.5,118.32,188.04Zm-15.36-8.76c-1.56-1.8-3.12-3.72-4.56-5.64l1.32-.6c2.04.12,3.84.24,5.64.24A9.16629,9.16629,0,0,1,102.96,179.28ZM74.4,132A161.39844,161.39844,0,0,1,69,116.28c1.68-.84,3.36-1.56,5.16-2.28l.36.96a100.69748,100.69748,0,0,0,7.44,12.48A30.21928,30.21928,0,0,0,74.4,132Zm3-19.44A160.111,160.111,0,0,1,115.8,102c.72,4.32,1.68,9.6,2.52,15.48l-3,.72-3.72,4.08c-2.76-2.88-8.28-1.08-11.64-.24-3.72.96-7.44,2.04-11.16,3a25.542,25.542,0,0,0-3.24.96A94.65554,94.65554,0,0,1,78,113.4Zm49.2,48.12006c2.64-1.08008,5.16-2.28,7.8-3.36l1.2-1.32a9.08258,9.08258,0,0,0,1.8.12,20.42643,20.42643,0,0,0,3.6-.96,42.1711,42.1711,0,0,0-1.68,8.28c-3.72,1.32-7.8,2.64-12.6,3.84C126.72,165,126.72,162.96,126.6,160.68005Zm-18,8.16,2.52-1.2,6.24-5.04,1.44-3.72c.84,1.8,1.32,2.52,2.28,4.32l2.04-.84v5.76A68.629,68.629,0,0,1,108.72,169.8Z" fill="#f05133"/><path d="M125.16,204.48A157.07314,157.07314,0,0,1,93.24,176.04l5.16-2.4c1.56,1.92,3.12,3.84,4.68,5.64a25.06718,25.06718,0,0,0,2.4,2.64,153.69218,153.69218,0,0,0,22.68,20.52A33.42582,33.42582,0,0,1,125.16,204.48ZM68.52,137.64a171.12424,171.12424,0,0,1-8.76-23.88,163.362,163.362,0,0,1,65.52-15.84,161.632,161.632,0,0,1,31.44,3.36,171.88935,171.88935,0,0,0-17.64-.96,150.7602,150.7602,0,0,0-19.68,1.2c-1.2.12-2.4.36-3.6.48a159.83534,159.83534,0,0,0-38.4,10.44c-1.08.48-2.28.96-3.36,1.44-1.68.72-3.36,1.56-5.04,2.4A142.19064,142.19064,0,0,0,74.28,132c-1.08.96-2.28,2.04-3.36,3.12Z" fill="#fdbb30"/><path d="M42.6,107.28c27-13.8,50.64-21.48,81.36-21.48,30.6,0,54.36,7.67993,81.36,21.48-12.6,50.52-36.6,84.12-81.48,111-16.92-10.2-31.68-22.08-43.92-35.88-3.36,1.68-6.12,3-7.56,3.72-4.2,2.16-8.4,4.2-12.6,6.36-4.8,2.4-10.08,6.12-15.6,4.68005-6-2.64-2.04-9.96-.24-14.04,4.68-10.43994,9.6-20.88,14.64-31.2A156.05395,156.05395,0,0,1,44.4,114.6Zm81.24-16.32c-28.2,0-50.28,6.6-75.36,19.08a173.75766,173.75766,0,0,0,13.08,36.12,34.34224,34.34224,0,0,1,3.6-4.92c.6-.6,5.76-6.12,5.76-6.12a33.14257,33.14257,0,0,1,11.04-7.8,92.588,92.588,0,0,1-7.44-12.48l-.36-.96c1.08-.48,2.16-.96,3.36-1.44l.36.84A96.03944,96.03944,0,0,0,85.44,126c1.08-.36,2.16-.72,3.36-1.08,3.72-.96,7.32-1.92,11.16-2.88,3.36-.96,8.88-2.76,11.52.12l3.84-4.08,3-.6c-.96-6-1.8-11.28-2.64-15.48,1.2-.12,2.4-.36,3.6-.48.72,4.2,1.68,9.48,2.52,15.12,4.32-.84,8.52-1.8,12.84-2.64l-1.44,3.6-.12.36,4.32-4.56c4.32-.72,8.52-1.56,12.96-2.4l-.72,2.28a15.35456,15.35456,0,0,1,7.32-3.24h.36a65.44834,65.44834,0,0,0,1.56-8.28c1.32.24,2.64.6,3.84.84a39.76276,39.76276,0,0,1-.96,6.6c2.76-.36,5.4-.72,8.16-1.2-1.2,4.44-2.28,9-3.36,13.44l-5.4,5.64,4.56-1.44c-1.56,5.64-3,11.28-4.32,17.04l-5.88,6.12c-2.52,1.08-6.6,3-10.44,4.55994a58.97448,58.97448,0,0,0-2.16,8.52c13.32-5.4,20.16-12.24,27.6-23.88a66.53732,66.53732,0,0,1-3.96,11.64c-6.24,7.31995-13.2,12.24-24.12,16.31995-.12,8.28,5.16,7.92,5.88,7.68005a28.99055,28.99055,0,0,1-4.32,3.24c-3.24-1.44-4.92-5.52-5.04-9.72-3.72,1.31995-7.8,2.4-12.48,3.6-.12,1.56-.12,10.56-2.52,15.72A58.24762,58.24762,0,0,1,118.08,187.8,13.565,13.565,0,0,0,119.4,186.48l.12-.12c2.16-2.16,3.12-7.44,3.36-14.76A76.22264,76.22264,0,0,1,108.72,173.28c-.12,3.96-1.44,6.72-3.6,8.52-.84-.84009-1.56-1.68005-2.4-2.52a9.36484,9.36484,0,0,0,2.28-6c-1.68-.12-3.6-.24-5.52-.36-4.8,2.28-10.32,4.92-15.12,7.08a177.05921,177.05921,0,0,0,39.24,32.04c40.68-25.08008,63-56.04,75.24-102.12C174.12,97.56,152.04,90.96,123.84,90.96Zm2.76,69.72c.12,2.27991.12,4.31995.12,6.48,4.8-1.20007,8.88-2.4,12.6-3.72a44.97239,44.97239,0,0,1,1.68-8.4,20.42643,20.42643,0,0,1-3.6.96,4.501,4.501,0,0,1-1.8,0l-1.2,1.2C131.76,158.4,129.24,159.6,126.6,160.68005Zm-18,8.16.12.84A61.51274,61.51274,0,0,0,123.12,168v-5.76l-2.04.96c-.96-1.8-1.32-2.52-2.28-4.32l-1.44,3.72-6.24,5.04Z" fill="#002d62"/><path d="M89.16,127.08c-6.36,1.8-12,4.44-16.56,9.48a47.00642,47.00642,0,0,0-6.24,9.84c-5.04,10.44-9.96,20.88-14.64,31.32-1.2,2.75995-4.92,9.36-.96,11.16,4.44,1.08,9.96-2.64,13.8-4.55994,4.2-2.16,8.52-4.32007,12.72-6.36,7.2-3.6,13.68-7.92,18.12-14.88a93.9966,93.9966,0,0,0,4.32-9.36c2.76-6.84,5.52-13.56,8.4-20.28,1.08-2.64,3-5.75995,2.4-8.52-1.2-3.72-7.56-1.44-10.2-.72Q94.74,125.64,89.16,127.08Zm-8.04,38.76c-3.36,1.56-6.6,3-9.96,4.56q7.2-16.74005,15.12-33.48c2.88-.84,5.88-1.92,8.88-2.76Q87.78,150,81.12,165.84Zm57.48-50.4c-4.68,6.12006-9.24,12.24005-13.8,18.36,2.16-5.52,4.32-11.16,6.48-16.8-4.8.96-9.72,2.04-14.4,3.12-1.32,2.88-2.52,5.76-3.72,8.76a28.01872,28.01872,0,0,1,3-.84c-3.72,9.12-7.44,18.24-11.04,27.48-1.56,3.72-3,7.56-4.44,11.28,4.8-2.28,9.72-4.56006,14.52-6.72,2.16-6.12,4.32-12.12,6.6-18.24,2.04,4.2,4.08,8.28,6.12,12.36,3.12-1.32,6.24-2.76,9.36-4.08q-2.88-6.47992-5.76-12.96c3.48-5.28,6.96-10.56,10.44-15.72.96-.24,2.04-.36,3-.6.84-2.28,1.56-4.56,2.28-6.84Q142.92,114.72006,138.6,115.44Zm18.72-3.11993a12.89575,12.89575,0,0,0-6.96,3.24,15.45433,15.45433,0,0,0-3.12,5.87994c-2.04,6.48-4.08,12.96-6.24,19.44-.84,2.52-2.16,7.2,1.92,6.96A16.518,16.518,0,0,0,147,146.4c4.2-1.8,8.4-3.48,12.6-5.16.96-4.08,2.04-8.16,3.12-12.24-2.16.6-4.32,1.32007-6.6,2.04-.6,1.92-1.08,3.72-1.56,5.64-1.56.48-3.12,1.08-4.56,1.55994,1.92-6.6,3.72-13.08,5.76-19.67993,1.32-.36,2.64-.6,3.96-.96a29.45533,29.45533,0,0,1-.96,3.48c2.04-.48,3.96-.96,6-1.44.72-2.88,1.44-5.88,2.16-8.88C163.8,111.24,160.56,111.84,157.32,112.32007Z" fill="#fff"/><path d="M174.84,106.2c1.92.72,3.84,1.32,5.76,2.04,4.56,1.8,8.64,3.48,12.12,5.16a161.39893,161.39893,0,0,1-62.16,87.48l-2.4,1.68A162.27923,162.27923,0,0,1,114,190.68005l4.2-.6a67.781,67.781,0,0,0,55.56-77.76q-.18-.72-.36-1.44l-.12-.48-.12-.12-.48-1.68-.12-.24005-.12-.48-.12-.12v-.24a10.13441,10.13441,0,0,0-.6-2.04A31.30513,31.30513,0,0,1,174.84,106.2Zm.36.48c1.8.6,3.72,1.31995,5.52,1.92C178.92,108,177,107.28,175.2,106.68005Z" fill="#007ac1"/></svg>