<?xml version="1.0" encoding="UTF-8" standalone="no"?>
<svg xmlns:rdf="http://www.w3.org/1999/02/22-rdf-syntax-ns#" xmlns="http://www.w3.org/2000/svg" height="269.54052" width="242.52" version="1.1" xmlns:cc="http://creativecommons.org/ns#" xmlns:dc="http://purl.org/dc/elements/1.1/" viewBox="0 0 242.52 269.54052"><path d="M75,256.56c2.28,2.64,6.72,6.6,9.96,8.04a15.18282,15.18282,0,0,0,8.28,1.56c2.4-.24,1.92.72,0,1.08-1.8.24-6.12.24-8.88-1.2-2.76-1.56-7.32-4.32-10.08-8.4C73.68,256.68,74.28,255.72,75,256.56Z" fill="#fff"/><path d="M241.8,126.72A120.4048,120.4048,0,0,0,134.28,6.84006,10.34607,10.34607,0,0,0,132.12,5.16c-9.72-6.24-17.64-1.56-23.28,1.08a16.08632,16.08632,0,0,1-1.44.72,119.08617,119.08617,0,0,0-30.12,7.44A35.61348,35.61348,0,0,0,73.32,9.72a30.47745,30.47745,0,0,0-21.84-9A30.83039,30.83039,0,0,0,20.64,31.56a30.39079,30.39079,0,0,0,6.84,19.32A120.8263,120.8263,0,0,0,36,212.04a123.26893,123.26893,0,0,0,38.16,25.8c-.72,6.36.24,10.68005,1.44,12.36-1.8,1.56006-2.52,2.4-2.76,4.20007-2.76,3.84,3.96,8.64,6.84,10.79993,5.76,4.44006,8.76,3.6,13.2,3.48,5.52-.24,10.68-6.72,13.68-10.92,6-.84,7.08.12,7.32.84a31.9944,31.9944,0,0,0,7.92-2.28c8.04-3.36,5.88-7.56,5.04-8.28a5.0772,5.0772,0,0,1-.6-.84A119.339,119.339,0,0,0,180,232.08a11.22347,11.22347,0,0,1,1.68,2.28c1.8,2.64,2.76,11.04,3.12,15.48.36,4.32,1.08,7.32,3.24,14.16,2.16,6.96,3,1.92,3,0,.12-1.8.48-8.52.24-13.32-.36-4.92-.48-11.88.48-14.88.84-3-.72-3.72-1.2-4.32-.48-.48,0-.72-1.2-4.55994a1.52226,1.52226,0,0,1-.12-.72009,122.21768,122.21768,0,0,0,17.28-14.4A118.9455,118.9455,0,0,0,241.8,126.72Z" fill="#fff"/><path d="M241.8,126.72A120.4048,120.4048,0,0,0,134.28,6.84006,10.34607,10.34607,0,0,0,132.12,5.16c-9.72-6.24-17.64-1.56-23.28,1.08a16.08632,16.08632,0,0,1-1.44.72,119.08617,119.08617,0,0,0-30.12,7.44A35.61348,35.61348,0,0,0,73.32,9.72a30.47745,30.47745,0,0,0-21.84-9A30.83039,30.83039,0,0,0,20.64,31.56a30.39079,30.39079,0,0,0,6.84,19.32A120.8263,120.8263,0,0,0,36,212.04a123.26893,123.26893,0,0,0,38.16,25.8c-.72,6.36.24,10.68005,1.44,12.36-1.8,1.56006-2.52,2.4-2.76,4.20007-2.76,3.84,3.96,8.64,6.84,10.79993,5.76,4.44006,8.76,3.6,13.2,3.48,5.52-.24,10.68-6.72,13.68-10.92,6-.84,7.08.12,7.32.84a31.9944,31.9944,0,0,0,7.92-2.28c8.04-3.36,5.88-7.56,5.04-8.28a5.0772,5.0772,0,0,1-.6-.84A119.339,119.339,0,0,0,180,232.08a11.22347,11.22347,0,0,1,1.68,2.28c1.8,2.64,2.76,11.04,3.12,15.48.36,4.32,1.08,7.32,3.24,14.16,2.16,6.96,3,1.92,3,0,.12-1.8.48-8.52.24-13.32-.36-4.92-.48-11.88.48-14.88.84-3-.72-3.72-1.2-4.32-.48-.48,0-.72-1.2-4.55994a1.52226,1.52226,0,0,1-.12-.72009,122.21768,122.21768,0,0,0,17.28-14.4A118.9455,118.9455,0,0,0,241.8,126.72Z" fill="none" stroke="#fff" stroke-width="1.44"/><path d="M241.8,126.72A120.4048,120.4048,0,0,0,134.28,6.84006,10.34607,10.34607,0,0,0,132.12,5.16c-9.72-6.24-17.64-1.56-23.28,1.08a16.08632,16.08632,0,0,1-1.44.72,119.08617,119.08617,0,0,0-30.12,7.44A35.61348,35.61348,0,0,0,73.32,9.72a30.47745,30.47745,0,0,0-21.84-9A30.83039,30.83039,0,0,0,20.64,31.56a30.39079,30.39079,0,0,0,6.84,19.32A120.8263,120.8263,0,0,0,36,212.04a123.26893,123.26893,0,0,0,38.16,25.8c-.72,6.36.24,10.68005,1.44,12.36-1.8,1.56006-2.52,2.4-2.76,4.20007-2.76,3.84,3.96,8.64,6.84,10.79993,5.76,4.44006,8.76,3.6,13.2,3.48,5.52-.24,10.68-6.72,13.68-10.92,6-.84,7.08.12,7.32.84a31.9944,31.9944,0,0,0,7.92-2.28c8.04-3.36,5.88-7.56,5.04-8.28a5.0772,5.0772,0,0,1-.6-.84A119.339,119.339,0,0,0,180,232.08a11.22347,11.22347,0,0,1,1.68,2.28c1.8,2.64,2.76,11.04,3.12,15.48.36,4.32,1.08,7.32,3.24,14.16,2.16,6.96,3,1.92,3,0,.12-1.8.48-8.52.24-13.32-.36-4.92-.48-11.88.48-14.88.84-3-.72-3.72-1.2-4.32-.48-.48,0-.72-1.2-4.55994a1.52226,1.52226,0,0,1-.12-.72009,122.21768,122.21768,0,0,0,17.28-14.4A118.9455,118.9455,0,0,0,241.8,126.72Z"/><path d="M92.76,239.28006a50.69084,50.69084,0,0,0,13.56-2.88c.36.12.96.48,1.92.84.36-3-1.56-9.12-2.64-12-.6-1.8-1.32-3.12-2.16-5.04a41.10985,41.10985,0,0,1-7.92-2.76c0,1.8.36,6.36.72,9.36a30.99161,30.99161,0,0,1-3.84.24005A107.32,107.32,0,0,1,92.76,239.28006Z" fill="#008248"/><path d="M92.76,239.28006a50.69084,50.69084,0,0,0,13.56-2.88c.36.12.96.48,1.92.84.36-3-1.56-9.12-2.64-12-.6-1.8-1.32-3.12-2.16-5.04a41.10985,41.10985,0,0,1-7.92-2.76c0,1.8.36,6.36.72,9.36a30.99161,30.99161,0,0,1-3.84.24005A107.32,107.32,0,0,1,92.76,239.28006Z" fill="none" stroke="#008248" stroke-width="0.36"/><path d="M177.12,229.32c-.84-.84,1.08-3.48,1.92-8.28.84-4.92.84-12.96-2.64-17.64a15.90057,15.90057,0,0,1-2.88-4.56006,87.61654,87.61654,0,0,1-37.08,15.6,6.88147,6.88147,0,0,0-.48.84,31.93,31.93,0,0,1-8.52,7.55994,49.70138,49.70138,0,0,1-7.8,3.24005c-.36,3-.84,9.6-.12,11.88.36.84,3.72,2.87994,4.92,5.04.24.24.24.48.36.72a115.04221,115.04221,0,0,0,52.68-14.28C177.24,229.44,177.24,229.44,177.12,229.32Z" fill="#008248"/><path d="M177.12,229.32c-.84-.84,1.08-3.48,1.92-8.28.84-4.92.84-12.96-2.64-17.64a15.90057,15.90057,0,0,1-2.88-4.56006,87.61654,87.61654,0,0,1-37.08,15.6,6.88147,6.88147,0,0,0-.48.84,31.93,31.93,0,0,1-8.52,7.55994,49.70138,49.70138,0,0,1-7.8,3.24005c-.36,3-.84,9.6-.12,11.88.36.84,3.72,2.87994,4.92,5.04.24.24.24.48.36.72a115.04221,115.04221,0,0,0,52.68-14.28C177.24,229.44,177.24,229.44,177.12,229.32Z" fill="none" stroke="#008248" stroke-width="0.36"/><path d="M204.12,43.8a115.94821,115.94821,0,0,0-67.08-33.12c2.04,3.96,2.28,8.52,2.52,11.52,3.6-1.56,6.48-2.4,7.92-4.92,1.56-2.4,3.6-1.92,4.92-.12,1.2,1.8,1.2,3.96-2.16,6.12a70.42912,70.42912,0,0,1-6.84,3.6c-.72.36,0,.96.84,2.4.84,1.31995,3,4.8,3.36,12.12v.24a87.36158,87.36158,0,0,1,36.6,22.08,88.97244,88.97244,0,0,1,17.28,101.76c.72.36,1.8,3.12,2.16,6.72a12.68333,12.68333,0,0,1-.36,5.28c-.6,1.2-5.04,7.8-7.2,9.84a2.6496,2.6496,0,0,1-3.6-.48c-.84-1.2-.96-.6-1.68,0-.6.72-2.76,3.96-3.36,4.8s-2.4,1.55994-1.2,5.04c1.2,3.36,2.64,5.76,2.16,7.68s-.72,2.4,1.8,4.56006c2.64,2.15991,2.4,4.67993,1.32,6.48a20.37922,20.37922,0,0,0-2.28,6.72A117.19809,117.19809,0,0,0,204.12,43.8Z" fill="#008248"/><path d="M204.12,43.8a115.94821,115.94821,0,0,0-67.08-33.12c2.04,3.96,2.28,8.52,2.52,11.52,3.6-1.56,6.48-2.4,7.92-4.92,1.56-2.4,3.6-1.92,4.92-.12,1.2,1.8,1.2,3.96-2.16,6.12a70.42912,70.42912,0,0,1-6.84,3.6c-.72.36,0,.96.84,2.4.84,1.31995,3,4.8,3.36,12.12v.24a87.36158,87.36158,0,0,1,36.6,22.08,88.97244,88.97244,0,0,1,17.28,101.76c.72.36,1.8,3.12,2.16,6.72a12.68333,12.68333,0,0,1-.36,5.28c-.6,1.2-5.04,7.8-7.2,9.84a2.6496,2.6496,0,0,1-3.6-.48c-.84-1.2-.96-.6-1.68,0-.6.72-2.76,3.96-3.36,4.8s-2.4,1.55994-1.2,5.04c1.2,3.36,2.64,5.76,2.16,7.68s-.72,2.4,1.8,4.56006c2.64,2.15991,2.4,4.67993,1.32,6.48a20.37922,20.37922,0,0,0-2.28,6.72A117.19809,117.19809,0,0,0,204.12,43.8Z" fill="none" stroke="#008248" stroke-width="0.36"/><path d="M69.6,213.24c-.36-3.24-.84-8.88,1.44-12.96A81.41185,81.41185,0,0,1,58.32,189.72,89.006,89.006,0,0,1,60.24,62.04007a2.61246,2.61246,0,0,1,.6-.96,33.5166,33.5166,0,0,1-9.12,1.32,30.40529,30.40529,0,0,1-21.72-9,117.21706,117.21706,0,0,0,8.4,156.12,118.65,118.65,0,0,0,36.24,24.72,67.13563,67.13563,0,0,1,2.4-8.16c1.08-2.76-.48-9-3.12-12.24005A18.69459,18.69459,0,0,0,69.6,213.24Z" fill="#008248"/><path d="M69.6,213.24c-.36-3.24-.84-8.88,1.44-12.96A81.41185,81.41185,0,0,1,58.32,189.72,89.006,89.006,0,0,1,60.24,62.04007a2.61246,2.61246,0,0,1,.6-.96,33.5166,33.5166,0,0,1-9.12,1.32,30.40529,30.40529,0,0,1-21.72-9,117.21706,117.21706,0,0,0,8.4,156.12,118.65,118.65,0,0,0,36.24,24.72,67.13563,67.13563,0,0,1,2.4-8.16c1.08-2.76-.48-9-3.12-12.24005A18.69459,18.69459,0,0,0,69.6,213.24Z" fill="none" stroke="#008248" stroke-width="0.36"/><path d="M100.68,11.40005a102.977,102.977,0,0,0-21.6,6,30.1495,30.1495,0,0,1,3.48,14.16A31.48545,31.48545,0,0,1,76.68,49.8a87.57075,87.57075,0,0,1,20.64-8.76q.72-.72,1.44-1.44C96,35.16006,92.4,28.08,95.64,18.24A14.24218,14.24218,0,0,1,100.68,11.40005Z" fill="#008248"/><path d="M100.68,11.40005a102.977,102.977,0,0,0-21.6,6,30.1495,30.1495,0,0,1,3.48,14.16A31.48545,31.48545,0,0,1,76.68,49.8a87.57075,87.57075,0,0,1,20.64-8.76q.72-.72,1.44-1.44C96,35.16006,92.4,28.08,95.64,18.24A14.24218,14.24218,0,0,1,100.68,11.40005Z" fill="none" stroke="#008248" stroke-width="0.36"/><path d="M147.48,46.68a7.80926,7.80926,0,0,1,4.32,9.36c-.36,2.16-2.16,4.2-2.4,5.04-.24,1.44-3.12,3.72-4.08,5.64-.84,1.92-1.08,3.48-.84,4.2a24.13176,24.13176,0,0,0,6.72,3.96c1.44.48,1.32.84.72,1.8,1.08.12,1.56.72,2.52,1.92,1.08,1.2,3.84.48,5.4-.36,1.68-.84,3.84-1.2,5.52.84a34.32972,34.32972,0,0,1,5.4,9.36,40.86077,40.86077,0,0,0,2.88,6.96c.36.6-1.32,10.8-1.8,15-.48,4.08-.84,5.88-.96,6.48,0,.72,2.64-2.28,2.76,1.2,0,2.88,1.44,11.88,2.88,18.6a31.00706,31.00706,0,0,0,1.2,4.56c1.08.12,2.04,2.4,2.76,5.76.6,3.48,1.92,5.64,2.16,7.32,0,1.68.48,1.92,1.08,2.28.48.24.36,1.08-1.32,3a13.13725,13.13725,0,0,1,1.32,1.2,21.597,21.597,0,0,0,1.8-1.92s5.16,2.04,6.24,2.4,2.52-2.4,5.76-.84a6.25314,6.25314,0,0,1,2.64,2.88,85.69181,85.69181,0,0,0,8.16-36.72A86.689,86.689,0,0,0,147.6,43.68C147.6,45,147.48,46.2,147.48,46.68Z" fill="#fff"/><path d="M174.48,193.2c-1.32-.6-2.28.36-2.88-4.8a7.5638,7.5638,0,0,0-2.28-4.32,4.27851,4.27851,0,0,1-.48-4.2,21.57668,21.57668,0,0,0,.84-6.36c-.12-1.92.24-4.2,2.76-5.28a7.65368,7.65368,0,0,1-1.56-3.36c-3.84-1.32-4.68-1.44-5.4-3.24a53.76631,53.76631,0,0,1-2.4-10.2c-.24-1.2-.36-2.28-.48-3.36-1.2-2.28-3.96-7.44-6-11.28-.72-1.44006-1.56-2.76-1.92-3.6-1.92-3.24,0-7.56.84-10.08.96-2.52,1.68-4.68.84-7.31995a25.99509,25.99509,0,0,1-1.08-4.08c-.12-1.08-1.08-2.28-2.16,1.2s-3.24,8.75995-4.44,14.16a37.17121,37.17121,0,0,0-1.08,9.72,21.04419,21.04419,0,0,0,1.68,7.08c2.4,4.92,5.4,9.6,4.92,12.36a9.63011,9.63011,0,0,1-.96,3.36c-.48,5.4-2.76,15.84-3.96,18.84s-6,13.8-7.08,18.36a105.6794,105.6794,0,0,1-4.8,15.48,87.34872,87.34872,0,0,0,37.56-17.04C175.2,194.40005,175.2,193.68,174.48,193.2Z" fill="#fff"/><path d="M70.8,71.04a11.834,11.834,0,0,0,4.2,3.36c4.56,2.4,5.4,4.08,5.4,8.04S81.24,94.68,82.44,96a10.81478,10.81478,0,0,0,2.04-2.4c1.2,2.4,3.84,6.96,8.04,9.72.36.12.12,1.2.84,1.44,1.44.36,10.44,1.8,10.68,3.6,1.92-1.92,4.92-6.48,5.4-8.16a49.9611,49.9611,0,0,1,6.24-9.36,7.50184,7.50184,0,0,1,.12-2.04c-.72.6-1.68,2.04-3.12,2.64-1.56.72-6.72,3-10.44,4.8-1.32.6-3.6,1.44-4.56-5.4s0-10.43994.6-12c.72-1.55994,1.92-3,4.2-2.28,2.4.72,6.12,2.04,7.08,2.04.12-.72.84-2.16-1.68-2.4-1.8-.24-6.48-1.56-9-5.16a10.21682,10.21682,0,0,1-1.92-5.64c-5.28.84-17.52,2.4-20.28,3.12-2.64.72-5.04,1.2-5.88-4.92-.36-2.64-.96-6.24.84-4.92a8.82846,8.82846,0,0,1,7.2-1.92,2.85089,2.85089,0,0,1,1.8,1.2c.24.84-.24,2.4-.6,3.72-.84,2.52-2.4,4.32,2.64,3.12,5.4-1.2,12.12-2.16,13.8-2.52.24-1.8,1.8-4.68005,3.6-6.72a9.53578,9.53578,0,0,0,2.16-4.32c0-.72-.6-.84-1.44,0-1.08.84-4.2,2.76-6.96,2.04-1.2-.36-2.64-2.4-3.24-3.6a27.52459,27.52459,0,0,1,4.08-5.76A84.73258,84.73258,0,0,0,67.2,58.68a18.41037,18.41037,0,0,0,.72,6A19.47518,19.47518,0,0,0,70.8,71.04Z" fill="#fff"/><path d="M77.28,198.24c3.84-1.44,6.84-1.44,9.72,2.64.84,1.08,1.56,4.32,8.76,1.44-3.84-4.56-6.12-9.96-8.16-17.28-3.36-11.4-10.8-24.48-8.04-30.36-1.56-1.56-3.48-7.32-5.4-6.6-1.32.36-3.12.36-1.68-3.96a27.76875,27.76875,0,0,1,3.96-7.2c2.52-3.48,6.6-7.68005,13.08-12.72.48-.48.72-.84.36-1.2a9.15136,9.15136,0,0,0-2.04-1.8,1.36448,1.36448,0,0,0-1.8.36c-.6.48-1.56,1.2-2.04,1.56-.6.36-5.04-3.96-7.32-7.2A14.7447,14.7447,0,0,0,71.16,111.36c.84-1.08,3-3.24,2.28-3-1.44.48-3.84.72-6.36-1.92-3.12-3.24-1.92-4.92-2.64-5.4-.6-.36-3.96.36-6.48-3.6-2.52-3.84-3.48-5.64-1.56-8.4C57.48,87.6,57.84,87,57.6,85.2c-.36-1.8,0-2.88,2.28-5.04,2.4-2.28,3.72-4.32,4.8-4.08.72.12-1.68-2.88-3-5.04a5.05613,5.05613,0,0,1-.84-1.56,20.10818,20.10818,0,0,1-1.2-4.2,86.91191,86.91191,0,0,0,.12,123A112.647,112.647,0,0,0,72.12,198.6,3.44271,3.44271,0,0,1,77.28,198.24Z" fill="#fff"/><path d="M27.84,14.52c7.56,1.92,13.32,8.16,15.84,11.52.72.96,1.32.84,1.56.12006a30.41222,30.41222,0,0,0,1.68-9.36c0-7.8,1.08-10.92,3-14.52A29.21645,29.21645,0,0,0,27.84,14.52Z" fill="#a63732"/><path d="M27.84,14.52c7.56,1.92,13.32,8.16,15.84,11.52.72.96,1.32.84,1.56.12006a30.41222,30.41222,0,0,0,1.68-9.36c0-7.8,1.08-10.92,3-14.52A29.21645,29.21645,0,0,0,27.84,14.52Z" fill="none" stroke="#a63732" stroke-width="0.36"/><path d="M23.16,38.52C37.56,39.84,42,31.8,42.96,30.6c.84-1.2-.12-1.92-.72-2.64-2.4-3.48-8.04-9.6-15.6-11.52a28.48448,28.48448,0,0,0-4.32,15.12A33.46142,33.46142,0,0,0,23.16,38.52Z" fill="#a63732"/><path d="M23.16,38.52C37.56,39.84,42,31.8,42.96,30.6c.84-1.2-.12-1.92-.72-2.64-2.4-3.48-8.04-9.6-15.6-11.52a28.48448,28.48448,0,0,0-4.32,15.12A33.46142,33.46142,0,0,0,23.16,38.52Z" fill="none" stroke="#a63732" stroke-width="0.36"/><path d="M80.16,37.92c-6.12-2.52-13.32-.24-18.36,4.32-5.16,4.44-7.8,7.8-9.6,18.48h-.6a28.83063,28.83063,0,0,1-19.68-7.68C40.68,50.88,48,46.8,56.4,39c8.28-7.8,12.36-16.92,13.44-21.24,1.2-4.32-.36-1.8-1.2.12a63.64174,63.64174,0,0,1-14.16,19.2c-8.4,7.92-15,11.76-23.88,14.76A30.13391,30.13391,0,0,1,24,41.04c3,.24005,12.36-.84,17.04-4.68C47.28,31.2,48,25.2,48.84,16.68s2.04-11.04,4.08-14.4A29.36239,29.36239,0,0,1,80.88,31.44,28.21982,28.21982,0,0,1,80.16,37.92Z" fill="#a63732"/><path d="M80.16,37.92c-6.12-2.52-13.32-.24-18.36,4.32-5.16,4.44-7.8,7.8-9.6,18.48h-.6a28.83063,28.83063,0,0,1-19.68-7.68C40.68,50.88,48,46.8,56.4,39c8.28-7.8,12.36-16.92,13.44-21.24,1.2-4.32-.36-1.8-1.2.12a63.64174,63.64174,0,0,1-14.16,19.2c-8.4,7.92-15,11.76-23.88,14.76A30.13391,30.13391,0,0,1,24,41.04c3,.24005,12.36-.84,17.04-4.68C47.28,31.2,48,25.2,48.84,16.68s2.04-11.04,4.08-14.4A29.36239,29.36239,0,0,1,80.88,31.44,28.21982,28.21982,0,0,1,80.16,37.92Z" fill="none" stroke="#a63732" stroke-width="0.36"/><path d="M79.32,40.8c-1.44-1.92-6.36-2.88-14.28,2.04-.84.48-1.32.84-.36,1.68005a32.9764,32.9764,0,0,1,6,9.12A29.755,29.755,0,0,0,79.32,40.8Z" fill="#a63732"/><path d="M79.32,40.8c-1.44-1.92-6.36-2.88-14.28,2.04-.84.48-1.32.84-.36,1.68005a32.9764,32.9764,0,0,1,6,9.12A29.755,29.755,0,0,0,79.32,40.8Z" fill="none" stroke="#a63732" stroke-width="0.36"/><path d="M68.28,55.56c-1.68-4.08-3-7.08-4.68-9.12-.72-1.2-.96-1.56-2.52-.24-4.44,3.84-6.12,9.72-7.08,14.4A28.05347,28.05347,0,0,0,68.28,55.56Z" fill="#a63732"/><path d="M68.28,55.56c-1.68-4.08-3-7.08-4.68-9.12-.72-1.2-.96-1.56-2.52-.24-4.44,3.84-6.12,9.72-7.08,14.4A28.05347,28.05347,0,0,0,68.28,55.56Z" fill="none" stroke="#a63732" stroke-width="0.36"/><path d="M104.28,238.8c.6-.24,1.32-.6,1.8-.36.36.36,2.52,1.92,3.96,3.12s1.8,1.56.72,2.28c-1.08.6-2.16,1.2-1.92.72a2.14469,2.14469,0,0,0-.36-2.16,37.33786,37.33786,0,0,0-3.36-2.76C104.64,239.16,104.28,238.8,104.28,238.8Z" fill="#ba9653"/><path d="M104.28,238.8c.6-.24,1.32-.6,1.8-.36.36.36,2.52,1.92,3.96,3.12s1.8,1.56.72,2.28c-1.08.6-2.16,1.2-1.92.72a2.14469,2.14469,0,0,0-.36-2.16,37.33786,37.33786,0,0,0-3.36-2.76C104.64,239.16,104.28,238.8,104.28,238.8Z" fill="none" stroke="#ba9653" stroke-width="0.36"/><path d="M98.88,240.36a1.1581,1.1581,0,0,0,0,1.68005c.6.48,3.72,3.12,4.2,3.6a2.352,2.352,0,0,0,2.16.6c.84-.24-.96.96-1.68,1.2a2.42386,2.42386,0,0,1-2.28-.6c-.72-.6-4.92-4.55994-5.76-5.4s.24-.84.96-.96A17.761,17.761,0,0,0,98.88,240.36Z" fill="#ba9653"/><path d="M98.88,240.36a1.1581,1.1581,0,0,0,0,1.68005c.6.48,3.72,3.12,4.2,3.6a2.352,2.352,0,0,0,2.16.6c.84-.24-.96.96-1.68,1.2a2.42386,2.42386,0,0,1-2.28-.6c-.72-.6-4.92-4.55994-5.76-5.4s.24-.84.96-.96A17.761,17.761,0,0,0,98.88,240.36Z" fill="none" stroke="#ba9653" stroke-width="0.36"/><path d="M93.72,216.48c.36.84.36,1.68-.84,1.44-1.32-.12-6.84-.72-8.4-.72-.48,0-.24-.84-.84-.48s-.36,1.2-.36,2.16v2.16c0,.96.6,2.4,3.12,2.52s4.8-.11993,5.64-.72c.72-.48-.12-1.32-.84-1.32-.6,0-4.8.36-5.76,0-.84-.23993-1.44-1.32-.84-1.8.84-.48,2.28.12,3.6.12,1.44,0,3-.36,3.48-.12.36.24.84.12.84,1.92,0,.36.96.48,1.32.48s.6.72.48,1.68c-.12.84.12,1.08-1.68,1.08H82.68c-.48,0-.48-.36-.48-1.2-.12-.84-.36-6.72-.48-7.2s1.08-.48,2.16-.24a25.94236,25.94236,0,0,0,3.72.36c1.56.12,3.96.36,3.96.36s1.2.12,1.32-.24C93.24,216.36,93.6,216.24,93.72,216.48Z" fill="#ba9653"/><path d="M93.72,216.48c.36.84.36,1.68-.84,1.44-1.32-.12-6.84-.72-8.4-.72-.48,0-.24-.84-.84-.48s-.36,1.2-.36,2.16v2.16c0,.96.6,2.4,3.12,2.52s4.8-.11993,5.64-.72c.72-.48-.12-1.32-.84-1.32-.6,0-4.8.36-5.76,0-.84-.23993-1.44-1.32-.84-1.8.84-.48,2.28.12,3.6.12,1.44,0,3-.36,3.48-.12.36.24.84.12.84,1.92,0,.36.96.48,1.32.48s.6.72.48,1.68c-.12.84.12,1.08-1.68,1.08H82.68c-.48,0-.48-.36-.48-1.2-.12-.84-.36-6.72-.48-7.2s1.08-.48,2.16-.24a25.94236,25.94236,0,0,0,3.72.36c1.56.12,3.96.36,3.96.36s1.2.12,1.32-.24C93.24,216.36,93.6,216.24,93.72,216.48Z" fill="none" stroke="#ba9653" stroke-width="0.36"/><path d="M60.24,88.2c-1.2-.36-2.16,1.08-2.64,2.28-.6,1.08-1.2,2.28.48,4.8,1.8,2.52,2.88,4.08,6,3.84a4.84387,4.84387,0,0,0,3.24-1.92c.48-.6.48.48-.12,1.68-.72,1.08-1.32,3.72,0,5.4,1.44,1.8,4.32,3.24005,8.16,1.08a16.47134,16.47134,0,0,0,6.12-6.12c.6-1.2.6-1.8,0-2.64-.72-.72-2.88-4.2-3.24-11.16-.36-4.2.36-6.96-2.16-8.4-2.64-1.56-8.64-5.04-9.36-12-.24-2.64-.12-6.6-2.64-4.44a6.55567,6.55567,0,0,0-2.88,5.28c-.36,1.56,1.08,3.72,2.16,5.16,1.08,1.56,2.4,4.8,3.48,5.64.96.84,1.56,1.56,2.52,1.56.84.12,4.2.12,5.04.36.84.36,1.2,1.32-.72,1.32a46.1778,46.1778,0,0,0-6.6.72c-1.44.24-2.76.36-3.48,3.12-.6,2.76-1.56,6.12-1.56,7.08-.12.96-.72,1.56006-.72,2.16,0,.48,1.08,3.24,3.6.48a18.8207,18.8207,0,0,0,3.96-6.6c.48-1.32,1.08-1.2.6.84s-.6,7.2.36,8.88c.96,1.92,3.12,3.84,5.76,2.64a3.951,3.951,0,0,1,2.28-.72c.72.12-.12,1.43994-.84,1.92-.6.6-2.76,3-6.6-.36a9.86938,9.86938,0,0,1-2.52-5.04.83386.83386,0,0,0-1.56-.36c-.48.6-3,3-4.68,1.2-1.8-1.68-2.52-2.64-1.56-6.12C60.36,89.04,60.72,88.44,60.24,88.2Z" fill="#f9b282"/><path d="M60.24,88.2c-1.2-.36-2.16,1.08-2.64,2.28-.6,1.08-1.2,2.28.48,4.8,1.8,2.52,2.88,4.08,6,3.84a4.84387,4.84387,0,0,0,3.24-1.92c.48-.6.48.48-.12,1.68-.72,1.08-1.32,3.72,0,5.4,1.44,1.8,4.32,3.24005,8.16,1.08a16.47134,16.47134,0,0,0,6.12-6.12c.6-1.2.6-1.8,0-2.64-.72-.72-2.88-4.2-3.24-11.16-.36-4.2.36-6.96-2.16-8.4-2.64-1.56-8.64-5.04-9.36-12-.24-2.64-.12-6.6-2.64-4.44a6.55567,6.55567,0,0,0-2.88,5.28c-.36,1.56,1.08,3.72,2.16,5.16,1.08,1.56,2.4,4.8,3.48,5.64.96.84,1.56,1.56,2.52,1.56.84.12,4.2.12,5.04.36.84.36,1.2,1.32-.72,1.32a46.1778,46.1778,0,0,0-6.6.72c-1.44.24-2.76.36-3.48,3.12-.6,2.76-1.56,6.12-1.56,7.08-.12.96-.72,1.56006-.72,2.16,0,.48,1.08,3.24,3.6.48a18.8207,18.8207,0,0,0,3.96-6.6c.48-1.32,1.08-1.2.6.84s-.6,7.2.36,8.88c.96,1.92,3.12,3.84,5.76,2.64a3.951,3.951,0,0,1,2.28-.72c.72.12-.12,1.43994-.84,1.92-.6.6-2.76,3-6.6-.36a9.86938,9.86938,0,0,1-2.52-5.04.83386.83386,0,0,0-1.56-.36c-.48.6-3,3-4.68,1.2-1.8-1.68-2.52-2.64-1.56-6.12C60.36,89.04,60.72,88.44,60.24,88.2Z" fill="none" stroke="#f9b282" stroke-linecap="round" stroke-width="0.36"/><path d="M62.16,83.04007c-.36,1.2-.72,2.75995-.96,3.36-.12.48-.96,1.8-1.8.12a3.21582,3.21582,0,0,1,.48-3.96c.36-.36.96-1.08,1.32-.72S62.28,82.8,62.16,83.04007Z" fill="#f9b282"/><path d="M62.16,83.04007c-.36,1.2-.72,2.75995-.96,3.36-.12.48-.96,1.8-1.8.12a3.21582,3.21582,0,0,1,.48-3.96c.36-.36.96-1.08,1.32-.72S62.28,82.8,62.16,83.04007Z" fill="none" stroke="#f9b282" stroke-linecap="round" stroke-width="0.36"/><path d="M66.36,78.72006c-.72.36-2.4.36-3,1.68-.36.84-1.92-.12-1.08-1.2.72-.96,1.2-.84,1.8-1.2.36-.24.6-1.08,1.56-.6C66.48,77.88,66.6,78.6,66.36,78.72006Z" fill="#f9b282"/><path d="M66.36,78.72006c-.72.36-2.4.36-3,1.68-.36.84-1.92-.12-1.08-1.2.72-.96,1.2-.84,1.8-1.2.36-.24.6-1.08,1.56-.6C66.48,77.88,66.6,78.6,66.36,78.72006Z" fill="none" stroke="#f9b282" stroke-linecap="round" stroke-width="0.36"/><path d="M127.68,32.64c-2.64.24-5.04,1.8-7.44,3.48s-11.16,9.12-13.2,10.56c2.16,1.08,2.76,3.36,2.04,6.96-.24.84,0,1.2.48.6s3.12-3.36,3.12-5.64a7.39482,7.39482,0,0,0-1.32-3.84c-.12-.36.72-1.44,1.8.84,1.08,2.4.72,5.64-2.28,9.24005-3.12,3.6-5.52,3.6-6.84,4.2-1.32.72-2.64,1.68-1.44,3.6,1.2,2.04,3.48,1.2,4.44.6.96-.72,2.28-1.44,5.28-1.2,3,.36,3.96-1.56,1.92-3.6-.6-.6-2.28-2.16-.24-2.16,1.2,0,2.64,2.75995,3.48,3.48s2.76,1.08,5.28,1.2,6.48,1.08,6.48,3.48c0,1.56-.84,2.04-1.92.84-.48-.48-1.08.24-1.44.72-1.68,1.56-5.64,5.88-8.64,6.6-2.88.72-3.96-.12-7.8-2.16s-7.32-4.2-8.4-4.8c-.96-.6-3.12-2.16-2.16.84,1.08,3,3.6,6.12,8.52,7.8,5.04,1.56,5.88,2.16,6.96,2.75995,1.08.48.48,1.08-1.08.84-1.2-.12-2.64-1.2-1.56,1.2,1.08,2.52,2.76,5.28,7.92,4.56,5.16-.6,5.28-1.68,8.52-6.96.48-.96,1.08-.36.72,2.16a37.0912,37.0912,0,0,1,5.4-2.04,11.81628,11.81628,0,0,0,7.92-6.36c1.32-2.4,2.04-3.24,1.8-5.76,0-.96,1.32-2.88,2.76-4.2,1.44-1.2,5.28-6.24,3.24-9.72-1.92-3.48-5.28-1.8-6.84.84s-3.36,5.4-3.48,9.96a2.3399,2.3399,0,0,0-2.76.84c-.24.48-4.32,0-5.76.36s-1.92-.48-.36-2.4c1.44-1.92,6.72-9.12,6.48-14.28a7.961,7.961,0,0,1,.36-3.12c.24-1.56.36-1.56-1.44-2.64-1.32-.72-1.32-2.64-1.56-4.08-.24-1.56-.48-1.56-2.28-1.2C130.92,35.64,128.76,34.32,127.68,32.64Z" fill="#f9b282"/><path d="M127.68,32.64c-2.64.24-5.04,1.8-7.44,3.48s-11.16,9.12-13.2,10.56c2.16,1.08,2.76,3.36,2.04,6.96-.24.84,0,1.2.48.6s3.12-3.36,3.12-5.64a7.39482,7.39482,0,0,0-1.32-3.84c-.12-.36.72-1.44,1.8.84,1.08,2.4.72,5.64-2.28,9.24005-3.12,3.6-5.52,3.6-6.84,4.2-1.32.72-2.64,1.68-1.44,3.6,1.2,2.04,3.48,1.2,4.44.6.96-.72,2.28-1.44,5.28-1.2,3,.36,3.96-1.56,1.92-3.6-.6-.6-2.28-2.16-.24-2.16,1.2,0,2.64,2.75995,3.48,3.48s2.76,1.08,5.28,1.2,6.48,1.08,6.48,3.48c0,1.56-.84,2.04-1.92.84-.48-.48-1.08.24-1.44.72-1.68,1.56-5.64,5.88-8.64,6.6-2.88.72-3.96-.12-7.8-2.16s-7.32-4.2-8.4-4.8c-.96-.6-3.12-2.16-2.16.84,1.08,3,3.6,6.12,8.52,7.8,5.04,1.56,5.88,2.16,6.96,2.75995,1.08.48.48,1.08-1.08.84-1.2-.12-2.64-1.2-1.56,1.2,1.08,2.52,2.76,5.28,7.92,4.56,5.16-.6,5.28-1.68,8.52-6.96.48-.96,1.08-.36.72,2.16a37.0912,37.0912,0,0,1,5.4-2.04,11.81628,11.81628,0,0,0,7.92-6.36c1.32-2.4,2.04-3.24,1.8-5.76,0-.96,1.32-2.88,2.76-4.2,1.44-1.2,5.28-6.24,3.24-9.72-1.92-3.48-5.28-1.8-6.84.84s-3.36,5.4-3.48,9.96a2.3399,2.3399,0,0,0-2.76.84c-.24.48-4.32,0-5.76.36s-1.92-.48-.36-2.4c1.44-1.92,6.72-9.12,6.48-14.28a7.961,7.961,0,0,1,.36-3.12c.24-1.56.36-1.56-1.44-2.64-1.32-.72-1.32-2.64-1.56-4.08-.24-1.56-.48-1.56-2.28-1.2C130.92,35.64,128.76,34.32,127.68,32.64Z" fill="none" stroke="#f9b282" stroke-width="0.36"/><path d="M116.88,61.8c-.6,1.2-2.04,2.28-5.28,1.8-1.56-.12-3.12-.12-3.48,1.08-.12.96-.84.84-1.92.84-1.08-.12-2.28-.24-2.28.12-.12.36,4.56,3.12,6.12,3.84,1.44.6,3.72,2.4,5.64,2.16,2.4-.24,4.44-1.44,8.04-5.28,1.56-1.56,2.64-2.4,1.32-3a7.09779,7.09779,0,0,0-3.24-.48C120.6,62.88,117.84,62.64,116.88,61.8Z" fill="#f9b282"/><path d="M116.88,61.8c-.6,1.2-2.04,2.28-5.28,1.8-1.56-.12-3.12-.12-3.48,1.08-.12.96-.84.84-1.92.84-1.08-.12-2.28-.24-2.28.12-.12.36,4.56,3.12,6.12,3.84,1.44.6,3.72,2.4,5.64,2.16,2.4-.24,4.44-1.44,8.04-5.28,1.56-1.56,2.64-2.4,1.32-3a7.09779,7.09779,0,0,0-3.24-.48C120.6,62.88,117.84,62.64,116.88,61.8Z" fill="none" stroke="#f9b282" stroke-width="0.36"/><path d="M99.48,61.8c-1.32,0-1.44-.96-.6-2.4a13.5943,13.5943,0,0,1,2.76-3.48,3.36629,3.36629,0,0,0,1.2,1.68,4.06351,4.06351,0,0,0-1.56,3.72Z" fill="#f9b282"/><path d="M99.48,61.8c-1.32,0-1.44-.96-.6-2.4a13.5943,13.5943,0,0,1,2.76-3.48,3.36629,3.36629,0,0,0,1.2,1.68,4.06351,4.06351,0,0,0-1.56,3.72Z" fill="none" stroke="#f9b282" stroke-width="0.36"/><path d="M120.36,48c.24-1.2.12-2.4-1.92-.72-1.8-1.32-3.36-2.88-3.84-3.24005a.86056.86056,0,0,1-.12-1.56c.6-.72,1.8.48,1.56-1.44-.12-.72,1.44-.24,1.8-.48.36-.12-.24-1.08,1.56-.72.48.24.24-.84,1.44-.72,1.08.12,1.56.6,1.8-.24.24-.96.6-1.44,1.92-.6.96.6,1.32.24,1.44-.24005,0-.36.96-.12,1.8.36a16.817,16.817,0,0,1,5.04,4.08c.6.72.84,1.32.48,1.44s-.84,0-.84.72c-.12.84-.48,1.44-.96.6s-.48.12-.84-.84c-.24-.84-.72.36-.96-.24-.24-.72-.6.12-.84-.48-.24-.36-1.08.36-1.32-.12-.36-.48-.96.48-1.32-.12-.48-.6-.48.72-1.2.36-.84-.24-.48.72-1.2.48-.84-.36-.6.84-1.2.72-.72-.12-.72.12-.84.84-.12.84-.48,3.96-.48,4.56,0,.72,1.56.6,3.96.24a18.95378,18.95378,0,0,0,8.52-3.36c.84-.6,1.56-.6,1.68-.48.12.24-.24,1.08-.84,1.56a11.23043,11.23043,0,0,1-5.76,2.88c-3.6.6-6.6,1.2-7.2,1.08s.24.96,1.32.72c.6-.24,1.8,2.04,3.72,2.04,1.56,0,3.96-1.8,4.56-2.28.72-.48,3-1.56,1.44,0-1.56,1.68-3.24,3.36-4.92,3.48a11.57669,11.57669,0,0,1-6-1.8c-1.8-1.2-2.4-1.8-2.16-3.72A14.91905,14.91905,0,0,0,120.36,48Z"/><path d="M120.36,48c.24-1.2.12-2.4-1.92-.72-1.8-1.32-3.36-2.88-3.84-3.24005a.86056.86056,0,0,1-.12-1.56c.6-.72,1.8.48,1.56-1.44-.12-.72,1.44-.24,1.8-.48.36-.12-.24-1.08,1.56-.72.48.24.24-.84,1.44-.72,1.08.12,1.56.6,1.8-.24.24-.96.6-1.44,1.92-.6.96.6,1.32.24,1.44-.24005,0-.36.96-.12,1.8.36a16.817,16.817,0,0,1,5.04,4.08c.6.72.84,1.32.48,1.44s-.84,0-.84.72c-.12.84-.48,1.44-.96.6s-.48.12-.84-.84c-.24-.84-.72.36-.96-.24-.24-.72-.6.12-.84-.48-.24-.36-1.08.36-1.32-.12-.36-.48-.96.48-1.32-.12-.48-.6-.48.72-1.2.36-.84-.24-.48.72-1.2.48-.84-.36-.6.84-1.2.72-.72-.12-.72.12-.84.84-.12.84-.48,3.96-.48,4.56,0,.72,1.56.6,3.96.24a18.95378,18.95378,0,0,0,8.52-3.36c.84-.6,1.56-.6,1.68-.48.12.24-.24,1.08-.84,1.56a11.23043,11.23043,0,0,1-5.76,2.88c-3.6.6-6.6,1.2-7.2,1.08s.24.96,1.32.72c.6-.24,1.8,2.04,3.72,2.04,1.56,0,3.96-1.8,4.56-2.28.72-.48,3-1.56,1.44,0-1.56,1.68-3.24,3.36-4.92,3.48a11.57669,11.57669,0,0,1-6-1.8c-1.8-1.2-2.4-1.8-2.16-3.72A14.91905,14.91905,0,0,0,120.36,48Z" fill="none" stroke="#f9b282" stroke-width="0.36"/><path d="M147.48,54c-1.08.72-1.68,1.08-1.8,2.28,0,1.31995-.36,3.6-.84,3.72-.6.24-.48-1.2-.72-.72-.24.72-1.08.36-1.32-.24005,0-.24-2.4-.24-.6-2.87994,1.8-2.52,3-3.72,4.2-4.32S149.64,52.44,147.48,54Z"/><path d="M147.48,54c-1.08.72-1.68,1.08-1.8,2.28,0,1.31995-.36,3.6-.84,3.72-.6.24-.48-1.2-.72-.72-.24.72-1.08.36-1.32-.24005,0-.24-2.4-.24-.6-2.87994,1.8-2.52,3-3.72,4.2-4.32S149.64,52.44,147.48,54Z" fill="none" stroke="#f9b282" stroke-width="0.36"/><path d="M193.08,164.64c-.48-1.08.36-2.88,2.64-1.56,2.28,1.2,4.08,2.4,2.4,7.56-1.68,5.04-2.88,8.04-3.48,10.2-.72,2.16-3.24,4.92-2.4,1.2.84-3.6,1.32-8.04.96-10.2-.72-4.2.6-3.84.24-5.75995C193.32,165.48,193.2,165.12,193.08,164.64Z" fill="#f9b282"/><path d="M193.08,164.64c-.48-1.08.36-2.88,2.64-1.56,2.28,1.2,4.08,2.4,2.4,7.56-1.68,5.04-2.88,8.04-3.48,10.2-.72,2.16-3.24,4.92-2.4,1.2.84-3.6,1.32-8.04.96-10.2-.72-4.2.6-3.84.24-5.75995C193.32,165.48,193.2,165.12,193.08,164.64Z" fill="none" stroke="#f9b282" stroke-linecap="round" stroke-width="0.36"/><path d="M201.84,169.08c.72,2.04,1.44,6.6.36,8.52-1.2,1.8-4.56,6.96-5.88,8.28s-2.28.72-1.44-.6c.72-1.44006,1.92-3.36,1.92-3.96,0-.72-.12-1.44,1.08-3.48,1.08-2.16,3-9.36,3.12-9.96C201.24,167.40005,201.72,168.6,201.84,169.08Z" fill="#f9b282"/><path d="M201.84,169.08c.72,2.04,1.44,6.6.36,8.52-1.2,1.8-4.56,6.96-5.88,8.28s-2.28.72-1.44-.6c.72-1.44006,1.92-3.36,1.92-3.96,0-.72-.12-1.44,1.08-3.48,1.08-2.16,3-9.36,3.12-9.96C201.24,167.40005,201.72,168.6,201.84,169.08Z" fill="none" stroke="#f9b282" stroke-linecap="round" stroke-width="0.36"/><path d="M177.84,186.36c-.48-1.68-.84-4.08-1.8-5.52.84-2.04,3.24-7.55994,7.44-9.24.36-.12.72-.6.48-.96-.12-.36.48-.72.84.6a44.102,44.102,0,0,1,1.08,5.04,7.31238,7.31238,0,0,1-.36,2.64c-.24,1.08-.72,3.6-.36,4.91992.24,1.32007.72,2.28,3.36,1.68005,1.32-.24,1.2-.72,1.56-1.8s1.44-4.31995,1.8-6.12a23.4461,23.4461,0,0,0-.24-7.2c-.36-1.08.12-4.8-.24-5.52-.24-.84-.36-1.92-2.76-2.64-2.28-.84-3-.96-4.56.6s-2.16,2.28-2.88,3c-.72.84-2.52.12-.96-1.44,1.56-1.44,3-3,3.48-3.36l-.48-1.2h-.84a16.99821,16.99821,0,0,1-8.04,4.44c-.84.12-2.4.36-1.32,1.8.36.36.36,1.44,1.08,1.08s1.68-2.04,2.64-1.32c.84.84-.12,2.64-1.32,3.36-1.08.84-2.28,1.68-3.12,2.28-.84.36-1.32.84-1.2,2.4a14.203,14.203,0,0,1-.72,6.12c-.72,2.04-.36,2.64.48,4.08.72,1.32,1.92,2.52,2.28,4.8s.48,2.76,2.04,2.64a3.12777,3.12777,0,0,0,2.64-1.8Z" fill="#f9b282"/><path d="M177.84,186.36c-.48-1.68-.84-4.08-1.8-5.52.84-2.04,3.24-7.55994,7.44-9.24.36-.12.72-.6.48-.96-.12-.36.48-.72.84.6a44.102,44.102,0,0,1,1.08,5.04,7.31238,7.31238,0,0,1-.36,2.64c-.24,1.08-.72,3.6-.36,4.91992.24,1.32007.72,2.28,3.36,1.68005,1.32-.24,1.2-.72,1.56-1.8s1.44-4.31995,1.8-6.12a23.4461,23.4461,0,0,0-.24-7.2c-.36-1.08.12-4.8-.24-5.52-.24-.84-.36-1.92-2.76-2.64-2.28-.84-3-.96-4.56.6s-2.16,2.28-2.88,3c-.72.84-2.52.12-.96-1.44,1.56-1.44,3-3,3.48-3.36l-.48-1.2h-.84a16.99821,16.99821,0,0,1-8.04,4.44c-.84.12-2.4.36-1.32,1.8.36.36.36,1.44,1.08,1.08s1.68-2.04,2.64-1.32c.84.84-.12,2.64-1.32,3.36-1.08.84-2.28,1.68-3.12,2.28-.84.36-1.32.84-1.2,2.4a14.203,14.203,0,0,1-.72,6.12c-.72,2.04-.36,2.64.48,4.08.72,1.32,1.92,2.52,2.28,4.8s.48,2.76,2.04,2.64a3.12777,3.12777,0,0,0,2.64-1.8Z" fill="none" stroke="#f9b282" stroke-linecap="round" stroke-width="0.36"/><path d="M178.44,190.68a9.17938,9.17938,0,0,0-1.8,4.44c0,1.56-1.56,3.24-1.44,3.96s2.28,2.76,3.48,4.8a18.23233,18.23233,0,0,1,2.76,10.2,65.16691,65.16691,0,0,1-1.92,13.08c-.12.84-.72,1.68.72,3s3.6,3.72,4.56,9.24005c.84,5.4,1.44,8.4,1.8,8.64.36.36.24.84.24,1.8,0,1.08.96,6.96,1.56,8.04.72,1.2.6-6.24.48-8.4,0-2.28.12-12.48.48-13.92.36-1.56.72-3.12-.48-5.04-1.32-1.92-3.6-5.04-1.92-10.44006s4.32-5.4,3.48-7.43994a17.64958,17.64958,0,0,0-3.36-4.92c-1.2-1.2-.24-4.08-.36-5.28-.12-2.28-1.92-2.64-2.04-5.16-.24-2.52-.36-4.56006,1.56-7.08008,1.8-2.52-.72-2.4-1.56-3.96s-1.2-3.6-.48-6.96c.36-1.68005.12-2.16-.36-2.28-.36-.12-2.4-.6-2.4-.6l-2.76,5.88a14.22082,14.22082,0,0,1,.6,3.84Z" fill="#a63732"/><path d="M178.44,190.68a9.17938,9.17938,0,0,0-1.8,4.44c0,1.56-1.56,3.24-1.44,3.96s2.28,2.76,3.48,4.8a18.23233,18.23233,0,0,1,2.76,10.2,65.16691,65.16691,0,0,1-1.92,13.08c-.12.84-.72,1.68.72,3s3.6,3.72,4.56,9.24005c.84,5.4,1.44,8.4,1.8,8.64.36.36.24.84.24,1.8,0,1.08.96,6.96,1.56,8.04.72,1.2.6-6.24.48-8.4,0-2.28.12-12.48.48-13.92.36-1.56.72-3.12-.48-5.04-1.32-1.92-3.6-5.04-1.92-10.44006s4.32-5.4,3.48-7.43994a17.64958,17.64958,0,0,0-3.36-4.92c-1.2-1.2-.24-4.08-.36-5.28-.12-2.28-1.92-2.64-2.04-5.16-.24-2.52-.36-4.56006,1.56-7.08008,1.8-2.52-.72-2.4-1.56-3.96s-1.2-3.6-.48-6.96c.36-1.68005.12-2.16-.36-2.28-.36-.12-2.4-.6-2.4-.6l-2.76,5.88a14.22082,14.22082,0,0,1,.6,3.84Z" fill="none" stroke="#a63732" stroke-width="0.36"/><path d="M151.44,77.28006c-2.28,3-5.76,10.8-7.56,15.6-1.68,4.92-5.4,16.44-2.76,24.12,2.76,7.68,8.04,2.76,9.24-.12s3.12-7.8,3.72-9.12c.48-1.32.72-2.04,1.8,1.08a80.085,80.085,0,0,1,2.52,11.04c0,.72-.96,2.52-2.16,5.4-1.08,3-1.8,4.92-.6,6.72,1.08,1.8,5.4,9.24,6.84,12.6.84,1.92,1.56,2.28,3.84,1.8a92.01009,92.01009,0,0,0,9.24-3.12c1.56-.84.84-2.04.36-3.6-.72-2.4-3.48-15.84-3.48-17.64s.36-4.2-1.92-1.56c-.84.96-1.92,0-1.68-1.2.36-1.32007,3.12-19.56006,3.24-21.72-1.56-3.48-6.24-14.28-7.56-16.32-1.32-1.92-1.8-2.04-3.72-.96-1.92.96-6.36,2.52-7.92-1.2-.36-.6-.84-2.16.36-2.28l-.84-.36C152.4,76.32,151.8,76.8,151.44,77.28006Z" fill="#fff"/><path d="M175.92,144.24c-1.68.96-7.68,3.6-10.08,3.96s-1.8,1.08-1.44,2.88c.48,1.92,1.92,7.44,2.64,9.48.84,1.92,1.8,1.92,3.84,1.92a19.11973,19.11973,0,0,0,11.52-4.8c-.96-1.2-2.76-7.08-3.36-9.48C178.44,145.44,178.44,142.8,175.92,144.24Z" fill="#fff"/><path d="M122.52,90.48a2.51654,2.51654,0,0,1-2.28,1.56c-1.56,0-2.76-.48-3.72.84-.84,1.2-6.12,7.56-7.2,11.4,1.08,2.28,2.64,6.48,3.72,9.48,3.6-3.12,15.24-14.4,17.4-16.56.84-.84.96-1.56-.24-2.4s-5.76-3.72-6.48-4.2S122.64,90.12,122.52,90.48Z" fill="#fff"/><path d="M93.12,106.8a47.51649,47.51649,0,0,1-4.44,11.88c.84,1.56,1.56,2.76,2.76,3.36a67.467,67.467,0,0,0,8.88-8.16c1.44-1.68,3.12-4.2,3.12-4.68,0-.6-.6-.72-1.44-.6-.84.24-4.32-1.2-7.68-1.8C93.48,106.44,93.24,106.44,93.12,106.8Z" fill="#fff"/><path d="M91.08,104.04007c-1.08-.24005-4.56-3.96-5.76-6s-1.44-1.92-1.92-.36a24.58266,24.58266,0,0,1-3.36,6.24c-1.2,1.56-4.44,5.76-5.28,6.6-.84.96,0,1.32.72,2.04s4.56,5.4,5.4,6.48c.84.96,1.8,2.88,3.96.84a24.27077,24.27077,0,0,0,6.24-9.6c1.2-3.84,1.2-5.88,2.28-5.64l.12-.84-.36-.48-.48-.48a.93942.93942,0,0,1-.12.96C92.28,104.40005,91.56,104.16006,91.08,104.04007Z" fill="#fff"/><path d="M148.08,18.36c-2.52,3-7.56,5.64-16.08,7.68-8.4,2.16-16.56,8.16-19.92,11.04-3.48,3-12.12,9.96-16.2,11.76-1.2.48-3.6,2.04-.48,2.4,2.28.36,3.84-.96,8.64-4.56,4.92-3.48,8.64-6,12.36-9.6,3.48-3.48,9.6-6.6,16.44-8.4,6.72-1.92,15.48-4.8,18-7.68,1.2-1.2,1.32-1.92.24-3C149.88,16.8,149.16,17.16006,148.08,18.36Z" fill="#fff"/><path d="M105.36,47.64c-.72.36-1.08.84-1.92,3.6-.84,2.64-.72,4.2,0,4.92a2.14954,2.14954,0,0,0,1.56.48c.36,0,.6.12.6-.6-.12-.84-.12-4.2,2.4-5.75995.48-.24005-.12-2.28-1.8-1.92C105.72,48.48,106.32,47.16,105.36,47.64Z" fill="#fff"/><path d="M76.56,58.32c1.32,0,2.16,0,2.04,1.56-.12,1.44-.72,3.48-.84,4.92s-.12,1.92.72,1.92-1.2.84-2.28,1.08c-1.2.12-2.88.84-3.72-3.96C72.12,62.40005,72.24,60,72,59.52A9.92647,9.92647,0,0,1,76.56,58.32Z" fill="#fff"/><path d="M101.28,62.28006c.36,1.92.84,1.92.48,2.16s-.72-.72-2.28-.48c-1.44.24-13.2,2.04-14.04,2.16-2.64.36-2.76-.12-.24-.72,2.4-.48,11.28-2.04,13.92-2.52Z" fill="#fff"/><path d="M87.24,204.84c1.2.72,4.08,1.56006,9-.48,5.04-2.04,10.44-.72,11.28,2.88.84,3.48.96,8.04-.72,9.96-1.2,1.68005-2.52,1.56006-3.96,1.08008-2.64-.84-8.88-3.72-10.68-4.56006a18.61881,18.61881,0,0,0-6.96-1.8c-.72-1.8-.72-4.92-.12-6s.6-2.28,1.08-1.92A9.13687,9.13687,0,0,0,87.24,204.84Z" fill="#fff"/><path d="M106.8,221.28006a4.26649,4.26649,0,0,1,4.08,2.76c.6,1.79993,4.2,2.16,5.76,2.16,1.56-.12,1.32.72,1.2,1.68,0,.84-.36,3.72-.36,4.8,0,1.2.36,5.04.48,5.76.24.84-.48,1.2-1.32,1.56s-3.84,1.2-5.76-.12c-1.08-.72-2.28-1.8-1.08-1.8,1.2-.12-1.56-10.68-2.28-12.48C106.8,223.68,104.64,221.28006,106.8,221.28006Z" fill="#fff"/><path d="M74.64,199.32c.6.12.84.72,1.2,1.32a1.31152,1.31152,0,0,1-.12,1.8c-1.08,1.2-2.28,6.24-2.04,9.96a10.22891,10.22891,0,0,0-2.76-.36c-.24-2.04-.12-8.4.84-10.44006C72.6,199.44,73.56,198.96005,74.64,199.32Z" fill="#fff"/><path d="M74.88,256.2c2.4,2.64,6.72,6.6,9.96,8.04a15.4,15.4,0,0,0,8.4,1.56c2.28-.24,1.8.72,0,1.08-1.92.24-6.24.24-9-1.2-2.76-1.56-7.2-4.32-9.96-8.4C73.44,256.32,74.16,255.36,74.88,256.2Z" fill="#fff"/><path d="M123.48,249.6a44.11156,44.11156,0,0,1-8.88,3.48,9.2706,9.2706,0,0,1,.48,2.88c2.04,0,6-1.43994,9.24-3.48.72-.48,1.08-1.08.72-1.68C124.8,250.2,124.44,249.12,123.48,249.6Z" fill="#fff"/><path d="M101.4,242.04007c-.48-.48,2.16-1.08,2.76-1.08a12.754,12.754,0,0,1,2.28,1.92c.36.24.24.36-.12.6a19.47085,19.47085,0,0,1-2.64.72A21.51167,21.51167,0,0,1,101.4,242.04007Z" fill="#fff"/><path d="M106.32,203.28006c-.72-.6-.72-.84-.24-1.44006a3.5983,3.5983,0,0,1,1.08-1.2c.36-.12.84-.24,1.56.72a86.68862,86.68862,0,0,1,4.92,8.4c.84,1.56,1.68.48,1.32-.36a17.63994,17.63994,0,0,0-1.44-3,40.57546,40.57546,0,0,0,2.04-11.16,19.06375,19.06375,0,0,0-1.32-7.44c2.64,0,8.04,0,10.2-.72,2.16-.6.36-.84-.48-.72a70.44618,70.44618,0,0,1-11.28-.48c-7.68-.84-15.12-5.28-17.52-8.16-.36-.48-2.64-.24-.72,1.20007,1.8,1.55994,6.6,5.87994,13.56,7.2,1.56.36,4.08.72,4.44,6.48a67.08679,67.08679,0,0,1-.12,10.08c0,.6-.36.72-.84.12a14.69829,14.69829,0,0,0-2.88-3.24,1.79663,1.79663,0,0,0-2.16.12,14.72732,14.72732,0,0,0-2.4,2.28Z" fill="#fff"/><path d="M91.2,221.40005c-.6,0-4.8.36-5.76,0C84.6,221.16,84,220.08,84.6,219.6c.84-.48,2.28.24,3.6.24,1.44,0,3-.36,3.48-.24.36.24.84.24.84,1.92Z" fill="#fff"/><path d="M81.12,247.08c-1.2-.84-2.64-4.2-2.88-11.16a24.55993,24.55993,0,0,1,1.56-8.04c.72-1.92-.48-1.2-.72-.48a23.96836,23.96836,0,0,0-1.56,5.28,27.30286,27.30286,0,0,0,0,9,44.99433,44.99433,0,0,0,1.32,6.24005Z" fill="#fff"/><path d="M119.28,18.24a7.34232,7.34232,0,0,1,.6-1.44c-.72.48-1.44.72-2.04,1.08C118.2,18.48,118.8,19.44,119.28,18.24Z" fill="#ba9653"/><path d="M119.28,18.24a7.34232,7.34232,0,0,1,.6-1.44c-.72.48-1.44.72-2.04,1.08C118.2,18.48,118.8,19.44,119.28,18.24Z" fill="none" stroke="#ba9653" stroke-width="0.36"/><path d="M136.08,19.08c-.24-.96-1.2.6-2.28,1.92-1.2,1.44-2.88.6-3-.12A9.91833,9.91833,0,0,0,129.24,18c-1.08-1.32.96-3.12,1.8-3.36a11.15285,11.15285,0,0,0,2.16-.72c.24-.24-.12-1.56-.36-2.64a69.49309,69.49309,0,0,0-11.04,4.56c1.08.36.72,2.52.6,2.75995-.12.36-.48,2.28.36,1.08a4.59562,4.59562,0,0,1,2.04-1.8c.84-.24,1.8-.24,1.8,1.08.12,1.32-.48,1.2-.72,2.04-.12.84,0,.84.48.96s.72.72.36,1.68c-.24.84-1.68.96-3,.84-1.32-.24-1.44,0-.96.36a3.61469,3.61469,0,0,1,.96,1.92,45.73642,45.73642,0,0,1,12.36-3.84A13.69087,13.69087,0,0,0,136.08,19.08Z" fill="#ba9653"/><path d="M136.08,19.08c-.24-.96-1.2.6-2.28,1.92-1.2,1.44-2.88.6-3-.12A9.91833,9.91833,0,0,0,129.24,18c-1.08-1.32.96-3.12,1.8-3.36a11.15285,11.15285,0,0,0,2.16-.72c.24-.24-.12-1.56-.36-2.64a69.49309,69.49309,0,0,0-11.04,4.56c1.08.36.72,2.52.6,2.75995-.12.36-.48,2.28.36,1.08a4.59562,4.59562,0,0,1,2.04-1.8c.84-.24,1.8-.24,1.8,1.08.12,1.32-.48,1.2-.72,2.04-.12.84,0,.84.48.96s.72.72.36,1.68c-.24.84-1.68.96-3,.84-1.32-.24-1.44,0-.96.36a3.61469,3.61469,0,0,1,.96,1.92,45.73642,45.73642,0,0,1,12.36-3.84A13.69087,13.69087,0,0,0,136.08,19.08Z" fill="none" stroke="#ba9653" stroke-width="0.36"/><path d="M106.68,37.44c-.48-.84-1.08-.96-1.32-.24-.24.6-.72,2.88-2.16,3.48-.48.12-.84.24-1.2.36.6.48,1.08.96,1.8,1.44a41.25053,41.25053,0,0,1,3.24-3.24A4.81521,4.81521,0,0,0,106.68,37.44Z" fill="#ba9653"/><path d="M106.68,37.44c-.48-.84-1.08-.96-1.32-.24-.24.6-.72,2.88-2.16,3.48-.48.12-.84.24-1.2.36.6.48,1.08.96,1.8,1.44a41.25053,41.25053,0,0,1,3.24-3.24A4.81521,4.81521,0,0,0,106.68,37.44Z" fill="none" stroke="#ba9653" stroke-width="0.36"/><path d="M120.6,26.40005c-.6-.12-.96.6-1.32,1.08A2.12125,2.12125,0,0,1,117,28.8c-1.2-.12-1.44-.48-1.8-1.56a1.73383,1.73383,0,0,0-1.92-1.32c-.84,0-1.44-1.08-.48-2.16.84-1.08,1.8-.6,2.64-.6.72,0,1.08-.84.48-1.2a4.23415,4.23415,0,0,1-1.44-2.04,81.54139,81.54139,0,0,0-9.84,7.44,15.63213,15.63213,0,0,1,1.56.36,1.48792,1.48792,0,0,1,1.08,1.56c0,.84.12,1.08.72.48.48-.48-.12-2.28,1.68-2.88,1.68-.72,1.92.6,1.8,1.44,0,.96,0,1.68.96,2.16.84.36,1.8,1.8-.12,2.52a24.165,24.165,0,0,1-3.84,1.32c-.84.24-.6,1.08.12,1.56.36.24.6.6.84.72a84.06309,84.06309,0,0,1,7.44-5.87994,40.38613,40.38613,0,0,1,4.2-2.64C121.2,27.48,121.32,26.64,120.6,26.40005Z" fill="#ba9653"/><path d="M120.6,26.40005c-.6-.12-.96.6-1.32,1.08A2.12125,2.12125,0,0,1,117,28.8c-1.2-.12-1.44-.48-1.8-1.56a1.73383,1.73383,0,0,0-1.92-1.32c-.84,0-1.44-1.08-.48-2.16.84-1.08,1.8-.6,2.64-.6.72,0,1.08-.84.48-1.2a4.23415,4.23415,0,0,1-1.44-2.04,81.54139,81.54139,0,0,0-9.84,7.44,15.63213,15.63213,0,0,1,1.56.36,1.48792,1.48792,0,0,1,1.08,1.56c0,.84.12,1.08.72.48.48-.48-.12-2.28,1.68-2.88,1.68-.72,1.92.6,1.8,1.44,0,.96,0,1.68.96,2.16.84.36,1.8,1.8-.12,2.52a24.165,24.165,0,0,1-3.84,1.32c-.84.24-.6,1.08.12,1.56.36.24.6.6.84.72a84.06309,84.06309,0,0,1,7.44-5.87994,40.38613,40.38613,0,0,1,4.2-2.64C121.2,27.48,121.32,26.64,120.6,26.40005Z" fill="none" stroke="#ba9653" stroke-width="0.36"/><path d="M102.36,35.04c.12-.84-.72-1.2-1.08-1.44-.48,0-1.08-.72-1.32-1.31995a6.446,6.446,0,0,0-1.2,1.92c.24.6.36,1.2.6,1.68C100.44,35.88,102.24,35.88,102.36,35.04Z" fill="#ba9653"/><path d="M102.36,35.04c.12-.84-.72-1.2-1.08-1.44-.48,0-1.08-.72-1.32-1.31995a6.446,6.446,0,0,0-1.2,1.92c.24.6.36,1.2.6,1.68C100.44,35.88,102.24,35.88,102.36,35.04Z" fill="none" stroke="#ba9653" stroke-width="0.36"/><path d="M141.72,78.6a25.4361,25.4361,0,0,0-10.08,1.68005c.6.36,1.2,1.2,2.4.72,1.8-.6,2.4,1.32,1.56,1.8-.72.6-1.08,1.8.48.84s3,.48,2.4,1.44c-.72,1.08-1.56.24-1.32,1.68.12,1.44-.12,2.76-1.44,3s-1.56-1.68-2.16-1.56.12,3.48-.12,3.48a4.41389,4.41389,0,0,0-2.28,1.44.11752.11752,0,0,1,.12.12c5.04,3.6,6.36,1.56,7.2-.12a72.95484,72.95484,0,0,0,2.88-9.72A34.873,34.873,0,0,0,141.72,78.6Z" fill="#ba9653"/><path d="M141.72,78.6a25.4361,25.4361,0,0,0-10.08,1.68005c.6.36,1.2,1.2,2.4.72,1.8-.6,2.4,1.32,1.56,1.8-.72.6-1.08,1.8.48.84s3,.48,2.4,1.44c-.72,1.08-1.56.24-1.32,1.68.12,1.44-.12,2.76-1.44,3s-1.56-1.68-2.16-1.56.12,3.48-.12,3.48a4.41389,4.41389,0,0,0-2.28,1.44.11752.11752,0,0,1,.12.12c5.04,3.6,6.36,1.56,7.2-.12a72.95484,72.95484,0,0,0,2.88-9.72A34.873,34.873,0,0,0,141.72,78.6Z" fill="none" stroke="#ba9653" stroke-width="0.36"/><path d="M130.56,88.68c.24-.6-.48-1.2-1.32-.84-.84.6-1.92,1.32007-2.76,0-.84-1.43994.96-1.56.96-2.16.12-.72-.48-.84-.24-1.8.36-1.08,1.56-.84,2.4-.24.96.6.6-.96.48-1.56a4.00048,4.00048,0,0,1,0-1.2,14.25367,14.25367,0,0,0-3,1.56c-4.8,2.88-4.92,5.4-3.84,6.36.96.84,3.12,1.2,6.6,3.48A12.63915,12.63915,0,0,1,130.56,88.68Z" fill="#ba9653"/><path d="M130.56,88.68c.24-.6-.48-1.2-1.32-.84-.84.6-1.92,1.32007-2.76,0-.84-1.43994.96-1.56.96-2.16.12-.72-.48-.84-.24-1.8.36-1.08,1.56-.84,2.4-.24.96.6.6-.96.48-1.56a4.00048,4.00048,0,0,1,0-1.2,14.25367,14.25367,0,0,0-3,1.56c-4.8,2.88-4.92,5.4-3.84,6.36.96.84,3.12,1.2,6.6,3.48A12.63915,12.63915,0,0,1,130.56,88.68Z" fill="none" stroke="#ba9653" stroke-width="0.36"/><path d="M115.32,85.92a14.22743,14.22743,0,0,1-5.28-5.64s.12-.48-.36-.48a20.11071,20.11071,0,0,1-6.12-1.32c-3.48-1.2-3.96-.48-4.32.96a35.58206,35.58206,0,0,0-.96,8.76c0,4.44,1.92,7.2,3.12,6.84.6-.24,2.04-.96,3.72-1.8,0-.96.12-2.4.12-3.24.24-.96-.96-.6-1.44,0-.36.48-1.32,1.44-2.16,1.32s-1.44-1.68-1.2-3c.12-1.44-1.56-1.92-.48-3.84,1.08-1.8,1.92.48,2.76.36.96-.24005.48-.72,0-2.16s1.32-1.8,2.4-.84c.72.72,1.08-.84,2.04-.6,1.08.24,1.68.96,1.08,2.04-.48.72-.84,2.52,0,1.56.96-.96,1.8-1.56,2.64-.84.84.6.36,2.04.12,2.64-.24.72,1.44,1.56.24,2.4s-2.52-.6-3.24-.36c-.6.12-.72.96.12,1.56a6.34311,6.34311,0,0,0,1.68.96,24.97219,24.97219,0,0,0,5.04-2.4l1.2.12C116.04,87.24,115.8,86.28006,115.32,85.92Z" fill="#ba9653"/><path d="M115.32,85.92a14.22743,14.22743,0,0,1-5.28-5.64s.12-.48-.36-.48a20.11071,20.11071,0,0,1-6.12-1.32c-3.48-1.2-3.96-.48-4.32.96a35.58206,35.58206,0,0,0-.96,8.76c0,4.44,1.92,7.2,3.12,6.84.6-.24,2.04-.96,3.72-1.8,0-.96.12-2.4.12-3.24.24-.96-.96-.6-1.44,0-.36.48-1.32,1.44-2.16,1.32s-1.44-1.68-1.2-3c.12-1.44-1.56-1.92-.48-3.84,1.08-1.8,1.92.48,2.76.36.96-.24005.48-.72,0-2.16s1.32-1.8,2.4-.84c.72.72,1.08-.84,2.04-.6,1.08.24,1.68.96,1.08,2.04-.48.72-.84,2.52,0,1.56.96-.96,1.8-1.56,2.64-.84.84.6.36,2.04.12,2.64-.24.72,1.44,1.56.24,2.4s-2.52-.6-3.24-.36c-.6.12-.72.96.12,1.56a6.34311,6.34311,0,0,0,1.68.96,24.97219,24.97219,0,0,0,5.04-2.4l1.2.12C116.04,87.24,115.8,86.28006,115.32,85.92Z" fill="none" stroke="#ba9653" stroke-width="0.36"/><path d="M108.48,106.44c-.84-1.68-1.08-.36-3.12,2.76a75.94966,75.94966,0,0,1-6.96,8.28c2.28.36,7.2,1.56,4.2,4.08-3.12,2.64-1.8,2.4-.36,2.28,1.44-.24,3.84.6,2.04,3.84-1.8,3.12-3,5.4-4.68,6.36-1.68,1.08-4.2.96-4.68-1.44s-2.16,0-2.28,1.56006a38.48436,38.48436,0,0,0,0,5.28l-3.6-.24a45.293,45.293,0,0,1,.24-5.76c.24-1.44.12-3.12-2.04-2.4a3.67527,3.67527,0,0,1-2.76-.24c-4.2,3.6-6.36,6.24-7.68,8.52a4.36333,4.36333,0,0,0,4.56.96c2.04-.84,5.4.12,3.36,3.36-2.04,3.12-1.92,4.68.12,2.76s5.28-5.4,6.36-1.8c.6,2.28-1.56,3-1.44,4.92s1.92,3.72-.72,6-3.72-1.56-5.4-1.08a1.8841,1.8841,0,0,0-1.2,2.16c2.28,3.36,5.64,8.04,6.84,9.96,1.92,3.12,1.92,6.84,2.64,6.24s2.52-2.28,3.12-2.75995a1.87762,1.87762,0,0,0,.84-2.04,34.09928,34.09928,0,0,1-1.08-10.32c.36-4.32,2.4-9.12,3.84-11.88,1.44-2.64,5.76-11.16,6.84-13.32,1.08-2.28,3-4.92,3.36-6.96.48-2.04,2.28-6.84,3-9.12A47.07961,47.07961,0,0,0,108.48,106.44Z" fill="#ba9653"/><path d="M108.48,106.44c-.84-1.68-1.08-.36-3.12,2.76a75.94966,75.94966,0,0,1-6.96,8.28c2.28.36,7.2,1.56,4.2,4.08-3.12,2.64-1.8,2.4-.36,2.28,1.44-.24,3.84.6,2.04,3.84-1.8,3.12-3,5.4-4.68,6.36-1.68,1.08-4.2.96-4.68-1.44s-2.16,0-2.28,1.56006a38.48436,38.48436,0,0,0,0,5.28l-3.6-.24a45.293,45.293,0,0,1,.24-5.76c.24-1.44.12-3.12-2.04-2.4a3.67527,3.67527,0,0,1-2.76-.24c-4.2,3.6-6.36,6.24-7.68,8.52a4.36333,4.36333,0,0,0,4.56.96c2.04-.84,5.4.12,3.36,3.36-2.04,3.12-1.92,4.68.12,2.76s5.28-5.4,6.36-1.8c.6,2.28-1.56,3-1.44,4.92s1.92,3.72-.72,6-3.72-1.56-5.4-1.08a1.8841,1.8841,0,0,0-1.2,2.16c2.28,3.36,5.64,8.04,6.84,9.96,1.92,3.12,1.92,6.84,2.64,6.24s2.52-2.28,3.12-2.75995a1.87762,1.87762,0,0,0,.84-2.04,34.09928,34.09928,0,0,1-1.08-10.32c.36-4.32,2.4-9.12,3.84-11.88,1.44-2.64,5.76-11.16,6.84-13.32,1.08-2.28,3-4.92,3.36-6.96.48-2.04,2.28-6.84,3-9.12A47.07961,47.07961,0,0,0,108.48,106.44Z" fill="none" stroke="#ba9653" stroke-width="0.36"/><path d="M149.04,147.84c-2.4-3.96-2.88-5.64-3.24-9.72a49.44672,49.44672,0,0,1,.48-9.12c-.84-.12-1.68,0-1.8,1.2a16.96134,16.96134,0,0,1-1.44,5.64c-.6,1.2-2.4,1.2-3.6,1.2-1.08.12006-1.08-.6-.36-2.28s1.08-2.4.84-3.96c-.24-1.44-.84-.12-1.56,1.2-.72,1.2-2.52,3.84-4.68,3.6-2.16-.36-1.56-3.6-1.44-4.68.24-1.08-.36-1.32-1.2-1.44-.84-.24-2.64-.6-1.56-3.36.84-2.64,1.92-2.4,3.12-1.92,1.32.48,1.56-.36.36-.84s-2.52-1.56-2.4-2.76c.24-3.48,2.4-3.12,4.08-2.76a5.60084,5.60084,0,0,0,4.56-1.92v-.24c-2.52-9.48,2.28-21.12,3.48-24.36a153.42935,153.42935,0,0,1,8.16-15.24c-.96-.48-3.36-1.68-4.8-2.4-1.32-.6-2.04-1.08-2.4-.48-.36.48-.84.84-1.56,1.68-1.2,1.92-.12,1.56.12,1.56.48,0,2.04,2.04,2.28,2.64.36.36,0,.72-.6,2.28-.84,1.92-1.44,6.48-2.28,9.12-2.16,8.16-5.76,7.32-7.32,6.36-1.56-1.08-2.04.48-3.6,2.75995-.48.48-1.44,1.56006-2.64,2.76,1.56.72,3.6,2.64,1.2,4.56-3,2.28-3.48,3.48-2.04,3.12,1.44-.24,2.76-2.4,4.32-.84,1.56,1.44-.48,3.12-1.44,3.6-.84.48-2.52,1.32-2.04,3.12s.84,4.2-1.56,4.68c-2.28.6-3.24-.36-3.84-1.56-.72-1.2-1.32-.36-1.56,1.08a16.14581,16.14581,0,0,0-.48,3.12c0,.6-1.68-.24-2.4-.96-.72-.84-1.68,1.2-2.52.24-.84-1.08.96-4.2,1.56-5.28s.36-2.64-3.36-.84c-1.2,2.04-2.16,4.92-3.6,9.48a102.46155,102.46155,0,0,1-8.64,17.76c-5.04,8.16-6,15.72-5.16,20.52C97.2,168.84,97.8,168.48,98.88,168.48c.96,0,3.48,3.12,5.16,5.16,1.68,1.92,2.4,1.08,3.24.36A89.35451,89.35451,0,0,1,123,164.88a87.63854,87.63854,0,0,1,11.88-4.68,28.24682,28.24682,0,0,1,.6-4.56c.12-.96-.72-1.2-1.68,0-.84,1.2-3.36,4.2-5.04,3.36-1.68-.72-3.12-2.52-2.16-4.2.84-1.56-.36-1.92-1.08-2.76s-.72-4.2,1.44-4.44c2.04-.24,2.64,1.56006,4.08,2.04,1.44.36,2.64.36.84-1.56-1.8-2.04-3.96-1.2-2.88-3.96,1.2-2.64,2.76-2.52,4.68-1.92,1.8.48,2.76-.48,3.96-1.32s3.6-1.92,5.28,0-1.2,3.72-1.92,4.32c-1.2,1.32-1.44,3.6,0,2.28s3.72-6.48,5.4-2.28c.84,2.4-.84,3.48-.6,4.92.36,1.56,2.88,3.48.84,5.4s-5.04.36-6.24-.84c-1.2-1.08-2.52-1.68-1.92.36a14.48779,14.48779,0,0,1,.6,4.08c4.08-1.08,7.68-1.8,9.48-1.68,2.64.24,4.68,1.08,4.56-1.44C152.76,153.48,151.44,151.8,149.04,147.84Z" fill="#ba9653"/><path d="M149.04,147.84c-2.4-3.96-2.88-5.64-3.24-9.72a49.44672,49.44672,0,0,1,.48-9.12c-.84-.12-1.68,0-1.8,1.2a16.96134,16.96134,0,0,1-1.44,5.64c-.6,1.2-2.4,1.2-3.6,1.2-1.08.12006-1.08-.6-.36-2.28s1.08-2.4.84-3.96c-.24-1.44-.84-.12-1.56,1.2-.72,1.2-2.52,3.84-4.68,3.6-2.16-.36-1.56-3.6-1.44-4.68.24-1.08-.36-1.32-1.2-1.44-.84-.24-2.64-.6-1.56-3.36.84-2.64,1.92-2.4,3.12-1.92,1.32.48,1.56-.36.36-.84s-2.52-1.56-2.4-2.76c.24-3.48,2.4-3.12,4.08-2.76a5.60084,5.60084,0,0,0,4.56-1.92v-.24c-2.52-9.48,2.28-21.12,3.48-24.36a153.42935,153.42935,0,0,1,8.16-15.24c-.96-.48-3.36-1.68-4.8-2.4-1.32-.6-2.04-1.08-2.4-.48-.36.48-.84.84-1.56,1.68-1.2,1.92-.12,1.56.12,1.56.48,0,2.04,2.04,2.28,2.64.36.36,0,.72-.6,2.28-.84,1.92-1.44,6.48-2.28,9.12-2.16,8.16-5.76,7.32-7.32,6.36-1.56-1.08-2.04.48-3.6,2.75995-.48.48-1.44,1.56006-2.64,2.76,1.56.72,3.6,2.64,1.2,4.56-3,2.28-3.48,3.48-2.04,3.12,1.44-.24,2.76-2.4,4.32-.84,1.56,1.44-.48,3.12-1.44,3.6-.84.48-2.52,1.32-2.04,3.12s.84,4.2-1.56,4.68c-2.28.6-3.24-.36-3.84-1.56-.72-1.2-1.32-.36-1.56,1.08a16.14581,16.14581,0,0,0-.48,3.12c0,.6-1.68-.24-2.4-.96-.72-.84-1.68,1.2-2.52.24-.84-1.08.96-4.2,1.56-5.28s.36-2.64-3.36-.84c-1.2,2.04-2.16,4.92-3.6,9.48a102.46155,102.46155,0,0,1-8.64,17.76c-5.04,8.16-6,15.72-5.16,20.52C97.2,168.84,97.8,168.48,98.88,168.48c.96,0,3.48,3.12,5.16,5.16,1.68,1.92,2.4,1.08,3.24.36A89.35451,89.35451,0,0,1,123,164.88a87.63854,87.63854,0,0,1,11.88-4.68,28.24682,28.24682,0,0,1,.6-4.56c.12-.96-.72-1.2-1.68,0-.84,1.2-3.36,4.2-5.04,3.36-1.68-.72-3.12-2.52-2.16-4.2.84-1.56-.36-1.92-1.08-2.76s-.72-4.2,1.44-4.44c2.04-.24,2.64,1.56006,4.08,2.04,1.44.36,2.64.36.84-1.56-1.8-2.04-3.96-1.2-2.88-3.96,1.2-2.64,2.76-2.52,4.68-1.92,1.8.48,2.76-.48,3.96-1.32s3.6-1.92,5.28,0-1.2,3.72-1.92,4.32c-1.2,1.32-1.44,3.6,0,2.28s3.72-6.48,5.4-2.28c.84,2.4-.84,3.48-.6,4.92.36,1.56,2.88,3.48.84,5.4s-5.04.36-6.24-.84c-1.2-1.08-2.52-1.68-1.92.36a14.48779,14.48779,0,0,1,.6,4.08c4.08-1.08,7.68-1.8,9.48-1.68,2.64.24,4.68,1.08,4.56-1.44C152.76,153.48,151.44,151.8,149.04,147.84Z" fill="none" stroke="#ba9653" stroke-width="0.36"/><path d="M116.04,164.40005c-2.28.72-2.64-.36-4.2-.84-1.44-.48-1.56.72-.48,2.28s2.16,3.12.84,3.12c-1.2,0-2.16.12006-2.28,1.08s-2.16-.12-2.64-2.16c-.48-1.92-.84-5.64-1.92-3.84-1.08,1.92-1.92,5.04-4.56,3.6s-.84-3.24-2.16-4.56-2.64-3-1.2-5.4c1.2-2.28,2.4-.36,3.6-.36s1.44-1.08.36-1.92c-1.2-.84-2.52-4.92,2.64-4.56006a10.20064,10.20064,0,0,0,5.76-1.8c1.68-1.2,6-.6,4.2,2.52s-1.2,3.72-.12,2.64c1.08-1.2,2.4-3.12,4.32-2.64s1.08,2.04-.12,3.72-.48,2.75995.48,3.48C119.4,159.48,121.2,162.96,116.04,164.40005Z" fill="#ba9653"/><path d="M116.04,164.40005c-2.28.72-2.64-.36-4.2-.84-1.44-.48-1.56.72-.48,2.28s2.16,3.12.84,3.12c-1.2,0-2.16.12006-2.28,1.08s-2.16-.12-2.64-2.16c-.48-1.92-.84-5.64-1.92-3.84-1.08,1.92-1.92,5.04-4.56,3.6s-.84-3.24-2.16-4.56-2.64-3-1.2-5.4c1.2-2.28,2.4-.36,3.6-.36s1.44-1.08.36-1.92c-1.2-.84-2.52-4.92,2.64-4.56006a10.20064,10.20064,0,0,0,5.76-1.8c1.68-1.2,6-.6,4.2,2.52s-1.2,3.72-.12,2.64c1.08-1.2,2.4-3.12,4.32-2.64s1.08,2.04-.12,3.72-.48,2.75995.48,3.48C119.4,159.48,121.2,162.96,116.04,164.40005Z" fill="none" stroke="#ba9653" stroke-width="0.36"/><path d="M125.4,142.44a15.67373,15.67373,0,0,1-3.72-.36c-.12,1.8-1.8,4.32-3.6,6.96-.12.24005-1.2.24005-1.68-.11993-.36-.36-1.8-1.08008-.72-2.16s2.76-3.48,2.4-4.56c-.24-.96-1.08-1.92-2.16-.48s-2.88,4.32-4.92,4.32c-1.92.12006-3.84-1.56-3-3.36.96-1.8,1.2-2.75995,0-4.32-1.32-1.56-.84-3.6,1.92-4.92a3.78125,3.78125,0,0,1,3.36.84c1.08.84,1.56,0,.12-.84-1.32-.84-2.52-1.8-2.64-3.72-.12-1.79993.84-3.6,3.36-2.64a4.42631,4.42631,0,0,0,4.92-.6c1.08-.84,5.4-1.92,4.8,1.92-.48,2.76-1.8,2.88-2.16,4.31995-.48,1.56006.72.48,1.32-.48.72-1.2,2.28-5.76,5.28-2.28.72.84.48,2.28-.48,3.84-.84,1.56-.12,2.52.48,3.36C128.88,138.12,130.08,142.2,125.4,142.44Z" fill="#ba9653"/><path d="M125.4,142.44a15.67373,15.67373,0,0,1-3.72-.36c-.12,1.8-1.8,4.32-3.6,6.96-.12.24005-1.2.24005-1.68-.11993-.36-.36-1.8-1.08008-.72-2.16s2.76-3.48,2.4-4.56c-.24-.96-1.08-1.92-2.16-.48s-2.88,4.32-4.92,4.32c-1.92.12006-3.84-1.56-3-3.36.96-1.8,1.2-2.75995,0-4.32-1.32-1.56-.84-3.6,1.92-4.92a3.78125,3.78125,0,0,1,3.36.84c1.08.84,1.56,0,.12-.84-1.32-.84-2.52-1.8-2.64-3.72-.12-1.79993.84-3.6,3.36-2.64a4.42631,4.42631,0,0,0,4.92-.6c1.08-.84,5.4-1.92,4.8,1.92-.48,2.76-1.8,2.88-2.16,4.31995-.48,1.56006.72.48,1.32-.48.72-1.2,2.28-5.76,5.28-2.28.72.84.48,2.28-.48,3.84-.84,1.56-.12,2.52.48,3.36C128.88,138.12,130.08,142.2,125.4,142.44Z" fill="none" stroke="#ba9653" stroke-width="0.36"/><path d="M123.72,24.48c1.32.12,2.64.12,3-.84.36-.84.12-1.44-.36-1.56-.48-.24-.6-.24-.48-1.08.12-.72.84-.72.72-1.92,0-1.32-.96-1.44-1.8-1.08-.96.24-1.2.6-2.04,1.8-.84,1.08-.48-.72-.36-1.08.24-.24005.48-2.52-.6-2.88-.72.36-1.32.72-1.92.96a6.76659,6.76659,0,0,0-.48,1.44c-.48,1.2-1.08.24-1.44-.36a29.6992,29.6992,0,0,0-3.12,1.92c-.12,0-.24.12-.36.12a3.77673,3.77673,0,0,0,1.56,2.04c.6.48.24,1.2-.6,1.2-.72,0-1.56-.48-2.64.6-.84,1.08-.24,2.16.6,2.16a1.8118,1.8118,0,0,1,1.92,1.32c.36,1.08.6,1.44,1.8,1.56a2.21849,2.21849,0,0,0,2.28-1.32c.24-.48.72-1.31995,1.2-1.2.84.36.72,1.08.48,1.92.96-.48,1.8-.96,2.76-1.44a5.72476,5.72476,0,0,0-.96-1.92C122.4,24.6,122.52,24.36,123.72,24.48Z" fill="#008248"/><path d="M123.72,24.48c1.32.12,2.64.12,3-.84.36-.84.12-1.44-.36-1.56-.48-.24-.6-.24-.48-1.08.12-.72.84-.72.72-1.92,0-1.32-.96-1.44-1.8-1.08-.96.24-1.2.6-2.04,1.8-.84,1.08-.48-.72-.36-1.08.24-.24005.48-2.52-.6-2.88-.72.36-1.32.72-1.92.96a6.76659,6.76659,0,0,0-.48,1.44c-.48,1.2-1.08.24-1.44-.36a29.6992,29.6992,0,0,0-3.12,1.92c-.12,0-.24.12-.36.12a3.77673,3.77673,0,0,0,1.56,2.04c.6.48.24,1.2-.6,1.2-.72,0-1.56-.48-2.64.6-.84,1.08-.24,2.16.6,2.16a1.8118,1.8118,0,0,1,1.92,1.32c.36,1.08.6,1.44,1.8,1.56a2.21849,2.21849,0,0,0,2.28-1.32c.24-.48.72-1.31995,1.2-1.2.84.36.72,1.08.48,1.92.96-.48,1.8-.96,2.76-1.44a5.72476,5.72476,0,0,0-.96-1.92C122.4,24.6,122.52,24.36,123.72,24.48Z" fill="none" stroke="#00a55c" stroke-width="0.36"/><path d="M134.16,11.04a4.25364,4.25364,0,0,0-1.32.36c.24,1.08.6,2.4.36,2.64a10.06961,10.06961,0,0,1-2.16.6c-.84.24-2.76,2.16-1.8,3.48A6.1947,6.1947,0,0,1,130.8,21a1.80922,1.80922,0,0,0,3,.12c1.2-1.44,2.04-2.88,2.4-1.92a13.69029,13.69029,0,0,1,0,3.84,1.522,1.522,0,0,0,.72-.12C137.28,17.64,136.08,13.8,134.16,11.04Z" fill="#008248"/><path d="M134.16,11.04a4.25364,4.25364,0,0,0-1.32.36c.24,1.08.6,2.4.36,2.64a10.06961,10.06961,0,0,1-2.16.6c-.84.24-2.76,2.16-1.8,3.48A6.1947,6.1947,0,0,1,130.8,21a1.80922,1.80922,0,0,0,3,.12c1.2-1.44,2.04-2.88,2.4-1.92a13.69029,13.69029,0,0,1,0,3.84,1.522,1.522,0,0,0,.72-.12C137.28,17.64,136.08,13.8,134.16,11.04Z" fill="none" stroke="#00a55c" stroke-width="0.36"/><path d="M108.6,36c-.72-.48-.84-1.2-.12-1.56a20.48753,20.48753,0,0,0,3.84-1.2c1.92-.84.96-2.28.12-2.64-.96-.36-.96-1.2-.96-2.16.12-.84-.12-2.16-1.8-1.44-1.8.6-1.2,2.28-1.68,2.88-.6.6-.84.36-.72-.48.12-.72-.6-1.32-1.08-1.56a10.28411,10.28411,0,0,0-1.56-.36,35.36271,35.36271,0,0,0-4.68,4.92,3.10189,3.10189,0,0,0,1.32,1.44,1.27277,1.27277,0,0,1,1.08,1.44c0,.72-1.8.72-3,.84a14.92407,14.92407,0,0,0,2.88,5.16,7.07554,7.07554,0,0,0,.96-.48c1.44-.6,1.92-2.76,2.28-3.36.12-.72.72-.6,1.2.24a5.15117,5.15117,0,0,1,.48,1.68c.84-.84,1.68-1.56,2.4-2.28A8.72366,8.72366,0,0,0,108.6,36Z" fill="#008248"/><path d="M108.6,36c-.72-.48-.84-1.2-.12-1.56a20.48753,20.48753,0,0,0,3.84-1.2c1.92-.84.96-2.28.12-2.64-.96-.36-.96-1.2-.96-2.16.12-.84-.12-2.16-1.8-1.44-1.8.6-1.2,2.28-1.68,2.88-.6.6-.84.36-.72-.48.12-.72-.6-1.32-1.08-1.56a10.28411,10.28411,0,0,0-1.56-.36,35.36271,35.36271,0,0,0-4.68,4.92,3.10189,3.10189,0,0,0,1.32,1.44,1.27277,1.27277,0,0,1,1.08,1.44c0,.72-1.8.72-3,.84a14.92407,14.92407,0,0,0,2.88,5.16,7.07554,7.07554,0,0,0,.96-.48c1.44-.6,1.92-2.76,2.28-3.36.12-.72.72-.6,1.2.24a5.15117,5.15117,0,0,1,.48,1.68c.84-.84,1.68-1.56,2.4-2.28A8.72366,8.72366,0,0,0,108.6,36Z" fill="none" stroke="#00a55c" stroke-width="0.36"/><path d="M133.32,91.68c.36,0-.48-3.36.12-3.48s.96,1.8,2.16,1.56c1.32-.24,1.68-1.56,1.44-3-.12-1.44.72-.72,1.32-1.68.72-1.08-.72-2.4-2.28-1.44-1.68.96-1.32-.24-.48-.84.84-.48.24-2.4-1.56-1.8-1.32.48-2.04-.36-2.64-.72a6.43146,6.43146,0,0,0-1.32.6,4.84044,4.84044,0,0,0,0,1.32c.12.6.48,2.16-.48,1.44-.84-.6-2.04-.84-2.4.24-.24,1.08.36,1.2.24,1.8,0,.72-1.8.84-.96,2.16.84,1.44,1.92.6,2.76.12s1.56.12006,1.32.84a11.789,11.789,0,0,0-.72,3.6,7.28454,7.28454,0,0,1,1.2.84A3.934,3.934,0,0,1,133.32,91.68Z" fill="#008248"/><path d="M133.32,91.68c.36,0-.48-3.36.12-3.48s.96,1.8,2.16,1.56c1.32-.24,1.68-1.56,1.44-3-.12-1.44.72-.72,1.32-1.68.72-1.08-.72-2.4-2.28-1.44-1.68.96-1.32-.24-.48-.84.84-.48.24-2.4-1.56-1.8-1.32.48-2.04-.36-2.64-.72a6.43146,6.43146,0,0,0-1.32.6,4.84044,4.84044,0,0,0,0,1.32c.12.6.48,2.16-.48,1.44-.84-.6-2.04-.84-2.4.24-.24,1.08.36,1.2.24,1.8,0,.72-1.8.84-.96,2.16.84,1.44,1.92.6,2.76.12s1.56.12006,1.32.84a11.789,11.789,0,0,0-.72,3.6,7.28454,7.28454,0,0,1,1.2.84A3.934,3.934,0,0,1,133.32,91.68Z" fill="none" stroke="#00a55c" stroke-width="0.36"/><path d="M107.88,88.44c.72-.12,2.04,1.32,3.24.48s-.48-1.68-.24-2.4c.12-.72.72-2.04-.12-2.64-.84-.72-1.68-.12-2.64.84-.84.96-.6-.84-.12-1.68.6-.96,0-1.68-.96-1.8-1.08-.24-1.44,1.2-2.04.6-1.2-1.08-2.88-.6-2.4.84.48,1.32.84,1.8,0,2.04-.96.12006-1.8-2.16-2.76-.24-1.08,1.8.6,2.4.36,3.72-.12,1.44.48,3,1.32,3,.84.24,1.68-.72,2.16-1.32.48-.48,1.56-.96,1.44.12a26.1007,26.1007,0,0,0-.12,3.12,42.57327,42.57327,0,0,1,4.56-2.04h.12c-.48-.24-1.08-.6-1.68-.96C107.04,89.52,107.28,88.68,107.88,88.44Z" fill="#008248"/><path d="M107.88,88.44c.72-.12,2.04,1.32,3.24.48s-.48-1.68-.24-2.4c.12-.72.72-2.04-.12-2.64-.84-.72-1.68-.12-2.64.84-.84.96-.6-.84-.12-1.68.6-.96,0-1.68-.96-1.8-1.08-.24-1.44,1.2-2.04.6-1.2-1.08-2.88-.6-2.4.84.48,1.32.84,1.8,0,2.04-.96.12006-1.8-2.16-2.76-.24-1.08,1.8.6,2.4.36,3.72-.12,1.44.48,3,1.32,3,.84.24,1.68-.72,2.16-1.32.48-.48,1.56-.96,1.44.12a26.1007,26.1007,0,0,0-.12,3.12,42.57327,42.57327,0,0,1,4.56-2.04h.12c-.48-.24-1.08-.6-1.68-.96C107.04,89.52,107.28,88.68,107.88,88.44Z" fill="none" stroke="#00a55c" stroke-width="0.36"/><path d="M87.24,130.92007c2.16-.72,2.28,1.08,2.04,2.4a23.91413,23.91413,0,0,0-.24,5.88l3.6.12a38.21465,38.21465,0,0,1,0-5.28c.12-1.56,1.68-3.96,2.28-1.56.48,2.4,3,2.52,4.68,1.56,1.68-1.08,2.88-3.24,4.68-6.48,1.8-3.12-.6-3.96-2.04-3.84s-2.76.36.36-2.28c3-2.4-1.92-3.6-4.2-4.08a166.17849,166.17849,0,0,1-12.48,11.88c-.48.48-1.08.96-1.44,1.32C84.84,131.04,85.8,131.40005,87.24,130.92007Z" fill="#008248"/><path d="M87.24,130.92007c2.16-.72,2.28,1.08,2.04,2.4a23.91413,23.91413,0,0,0-.24,5.88l3.6.12a38.21465,38.21465,0,0,1,0-5.28c.12-1.56,1.68-3.96,2.28-1.56.48,2.4,3,2.52,4.68,1.56,1.68-1.08,2.88-3.24,4.68-6.48,1.8-3.12-.6-3.96-2.04-3.84s-2.76.36.36-2.28c3-2.4-1.92-3.6-4.2-4.08a166.17849,166.17849,0,0,1-12.48,11.88c-.48.48-1.08.96-1.44,1.32C84.84,131.04,85.8,131.40005,87.24,130.92007Z" fill="none" stroke="#00a55c" stroke-width="0.36"/><path d="M83.52,154.44c1.8-.6,2.88,3.24,5.52.96,2.64-2.16.72-4.08.6-6,0-1.8,2.04-2.52,1.44-4.92-.96-3.48-4.2-.12-6.24,1.8s-2.16.36-.12-2.76-1.32-4.2-3.36-3.36a4.36333,4.36333,0,0,1-4.56-.96c-.72,1.32-1.32,2.4-1.92,3.6-1.8,3.72-.6,3.84.72,3.84,1.2,0,4.08,5.4,4.44,6.48.24.36,1.2,1.68,2.4,3.48A1.7496,1.7496,0,0,1,83.52,154.44Z" fill="#008248"/><path d="M83.52,154.44c1.8-.6,2.88,3.24,5.52.96,2.64-2.16.72-4.08.6-6,0-1.8,2.04-2.52,1.44-4.92-.96-3.48-4.2-.12-6.24,1.8s-2.16.36-.12-2.76-1.32-4.2-3.36-3.36a4.36333,4.36333,0,0,1-4.56-.96c-.72,1.32-1.32,2.4-1.92,3.6-1.8,3.72-.6,3.84.72,3.84,1.2,0,4.08,5.4,4.44,6.48.24.36,1.2,1.68,2.4,3.48A1.7496,1.7496,0,0,1,83.52,154.44Z" fill="none" stroke="#00a55c" stroke-width="0.36"/><path d="M110.88,129.84c-.24-1.8.84-3.6,3.36-2.64a4.25636,4.25636,0,0,0,4.92-.72c1.08-.84,5.4-1.8,4.68,1.92-.36,2.88-1.8,3-2.16,4.43994s.72.48,1.44-.6,2.16-5.64,5.28-2.16c.72.72.48,2.16-.48,3.72a3.12341,3.12341,0,0,0,.36,3.48c.6.72,1.92,4.92-2.76,5.16a14.78167,14.78167,0,0,1-3.72-.36c-.12,1.8-1.92,4.32-3.6,6.96-.12.24005-1.2.24005-1.68-.12s-1.8-1.08-.72-2.16,2.64-3.48,2.4-4.56c-.36-.96-1.08-1.92-2.16-.48-1.2,1.44006-3,4.32-4.92,4.32-1.92.12006-3.84-1.56-3-3.36.96-1.8,1.2-2.76-.12-4.32-1.2-1.56-.72-3.6,2.04-4.92a3.78123,3.78123,0,0,1,3.36.84c1.08.84,1.56,0,.12-.84A4.43415,4.43415,0,0,1,110.88,129.84Z" fill="#008248"/><path d="M110.88,129.84c-.24-1.8.84-3.6,3.36-2.64a4.25636,4.25636,0,0,0,4.92-.72c1.08-.84,5.4-1.8,4.68,1.92-.36,2.88-1.8,3-2.16,4.43994s.72.48,1.44-.6,2.16-5.64,5.28-2.16c.72.72.48,2.16-.48,3.72a3.12341,3.12341,0,0,0,.36,3.48c.6.72,1.92,4.92-2.76,5.16a14.78167,14.78167,0,0,1-3.72-.36c-.12,1.8-1.92,4.32-3.6,6.96-.12.24005-1.2.24005-1.68-.12s-1.8-1.08-.72-2.16,2.64-3.48,2.4-4.56c-.36-.96-1.08-1.92-2.16-.48-1.2,1.44006-3,4.32-4.92,4.32-1.92.12006-3.84-1.56-3-3.36.96-1.8,1.2-2.76-.12-4.32-1.2-1.56-.72-3.6,2.04-4.92a3.78123,3.78123,0,0,1,3.36.84c1.08.84,1.56,0,.12-.84A4.43415,4.43415,0,0,1,110.88,129.84Z" fill="none" stroke="#00a55c" stroke-width="0.36"/><path d="M134.52,117.6c-1.68-.36-3.84-.6-4.08,2.88-.12,1.2,1.2,2.28,2.4,2.76,1.2.36.96,1.2-.36.84-1.2-.48-2.28-.84-3.24,1.92-.84,2.64.84,3,1.56,3.24.84.12,1.56.36,1.32,1.44-.12,1.2-.72,4.32,1.44,4.68,2.16.24,3.96-2.28,4.68-3.6.6-1.32,1.44-2.64,1.56-1.08.24,1.44-.12,2.16-.84,3.84s-.72,2.4.36,2.28c1.08,0,3,0,3.48-1.2a19.4026,19.4026,0,0,0,1.56-5.64c.12-1.08,1.08-1.2,1.68-1.2.24-1.92.6-3.72.84-5.28-3.72.48-6.84-3.96-7.92-7.8C137.88,117.12,135.96,118.08,134.52,117.6Z" fill="#008248"/><path d="M134.52,117.6c-1.68-.36-3.84-.6-4.08,2.88-.12,1.2,1.2,2.28,2.4,2.76,1.2.36.96,1.2-.36.84-1.2-.48-2.28-.84-3.24,1.92-.84,2.64.84,3,1.56,3.24.84.12,1.56.36,1.32,1.44-.12,1.2-.72,4.32,1.44,4.68,2.16.24,3.96-2.28,4.68-3.6.6-1.32,1.44-2.64,1.56-1.08.24,1.44-.12,2.16-.84,3.84s-.72,2.4.36,2.28c1.08,0,3,0,3.48-1.2a19.4026,19.4026,0,0,0,1.56-5.64c.12-1.08,1.08-1.2,1.68-1.2.24-1.92.6-3.72.84-5.28-3.72.48-6.84-3.96-7.92-7.8C137.88,117.12,135.96,118.08,134.52,117.6Z" fill="none" stroke="#00a55c" stroke-width="0.36"/><path d="M117.12,117c-.72,1.2-2.52,4.32-1.68,5.4s1.8-1.08,2.64-.36c.72.84,2.4,1.56,2.4,1.08a24.23185,24.23185,0,0,1,.36-3.12c.36-1.56.96-2.4,1.56-1.2a3.11418,3.11418,0,0,0,3.96,1.68c2.28-.48,2.04-3,1.56-4.68-.48-1.8,1.2-2.64,2.04-3.12s3-2.16,1.44-3.6-3,.72-4.32.96c-1.44.24005-.84-.96,1.92-3.24,2.52-1.92.48-3.72-1.08-4.44-3.96,4.08-11.04,10.56006-12.72,12.12a13.31477,13.31477,0,0,0-1.44,1.92C117.48,114.48,117.72,116.04,117.12,117Z" fill="#008248"/><path d="M117.12,117c-.72,1.2-2.52,4.32-1.68,5.4s1.8-1.08,2.64-.36c.72.84,2.4,1.56,2.4,1.08a24.23185,24.23185,0,0,1,.36-3.12c.36-1.56.96-2.4,1.56-1.2a3.11418,3.11418,0,0,0,3.96,1.68c2.28-.48,2.04-3,1.56-4.68-.48-1.8,1.2-2.64,2.04-3.12s3-2.16,1.44-3.6-3,.72-4.32.96c-1.44.24005-.84-.96,1.92-3.24,2.52-1.92.48-3.72-1.08-4.44-3.96,4.08-11.04,10.56006-12.72,12.12a13.31477,13.31477,0,0,0-1.44,1.92C117.48,114.48,117.72,116.04,117.12,117Z" fill="none" stroke="#00a55c" stroke-width="0.36"/><path d="M140.28,154.44c1.2,1.2,4.08,2.76,6.12.84,2.04-1.8-.48-3.84-.72-5.4-.36-1.44,1.44-2.4.48-4.8-1.68-4.2-3.96.72-5.4,2.16s-1.2-.96.12-2.16c.6-.72,3.48-2.4,1.8-4.44-1.68-1.92-4.08-.84-5.28,0s-2.16,1.92-3.96,1.32c-1.92-.48-3.48-.72-4.56,1.92-1.2,2.76.96,1.92,2.76,3.96,1.8,1.92.6,2.04-.84,1.56006-1.32-.48-1.92-2.28-4.08-1.92-2.04.24-2.04,3.48-1.44,4.32.72.84,1.92,1.2,1.08,2.88-.96,1.56.48,3.48,2.16,4.2s4.2-2.28,5.16-3.48c.84-1.2,1.8-.84,1.56,0a32.34675,32.34675,0,0,0-.6,4.68c1.44-.48,2.76-.84,4.2-1.2a18.61476,18.61476,0,0,0-.6-4.08C137.64,152.88,139.08,153.36,140.28,154.44Z" fill="#008248"/><path d="M140.28,154.44c1.2,1.2,4.08,2.76,6.12.84,2.04-1.8-.48-3.84-.72-5.4-.36-1.44,1.44-2.4.48-4.8-1.68-4.2-3.96.72-5.4,2.16s-1.2-.96.12-2.16c.6-.72,3.48-2.4,1.8-4.44-1.68-1.92-4.08-.84-5.28,0s-2.16,1.92-3.96,1.32c-1.92-.48-3.48-.72-4.56,1.92-1.2,2.76.96,1.92,2.76,3.96,1.8,1.92.6,2.04-.84,1.56006-1.32-.48-1.92-2.28-4.08-1.92-2.04.24-2.04,3.48-1.44,4.32.72.84,1.92,1.2,1.08,2.88-.96,1.56.48,3.48,2.16,4.2s4.2-2.28,5.16-3.48c.84-1.2,1.8-.84,1.56,0a32.34675,32.34675,0,0,0-.6,4.68c1.44-.48,2.76-.84,4.2-1.2a18.61476,18.61476,0,0,0-.6-4.08C137.64,152.88,139.08,153.36,140.28,154.44Z" fill="none" stroke="#00a55c" stroke-width="0.36"/><path d="M103.92,150.84a8.661,8.661,0,0,0,5.76-1.8c1.68-1.2,6.12-.48,4.32,2.64-1.8,3-1.2,3.72-.12,2.52.96-1.08,2.28-3.12,4.2-2.52,1.92.48,1.2,1.92,0,3.72a2.28455,2.28455,0,0,0,.36,3.48c.96.6,2.64,4.2-2.52,5.64-2.28.72-2.64-.36-4.08-.84-1.56-.6-1.56.72-.6,2.28,1.08,1.56006,2.16,3.12006.96,3.12006s-2.16.12-2.4,1.08c-.12.84-2.16-.12006-2.52-2.16-.48-1.92-.96-5.76-2.04-3.84-.96,1.92-1.92,4.92-4.56,3.48s-.84-3.24-2.16-4.56c-1.32-1.2-2.52-3-1.2-5.28,1.32-2.4,2.4-.36,3.6-.36s1.44-1.2.36-2.04S98.88,150.6,103.92,150.84Z" fill="#008248"/><path d="M103.92,150.84a8.661,8.661,0,0,0,5.76-1.8c1.68-1.2,6.12-.48,4.32,2.64-1.8,3-1.2,3.72-.12,2.52.96-1.08,2.28-3.12,4.2-2.52,1.92.48,1.2,1.92,0,3.72a2.28455,2.28455,0,0,0,.36,3.48c.96.6,2.64,4.2-2.52,5.64-2.28.72-2.64-.36-4.08-.84-1.56-.6-1.56.72-.6,2.28,1.08,1.56006,2.16,3.12006.96,3.12006s-2.16.12-2.4,1.08c-.12.84-2.16-.12006-2.52-2.16-.48-1.92-.96-5.76-2.04-3.84-.96,1.92-1.92,4.92-4.56,3.48s-.84-3.24-2.16-4.56c-1.32-1.2-2.52-3-1.2-5.28,1.32-2.4,2.4-.36,3.6-.36s1.44-1.2.36-2.04S98.88,150.6,103.92,150.84Z" fill="none" stroke="#00a55c" stroke-width="0.36"/><path d="M122.4,85.68c-.6,1.44-1.32,3.36-1.68,4.2-.36.96-2.04.6-1.92,0,.24-1.44-1.8-.48-1.56-1.68.24-.84-.12-2.4.84-2.4C119.16,85.8,121.08,85.68,122.4,85.68Z" fill="#ba9653"/><path d="M122.4,85.68c-.6,1.44-1.32,3.36-1.68,4.2-.36.96-2.04.6-1.92,0,.24-1.44-1.8-.48-1.56-1.68.24-.84-.12-2.4.84-2.4C119.16,85.8,121.08,85.68,122.4,85.68Z" fill="none" stroke="#ba9653" stroke-width="0.36"/><path d="M119.28,18.24a7.34232,7.34232,0,0,1,.6-1.44c-.72.48-1.44.72-2.04,1.08C118.2,18.48,118.8,19.44,119.28,18.24Z" fill="#ba9653"/><path d="M136.08,19.08c-.24-.96-1.2.6-2.28,1.92-1.2,1.44-2.88.6-3-.12A9.91833,9.91833,0,0,0,129.24,18c-1.08-1.32.96-3.12,1.8-3.36a11.15285,11.15285,0,0,0,2.16-.72c.24-.24-.12-1.56-.36-2.64a69.49309,69.49309,0,0,0-11.04,4.56c1.08.36.72,2.52.6,2.75995-.12.36-.48,2.28.36,1.08a4.59562,4.59562,0,0,1,2.04-1.8c.84-.24,1.8-.24,1.8,1.08.12,1.32-.48,1.2-.72,2.04-.12.84,0,.84.48.96s.72.72.36,1.68c-.24.84-1.68.96-3,.84-1.32-.24-1.44,0-.96.36a3.61469,3.61469,0,0,1,.96,1.92,45.73642,45.73642,0,0,1,12.36-3.84A13.69087,13.69087,0,0,0,136.08,19.08Z" fill="#ba9653"/><path d="M106.68,37.44c-.48-.84-1.08-.96-1.32-.24-.24.6-.72,2.88-2.16,3.48-.48.12-.84.24-1.2.36.6.48,1.08.96,1.8,1.44a41.25053,41.25053,0,0,1,3.24-3.24A4.81521,4.81521,0,0,0,106.68,37.44Z" fill="#ba9653"/><path d="M120.6,26.40005c-.6-.12-.96.6-1.32,1.08A2.12125,2.12125,0,0,1,117,28.8c-1.2-.12-1.44-.48-1.8-1.56a1.73383,1.73383,0,0,0-1.92-1.32c-.84,0-1.44-1.08-.48-2.16.84-1.08,1.8-.6,2.64-.6.72,0,1.08-.84.48-1.2a4.23415,4.23415,0,0,1-1.44-2.04,81.54139,81.54139,0,0,0-9.84,7.44,15.63213,15.63213,0,0,1,1.56.36,1.48792,1.48792,0,0,1,1.08,1.56c0,.84.12,1.08.72.48.48-.48-.12-2.28,1.68-2.88,1.68-.72,1.92.6,1.8,1.44,0,.96,0,1.68.96,2.16.84.36,1.8,1.8-.12,2.52a24.165,24.165,0,0,1-3.84,1.32c-.84.24-.6,1.08.12,1.56.36.24.6.6.84.72a84.06309,84.06309,0,0,1,7.44-5.87994,40.38613,40.38613,0,0,1,4.2-2.64C121.2,27.48,121.32,26.64,120.6,26.40005Z" fill="#ba9653"/><path d="M102.36,35.04c.12-.84-.72-1.2-1.08-1.44-.48,0-1.08-.72-1.32-1.31995a6.446,6.446,0,0,0-1.2,1.92c.24.6.36,1.2.6,1.68C100.44,35.88,102.24,35.88,102.36,35.04Z" fill="#ba9653"/><path d="M141.72,78.6a25.4361,25.4361,0,0,0-10.08,1.68005c.6.36,1.2,1.2,2.4.72,1.8-.6,2.4,1.32,1.56,1.8-.72.6-1.08,1.8.48.84s3,.48,2.4,1.44c-.72,1.08-1.56.24-1.32,1.68.12,1.44-.12,2.76-1.44,3s-1.56-1.68-2.16-1.56.12,3.48-.12,3.48a4.41389,4.41389,0,0,0-2.28,1.44.11752.11752,0,0,1,.12.12c5.04,3.6,6.36,1.56,7.2-.12a72.95484,72.95484,0,0,0,2.88-9.72A34.873,34.873,0,0,0,141.72,78.6Z" fill="#ba9653"/><path d="M130.56,88.68c.24-.6-.48-1.2-1.32-.84-.84.6-1.92,1.32007-2.76,0-.84-1.43994.96-1.56.96-2.16.12-.72-.48-.84-.24-1.8.36-1.08,1.56-.84,2.4-.24.96.6.6-.96.48-1.56a4.00048,4.00048,0,0,1,0-1.2,14.25367,14.25367,0,0,0-3,1.56c-4.8,2.88-4.92,5.4-3.84,6.36.96.84,3.12,1.2,6.6,3.48A12.63915,12.63915,0,0,1,130.56,88.68Z" fill="#ba9653"/><path d="M115.32,85.92a14.22743,14.22743,0,0,1-5.28-5.64s.12-.48-.36-.48a20.11071,20.11071,0,0,1-6.12-1.32c-3.48-1.2-3.96-.48-4.32.96a35.58206,35.58206,0,0,0-.96,8.76c0,4.44,1.92,7.2,3.12,6.84.6-.24,2.04-.96,3.72-1.8,0-.96.12-2.4.12-3.24.24-.96-.96-.6-1.44,0-.36.48-1.32,1.44-2.16,1.32s-1.44-1.68-1.2-3c.12-1.44-1.56-1.92-.48-3.84,1.08-1.8,1.92.48,2.76.36.96-.24005.48-.72,0-2.16s1.32-1.8,2.4-.84c.72.72,1.08-.84,2.04-.6,1.08.24,1.68.96,1.08,2.04-.48.72-.84,2.52,0,1.56.96-.96,1.8-1.56,2.64-.84.84.6.36,2.04.12,2.64-.24.72,1.44,1.56.24,2.4s-2.52-.6-3.24-.36c-.6.12-.72.96.12,1.56a6.34311,6.34311,0,0,0,1.68.96,24.97219,24.97219,0,0,0,5.04-2.4l1.2.12C116.04,87.24,115.8,86.28006,115.32,85.92Z" fill="#ba9653"/><path d="M108.48,106.44c-.84-1.68-1.08-.36-3.12,2.76a75.94966,75.94966,0,0,1-6.96,8.28c2.28.36,7.2,1.56,4.2,4.08-3.12,2.64-1.8,2.4-.36,2.28,1.44-.24,3.84.6,2.04,3.84-1.8,3.12-3,5.4-4.68,6.36-1.68,1.08-4.2.96-4.68-1.44s-2.16,0-2.28,1.56006a38.48436,38.48436,0,0,0,0,5.28l-3.6-.24a45.293,45.293,0,0,1,.24-5.76c.24-1.44.12-3.12-2.04-2.4a3.67527,3.67527,0,0,1-2.76-.24c-4.2,3.6-6.36,6.24-7.68,8.52a4.36333,4.36333,0,0,0,4.56.96c2.04-.84,5.4.12,3.36,3.36-2.04,3.12-1.92,4.68.12,2.76s5.28-5.4,6.36-1.8c.6,2.28-1.56,3-1.44,4.92s1.92,3.72-.72,6-3.72-1.56-5.4-1.08a1.8841,1.8841,0,0,0-1.2,2.16c2.28,3.36,5.64,8.04,6.84,9.96,1.92,3.12,1.92,6.84,2.64,6.24s2.52-2.28,3.12-2.75995a1.87762,1.87762,0,0,0,.84-2.04,34.09928,34.09928,0,0,1-1.08-10.32c.36-4.32,2.4-9.12,3.84-11.88,1.44-2.64,5.76-11.16,6.84-13.32,1.08-2.28,3-4.92,3.36-6.96.48-2.04,2.28-6.84,3-9.12A47.07961,47.07961,0,0,0,108.48,106.44Z" fill="#ba9653"/><path d="M149.04,147.84c-2.4-3.96-2.88-5.64-3.24-9.72a49.44672,49.44672,0,0,1,.48-9.12c-.84-.12-1.68,0-1.8,1.2a16.96134,16.96134,0,0,1-1.44,5.64c-.6,1.2-2.4,1.2-3.6,1.2-1.08.12006-1.08-.6-.36-2.28s1.08-2.4.84-3.96c-.24-1.44-.84-.12-1.56,1.2-.72,1.2-2.52,3.84-4.68,3.6-2.16-.36-1.56-3.6-1.44-4.68.24-1.08-.36-1.32-1.2-1.44-.84-.24-2.64-.6-1.56-3.36.84-2.64,1.92-2.4,3.12-1.92,1.32.48,1.56-.36.36-.84s-2.52-1.56-2.4-2.76c.24-3.48,2.4-3.12,4.08-2.76a5.60084,5.60084,0,0,0,4.56-1.92v-.24c-2.52-9.48,2.28-21.12,3.48-24.36a153.42935,153.42935,0,0,1,8.16-15.24c-.96-.48-3.36-1.68-4.8-2.4-1.32-.6-2.04-1.08-2.4-.48-.36.48-.84.84-1.56,1.68-1.2,1.92-.12,1.56.12,1.56.48,0,2.04,2.04,2.28,2.64.36.36,0,.72-.6,2.28-.84,1.92-1.44,6.48-2.28,9.12-2.16,8.16-5.76,7.32-7.32,6.36-1.56-1.08-2.04.48-3.6,2.75995-.48.48-1.44,1.56006-2.64,2.76,1.56.72,3.6,2.64,1.2,4.56-3,2.28-3.48,3.48-2.04,3.12,1.44-.24,2.76-2.4,4.32-.84,1.56,1.44-.48,3.12-1.44,3.6-.84.48-2.52,1.32-2.04,3.12s.84,4.2-1.56,4.68c-2.28.6-3.24-.36-3.84-1.56-.72-1.2-1.32-.36-1.56,1.08a16.14581,16.14581,0,0,0-.48,3.12c0,.6-1.68-.24-2.4-.96-.72-.84-1.68,1.2-2.52.24-.84-1.08.96-4.2,1.56-5.28s.36-2.64-3.36-.84c-1.2,2.04-2.16,4.92-3.6,9.48a102.46155,102.46155,0,0,1-8.64,17.76c-5.04,8.16-6,15.72-5.16,20.52C97.2,168.84,97.8,168.48,98.88,168.48c.96,0,3.48,3.12,5.16,5.16,1.68,1.92,2.4,1.08,3.24.36A89.35451,89.35451,0,0,1,123,164.88a87.63854,87.63854,0,0,1,11.88-4.68,28.24682,28.24682,0,0,1,.6-4.56c.12-.96-.72-1.2-1.68,0-.84,1.2-3.36,4.2-5.04,3.36-1.68-.72-3.12-2.52-2.16-4.2.84-1.56-.36-1.92-1.08-2.76s-.72-4.2,1.44-4.44c2.04-.24,2.64,1.56006,4.08,2.04,1.44.36,2.64.36.84-1.56-1.8-2.04-3.96-1.2-2.88-3.96,1.2-2.64,2.76-2.52,4.68-1.92,1.8.48,2.76-.48,3.96-1.32s3.6-1.92,5.28,0-1.2,3.72-1.92,4.32c-1.2,1.32-1.44,3.6,0,2.28s3.72-6.48,5.4-2.28c.84,2.4-.84,3.48-.6,4.92.36,1.56,2.88,3.48.84,5.4s-5.04.36-6.24-.84c-1.2-1.08-2.52-1.68-1.92.36a14.48779,14.48779,0,0,1,.6,4.08c4.08-1.08,7.68-1.8,9.48-1.68,2.64.24,4.68,1.08,4.56-1.44C152.76,153.48,151.44,151.8,149.04,147.84Z" fill="#ba9653"/><path d="M116.04,164.40005c-2.28.72-2.64-.36-4.2-.84-1.44-.48-1.56.72-.48,2.28s2.16,3.12.84,3.12c-1.2,0-2.16.12006-2.28,1.08s-2.16-.12-2.64-2.16c-.48-1.92-.84-5.64-1.92-3.84-1.08,1.92-1.92,5.04-4.56,3.6s-.84-3.24-2.16-4.56-2.64-3-1.2-5.4c1.2-2.28,2.4-.36,3.6-.36s1.44-1.08.36-1.92c-1.2-.84-2.52-4.92,2.64-4.56006a10.20064,10.20064,0,0,0,5.76-1.8c1.68-1.2,6-.6,4.2,2.52s-1.2,3.72-.12,2.64c1.08-1.2,2.4-3.12,4.32-2.64s1.08,2.04-.12,3.72-.48,2.75995.48,3.48C119.4,159.48,121.2,162.96,116.04,164.40005Z" fill="#008348"/><path d="M125.4,142.44a15.67373,15.67373,0,0,1-3.72-.36c-.12,1.8-1.8,4.32-3.6,6.96-.12.24005-1.2.24005-1.68-.11993-.36-.36-1.8-1.08008-.72-2.16s2.76-3.48,2.4-4.56c-.24-.96-1.08-1.92-2.16-.48s-2.88,4.32-4.92,4.32c-1.92.12006-3.84-1.56-3-3.36.96-1.8,1.2-2.75995,0-4.32-1.32-1.56-.84-3.6,1.92-4.92a3.78125,3.78125,0,0,1,3.36.84c1.08.84,1.56,0,.12-.84-1.32-.84-2.52-1.8-2.64-3.72-.12-1.79993.84-3.6,3.36-2.64a4.42631,4.42631,0,0,0,4.92-.6c1.08-.84,5.4-1.92,4.8,1.92-.48,2.76-1.8,2.88-2.16,4.31995-.48,1.56006.72.48,1.32-.48.72-1.2,2.28-5.76,5.28-2.28.72.84.48,2.28-.48,3.84-.84,1.56-.12,2.52.48,3.36C128.88,138.12,130.08,142.2,125.4,142.44Z" fill="#008348"/><polygon points="202.32 68.4 205.2 66.36 211.32 75.48 215.04 72.96 208.68 63.96 211.44 62.04 218.16 71.4 221.88 68.88 211.8 54.84 195.24 66.6 204.36 79.44 208.08 76.92 202.32 68.4" fill="#fff"/><polygon points="214.2 100.2 219.6 97.68 216 89.64 228.6 84.36 226.32 79.2 208.44 87 214.2 100.2" fill="#fff"/><polygon points="217.44 108.72 218.04 113.64 230.04 112.32 230.52 117.48 235.8 117.12 234.48 99.6 229.08 100.08 229.44 107.28 217.44 108.72" fill="#fff"/><polygon points="218.04 125.76 218.16 131.64 235.8 131.64 235.68 125.64 218.04 125.76" fill="#fff"/><path d="M226.44,140.04007a11.93182,11.93182,0,0,0-9,1.79993,9.48806,9.48806,0,0,0-3.84,6.36,16.38491,16.38491,0,0,0,.6,6.72l4.68-1.56006a6.54369,6.54369,0,0,1-.12-4.31995c.96-3.24005,3.48-4.68005,6.72-4.20007,3.36.6,5.16,3.6,4.56,7.20007a5.43342,5.43342,0,0,1-2.64,3.84l2.88,3.36a10.28,10.28,0,0,0,4.56-6.24c.6-3.36-.24-5.64-1.8-8.4A9.52816,9.52816,0,0,0,226.44,140.04007Z" fill="#fff"/><path d="M223.2,164.64c-2.52-.6-5.88,2.16-7.44,3.6-.96.96-4.2,4.2-5.76,3.72-1.32-.48-.84-2.52-.36-3.84a8.161,8.161,0,0,1,3.24-4.68l-3-1.2a11.12655,11.12655,0,0,0-3.6,5.04,13.91371,13.91371,0,0,0-.84,6.36c.36,2.16,1.2,3.6,3.6,3.36,1.8-.12,6.48-3.24,9.24-5.76,1.32-1.2,2.52-1.44,3.12-1.08.96.48.84,2.28.6,3.24005-.48,1.43994-1.2,3.6-2.28,4.43994l3.96,2.64a12.54028,12.54028,0,0,0,3-6.36C227.76,168.48,224.76,165,223.2,164.64Z" fill="#fff"/><path d="M201,47.64a13.4556,13.4556,0,0,0-3.36-7.2,9.65656,9.65656,0,0,0-8.16-2.16,11.06678,11.06678,0,0,0-7.44,4.56A11.8839,11.8839,0,0,0,180,51.6c.6,2.76,1.8,4.32,4.32,6.12A16.6604,16.6604,0,0,0,190.68,60l.48-4.92a6.24627,6.24627,0,0,1-4.08-1.68A5.84773,5.84773,0,0,1,186,45.6c2.04-2.75995,5.52-3.24,8.64-1.2,1.2.84,1.68,2.04,1.92,4.08Z" fill="#fff"/><path d="M20.76,149.28006c.12-1.44006.12-3.84,1.44-4.08,1.44-.36,2.4,1.08,2.64,2.4.48,2.04.96,3.6.24,5.4l3.72-.36a11.75289,11.75289,0,0,0,0-6.12,9.35641,9.35641,0,0,0-3-5.4c-1.56-1.44-2.76-1.8-5.16-1.32-1.44.24-4.08,2.88-4.2,8.04,0,.96-.24,2.88-1.08,3-1.08,0-1.92-1.31995-2.16-2.4a12.06965,12.06965,0,0,1,.6-5.88H9.96a18.46621,18.46621,0,0,0-.36,7.68c1.08,5.04,4.2,6.72,6.6,6.36C18.96,156.24,20.4,153.48,20.76,149.28006Z" fill="#fff"/><polygon points="12.84 127.8 26.88 127.68 26.76 123.36 12.84 123.48 12.84 117.6 8.28 117.6 8.52 134.28 12.96 134.16 12.84 127.8" fill="#fff"/><polygon points="38.04 84.24 27.24 78 27.36 78 41.52 77.76 44.88 72.48 27.48 62.4 24.72 66.48 36.72 74.04 20.4 74.4 18.12 78.84 35.4 88.8 38.04 84.24" fill="#fff"/><path d="M20.64,94.44a5.58031,5.58031,0,1,1,0,11.16,5.58031,5.58031,0,1,1,0-11.16Zm0,16.32a10.8,10.8,0,1,0-10.8-10.8A10.83168,10.83168,0,0,0,20.64,110.76Z" fill="#fff"/><path d="M27.6,176.40005a5.58034,5.58034,0,1,1,5.64-5.52A5.68886,5.68886,0,0,1,27.6,176.40005Zm10.8-5.52a10.8,10.8,0,1,0-10.8,10.8A10.91029,10.91029,0,0,0,38.4,170.88Z" fill="#fff"/><path d="M47.88,195.96005l-.48-.48c-1.2-1.43994-5.16-5.64-3.48-7.2,1.56-1.44006,5.28,3.48,6.36,4.8l.48.48Zm-6.72,6c-1.44-1.68-5.76-5.04-3.84-6.72,1.68-1.68,6,3.48,6.48,4.2Zm-.6-18.84a6.08471,6.08471,0,0,0-.96,7.32c-1.68-.84-5.04-1.2-6.6.24-3.96,3.36.84,8.16,4.68,12l5.4,5.4L57.36,196.2l-5.76-6.72C49.44,186.96005,43.8,180.24,40.56,183.12Z" fill="#fff"/></svg>