<?xml version="1.0" encoding="UTF-8" standalone="no"?>
<svg xmlns:rdf="http://www.w3.org/1999/02/22-rdf-syntax-ns#" xmlns="http://www.w3.org/2000/svg" height="208.67999" width="274.56" version="1.1" xmlns:cc="http://creativecommons.org/ns#" xmlns:dc="http://purl.org/dc/elements/1.1/" viewBox="0 0 274.56 208.67999"><path d="M3.96,90.48A12.06183,12.06183,0,0,0,0,99.84V168.6a12.31848,12.31848,0,0,0,3.96,9.48,12.08636,12.08636,0,0,0,9.72,3c6.24-.48,12.36-.96,18.48-1.44006V166.68c-6.12.36-12.24.72-18.48,1.08V100.68c6.24.36,12.36.72,18.48,1.08V88.68c-6.12-.48-12.24-.96-18.48-1.44A12.09589,12.09589,0,0,0,3.96,90.48Z"/><path d="M48.72,89.76c-4.56-.36-9.12-.6-13.68-.96v90.72C45,178.8,55.08,178.2,65.04,177.72V165.24c-5.4.24-10.92.36-16.32.6Z"/><path d="M67.68,177.6c4.68-.24,9.48-.48,14.04-.6V91.32c-4.56-.12-9.36-.36-14.04-.6Z"/><path d="M107.76,128.16H98.28V104.04c3.24,0,6.24,0,9.48.12Zm0-36.12c-7.8-.12-15.48-.36-23.28-.6v85.43994c4.68-.24,9.24-.36,13.8-.48V140.16h9.48a14.30539,14.30539,0,0,0,9.6-3.48,10.68037,10.68037,0,0,0,4.2-8.4v-24a10.68017,10.68017,0,0,0-4.2-8.4A14.04441,14.04441,0,0,0,107.76,92.04Z"/><path d="M210.36,103.08c3.12-.12,6.12-.24,9.36-.48v25.2c-3.12,0-6.24.12-9.36.12Zm18.96,33.72a11.65761,11.65761,0,0,0,3.96-9V102.12a11.16683,11.16683,0,0,0-3.96-8.76,12.66866,12.66866,0,0,0-9.72-3.24q-11.52.72-23.04,1.08v85.92c4.56.12,9.12.36,13.8.6V140.76c3.72,12.36,7.56,24.84,11.4,37.56,4.56.36,9.12.48,13.68.84-3.96-13.31995-8.04-26.4-12-39.24A11.73206,11.73206,0,0,0,229.32,136.8Z"/><path d="M147.36,128.16H138V104.28h9.36Zm0-35.88c-7.68.12-15.48.12-23.16,0v83.76c4.56-.12,9.24-.12,13.8-.12V140.04h9.36a14.30951,14.30951,0,0,0,9.72-3.36,11.40014,11.40014,0,0,0,4.08-8.64v-24a10.72323,10.72323,0,0,0-4.08-8.4A14.9308,14.9308,0,0,0,147.36,92.28Z"/><path d="M163.92,176.16c10.08.12,20.16.48,30.12.84V164.76c-5.4-.12006-10.92-.36-16.32-.36V140.16c3.24,0,8.76,0,11.76.12V128.04c-3.12,0-8.64,0-11.76.12V103.92c5.52-.12,10.92-.24,16.32-.36V91.32c-10.08.36-20.16.72-30.12.84Z"/><path d="M274.44,113.52V99.72a11.52773,11.52773,0,0,0-4.08-9.24,11.70734,11.70734,0,0,0-9.6-3.24c-3.84.24-7.68.6-11.52.84A14.8271,14.8271,0,0,0,239.52,92.64a12.79768,12.79768,0,0,0-3.96,9.36v25.68a11.90825,11.90825,0,0,0,3.96,9.12,13.59439,13.59439,0,0,0,9.72,3.84c3.84.12,7.68.12,11.52.24005V167.64c-3.84-.24-7.68-.36-11.52-.6v-13.2l-13.68-.36v12.84a12.79764,12.79764,0,0,0,3.96,9.36,14.16263,14.16263,0,0,0,9.72,4.44c3.84.36,7.68.6,11.52.96a12.471,12.471,0,0,0,9.6-3.12006,11.84948,11.84948,0,0,0,4.08-9.48V141a12.87307,12.87307,0,0,0-4.08-9.72,12.57953,12.57953,0,0,0-9.6-3.84c-3.84,0-7.68,0-11.52.12V101.28l11.52-.72V114C265.32,113.88,269.88,113.64,274.44,113.52Z"/><path d="M14.52,88.68c5.4.48,11.04.96,16.8,1.32v-.48c-5.88-.48-11.76-.84-17.64-1.31995a4.92253,4.92253,0,0,0-1.32-.12,10.96828,10.96828,0,0,0-7.8,3A11.49007,11.49007,0,0,0,.96,99.84V168.6a11.312,11.312,0,0,0,2.4,7.44,12.095,12.095,0,0,1-1.8-6.6V100.68A11.4292,11.4292,0,0,1,5.28,91.8a10.58539,10.58539,0,0,1,7.8-3.12Z" fill="#bec0c2"/><path d="M47.76,91.2v-.6c-3.96-.12-7.92-.48-11.88-.72v88.68l.6-.12V90.48C40.2,90.6,43.92,90.84,47.76,91.2Z" fill="#bec0c2"/><path d="M80.88,92.76v-.6c-3.96-.12-8.16-.36-12.12-.48v84.84h.6V92.28C73.08,92.4,76.92,92.64,80.88,92.76Z" fill="#bec0c2"/><path d="M108.48,93.6a14.1191,14.1191,0,0,1,7.44,2.04A15.18664,15.18664,0,0,0,107.64,92.88c-7.32-.12006-14.88-.36-22.2-.6V175.8h.6V93h.12C93.48,93.24,101.16,93.48,108.48,93.6Z" fill="#bec0c2"/><path d="M221.4,91.56a12.09491,12.09491,0,0,1,6.6,1.8,10.98708,10.98708,0,0,0-7.32-2.4h-.96c-7.2.36-14.76.72-22.2,1.08v84.24h.6V92.64c7.56-.24,15.12-.6,22.44-.96A2.04237,2.04237,0,0,1,221.4,91.56Z" fill="#bec0c2"/><path d="M138.12,93.84h10.2a13.816,13.816,0,0,1,7.44,2.04,12.91125,12.91125,0,0,0-8.28-2.64H125.16v81.84h.6V93.84Z" fill="#bec0c2"/><path d="M193.08,92.28c-9.36.36-18.72.6-28.2.72v82.32h.6V93.6c9.12-.12,18.48-.36,27.6-.72Z" fill="#bec0c2"/><path d="M261.6,88.68h1.2a11.19971,11.19971,0,0,1,6,1.56,11.07753,11.07753,0,0,0-6.84-2.16h-1.2c-3.84.36-7.68.6-11.52.96a13.542,13.542,0,0,0-9.12,4.2,11.95966,11.95966,0,0,0-3.84,8.64v25.8a11.129,11.129,0,0,0,2.4,6.96,10.896,10.896,0,0,1-1.8-6.24V102.72A11.57946,11.57946,0,0,1,240.72,93.96,13.67228,13.67228,0,0,1,249.96,89.64C253.92,89.4,257.76,89.04,261.6,88.68Z" fill="#bec0c2"/><path d="M.12,196.08a1105.40286,1105.40286,0,0,1,274.44,0v-4.8a1192.68722,1192.68722,0,0,0-274.44,0Z" fill="#006bb6"/><path d="M33.12,208.68a413.44684,413.44684,0,0,1,208.2,0v-4.44a421.72777,421.72777,0,0,0-208.2,0Z" fill="#ed174c"/><path d="M110.04,78.84A1084.53726,1084.53726,0,0,1,.12,70.68v4.8c38.76,4.56,77.76,7.08,116.88,7.8A77.08753,77.08753,0,0,1,110.04,78.84Z" fill="#006bb6"/><path d="M164.52,78.84A41.95689,41.95689,0,0,1,157.56,83.16c39-.72,78.12-3.24,116.88-7.68v-4.8A1084.53788,1084.53788,0,0,1,164.52,78.84Z" fill="#006bb6"/><path d="M100.92,69.72a426.22466,426.22466,0,0,1-67.8-11.64V62.52a420.734,420.734,0,0,0,71.64,11.76A45.45508,45.45508,0,0,1,100.92,69.72Z" fill="#ed174c"/><path d="M173.64,69.72a46.82822,46.82822,0,0,1-3.96,4.56,443.71685,443.71685,0,0,0,71.64-11.76V58.08A424.77661,424.77661,0,0,1,173.64,69.72Z" fill="#ed174c"/><path d="M94.92,42.36A42.3,42.3,0,1,1,137.28,84.6,42.43031,42.43031,0,0,1,94.92,42.36Z" fill="#fff"/><path d="M167.88,65.88a37.87778,37.87778,0,0,1-7.92-21.72h15.96A39.44863,39.44863,0,0,1,167.88,65.88Zm-28.8,15V69.84h-3.6V80.88A38.54452,38.54452,0,0,1,109.2,68.75995a41.67648,41.67648,0,0,0,9.24-24.48V40.56a41.38039,41.38039,0,0,0-9.24-24.48A38.16384,38.16384,0,0,1,135.48,3.84V14.88h3.6V3.84a37.80461,37.80461,0,0,1,26.28,12.12,41.67689,41.67689,0,0,0-9.24,24.48v3.72a41.38047,41.38047,0,0,0,9.24,24.48A37.93088,37.93088,0,0,1,139.08,80.88Zm-32.4-15a37.87773,37.87773,0,0,1-7.92-21.72h15.96A38.55545,38.55545,0,0,1,106.68,65.88Zm0-47.04a38.74289,38.74289,0,0,1,7.92,21.72H98.64A39.791,39.791,0,0,1,106.68,18.84Zm61.2,0a38.74285,38.74285,0,0,1,7.92,21.72H159.84A38.0142,38.0142,0,0,1,167.88,18.84ZM137.28,0a42.3,42.3,0,1,0,42.24,42.36A42.43031,42.43031,0,0,0,137.28,0Z"/><polygon points="127.8 24.6 127.8 59.88 146.76 59.88 146.76 55.08 132.96 55.08 132.96 24.6 127.8 24.6" fill="#ed174c"/><path d="M153.12,36.48V21.96c0-2.16-.96-3.12006-3-3.12006H124.44c-2.16,0-3,.96-3,3.12006V62.88c0,2.16.84,3,3,3h25.68c2.16,0,3-.84,3-3V48.24h-5.16v13.2H126.48V23.28h21.48v13.2Z" fill="#006bb6"/><path d="M141.72,39.84h-2.4V29.52h2.4Zm5.04,13.92V24.6H134.52l-.24,29.16h4.92l.12-9.12h2.4v9.12Z" fill="#ed174c"/></svg>