<?xml version="1.0" encoding="UTF-8" standalone="no"?>
<svg xmlns:rdf="http://www.w3.org/1999/02/22-rdf-syntax-ns#" xmlns="http://www.w3.org/2000/svg" height="276.2539" width="200.0049" version="1.1" xmlns:cc="http://creativecommons.org/ns#" xmlns:dc="http://purl.org/dc/elements/1.1/" viewBox="0 0 200.0049 276.2539"><path d="M25.68,78.3739c.6-6.84,25.08-15.84,64.92-17.28a23.68134,23.68134,0,0,0-9.24,15.48l-.36,2.88a30.29915,30.29915,0,0,1-1.2,5.52c-1.56,3.96-5.88,7.32-10.44,9.72-15.96-1.92-29.4-5.4-37.2-9.6C27.84,82.93389,25.44,80.41387,25.68,78.3739Zm152.4-2.04c1.56,1.68005,1.44,2.76,1.44,3.12006-.12,1.92-2.52,4.31995-6.6,6.36-8.52,4.44-23.16,7.8-40.44,9.6a24.18107,24.18107,0,0,1,2.52-1.32l.24-.12c5.04-2.04,10.68-4.32,10.92-12.6.12-1.32.12-5.28.84-6.72.96-1.92,3.36-4.68,5.4-5.52l-3.48-.6h-.48a8.43887,8.43887,0,0,0,2.52-3C165.12,68.53387,174.6,72.49389,178.08,76.33386Zm17.28-10.31995c-7.32-8.28-23.88-14.88-45-18.84,0-2.4,1.56-3.48,4.2-5.4a46.01814,46.01814,0,0,0,4.44-3.48c6.84-6.6-1.2-16.44-1.44-16.92l-4.44-5.4,1.08,6.96c.72,4.68-.96,6.36-6.24,9.96a20.90544,20.90544,0,0,0-1.68,1.44,33.0716,33.0716,0,0,0-.72-11.04c-.96-4.32-3.12-6.12-3.12-6.12l-.6,6.36c0,.12-.48,5.04-7.08,11.04a23.06845,23.06845,0,0,0,1.56-2.04c3.24-4.8,2.28-10.08,1.2-16.32l-.24-1.32c-1.08-6.36.6-10.43994,1.68-11.16,1.08-1.32,3.24-3.48,3.24-3.48s-1.08-.48-4.32-.12c-4.08.6-11.04,3.12-10.92,8.75995a24.84717,24.84717,0,0,0,1.68,6.84c.72,2.28,1.44,4.44.72,5.4-.48.84-1.92,1.56-4.32,2.04-9.84,1.8-17.28,6.24-21,12.72a21.38011,21.38011,0,0,0-2.64,6.96c-24.12.12-47.04,3.12-64.68,8.52-19.92,6.12-30.84,14.52-31.68,24.24-.48,5.16,1.92,12.48,14.64,19.56h-.12l3.6,1.8,1.92.84a111.27172,111.27172,0,0,0,20.52,6.72,43.08794,43.08794,0,0,0-7.56,5.4,53.43007,53.43007,0,1,0,86.28,52.08c4.32-12.84,3.84-26.64,3.6-31.92-.48-11.87994,5.4-18.48,9.12-21.36,16.8-2.16,31.8-5.88,42.84-10.8l1.8-.84,3.84-1.8-.12-.12c9-5.04,14.04-10.8,14.52-17.04C200.4,73.8139,198.84,69.73388,195.36,66.01391Z"/><polygon points="53.28 241.094 60.12 213.374 48.84 213.374 42 241.094 53.28 241.094"/><path d="M77.88,220.09387l.72,11.4H72.72l5.88,9.6H88.92l-1.56-27.72H70.44s-13.92,27.72-13.8,27.72h10.8Z"/><polygon points="51.84 266.774 49.44 276.254 60 276.254 66.84 248.414 56.28 248.414 53.76 259.214 45.84 259.214 48.36 248.414 37.8 248.414 30.96 276.254 41.52 276.254 43.8 266.774 51.84 266.774"/><polygon points="77.04 269.894 77.76 266.174 90.84 266.174 92.52 260.054 79.44 260.054 80.28 255.974 93.36 255.974 95.4 248.414 71.64 248.414 64.68 276.254 88.44 276.254 90.12 269.894 77.04 269.894"/><polygon points="144.96 241.094 151.8 213.374 140.52 213.374 133.68 241.094 144.96 241.094"/><path d="M163.56,234.85388c1.56,2.04,3.24,6.12-3.72,9.24-8.16,3.72,0,13.08-11.04,13.08h-4.56l-4.68,19.08H128.28l4.56-19.08h-7.68l2.4-8.76h19.68c11.52,0,3.36-8.04,9.36-9.12C160.68,238.57391,163.2,237.85388,163.56,234.85388Z"/><polygon points="22.56 227.654 20.76 213.374 6.84 213.374 0 241.094 10.32 241.094 14.04 226.574 14.16 226.574 16.2 241.094 22.2 241.094 30.6 226.574 30.72 226.574 27.36 241.094 37.08 241.094 43.92 213.374 30.6 213.374 22.56 227.654"/><polygon points="114.36 227.654 112.56 213.374 98.64 213.374 91.8 241.094 102.12 241.094 105.84 226.574 105.96 226.574 108 241.094 114 241.094 122.4 226.574 122.52 226.574 119.16 241.094 128.88 241.094 135.84 213.374 122.4 213.374 114.48 227.654 114.36 227.654"/><path d="M112.68,255.2539l.72,11.4h-5.88l5.88,9.6h10.32l-1.56-27.84H105.24s-13.92,27.84-13.8,27.84h10.8Z"/><path d="M20.64,154.93389a33.98231,33.98231,0,0,0,13.44,21.12,32.24105,32.24105,0,0,0,7.8,4.08c-1.68-2.88-3.72-5.88-5.76-8.88-3.84-5.64-7.8-11.52-10.32-17.76a36.815,36.815,0,0,1-2.16-20.03992,51.18216,51.18216,0,0,0-3.12,17.75995C20.52,152.53387,20.64,153.73388,20.64,154.93389Z" fill="#98002e"/><path d="M29.28,152.17388c2.4,5.88,6.24,11.52,9.96,16.92a143.5446,143.5446,0,0,1,7.8,12.6,69.29512,69.29512,0,0,0,7.2,1.08,59.36319,59.36319,0,0,1-6.6-12.6c-7.44-18.48-6.48-41.28,2.76-54.48a49.89188,49.89188,0,0,1,17.76-15.36c6.24-3.36,10.2-4.44,14.28-6.84,4.32-2.52,6.6-6.84,3.72-16.56a18.80125,18.80125,0,0,1-.72-6.84,18.46193,18.46193,0,0,0-2.16,6.72,52.99425,52.99425,0,0,1-1.8,8.88c-3.84,10.08-22.44,15.6-24.84,16.44a47.29783,47.29783,0,0,0-17.28,9.24A37.03651,37.03651,0,0,0,29.28,152.17388Z" fill="#98002e"/><path d="M107.04,61.09387q.18.90005.36,1.8c.48,3.6-.6,6.48-4.8,7.08-4.44.72-6-3.12-6.36-6.24,0-1.2.12-2.04.12-2.64H94.2a25.84366,25.84366,0,0,0-5.16,3.96c-.84,1.92-1.92,4.56-.24,10.68,2.88,10.92,1.56,17.52-7.08,21.24-11.16,4.8-18.36,7.68-27.84,19.68-4.56,5.64-7.08,15.24-7.44,24.72a69.2174,69.2174,0,0,0,4.8,27.36,63.64606,63.64606,0,0,0,7.8,14.16,57.8465,57.8465,0,0,0,9-1.2,23.56525,23.56525,0,0,1-5.64-13.92c-1.08-17.76,8.4-25.2,23.04-36.84l6.6-5.52c26.16-22.2,18.48-44.76,21.36-64.08A56.34737,56.34737,0,0,0,107.04,61.09387Z" fill="#98002e"/><path d="M117.48,61.45391a96.46686,96.46686,0,0,0-1.44,12c-1.08,16.8-.48,35.87994-21.84,54.72l-6.36,5.16c-14.28,11.4-22.44,18.6-21.84,34.08a18.47037,18.47037,0,0,0,5.88,13.08,58.28389,58.28389,0,0,0,11.76-4.91992c18.48-10.56006,30.12-26.28,34.56-46.44006,2.76-12.72,2.76-23.04,2.64-31.43994,0-4.2.6-12.36.6-12.36.6-5.16,1.32-12.6,7.44-22.08.24-.36.36-.6.6-.96C125.76,61.93389,121.68,61.6939,117.48,61.45391Z" fill="#98002e"/><path d="M123.72,115.45391c-.6,3.12-.72,6.48-1.08,9.84-.24,1.2-.48,2.52-.6,3.72a3.50326,3.50326,0,0,1-.24,1.08c-4.56,21.24-16.68,37.68-36.24,48.72a63.1359,63.1359,0,0,1-10.08,4.67993c5.76,3.72,12.36,4.92,16.92,4.20007,17.52-2.52,26.04-13.92,30.12-26.16,4.2-12.48,3.72-25.8,3.48-31.32-.6-18.48,13.56-25.32,13.56-25.32C128.64,104.29388,124.92,109.09387,123.72,115.45391Z" fill="#98002e"/><path d="M112.08,183.49389a35.42728,35.42728,0,0,1-18.24,7.8,29.13594,29.13594,0,0,1-22.2-6.12c-.24-.12-.24-.24-.48-.36a60.8204,60.8204,0,0,1-9.12,1.68c6.96,7.56,16.32,11.88,28.68,12.6h.12a51.09951,51.09951,0,0,0,21.48-15.72C112.2,183.3739,112.2,183.49389,112.08,183.49389Z" fill="#98002e"/><path d="M47.04,196.21392a25.38225,25.38225,0,0,0-2.76-11.52,50.16726,50.16726,0,0,1-12.48-5.52,37.4413,37.4413,0,0,1-6.12-5.52A51.11738,51.11738,0,0,0,47.04,196.21392Z" fill="#98002e"/><path d="M82.68,201.49389a45.90605,45.90605,0,0,1-18.12-7.92,44.81437,44.81437,0,0,1-7.32-6.96,39.12008,39.12008,0,0,1-8.4-.84,25.50318,25.50318,0,0,1,1.8,12.36A50.51492,50.51492,0,0,0,72,202.6939a52.86386,52.86386,0,0,0,10.68-1.08C82.8,201.49389,82.68,201.49389,82.68,201.49389Z" fill="#98002e"/><path d="M142.56,75.01391c-1.2,3.96-5.16,3.48-6.36,1.31995-1.8-3.36-1.08-6,.84-7.8,1.8-1.8,4.92-2.76,7.92-4.2h.12c-3.48-.6-7.2-1.08-11.04-1.56-.12.12-.12.12-.24.12a10.48854,10.48854,0,0,1-.96,1.2,43.61217,43.61217,0,0,0-7.68,21.6l-.12,1.68a68.75244,68.75244,0,0,0-.36,10.44v1.68c-.12,1.44-.12,2.88-.12,4.2h0c.12-.6.12-.72.12-.48,1.68-5.64,4.92-9,9.48-10.92,5.04-1.92,9.84-3.72,10.08-10.92.12-3,.36-6,.96-7.44a7.25729,7.25729,0,0,1,3.48-3.6C146.28,70.21386,143.64,71.17388,142.56,75.01391Z" fill="#98002e"/><path d="M148.44,46.6939c.36-4.8,4.92-5.64,9.36-9.72,5.64-5.4-1.8-14.28-1.8-14.28.96,6-1.8,8.28-6.84,11.88a6.62643,6.62643,0,0,0-3,4.68,48.84,48.84,0,0,1-.72,7.08A25.56553,25.56553,0,0,1,148.44,46.6939Z" fill="#f9a01b"/><path d="M148.44,46.6939c.36-4.8,4.92-5.64,9.36-9.72,5.64-5.4-1.8-14.28-1.8-14.28.96,6-1.8,8.28-6.84,11.88a6.62643,6.62643,0,0,0-3,4.68,48.84,48.84,0,0,1-.72,7.08A25.56553,25.56553,0,0,1,148.44,46.6939Z" fill="none" stroke="#f9a01b" stroke-width="0.12"/><path d="M132.96,38.41387a46.50976,46.50976,0,0,0-3.72,3.12c-.84.84-1.68,1.56-2.4,2.4,4.92.36,9.72.96,14.4,1.56,2.88-5.4,4.32-11.4,2.52-21.84C143.76,23.65386,143.4,30.73388,132.96,38.41387Z" fill="#f9a01b"/><path d="M132.96,38.41387a46.50976,46.50976,0,0,0-3.72,3.12c-.84.84-1.68,1.56-2.4,2.4,4.92.36,9.72.96,14.4,1.56,2.88-5.4,4.32-11.4,2.52-21.84C143.76,23.65386,143.4,30.73388,132.96,38.41387Z" fill="none" stroke="#f9a01b" stroke-width="0.12"/><path d="M105.36,42.85388c5.64.12,11.16.24,16.68.72a2.61707,2.61707,0,0,1,.48-.6c3.6-3.84,9.24-7.2,12.24-11.52s1.8-9.72.6-16.2c-1.92-11.16,2.88-13.2,2.88-13.2s-9.48,1.32-9.24,6.72c.24,7.32,7.8,14.16-3.6,16.32-12.48,2.28-20.28,9-21.96,17.88A10.98132,10.98132,0,0,1,105.36,42.85388Z" fill="#f9a01b"/><path d="M105.36,42.85388c5.64.12,11.16.24,16.68.72a2.61707,2.61707,0,0,1,.48-.6c3.6-3.84,9.24-7.2,12.24-11.52s1.8-9.72.6-16.2c-1.92-11.16,2.88-13.2,2.88-13.2s-9.48,1.32-9.24,6.72c.24,7.32,7.8,14.16-3.6,16.32-12.48,2.28-20.28,9-21.96,17.88A10.98132,10.98132,0,0,1,105.36,42.85388Z" fill="none" stroke="#f9a01b" stroke-width="0.12"/><path d="M105.36,45.73388c-52.32-.48-95.88,12.96-97.32,30.12-.6,6.84,5.52,13.2,16.44,18.48a116.35783,116.35783,0,0,0,25.32,8.16c2.04-.84,3.96-1.56,6.24-2.28a67.39937,67.39937,0,0,0,8.4-3.12c-14.64-2.04-26.4-5.4-33.72-9.36-5.4-2.88-8.28-6.12-7.92-9.6.96-11.52,37.56-20.4,81.6-20.04,44.16.48,79.08,10.2,78,21.6-.24,3.24-3.24,6.12-8.16,8.76-9.24,4.92-25.44,8.52-45.24,10.31995a23.97766,23.97766,0,0,0-1.8,3.12c9-3.36,19.44,1.68005,19.44,1.68005a9.49417,9.49417,0,0,1,1.2.6c13.08-2.4,24.36-5.76,32.76-9.72,9.96-4.68005,16.08-10.56006,16.56-16.68005C198.6,60.61389,157.56,46.33386,105.36,45.73388Z" fill="#fff"/></svg>