<?xml version="1.0" encoding="UTF-8" standalone="no"?>
<!-- Created with Inkscape (http://www.inkscape.org/) -->

<svg
   xmlns:dc="http://purl.org/dc/elements/1.1/"
   xmlns:cc="http://creativecommons.org/ns#"
   xmlns:rdf="http://www.w3.org/1999/02/22-rdf-syntax-ns#"
   xmlns:svg="http://www.w3.org/2000/svg"
   xmlns="http://www.w3.org/2000/svg"
   xmlns:sodipodi="http://sodipodi.sourceforge.net/DTD/sodipodi-0.dtd"
   xmlns:inkscape="http://www.inkscape.org/namespaces/inkscape"
   width="347.25055"
   height="158.87689"
   id="svg3201"
   version="1.1"
   inkscape:version="0.48.0 r9654"
   sodipodi:docname="Utah Jazz 'Script' logo 2010.svg">
  <defs
     id="defs3203">
    <clipPath
       clipPathUnits="userSpaceOnUse"
       id="clipPath3091">
      <path
         inkscape:connector-curvature="0"
         d="m 64.923,102.677 261.11,0 0,118.645 -261.11,0 0,-118.645 z"
         id="path3093" />
    </clipPath>
  </defs>
  <sodipodi:namedview
     id="base"
     pagecolor="#ffffff"
     bordercolor="#666666"
     borderopacity="1.0"
     inkscape:pageopacity="0.0"
     inkscape:pageshadow="2"
     inkscape:zoom="1.979899"
     inkscape:cx="166.1158"
     inkscape:cy="71.294621"
     inkscape:document-units="px"
     inkscape:current-layer="g3111"
     showgrid="false"
     fit-margin-left="1"
     fit-margin-bottom="1"
     fit-margin-top="1"
     fit-margin-right="1"
     inkscape:window-width="1366"
     inkscape:window-height="706"
     inkscape:window-x="-8"
     inkscape:window-y="-8"
     inkscape:window-maximized="1" />
  <metadata
     id="metadata3206">
    <rdf:RDF>
      <cc:Work
         rdf:about="">
        <dc:format>image/svg+xml</dc:format>
        <dc:type
           rdf:resource="http://purl.org/dc/dcmitype/StillImage" />
        <dc:title></dc:title>
      </cc:Work>
    </rdf:RDF>
  </metadata>
  <g
     inkscape:label="Layer 1"
     inkscape:groupmode="layer"
     id="layer1"
     transform="translate(-130.0923,-145.78091)">
    <g
       id="g3286"
       transform="matrix(1.0577955,0,0,1.0577955,-7.5765248,-8.4832246)">
      <g
         transform="matrix(1.25,0,0,-1.25,367.86165,278.93211)"
         id="g3083">
        <path
           id="path3085"
           style="fill:#ffffff;fill-opacity:1;fill-rule:nonzero;stroke:none"
           d="m 0,0 -15.53,0 0.065,0.149 24.242,55.449 15.85,0 L 0,0 z m -102.983,20.349 4.057,8.82 1.91,-8.82 -5.967,0 z M 39.11,0.01 l 0.05,0.125 27.655,63.229 1.323,3.01 -10.214,0 -0.011,-0.024 -44.431,0 0.01,0.024 -74.498,0 -0.617,-1.102 -3.608,-6.466 -1.782,-3.202 37.019,0 -22.489,-50.733 -18.154,59.97 -0.464,1.522 -10.039,0 0.006,-0.015 -15.96,0 -0.564,-1.287 -32.451,-74.031 -1.32,-3.013 15.055,0 0.537,1.361 7.142,18.07 14.653,0 5.285,-17.894 0.457,-1.537 30.841,0 -0.005,0.02 123.967,0 0.562,1.296 3.328,7.671 1.301,3.006 -32.584,0 z"
           inkscape:connector-curvature="0" />
      </g>
      <g
         id="g3087"
         transform="matrix(1.25,0,0,-1.25,49.938281,423.43336)">
        <g
           clip-path="url(#clipPath3091)"
           id="g3089">
          <g
             transform="translate(158.4662,221.3226)"
             id="g3095">
            <path
               id="path3097"
               style="fill:#ffffff;fill-opacity:1;fill-rule:nonzero;stroke:none"
               d="m 0,0 -0.566,-1.275 c -2.114,-4.755 -26.253,-58.382 -26.497,-58.923 -0.547,-1.178 -1.402,-2.137 -2.116,-2.802 -0.418,0.581 -0.853,1.151 -1.304,1.702 -0.407,0.506 -0.818,0.976 -1.237,1.434 -0.025,0.027 -0.049,0.061 -0.075,0.089 -0.217,0.232 -0.428,0.493 -0.646,0.718 l -0.607,0.586 -1.386,1.341 -0.041,-0.033 c -6.269,5.526 -14.522,8.886 -23.57,8.886 -19.605,0 -35.498,-15.748 -35.498,-35.185 0,-19.43 15.893,-35.183 35.498,-35.183 19.603,0 35.492,15.753 35.492,35.183 0,0.465 -0.015,0.92 -0.033,1.377 3.54,7.888 18.661,41.08 19.476,43.235 0.692,1.847 1.15,2.677 4.727,2.993 0.87,0.068 5.531,0.189 26.797,0.189 12.913,0 27.018,-0.05 29.866,-0.08 l 1.265,-0.011 -0.002,-0.007 10.181,0 0.557,1.305 L 83.687,-2.99 84.956,0 0,0 z"
               inkscape:connector-curvature="0" />
          </g>
          <g
             transform="translate(147.9427,133.8177)"
             id="g3099">
            <path
               id="path3101"
               style="fill:#0c2340;fill-opacity:1;fill-rule:nonzero;stroke:none"
               d="M 0,0 8.148,17.719 11.988,0 0,0 z m 23.734,45.759 -13.188,0 -32.347,-73.791 10.303,0 7.677,19.433 17.722,0 5.743,-19.433 26.343,0 -22.253,73.791 z"
               inkscape:connector-curvature="0" />
          </g>
          <g
             transform="translate(254.4957,179.8228)"
             id="g3103">
            <path
               id="path3105"
               style="fill:#0c2340;fill-opacity:1;fill-rule:nonzero;stroke:none"
               d="m 0,0 -59.901,0 -3.608,-6.468 36.662,0 -29.954,-67.569 51.283,0 3.363,7.667 -26.828,0 L 0,0 z"
               inkscape:connector-curvature="0" />
          </g>
          <g
             transform="translate(264.5417,179.8228)"
             id="g3107">
            <path
               id="path3109"
               style="fill:#00471b;fill-opacity:1;fill-rule:nonzero;stroke:none"
               d="m 0,0 -5.49,0 -28.263,-63.214 6.695,0 L 0,0 z"
               inkscape:connector-curvature="0" />
          </g>
          <g
             transform="translate(309.1231,179.8041)"
             id="g3111">
            <path
               id="path3113"
               style="fill:#0c2340;fill-opacity:1;fill-rule:nonzero;stroke:none"
               d="m 0,0 -40.732,0 -3.131,-6.458 17.01,0 -29.93,-67.561 67.092,0 3.322,7.674 -42.62,0 L 0,0 z"
               inkscape:connector-curvature="0" />
          </g>
          <g
             transform="translate(319.1824,179.8228)"
             id="g3115">
            <path
               id="path3117"
               style="fill:#00471b;fill-opacity:1;fill-rule:nonzero;stroke:none"
               d="m 0,0 -5.514,0 -27.645,-63.228 5.508,0 L 0,0 z"
               inkscape:connector-curvature="0" />
          </g>
          <g
             transform="translate(133.8427,137.891)"
             id="g3119">
            <path
               id="path3121"
               style="fill:#ffffff;fill-opacity:1;fill-rule:nonzero;stroke:none"
               d="m 0,0 c 0,-18.2 -14.885,-32.957 -33.246,-32.957 -18.358,0 -33.242,14.757 -33.242,32.957 0,18.211 14.884,32.97 33.242,32.97 C -14.885,32.97 0,18.211 0,0"
               inkscape:connector-curvature="0" />
          </g>
          <g
             transform="translate(88.5233,138.9942)"
             id="g3123">
            <path
               id="path3125"
               style="fill:#0c2340;fill-opacity:1;fill-rule:nonzero;stroke:none"
               d="m 0,0 c -0.583,8.691 -4.757,17.036 -11.218,22.414 -0.273,-0.241 -0.757,-0.771 -0.737,-0.741 C -17.284,16.226 -20.749,8.911 -21.153,0 L 0,0 z"
               inkscape:connector-curvature="0" />
          </g>
          <g
             transform="translate(74.84,117.0551)"
             id="g3127">
            <path
               id="path3129"
               style="fill:#0c2340;fill-opacity:1;fill-rule:nonzero;stroke:none"
               d="M 0,0 1.533,-1.779 2.944,-3.154 C 8.963,1.95 12.942,10.289 13.665,18.98 l -21.088,0 C -7.116,11.542 -3.945,4.581 0,0"
               inkscape:connector-curvature="0" />
          </g>
          <g
             transform="translate(79.3695,163.3407)"
             id="g3131">
            <path
               id="path3133"
               style="fill:#f9a01b;fill-opacity:1;fill-rule:nonzero;stroke:none"
               d="M 0,0 -0.194,-0.19 -0.353,-0.351 -0.442,-0.438 C 6.721,-6.523 10.82,-15.017 11.277,-24.314 l 8.146,0 0,31.789 C 11.294,6.984 4.913,4.171 0,0 m 0.212,-50.971 c 5.584,-4.619 13.091,-7.262 19.222,-7.401 l -0.011,31.211 -8.133,0 C 10.97,-36.358 7.069,-44.862 0.212,-50.971"
               inkscape:connector-curvature="0" />
          </g>
          <g
             transform="translate(123.3435,113.8023)"
             id="g3135">
            <path
               id="path3137"
               style="fill:#0c2340;fill-opacity:1;fill-rule:nonzero;stroke:none"
               d="m 0,0 1.268,1.295 c 0,0 0.539,0.535 1.248,1.336 4.622,5.269 7.562,12.287 7.96,19.589 l -21.052,0 C -9.853,13.499 -5.996,5.129 0,0"
               inkscape:connector-curvature="0" />
          </g>
          <g
             transform="translate(109.9627,136.1501)"
             id="g3139">
            <path
               id="path3141"
               style="fill:#00471b;fill-opacity:1;fill-rule:nonzero;stroke:none"
               d="m 0,0 -8.322,0 0.019,-31.201 c 6.519,0.285 13.356,2.168 19.645,7.157 C 4.451,-17.915 0.317,-9.199 0,0 m 11.885,26.839 0.134,0.147 -0.096,0.096 -0.281,0.236 c -4.957,4.183 -12.334,7.145 -19.945,7.375 l -0.019,-0.962 0,-30.887 8.339,0 c 0.461,9.313 4.729,17.949 11.868,23.995"
               inkscape:connector-curvature="0" />
          </g>
          <g
             transform="translate(181.6441,179.8142)"
             id="g3143">
            <path
               id="path3145"
               style="fill:#00471b;fill-opacity:1;fill-rule:nonzero;stroke:none"
               d="m 0,0 -5.548,0 20.632,-68.077 3.273,7.451 L 0,0 z"
               inkscape:connector-curvature="0" />
          </g>
          <g
             transform="translate(159.866,219.1727)"
             id="g3147">
            <path
               id="path3149"
               style="fill:#0c2340;fill-opacity:1;fill-rule:nonzero;stroke:none"
               d="m 0,0 c -2.143,-4.809 -26.501,-58.931 -26.501,-58.931 -1.35,-2.896 -3.998,-4.624 -4.139,-4.717 l -0.339,-0.232 -0.634,0.964 c -1.189,1.853 -2.313,3.11 -3.735,4.557 l -0.54,0.559 c -6.46,-5.372 -10.679,-13.687 -11.267,-22.378 l 21.11,0 c -0.008,0.572 -0.014,0.907 -0.014,0.907 l 0,0.226 c 0.214,0.437 18.588,40.592 19.537,43.101 1.004,2.675 2.225,3.995 6.551,4.377 3.872,0.313 51.628,0.177 56.872,0.116 L 70.289,0 0,0 z"
               inkscape:connector-curvature="0" />
          </g>
          <g
             transform="translate(240.1741,219.1727)"
             id="g3151">
            <path
               id="path3153"
               style="fill:#00471b;fill-opacity:1;fill-rule:nonzero;stroke:none"
               d="m 0,0 -5.522,0 -13.394,-31.469 5.509,0 L 0,0 z"
               inkscape:connector-curvature="0" />
          </g>
        </g>
      </g>
    </g>
  </g>
</svg>
