<?xml version="1.0" encoding="UTF-8" standalone="no"?>
<svg xmlns:rdf="http://www.w3.org/1999/02/22-rdf-syntax-ns#" xmlns="http://www.w3.org/2000/svg" height="85.264" width="74.737" version="1.1" xmlns:cc="http://creativecommons.org/ns#" xmlns:dc="http://purl.org/dc/elements/1.1/" viewBox="0 0 74.737 85.264">
<path d="M74.737,0,64.041,10.738,55.102,1.81l-8.981,8.929L37.197,1.81l-8.921,8.928L19.349,1.81,10.43,10.743,0,.214V47.76a37.36875,37.36875,0,1,0,74.737,0Z" fill="#fff"/><path d="M3.336,54.273A34.20043,34.20043,0,0,0,8.539,66.791c1.555-2.726,4.664-6.112,10.771-7.551-.469-1.567-.887-3.235-1.242-4.967Z" fill="#63727a"/><path d="M10.976,70.012a34.637,34.637,0,0,0,26.122,12.26c-.945-.483-1.869-1.014-2.759-1.586-4.246-2.745-10.085-8.088-13.855-17.992-5.934,1.294-8.446,4.657-9.508,7.318" fill="#63727a"/><path d="M24.14,62.175A31.84176,31.84176,0,0,0,36.165,77.541a27.05341,27.05341,0,0,0,9.088,3.815A34.69913,34.69913,0,0,0,60.27,73.609c-3.383-.371-6.853-2.318-10.515-4.372-5.719-3.209-12.84-7.204-22.454-7.204-1.039,0-2.099.05-3.161.142" fill="#63727a"/><path d="M38.597,36.776H26.233v14.72h5.136V39.688h3.859V51.496h4.895V38.837c0-1.121-.686-2.061-1.526-2.061" fill="#5a2d81"/><path d="M42.287,36.776V49.403c0,1.124.68,2.093,1.518,2.093H56.156V42.559l-4.931-.006V48.58H47.368V39.617h8.788V36.776Z" fill="#5a2d81"/><polygon points="12.564 36.776 9.771 42.72 8.157 42.72 8.157 36.776 3.044 36.776 3.044 51.496 8.157 51.496 8.157 45.573 9.771 45.573 12.564 51.496 17.672 51.496 14.069 44.146 17.672 36.776 12.564 36.776" fill="#5a2d81"/><rect x="19.032" y="36.776" width="5.29199" height="14.72" fill="#5a2d81"/><path d="M71.707,40.757V36.776H58.137v6.725c0,1.121.68,2.032,1.517,2.032h6.914v3.208H58.137v2.755H71.714V44.739c0-1.046-.578-2.028-1.355-2.028H63.23V39.629h3.566v1.128Z" fill="#5a2d81"/><polygon points="57.27 21.847 52.937 21.847 61.874 12.906 55.102 6.145 46.122 15.073 37.198 6.145 21.507 21.847 17.175 21.847 26.097 12.892 19.35 6.145 10.43 15.073 3.045 7.741 3.045 22.391 3.045 34.075 71.706 34.075 71.706 22.743 71.706 7.401 57.27 21.847" fill="#5a2d81"/><path d="M18.044,31.246a.69417.69417,0,0,0,.691.693h3.859V30.903H19.449V27.54h3.145V26.506h-4.55Z" fill="#fff"/><path d="M14.899,29.484H13.158V27.541h1.741Zm-3.145-2.978v5.433h1.404V30.518h1.741v1.421h1.404V27.198a.70852.70852,0,0,0-.771-.692Z" fill="#fff"/><path d="M67.745,30.895H66.01V27.54h1.735Zm.721-4.389H65.283a.68947.68947,0,0,0-.689.688v4.052a.69374.69374,0,0,0,.689.693h3.183a.69613.69613,0,0,0,.689-.695v-4.05a.68947.68947,0,0,0-.689-.688" fill="#fff"/><path d="M5.458,29.048a.69352.69352,0,0,0,.693.691H8.603v1.164H5.458v1.036h4.55V29.395a.68875.68875,0,0,0-.617-.687l-.039-.003H6.861V27.54h3.147V26.506H5.458Z" fill="#fff"/><path d="M33.657,29.484H31.916V27.541h1.741Zm.71-2.978H30.511v5.433h1.405V30.518h1.741v1.421h1.406V27.198a.69632.69632,0,0,0-.696-.692" fill="#fff"/><polygon points="58.474 27.539 60.05 27.539 60.05 31.939 61.451 31.939 61.451 27.539 63.025 27.539 63.025 26.506 58.474 26.506 58.474 27.539" fill="#fff"/><path d="M43.911,26.506H36.926v5.433h1.405V27.541h1.722v4.398h1.424V27.541h1.721v4.398h1.404V27.198a.69461.69461,0,0,0-.691-.692" fill="#fff"/><path d="M56.359,26.506H52.503v5.433h1.403V27.541h1.742v4.398h1.404V27.198a.69439.69439,0,0,0-.693-.692" fill="#fff"/><path d="M46.515,31.246a.69288.69288,0,0,0,.691.693h3.855V30.903H47.92V29.738h3.141V28.706H47.92V27.54h3.141V26.506H46.515Z" fill="#fff"/><path d="M27.354,28.929H25.613V27.54h1.741Zm.654,1.033h.751V27.197a.71169.71169,0,0,0-.771-.691H24.21v5.433h1.403V29.962h1.019l.84,1.977h1.369Z" fill="#fff"/><path d="M26.55,58.441c7.315-.149,14.55,1.683,23.781,6.943,6.823,3.888,9.821,5.067,11.866,4.564,1.886-.464,3.634-1.577,6.719-8.098a33.9381,33.9381,0,0,0,2.435-7.575l-49.628-.001c.345,1.503.684,2.999,1.139,4.374a33.16123,33.16123,0,0,1,3.688-.207" fill="#63727a"/></svg>