<?xml version="1.0" encoding="UTF-8" standalone="no"?>
<!-- Created with Inkscape (http://www.inkscape.org/) -->
<svg
   xmlns:dc="http://purl.org/dc/elements/1.1/"
   xmlns:cc="http://creativecommons.org/ns#"
   xmlns:rdf="http://www.w3.org/1999/02/22-rdf-syntax-ns#"
   xmlns:svg="http://www.w3.org/2000/svg"
   xmlns="http://www.w3.org/2000/svg"
   xmlns:sodipodi="http://sodipodi.sourceforge.net/DTD/sodipodi-0.dtd"
   xmlns:inkscape="http://www.inkscape.org/namespaces/inkscape"
   id="svg2443"
   sodipodi:version="0.32"
   inkscape:version="0.46"
   width="1024"
   height="832.12946"
   xml:space="preserve"
   sodipodi:docname="New-York-Knicks-Logo (200X).svg"
   version="1.0"
   inkscape:output_extension="org.inkscape.output.svg.inkscape"><metadata
     id="metadata2448"><rdf:RDF><cc:Work
         rdf:about=""><dc:format>image/svg+xml</dc:format><dc:type
           rdf:resource="http://purl.org/dc/dcmitype/StillImage" /></cc:Work></rdf:RDF></metadata><defs
     id="defs2446"><inkscape:perspective
       sodipodi:type="inkscape:persp3d"
       inkscape:vp_x="0 : 526.18109 : 1"
       inkscape:vp_y="0 : 1000 : 0"
       inkscape:vp_z="744.09448 : 526.18109 : 1"
       inkscape:persp3d-origin="372.04724 : 350.78739 : 1"
       id="perspective2450" /><clipPath
       clipPathUnits="userSpaceOnUse"
       id="clipPath2458"><path
         d="M 0,612 L 792,612 L 792,0 L 0,0 L 0,612 z"
         id="path2460" /></clipPath><clipPath
       clipPathUnits="userSpaceOnUse"
       id="clipPath2804"><path
         d="M 31.197,480.67 L 520.514,480.67 L 520.514,105.824 L 31.197,105.824 L 31.197,480.67 z"
         id="path2806" /></clipPath><clipPath
       clipPathUnits="userSpaceOnUse"
       id="clipPath2812"><path
         d="M 31.211,480.7 L 520.554,480.7 L 520.554,105.853 L 31.211,105.853 L 31.211,480.7 z"
         id="path2814" /></clipPath><clipPath
       clipPathUnits="userSpaceOnUse"
       id="clipPath2830"><path
         d="M 219.089,145.268 L 220.111,152.424 L 210.342,154.015 L 210.91,156.399 L 199.551,158.785 L 200.233,161.172 L 173.539,170.147 L 171.949,166.169 L 147.191,176.433 L 133.604,189.628 L 135.6,191.727 L 120.948,207.97 L 124.355,210.696 L 118.448,218.873 L 120.039,220.009 L 110.838,237.504 L 112.996,238.639 L 107.26,257.561 L 108.653,258.168 L 105.044,292.823 L 108.679,327.694 L 106.749,328.149 L 113.313,346.001 L 110.788,347.002 L 120.039,364.724 L 118.108,365.859 L 123.9,374.947 L 122.424,376.083 L 129.807,384.83 L 128.558,386.306 L 135.828,393.234 L 134.464,394.939 L 147.527,408.456 L 171.608,420.27 L 173.426,415.499 L 201.37,424.018 L 201.028,426.063 L 229.766,434.014 L 254.457,437.059 L 254.415,448.894 L 348.467,427.767 L 355.828,425.443 L 355.936,424.421 L 380.954,414.817 L 382.885,419.474 L 402.65,410.955 L 422.867,393.121 L 421.732,391.645 L 424.665,387.153 L 424.073,386.131 L 426.73,382.898 L 433.432,374.947 L 431.388,373.471 L 436.726,365.178 L 435.476,364.27 L 443.996,347.572 L 442.064,346.664 L 447.466,327.782 L 446.229,327.406 L 449.448,292.823 L 446.283,257.871 L 447.573,257.226 L 441.497,238.867 L 442.948,238.025 L 434.794,220.58 L 436.158,219.555 L 431.388,211.832 L 433.091,210.243 L 425.74,201.025 L 426.224,200.058 L 421.546,195.165 L 423.319,192.314 L 413.641,181.451 L 382.771,165.259 L 380.954,169.917 L 355.812,160.698 L 355.168,159.24 L 344.461,156.518 L 344.804,154.131 L 334.479,152.017 L 334.61,145.268 L 219.089,145.268 z"
         id="path2832" /></clipPath><clipPath
       clipPathUnits="userSpaceOnUse"
       id="clipPath16416"><path
         d="M 153.435,465.365 L 171.381,426.517 L 137.645,406.07 L 120.606,388.805 L 104.931,366.654 L 94.935,344.505 L 87.551,318.493 L 84.485,292.707 L 87.324,264.651 L 97.475,229.802 L 114.519,201.688 L 130.829,184.686 L 172.75,158.951 L 149.799,110.625 L 42.684,110.509 L 42.684,465.478 L 153.435,465.365 z"
         id="path16418" /></clipPath><clipPath
       clipPathUnits="userSpaceOnUse"
       id="clipPath16934"><path
         d="M 436.272,465.592 L 403.217,415.271 L 430.025,393.577 L 447.062,409.592 L 464.215,386.988 L 475.461,367.905 L 483.866,347.117 L 489.432,325.649 L 492.499,303.839 L 492.044,281.347 L 489.432,259.312 L 483.639,237.616 L 475.006,216.943 L 463.987,197.974 L 447.404,175.598 L 430.25,191.727 L 404.921,171.052 L 433.886,127.89 L 514.194,127.89 L 514.194,465.252 L 436.272,465.592 z"
         id="path16936" /></clipPath><clipPath
       clipPathUnits="userSpaceOnUse"
       id="clipPath20710"><path
         d="M 0,612 L 792,612 L 792,0 L 0,0 L 0,612 z"
         id="path20712" /></clipPath><clipPath
       clipPathUnits="userSpaceOnUse"
       id="clipPath20902"><path
         d="M 0,612 L 792,612 L 792,0 L 0,0 L 0,612 z"
         id="path20904" /></clipPath></defs><sodipodi:namedview
     inkscape:window-height="984"
     inkscape:window-width="1400"
     inkscape:pageshadow="2"
     inkscape:pageopacity="0.0"
     guidetolerance="10.0"
     gridtolerance="10.0"
     objecttolerance="10.0"
     borderopacity="1.0"
     bordercolor="#666666"
     pagecolor="#ffffff"
     id="base"
     showgrid="false"
     inkscape:zoom="0.89746094"
     inkscape:cx="512"
     inkscape:cy="416.06477"
     inkscape:window-x="-4"
     inkscape:window-y="-4"
     inkscape:current-layer="g2452" /><g
     id="g2452"
     inkscape:groupmode="layer"
     inkscape:label="0708_ssubseatinga"
     transform="matrix(1.25,0,0,-1.25,-31.406254,1489.9494)"><path
       d="M 25.126596,1048.5234 L 832.38514,1048.5234 L 427.25115,526.25759 L 25.126596,1048.5234 z"
       style="fill:#287ac8;fill-opacity:1;fill-rule:nonzero;stroke:none"
       id="path20296" /><path
       d="M 427.25115,545.96648 L 807.56214,1036.2692 L 49.477515,1036.2988 L 427.25115,545.96648 z"
       style="fill:#cad0d3;fill-opacity:1;fill-rule:nonzero;stroke:none"
       id="path20298" /><path
       d="M 427.25115,545.96648 L 807.56215,1036.2693 L 49.477515,1036.2988 L 427.25115,545.96648 z"
       style="fill:none;stroke:#cad0d3;stroke-width:0.19400005;stroke-linecap:butt;stroke-linejoin:miter;stroke-miterlimit:4;stroke-dasharray:none;stroke-opacity:1"
       id="path20300" /><path
       d="M 608.38816,831.77481 L 607.03095,837.81336 L 603.55928,833.27952 C 603.55928,833.27952 499.31059,863.15756 420.06192,865.36055 C 338.38406,867.60288 251.40526,833.18118 251.40526,833.18118 L 248.87771,838.5608 L 247.62869,832.6501 C 202.31986,813.28543 189.13141,806.78465 189.13141,806.78465 L 180.13259,814.64264 C 180.13259,814.64264 177.89026,805.48647 176.67074,800.06751 C 163.2266,792.47506 155.11291,787.39048 145.59284,781.95184 L 63.305218,864.35741 L 168.69473,1095.8581 L 220.76007,1116.7471 L 226.01185,1104.0898 L 234.36158,1126.8377 L 268.63579,1111.161 L 275.7365,1095.9466 L 313.61025,1105.6142 L 319.17673,1078.6767 L 324.2023,1107.0796 L 365.54773,1113.0001 L 369.6685,1094.373 L 371.22239,1113.7377 L 415.17403,1115.8522 L 420.23895,1074.4872 L 420.66184,1094.0388 L 442.63274,1115.9211 C 442.63274,1115.9211 478.02812,1113.1772 487.4105,1112.2428 C 496.79288,1111.3086 532.08008,1107.0796 532.08008,1107.0796 L 536.67292,1083.3188 L 541.32478,1106.0272 L 580.53606,1096.8613 L 585.91567,1110.1383 L 605.65408,1125.2051 L 687.74501,1095.9663 L 718.01646,1029.6406 L 707.92598,1010.2759 L 734.69625,992.2783 L 792.36741,865.02617 L 709.12582,779.26696 C 677.0251,799.83147 640.48888,819.37316 608.38816,831.77481"
       style="fill:#287ac8;fill-opacity:1;fill-rule:nonzero;stroke:none"
       id="path20302" /><path
       d="M 608.38816,831.77481 L 607.03095,837.81336 L 603.55929,833.27953 C 603.55929,833.27953 499.31059,863.15757 420.06192,865.36056 C 338.38406,867.60289 251.40525,833.18118 251.40525,833.18118 L 248.87772,838.5608 L 247.6287,832.6501 C 202.31985,813.28544 189.13141,806.78465 189.13141,806.78465 L 180.13259,814.64263 C 180.13259,814.64263 177.89026,805.48647 176.67074,800.0675 C 163.22659,792.47506 155.11291,787.39048 145.59284,781.95184 L 63.305218,864.35741 L 168.69474,1095.8581 L 220.76008,1116.7472 L 226.01185,1104.0898 L 234.36157,1126.8377 L 268.63579,1111.161 L 275.7365,1095.9467 L 313.61025,1105.6141 L 319.17672,1078.6768 L 324.20231,1107.0796 L 365.54773,1113.0001 L 369.6685,1094.3731 L 371.2224,1113.7377 L 415.17404,1115.8522 L 420.23895,1074.4872 L 420.66184,1094.0387 L 442.63274,1115.9211 C 442.63274,1115.9211 478.02813,1113.1772 487.4105,1112.2428 C 496.79289,1111.3086 532.08009,1107.0796 532.08009,1107.0796 L 536.67292,1083.3188 L 541.32478,1106.0272 L 580.53606,1096.8613 L 585.91568,1110.1383 L 605.65408,1125.205 L 687.74501,1095.9663 L 718.01647,1029.6406 L 707.92598,1010.2759 L 734.69625,992.2783 L 792.36742,865.02617 L 709.12583,779.26696 C 677.0251,799.83147 640.48888,819.37317 608.38816,831.77481 z"
       style="fill:none;stroke:#287ac8;stroke-width:0.19400005;stroke-linecap:butt;stroke-linejoin:miter;stroke-miterlimit:4;stroke-dasharray:none;stroke-opacity:1"
       id="path20304" /><path
       d="M 683.26034,1091.1276 L 706.95234,1038.7967 L 666.37403,1051.7983 L 655.54594,1078.1162 L 628.85433,1087.6067 L 643.85238,1045.4943 L 730.11325,987.9116 L 785.29621,866.25552 L 766.88549,847.34325 C 766.88549,847.34325 753.31349,856.39124 719.24582,874.3102 C 689.40709,890.01633 655.5066,901.83773 655.5066,901.83773 L 633.43734,974.63471 L 675.25484,962.31174 L 686.98772,929.69964 L 721.08492,914.31805 L 700.07782,966.70789 L 618.03607,1024.6642 L 592.57382,1107.4631 L 606.62773,1118.3503 L 683.26034,1091.1276 z"
       style="fill:#f6842a;fill-opacity:1;fill-rule:nonzero;stroke:none"
       id="path20306" /><path
       d="M 683.26034,1091.1275 L 706.95234,1038.7967 L 666.37403,1051.7983 L 655.54594,1078.1161 L 628.85433,1087.6067 L 643.85238,1045.4942 L 730.11325,987.91166 L 785.29621,866.25552 L 766.88549,847.34326 C 766.88549,847.34326 753.3135,856.39124 719.24582,874.31021 C 689.40709,890.01634 655.5066,901.83774 655.5066,901.83774 L 633.43734,974.63472 L 675.25484,962.31175 L 686.98773,929.69963 L 721.08492,914.31806 L 700.07783,966.7079 L 618.03607,1024.6642 L 592.57382,1107.4631 L 606.62773,1118.3503 L 683.26034,1091.1275 z"
       style="fill:none;stroke:#f6842a;stroke-width:0.19400005;stroke-linecap:butt;stroke-linejoin:miter;stroke-miterlimit:4;stroke-dasharray:none;stroke-opacity:1"
       id="path20308" /><path
       d="M 264.00361,1106.8534 L 242.52444,1035.2562 L 205.77186,1000.333 L 223.51381,971.02535 L 202.56573,902.55567 C 202.56573,902.55567 185.9351,897.04819 180.28994,894.88454 C 174.64478,892.73072 155.46696,884.65639 155.46696,884.65639 L 183.96815,966.58003 L 177.10348,974.55604 L 148.37609,948.88729 L 116.05899,866.97345 L 87.547954,848.89715 L 70.602626,865.89163 L 173.26791,1091.108 L 210.52206,1105.9682 L 175.84462,1018.488 L 213.88556,1051.228 L 237.59722,1118.7043 L 264.00361,1106.8534 z"
       style="fill:#f6842a;fill-opacity:1;fill-rule:nonzero;stroke:none"
       id="path20310" /><path
       d="M 264.00361,1106.8534 L 242.52445,1035.2562 L 205.77186,1000.3329 L 223.51381,971.02536 L 202.56572,902.55567 C 202.56572,902.55567 185.93511,897.0482 180.28995,894.88455 C 174.64478,892.73073 155.46696,884.65638 155.46696,884.65638 L 183.96816,966.58004 L 177.10348,974.55605 L 148.37608,948.88728 L 116.05899,866.97346 L 87.547955,848.89715 L 70.602626,865.89163 L 173.2679,1091.1079 L 210.52206,1105.9682 L 175.84462,1018.4879 L 213.88555,1051.228 L 237.59722,1118.7044 L 264.00361,1106.8534 z"
       style="fill:none;stroke:#f6842a;stroke-width:0.19400005;stroke-linecap:butt;stroke-linejoin:miter;stroke-miterlimit:4;stroke-dasharray:none;stroke-opacity:1"
       id="path20312" /><path
       d="M 408.51588,1109.5088 L 402.73303,943.3798 L 362.25307,939.82946 L 377.03476,1107.8565 L 408.51588,1109.5088 z"
       style="fill:#f6842a;fill-opacity:1;fill-rule:nonzero;stroke:none"
       id="path20314" /><path
       d="M 408.51589,1109.5087 L 402.73304,943.37981 L 362.25308,939.82946 L 377.03476,1107.8565 L 408.51589,1109.5087 z"
       style="fill:none;stroke:#f6842a;stroke-width:0.19400005;stroke-linecap:butt;stroke-linejoin:miter;stroke-miterlimit:4;stroke-dasharray:none;stroke-opacity:1"
       id="path20316" /><path
       d="M 486.8696,1106.6076 L 490.50847,1078.0867 L 459.53874,1079.6013 L 465.4101,976.1296 L 501.94631,973.96595 L 505.86055,938.72797 C 485.62058,940.85227 464.28893,942.88807 444.66854,942.82906 L 426.55288,961.57414 L 426.59221,1090.9899 L 445.22913,1109.5776 L 486.8696,1106.6076 z"
       style="fill:#f6842a;fill-opacity:1;fill-rule:nonzero;stroke:none"
       id="path20318" /><path
       d="M 486.8696,1106.6076 L 490.50846,1078.0867 L 459.53874,1079.6013 L 465.4101,976.12961 L 501.94631,973.96595 L 505.86056,938.72796 C 485.62058,940.85227 464.28893,942.88807 444.66855,942.82907 L 426.55288,961.57414 L 426.59222,1090.9899 L 445.22912,1109.5776 L 486.8696,1106.6076 z"
       style="fill:none;stroke:#f6842a;stroke-width:0.19400005;stroke-linecap:butt;stroke-linejoin:miter;stroke-miterlimit:4;stroke-dasharray:none;stroke-opacity:1"
       id="path20320" /><path
       d="M 358.5552,1105.6339 L 338.20703,936.20042 L 299.25146,928.69649 L 307.99458,978.58829 L 294.81598,1042.8192 L 268.13422,921.41876 C 268.13422,921.41876 256.84389,918.85189 247.47133,916.41286 C 237.98078,913.92466 226.1692,909.78423 226.1692,909.78423 L 274.47765,1089.495 L 308.84038,1098.1103 L 319.70781,1045.9073 L 329.3164,1101.3656 L 358.5552,1105.6339 z"
       style="fill:#f6842a;fill-opacity:1;fill-rule:nonzero;stroke:none"
       id="path20322" /><path
       d="M 358.5552,1105.6338 L 338.20703,936.20043 L 299.25147,928.6965 L 307.99458,978.5883 L 294.81597,1042.8192 L 268.13422,921.41877 C 268.13422,921.41877 256.84388,918.85188 247.47134,916.41287 C 237.98078,913.92467 226.1692,909.78422 226.1692,909.78422 L 274.47765,1089.495 L 308.84038,1098.1103 L 319.70781,1045.9073 L 329.31639,1101.3656 L 358.5552,1105.6338 z"
       style="fill:none;stroke:#f6842a;stroke-width:0.19400005;stroke-linecap:butt;stroke-linejoin:miter;stroke-miterlimit:4;stroke-dasharray:none;stroke-opacity:1"
       id="path20324" /><path
       d="M 549.07459,1097.8841 L 581.21465,1090.744 L 593.79333,1043.8519 L 578.64778,1023.6512 L 605.26069,1001.8967 L 630.62459,910.85622 C 615.59705,915.98013 602.26108,919.51081 587.68593,923.19885 L 574.19262,984.83337 L 559.17491,997.20551 L 548.86805,983.30898 L 558.83069,930.07335 C 545.03249,933.10248 532.42431,934.89239 519.12767,936.7315 C 512.18432,992.26846 497.20596,1105.3781 497.20596,1105.3781 L 526.95616,1101.5918 L 541.71817,1023.9365 L 561.73196,1050.6673 L 549.07459,1097.8841 z"
       style="fill:#f6842a;fill-opacity:1;fill-rule:nonzero;stroke:none"
       id="path20326" /><path
       d="M 549.0746,1097.8842 L 581.21466,1090.744 L 593.79333,1043.8519 L 578.64778,1023.6512 L 605.26069,1001.8967 L 630.6246,910.85622 C 615.59705,915.98014 602.26108,919.51082 587.68594,923.19886 L 574.19262,984.83338 L 559.17491,997.20552 L 548.86805,983.30899 L 558.8307,930.07336 C 545.03249,933.10248 532.42431,934.8924 519.12767,936.73151 C 512.18433,992.26847 497.20595,1105.3782 497.20595,1105.3782 L 526.95616,1101.5918 L 541.71817,1023.9364 L 561.73196,1050.6673 L 549.0746,1097.8842 z"
       style="fill:none;stroke:#f6842a;stroke-width:0.19400005;stroke-linecap:butt;stroke-linejoin:miter;stroke-miterlimit:4;stroke-dasharray:none;stroke-opacity:1"
       id="path20328" /><path
       d="M 493.06551,1072.1269 L 482.67014,981.48955 L 471.47817,981.91245 L 465.75432,1073.307 L 493.06551,1072.1269 z"
       style="fill:#000000;fill-opacity:1;fill-rule:nonzero;stroke:none"
       id="path20330" /><path
       d="M 493.06551,1072.1269 L 482.67014,981.48955 L 471.47817,981.91244 L 465.75431,1073.307 L 493.06551,1072.1269 z"
       style="fill:none;stroke:#000000;stroke-width:0.24299996;stroke-linecap:butt;stroke-linejoin:miter;stroke-miterlimit:2;stroke-dasharray:none;stroke-opacity:1"
       id="path20332" /><path
       d="M 711.95824,1030.6732 L 702.7037,1013.4525 L 664.31857,1039.3672 L 666.95428,1045.2975 L 711.95824,1030.6732 z"
       style="fill:#000000;fill-opacity:1;fill-rule:nonzero;stroke:none"
       id="path20334" /><path
       d="M 711.95824,1030.6732 L 702.70371,1013.4526 L 664.31857,1039.3672 L 666.95428,1045.2976 L 711.95824,1030.6732 z"
       style="fill:none;stroke:#000000;stroke-width:0.24299996;stroke-linecap:butt;stroke-linejoin:miter;stroke-miterlimit:2;stroke-dasharray:none;stroke-opacity:1"
       id="path20336" /><path
       d="M 246.51737,1009.0564 L 234.64678,964.03282 L 213.51183,999.12336 L 240.95088,1025.5001 L 246.51737,1009.0564 z"
       style="fill:#000000;fill-opacity:1;fill-rule:nonzero;stroke:none"
       id="path20338" /><path
       d="M 246.51736,1009.0564 L 234.64678,964.03283 L 213.51184,999.12334 L 240.95088,1025.5001 L 246.51736,1009.0564 z"
       style="fill:none;stroke:#000000;stroke-width:0.24299996;stroke-linecap:butt;stroke-linejoin:miter;stroke-miterlimit:2;stroke-dasharray:none;stroke-opacity:1"
       id="path20340" /><path
       d="M 694.7277,962.85265 L 686.59433,948.76927 L 679.83784,967.07178 L 624.85158,983.80072 L 619.9342,971.63511 L 611.99752,1000.4313 L 618.11476,1016.875 L 694.7277,962.85265 z"
       style="fill:#000000;fill-opacity:1;fill-rule:nonzero;stroke:none"
       id="path20342" /><path
       d="M 694.7277,962.85266 L 686.59433,948.76927 L 679.83784,967.07178 L 624.85158,983.80072 L 619.9342,971.63511 L 611.99752,1000.4313 L 618.11476,1016.875 L 694.7277,962.85266 z"
       style="fill:none;stroke:#000000;stroke-width:0.24299996;stroke-linecap:butt;stroke-linejoin:miter;stroke-miterlimit:2;stroke-dasharray:none;stroke-opacity:1"
       id="path20344" /><path
       d="M 568.82283,981.00765 L 560.6698,953.1949 L 555.33934,981.49938 L 560.41409,988.47224 L 568.82283,981.00765 z"
       style="fill:#000000;fill-opacity:1;fill-rule:nonzero;stroke:none"
       id="path20346" /><path
       d="M 568.82284,981.00765 L 560.6698,953.19491 L 555.33934,981.49939 L 560.41409,988.47224 L 568.82284,981.00765 z"
       style="fill:none;stroke:#000000;stroke-width:0.24299996;stroke-linecap:butt;stroke-linejoin:miter;stroke-miterlimit:2;stroke-dasharray:none;stroke-opacity:1"
       id="path20348" /><path
       d="M 163.62983,926.44433 L 152.68371,944.2551 L 177.56571,966.54069 L 163.62983,926.44433 z"
       style="fill:#000000;fill-opacity:1;fill-rule:nonzero;stroke:none"
       id="path20350" /><path
       d="M 163.62983,926.44434 L 152.68371,944.2551 L 177.56571,966.5407 L 163.62983,926.44434 z"
       style="fill:none;stroke:#000000;stroke-width:0.24299996;stroke-linecap:butt;stroke-linejoin:miter;stroke-miterlimit:2;stroke-dasharray:none;stroke-opacity:1"
       id="path20352" /><path
       d="M 439.8495,918.97974 L 425.48089,919.47147 L 425.22518,954.39476 L 440.18389,938.86564 L 439.8495,918.97974 z"
       style="fill:#000000;fill-opacity:1;fill-rule:nonzero;stroke:none"
       id="path20354" /><path
       d="M 439.8495,918.97974 L 425.48088,919.47148 L 425.22519,954.39476 L 440.18389,938.86565 L 439.8495,918.97974 z"
       style="fill:none;stroke:#000000;stroke-width:0.24299996;stroke-linecap:butt;stroke-linejoin:miter;stroke-miterlimit:2;stroke-dasharray:none;stroke-opacity:1"
       id="path20356" /><path
       d="M 404.03123,916.81609 C 379.24757,914.06236 364.47573,906.24372 364.47573,906.24372 C 363.26606,914.25905 361.50563,925.80507 360.32546,933.41718 C 372.63861,934.86289 389.27905,936.7905 403.19528,937.48877 L 404.03123,916.81609 z"
       style="fill:#000000;fill-opacity:1;fill-rule:nonzero;stroke:none"
       id="path20358" /><path
       d="M 404.03123,916.81609 C 379.24757,914.06236 364.47574,906.24371 364.47574,906.24371 C 363.26606,914.25905 361.50563,925.80507 360.32546,933.41718 C 372.63861,934.8629 389.27905,936.79051 403.19527,937.48878 L 404.03123,916.81609 z"
       style="fill:none;stroke:#000000;stroke-width:0.24299996;stroke-linecap:butt;stroke-linejoin:miter;stroke-miterlimit:2;stroke-dasharray:none;stroke-opacity:1"
       id="path20360" /><path
       d="M 506.94238,932.52222 L 501.30705,901.76889 C 493.75393,905.12255 484.52892,908.78107 475.94316,910.85622 C 466.49192,913.51161 455.69333,916.81609 445.65201,918.00609 C 446.02574,922.37273 446.02574,930.75196 446.32079,936.59381 C 466.46242,936.89869 487.78422,934.72521 506.94238,932.52222"
       style="fill:#000000;fill-opacity:1;fill-rule:nonzero;stroke:none"
       id="path20362" /><path
       d="M 506.94239,932.52222 L 501.30706,901.76889 C 493.75393,905.12254 484.52892,908.78108 475.94316,910.85622 C 466.49192,913.5116 455.69334,916.81609 445.65202,918.0061 C 446.02574,922.37274 446.02574,930.75196 446.32078,936.59382 C 466.46242,936.8987 487.78423,934.72521 506.94239,932.52222 z"
       style="fill:none;stroke:#000000;stroke-width:0.24299996;stroke-linecap:butt;stroke-linejoin:miter;stroke-miterlimit:2;stroke-dasharray:none;stroke-opacity:1"
       id="path20364" /><path
       d="M 338.56108,929.90617 C 340.80341,919.01908 343.45881,906.46007 345.82899,895.16975 C 333.7027,887.78383 323.42536,878.39163 311.87933,869.79604 C 306.84391,886.3873 300.5595,905.62412 295.56342,921.83181 C 309.95171,924.73307 324.34982,927.54583 338.56108,929.90617"
       style="fill:#000000;fill-opacity:1;fill-rule:nonzero;stroke:none"
       id="path20366" /><path
       d="M 338.56108,929.90618 C 340.80342,919.01908 343.45881,906.46008 345.82899,895.16976 C 333.7027,887.78384 323.42536,878.39164 311.87932,869.79605 C 306.84392,886.3873 300.55949,905.62412 295.56342,921.83182 C 309.95171,924.73308 324.34982,927.54583 338.56108,929.90618 z"
       style="fill:none;stroke:#000000;stroke-width:0.24299996;stroke-linecap:butt;stroke-linejoin:miter;stroke-miterlimit:2;stroke-dasharray:none;stroke-opacity:1"
       id="path20368" /><path
       d="M 559.95185,923.53324 L 543.41958,870.52382 L 541.43296,872.04821 C 531.37198,881.81413 520.72092,889.80981 509.46992,896.31059 L 516.57064,931.05683 C 530.80156,929.03088 545.5144,926.45416 559.95185,923.53324"
       style="fill:#000000;fill-opacity:1;fill-rule:nonzero;stroke:none"
       id="path20370" /><path
       d="M 559.95186,923.53324 L 543.41958,870.52381 L 541.43297,872.0482 C 531.37198,881.81413 520.72092,889.8098 509.46992,896.31059 L 516.57064,931.05684 C 530.80157,929.03088 545.5144,926.45417 559.95186,923.53324 z"
       style="fill:none;stroke:#000000;stroke-width:0.24299996;stroke-linecap:butt;stroke-linejoin:miter;stroke-miterlimit:2;stroke-dasharray:none;stroke-opacity:1"
       id="path20372" /><path
       d="M 633.07346,903.54898 L 601.08091,840.26222 L 559.61748,850.73625 L 584.65683,917.5832 C 597.05849,915.20319 633.07346,903.54898 633.07346,903.54898"
       style="fill:#000000;fill-opacity:1;fill-rule:nonzero;stroke:none"
       id="path20374" /><path
       d="M 633.07346,903.54897 L 601.08091,840.26223 L 559.61748,850.73625 L 584.65683,917.5832 C 597.05849,915.20319 633.07346,903.54897 633.07346,903.54897 z"
       style="fill:none;stroke:#000000;stroke-width:0.24299996;stroke-linecap:butt;stroke-linejoin:miter;stroke-miterlimit:2;stroke-dasharray:none;stroke-opacity:1"
       id="path20376" /><path
       d="M 293.86201,853.28346 C 281.01778,849.83145 263.75774,844.06827 253.87378,840.4294 C 242.92766,861.43647 232.40446,880.96834 223.21876,902.87039 C 238.10862,907.47306 253.21485,911.78068 270.62241,916.09814 L 293.86201,853.28346 z"
       style="fill:#000000;fill-opacity:1;fill-rule:nonzero;stroke:none"
       id="path20378" /><path
       d="M 293.86201,853.28346 C 281.01778,849.83145 263.75774,844.06828 253.87378,840.42941 C 242.92767,861.43648 232.40445,880.96834 223.21877,902.87039 C 238.10863,907.47305 253.21485,911.78068 270.62241,916.09815 L 293.86201,853.28346 z"
       style="fill:none;stroke:#000000;stroke-width:0.24299996;stroke-linecap:butt;stroke-linejoin:miter;stroke-miterlimit:2;stroke-dasharray:none;stroke-opacity:1"
       id="path20380" /><path
       d="M 203.92293,896.91051 C 215.15425,876.18864 227.44773,855.63397 238.69871,835.22681 C 224.02522,829.02108 202.56573,819.75672 194.275,815.64578 L 150.27419,876.08046 C 167.0425,883.2205 184.17469,889.94748 203.92293,896.91051"
       style="fill:#000000;fill-opacity:1;fill-rule:nonzero;stroke:none"
       id="path20382" /><path
       d="M 203.92293,896.91051 C 215.15425,876.18865 227.44773,855.63397 238.69872,835.22681 C 224.02521,829.02108 202.56572,819.75672 194.27501,815.64579 L 150.27419,876.08047 C 167.04249,883.22051 184.17469,889.94749 203.92293,896.91051 z"
       style="fill:none;stroke:#000000;stroke-width:0.24299996;stroke-linecap:butt;stroke-linejoin:miter;stroke-miterlimit:2;stroke-dasharray:none;stroke-opacity:1"
       id="path20384" /><path
       d="M 168.91111,802.418 C 160.94493,797.8055 153.70653,793.60606 146.88119,789.52463 L 91.727736,844.64852 C 99.418532,849.6741 118.68488,861.65285 118.68488,861.65285 L 168.91111,802.418 z"
       style="fill:#000000;fill-opacity:1;fill-rule:nonzero;stroke:none"
       id="path20386" /><path
       d="M 168.9111,802.41801 C 160.94493,797.8055 153.70653,793.60606 146.8812,789.52463 L 91.727737,844.64852 C 99.418532,849.67409 118.68487,861.65285 118.68487,861.65285 L 168.9111,802.41801 z"
       style="fill:none;stroke:#000000;stroke-width:0.24299996;stroke-linecap:butt;stroke-linejoin:miter;stroke-miterlimit:2;stroke-dasharray:none;stroke-opacity:1"
       id="path20388" /><path
       d="M 708.06367,786.94791 C 691.34453,798.17922 647.70762,822.73666 617.60334,834.41052 L 652.24144,896.74332 C 690.99048,883.33852 738.84653,858.14183 762.44017,843.18315 C 762.44017,843.18315 716.36422,794.88458 708.06367,786.94791"
       style="fill:#000000;fill-opacity:1;fill-rule:nonzero;stroke:none"
       id="path20390" /><path
       d="M 708.06368,786.94792 C 691.34454,798.17923 647.70762,822.73665 617.60334,834.41053 L 652.24144,896.74332 C 690.99049,883.33853 738.84653,858.14184 762.44018,843.18315 C 762.44018,843.18315 716.36422,794.88458 708.06368,786.94792 z"
       style="fill:none;stroke:#000000;stroke-width:0.24299996;stroke-linecap:butt;stroke-linejoin:miter;stroke-miterlimit:2;stroke-dasharray:none;stroke-opacity:1"
       id="path20392" /><path
       d="M 428.7657,920.83851 C 519.37354,920.83851 592.8492,847.37276 592.8492,756.765 C 592.8492,666.13757 519.37354,592.68165 428.7657,592.68165 C 338.13819,592.68165 264.68221,666.13757 264.68221,756.765 C 264.68221,847.37276 338.13819,920.83851 428.7657,920.83851"
       style="fill:#287ac8;fill-opacity:1;fill-rule:nonzero;stroke:none"
       id="path20394" /><path
       d="M 428.7657,920.83852 C 519.37354,920.83852 592.8492,847.37277 592.8492,756.765 C 592.8492,666.13757 519.37354,592.68165 428.7657,592.68165 C 338.13818,592.68165 264.6822,666.13757 264.6822,756.765 C 264.6822,847.37277 338.13818,920.83852 428.7657,920.83852 z"
       style="fill:none;stroke:#287ac8;stroke-width:0.19400005;stroke-linecap:butt;stroke-linejoin:miter;stroke-miterlimit:4;stroke-dasharray:none;stroke-opacity:1"
       id="path20396" /><path
       d="M 439.14139,913.22639 C 426.16932,908.71223 413.65948,902.10326 401.28733,896.38927 C 392.83924,901.45418 388.01037,902.71303 382.30619,906.38139 C 400.07764,912.85267 419.22597,913.84598 439.14139,913.22639"
       style="fill:#f6842a;fill-opacity:1;fill-rule:nonzero;stroke:none"
       id="path20398" /><path
       d="M 439.1414,913.2264 C 426.16932,908.71224 413.65949,902.10327 401.28733,896.38926 C 392.83925,901.45418 388.01037,902.71302 382.3062,906.3814 C 400.07765,912.85267 419.22597,913.84599 439.1414,913.2264 z"
       style="fill:none;stroke:#f6842a;stroke-width:0.19400005;stroke-linecap:butt;stroke-linejoin:miter;stroke-miterlimit:4;stroke-dasharray:none;stroke-opacity:1"
       id="path20400" /><path
       d="M 560.30591,841.44239 C 520.45537,881.56826 460.6894,878.68668 409.9616,892.86842 C 409.9616,892.86842 439.82,907.09933 455.21143,911.01357 C 496.66504,903.98171 536.75161,879.15875 560.30591,841.44239"
       style="fill:#f6842a;fill-opacity:1;fill-rule:nonzero;stroke:none"
       id="path20402" /><path
       d="M 560.30591,841.4424 C 520.45537,881.56826 460.68941,878.68668 409.9616,892.86842 C 409.9616,892.86842 439.82,907.09934 455.21143,911.01358 C 496.66504,903.98171 536.75161,879.15874 560.30591,841.4424 z"
       style="fill:none;stroke:#f6842a;stroke-width:0.19400005;stroke-linecap:butt;stroke-linejoin:miter;stroke-miterlimit:4;stroke-dasharray:none;stroke-opacity:1"
       id="path20404" /><path
       d="M 336.30892,835.38417 C 298.01229,776.66073 292.83918,704.30632 323.32702,640.8917 C 283.93871,673.98572 260.45325,738.07893 278.12635,800.30354 C 292.62282,820.50416 311.24989,838.40345 336.30892,835.38417"
       style="fill:#f6842a;fill-opacity:1;fill-rule:nonzero;stroke:none"
       id="path20406" /><path
       d="M 336.30892,835.38417 C 298.01228,776.66074 292.83919,704.30632 323.32701,640.8917 C 283.93871,673.98572 260.45325,738.07893 278.12635,800.30354 C 292.62282,820.50416 311.2499,838.40345 336.30892,835.38417 z"
       style="fill:none;stroke:#f6842a;stroke-width:0.19400005;stroke-linecap:butt;stroke-linejoin:miter;stroke-miterlimit:4;stroke-dasharray:none;stroke-opacity:1"
       id="path20408" /><path
       d="M 377.27079,793.57655 C 397.91399,732.23707 402.48717,664.32797 455.9097,602.55576 C 414.24956,594.09786 372.99266,606.57818 340.07563,627.41807 C 299.32031,686.88894 303.16571,775.62808 343.93088,833.27952 C 363.76763,827.5557 374.59573,801.59189 377.27079,793.57655"
       style="fill:#f6842a;fill-opacity:1;fill-rule:nonzero;stroke:none"
       id="path20410" /><path
       d="M 377.27079,793.57656 C 397.91399,732.23707 402.48717,664.32797 455.9097,602.55576 C 414.24957,594.09786 372.99266,606.57818 340.07564,627.41807 C 299.3203,686.88894 303.16572,775.62808 343.93088,833.27953 C 363.76763,827.5557 374.59572,801.59189 377.27079,793.57656 z"
       style="fill:none;stroke:#f6842a;stroke-width:0.19400005;stroke-linecap:butt;stroke-linejoin:miter;stroke-miterlimit:4;stroke-dasharray:none;stroke-opacity:1"
       id="path20412" /><path
       d="M 404.55246,1131.0273 L 397.62879,1124.1429 L 385.76804,1123.4348 L 381.35222,1127.2704 L 375.7759,1122.53 L 362.89234,1121.3203 L 357.20783,1126.7197 L 364.63309,1177.2409 L 374.42854,1178.5784 L 369.14725,1133.9776 L 376.14962,1134.7645 L 381.59809,1179.4439 L 391.25585,1180.388 L 387.22359,1136.0135 L 394.09809,1136.6528 L 397.57961,1180.8207 C 401.71022,1181.2535 403.8247,1181.2338 407.43406,1181.4403 L 404.55246,1131.0273 z"
       style="fill:#287ac8;fill-opacity:1;fill-rule:nonzero;stroke:none"
       id="path20422" /><path
       d="M 436.2303,1182.1091 L 436.29914,1150.3132 L 442.5344,1150.3526 L 442.17051,1181.9616 C 442.17051,1181.9616 448.71065,1181.7452 451.65125,1181.5091 L 452.9101,1145.8483 L 446.90104,1139.8588 L 444.92425,1139.7605 L 445.21929,1124.5068 L 434.6174,1124.8215 L 434.4797,1140.0654 L 432.37507,1140.2621 L 425.95296,1146.7924 L 426.34635,1182.2565 C 429.78853,1182.2565 436.2303,1182.1091 436.2303,1182.1091"
       style="fill:#287ac8;fill-opacity:1;fill-rule:nonzero;stroke:none"
       id="path20424" /><path
       d="M 357.53238,1176.2082 L 355.88014,1165.7735 L 344.08823,1163.5411 L 341.93441,1151.346 C 346.26172,1152.1327 348.91711,1152.5458 354.07054,1153.2243 C 353.34276,1148.6807 353.14606,1147.1072 352.33961,1142.829 L 340.47888,1141.1276 L 338.24638,1129.434 L 350.41199,1131.1944 C 350.41199,1131.1944 349.21216,1123.3365 348.59256,1119.8058 C 340.07563,1118.7634 331.51939,1117.5536 323.35652,1116.1178 C 323.35652,1116.1178 332.51269,1158.5056 334.77469,1171.5859 L 357.53238,1176.2082 z"
       style="fill:#287ac8;fill-opacity:1;fill-rule:nonzero;stroke:none"
       id="path20426" /><path
       d="M 313.02999,1114.259 L 300.70701,1111.8298 L 306.35217,1134.9317 L 302.54611,1143.2323 L 292.84902,1109.971 L 280.82109,1107.2369 C 285.83682,1125.2346 290.96075,1143.2323 295.96664,1161.2298 C 300.08742,1162.646 303.17554,1163.5705 306.84391,1164.6523 C 308.18144,1161.6233 311.41709,1155.5158 311.41709,1155.5158 L 314.34785,1166.7767 C 314.34785,1166.7767 321.95998,1168.7928 325.79554,1169.6582 L 313.02999,1114.259 z"
       style="fill:#287ac8;fill-opacity:1;fill-rule:nonzero;stroke:none"
       id="path20428" /><path
       d="M 486.21066,1172.3137 C 487.44,1157.8368 489.82003,1143.9797 491.28541,1130.4667 L 485.90578,1122.2744 L 468.49823,1123.4052 L 462.22364,1130.2602 C 461.10247,1145.0221 460.34519,1159.9316 459.43055,1174.7329 C 461.01396,1176.8475 463.47264,1178.4899 465.4101,1180.5748 L 479.88689,1179.1488 L 486.21066,1172.3137 M 470.00294,1169.8648 L 473.08123,1135.3742 L 479.17879,1134.8825 L 475.93331,1169.1961 L 470.00294,1169.8648 z"
       style="fill:#287ac8;fill-opacity:1;fill-rule:nonzero;stroke:none"
       id="path20430" /><path
       d="M 542.46561,1167.1406 C 544.6391,1158.8696 548.86805,1141.7668 548.86805,1141.7668 L 552.99866,1140.9112 L 554.99512,1143.6846 L 549.8417,1164.9178 C 549.8417,1164.9178 554.96562,1163.4918 560.42392,1161.8396 L 565.9019,1141.285 L 563.34486,1137.5673 L 568.11473,1132.3254 L 575.33345,1107.2664 L 563.43336,1109.9218 L 558.76185,1127.5064 L 551.37592,1129.1685 L 555.38852,1111.6823 L 543.33107,1114.0525 C 539.13162,1132.8762 531.49984,1169.973 531.49984,1169.973 C 531.49984,1169.973 537.6269,1168.7043 542.46561,1167.1406"
       style="fill:#287ac8;fill-opacity:1;fill-rule:nonzero;stroke:none"
       id="path20432" /><path
       d="M 523.64183,1165.1244 L 527.60526,1144.4616 L 525.32359,1141.2947 L 529.36569,1136.4561 L 532.86687,1115.9308 L 521.27166,1117.9569 L 518.10486,1135.0497 L 511.12217,1135.8266 L 513.60053,1119.1469 L 502.0545,1120.5926 L 494.34402,1177.2999 L 516.45262,1173.3955 L 523.64183,1165.1244 M 506.87354,1164.3967 L 508.95852,1150.0182 L 515.49865,1149.2707 L 512.75473,1163.3345 L 506.87354,1164.3967 z"
       style="fill:#287ac8;fill-opacity:1;fill-rule:nonzero;stroke:none"
       id="path20434" /><path
       d="M 348.65156,839.76064 C 354.84748,848.47425 361.84985,856.7453 369.6685,864.41641 C 456.33259,839.95734 538.93492,750.13636 553.08717,661.85945 C 548.9664,655.2013 539.04312,645.8976 532.42431,639.25913 C 510.88613,619.91414 487.14497,609.88266 464.38729,604.44404 C 423.91716,646.40901 410.58119,700.90348 396.31092,754.61118 C 385.34514,795.83855 377.74285,826.9361 348.68108,839.54428 L 348.65156,839.76064 z"
       style="fill:#f6842a;fill-opacity:1;fill-rule:nonzero;stroke:none"
       id="path20436" /><path
       d="M 348.65157,839.76064 C 354.84748,848.47426 361.84985,856.7453 369.6685,864.41642 C 456.3326,839.95734 538.93493,750.13636 553.08717,661.85945 C 548.9664,655.2013 539.04312,645.8976 532.42431,639.25913 C 510.88613,619.91414 487.14498,609.88266 464.38729,604.44405 C 423.91715,646.40901 410.58119,700.90348 396.31093,754.61118 C 385.34515,795.83855 377.74286,826.9361 348.68109,839.54428 L 348.65157,839.76064 z"
       style="fill:none;stroke:#f6842a;stroke-width:0.19400005;stroke-linecap:butt;stroke-linejoin:miter;stroke-miterlimit:4;stroke-dasharray:none;stroke-opacity:1"
       id="path20438" /><path
       d="M 551.07105,840.14419 C 509.23389,877.06393 450.94314,872.32358 402.02493,889.53443 C 392.59337,883.73191 383.34868,876.90658 375.45134,869.82554 C 462.10561,842.65206 540.70519,757.94517 559.42078,670.39602 C 573.00261,690.0164 581.21465,712.81339 584.51914,736.97744 C 586.63361,774.11354 586.26973,807.89598 551.07105,840.14419"
       style="fill:#f6842a;fill-opacity:1;fill-rule:nonzero;stroke:none"
       id="path20440" /><path
       d="M 551.07105,840.1442 C 509.23389,877.06394 450.94314,872.32358 402.02493,889.53443 C 392.59338,883.73192 383.34868,876.90658 375.45135,869.82555 C 462.10562,842.65206 540.70519,757.94517 559.42078,670.39602 C 573.00262,690.0164 581.21466,712.8134 584.51915,736.97744 C 586.63362,774.11353 586.26973,807.89598 551.07105,840.1442 z"
       style="fill:none;stroke:#f6842a;stroke-width:0.19400005;stroke-linecap:butt;stroke-linejoin:miter;stroke-miterlimit:4;stroke-dasharray:none;stroke-opacity:1"
       id="path20442" /><path
       d="M 362.54812,867.15049 C 354.17871,859.10564 347.9238,851.18864 341.40334,841.9833 L 341.20663,842.04231 C 318.26209,847.15639 300.18577,835.29566 285.64997,820.50416 C 292.59331,838.02972 307.10946,858.77126 322.51072,872.38258 C 336.70231,871.76299 347.00916,871.98919 362.54812,867.15049"
       style="fill:#f6842a;fill-opacity:1;fill-rule:nonzero;stroke:none"
       id="path20444" /><path
       d="M 362.54813,867.15049 C 354.17872,859.10564 347.92379,851.18865 341.40334,841.9833 L 341.20664,842.04232 C 318.2621,847.15639 300.18578,835.29565 285.64996,820.50416 C 292.59332,838.02973 307.10945,858.77126 322.51072,872.38259 C 336.70231,871.763 347.00916,871.9892 362.54813,867.15049"
       style="fill:none;stroke:#f6842a;stroke-width:0.19400005;stroke-linecap:butt;stroke-linejoin:miter;stroke-miterlimit:4;stroke-dasharray:none;stroke-opacity:1"
       id="path20446" /><path
       d="M 368.68502,872.5301 C 376.88723,879.80784 384.83373,886.19061 394.68818,892.1013 L 372.47141,903.10642 C 357.67007,897.06787 341.85574,889.20004 330.9883,879.24725 C 347.77628,877.29013 354.96549,876.25748 368.68502,872.5301"
       style="fill:#f6842a;fill-opacity:1;fill-rule:nonzero;stroke:none"
       id="path20448" /><path
       d="M 368.68502,872.5301 C 376.88723,879.80785 384.83373,886.19061 394.68819,892.10131 L 372.47141,903.10641 C 357.67007,897.06786 341.85573,889.20005 330.9883,879.24725 C 347.77628,877.29014 354.9655,876.25748 368.68502,872.5301 z"
       style="fill:none;stroke:#f6842a;stroke-width:0.19400005;stroke-linecap:butt;stroke-linejoin:miter;stroke-miterlimit:4;stroke-dasharray:none;stroke-opacity:1"
       id="path20450" /></g></svg>