<?xml version="1.0" encoding="UTF-8" standalone="no"?>
<svg xmlns:rdf="http://www.w3.org/1999/02/22-rdf-syntax-ns#" xmlns="http://www.w3.org/2000/svg" height="179.88" width="290.64075" version="1.1" xmlns:cc="http://creativecommons.org/ns#" xmlns:dc="http://purl.org/dc/elements/1.1/" viewBox="0 0 290.64075 179.88"><path d="M63.24,40.44006S87.96,0,138.6,0s74.28,39.36,74.28,39.36h68.64l-2.76,16.8s-1.92,6.72-5.04,7.44h4.68s1.56,6-7.8,26.4h20.04s.72,35.76-42.48,52.56006c0,0-22.32,7.08-33.72-5.04,0,0-22.8,42.36-75.84,42.36s-76.92-43.56-76.92-43.56H0l9.84-17.64H3.12l7.92-14.52H24.36l2.28-5.52H20.4L35.76,70.32H44.4l3.48-8.64H40.44l11.4-21.24Z" fill="#fff"/><path d="M139.32,170.4c43.32,0,78.48-35.64,78.48-79.68,0-43.92-35.16-79.56-78.48-79.56S60.84,46.8,60.84,90.72C60.84,134.76,96,170.4,139.32,170.4Z" fill="#fdb927"/><path d="M147.96,90.36H144.6a.51618.51618,0,0,0-.48.48c0,.24.24.36.48.36h3.48c1.2,0,2.28.12,1.92.6l-9,17.28a2.03145,2.03145,0,0,1-3.84-.12l-4.44-23.04,15.6-12.12c1.56-1.44,4.56-3.6,6.12-3.6h3.48c2.04,0,2.76.96,2.28,2.28l-.6,1.08c-.36.72-1.68.84-2.64.84h-2.04a.31819.31819,0,0,0-.36.36c0,.24.12.48.36.48h2.04c.84,0,1.8,0,1.44.6l-7.2,13.92C150.84,90.24005,149.28,90.36,147.96,90.36Zm27.12,8.52c-7.32,9-11.4,12-18.84,12-2.52,0-3.84-.6-3.24-1.8l8.88-17.75995h3.36c3.72,0,3.24,3.12,2.28,7.43994-.24.6.24.6.72.12l8.4-14.76c.36-.96-.72-1.08-1.2-.36-4.2,5.64-8.64,5.28-10.56,5.28h-1.44l9.36-18h3.84c4.8.24,6.96,4.32,5.64,14.16h1.92L191.16,71.52c.6-1.2-.6-2.28-1.92-2.28l-47.04.12c-2.76,0-2.88,2.04-.24,2.04,2.16,0,2.04,3,.12,4.44L122.04,91.8l4.08,18.72a2.44828,2.44828,0,0,0,2.76,2.04h38.88a3.16759,3.16759,0,0,0,2.88-1.32L177.6,99.12C178.56,97.32007,176.4,97.44006,175.08,98.88Z" fill="#552583"/><path d="M89.04,93.84H76.68l15.6-20.64Zm-2.88,12.84c-.36,2.04-2.52,3.48-5.16,4.2l-2.76.72,2.28-4.08c.6-1.2-.72-1.8-2.16-.12-9.6,11.16-12.72,16.56-27.6,16.56H46.8c-1.2,0-2.52-.48-1.68-1.56l5.28-9.84H70.32c2.64,0,2.04-2.04.36-2.04a4.48187,4.48187,0,0,1-3-1.92,2.74729,2.74729,0,0,1,.12-2.88l7.56-10.2H88.08Zm29.52,3.84a2.302,2.302,0,0,1-1.92-1.44,5.21574,5.21574,0,0,1,.12-3.6l18.12-32.16c.24-.6,1.08-1.92,1.92-1.92,1.56,0,2.28-2.04-.36-2.04H118.92c-2.64,0-2.64,2.04-.12,2.04a1.2116,1.2116,0,0,1,1.2,1.68l-3.96,7.32c-.6.72-1.68.84-2.88.84H109.8c-.24,0-.48.12-.48.36a.51618.51618,0,0,0,.48.48h3.36c.96,0,1.68.24005,1.2,1.32l-13.44,24.48c-.96,1.32007-2.88,1.56006-2.76-.96l4.68-35.76c.24-1.08,0-1.92-1.2-1.92h-7.2a2.06941,2.06941,0,0,0-1.8,1.08l-2.64,3.12c-.24.36-1.08.36-1.8.36h-6a.51618.51618,0,0,0-.48.48c0,.24.24.36.48.36h4.92c.84,0,1.8.24,1.44.72L81.72,84a2.41859,2.41859,0,0,1-1.32.36H78.48c-.24,0-.48.12-.48.36a.51623.51623,0,0,0,.48.48h1.56c.48,0,.48.24.36.48l-6.48,8.16a3.485,3.485,0,0,1-1.68.36H66.48c-.24,0-.36.24-.36.48a.31819.31819,0,0,0,.36.36H71.4c.84,0,1.32.12.96.72l-9.24,11.52c-1.68,2.28-10.08,3.36-11.76,3.36L82.68,52.2a3.09167,3.09167,0,0,1,2.64-1.68h6.6c3.12,0,3.12-2.16.36-2.16H58.92c-2.76,0-2.88,2.16.36,2.16H65.4c1.8,0,2.28.96,1.8,1.92L66.36,54c-.24.48-.72.72-2.4.72H53.04c-.24,0-.36.24-.36.48a.31821.31821,0,0,0,.36.36H63.96c.6,0,1.44.24.96,1.31995l-1.56,2.76c-.24.48-.96.6-1.68.6H56.64c-.24,0-.36.24-.36.48s.12.48.36.48h4.92c.72,0,.84.48.36,1.08l-3.48,6.48c-.36.6-.84.72-2.04.72H54.48c-.24,0-.48.12-.48.36a.51624.51624,0,0,0,.48.48H56.4c.72,0,.96.36.6,1.08l-2.88,5.4c-.48.72-1.08,1.08-3,1.08H40.2a.31821.31821,0,0,0-.36.36c0,.24.12.48.36.48H51.12c1.2,0,1.68.6,1.2,1.44L46.68,90.72c-.36.48-1.2.6-2.76.6H33c-.24,0-.48.12-.48.36a.51618.51618,0,0,0,.48.48H43.8c1.32,0,2.16,0,1.8.72L42.36,99c-.6.96-2.28.96-3,.96H35.88a.31821.31821,0,0,0-.36.36c0,.24.12.48.36.48h3.48c1.2,0,1.8.24,1.56.84L36.6,109.8c-.48.72-2.16.72-3.48.72H16.32a.51618.51618,0,0,0-.48.48c0,.24005.24.36.48.36h16.8c1.2,0,2.52.24,2.04,1.08L32.4,117.6c-.24.48-1.2.48-2.64.48H26.4a.51624.51624,0,0,0-.48.48c0,.24.24.36.48.36h3.36c.84,0,1.92.12,1.56.84L29.52,123a2.56,2.56,0,0,1-2.4,1.56006H18.6c-3.12,0-3,2.16-.24,2.16H68.04c1.44,0,1.56-.24,2.16-1.32l7.44-12.84h37.68C117.96,112.56006,117.36,110.52,115.68,110.52Z" fill="#552583"/><path d="M211.92,86.88c-1.32,1.2-3.48,2.4-3.96,2.04a18.25674,18.25674,0,0,0-3.36-2.28l8.16-14.88a1.65039,1.65039,0,0,1,1.56-.72c3.24,0,4.2,3.36,2.76,7.68C216,81.72,214.32,84.96,211.92,86.88Zm65.52,13.32007c-.24-.96-.6-.36-1.2.84-.24.48-.84.48-1.56.48h-1.92a.53567.53567,0,0,0-.48.36.43958.43958,0,0,0,.48.48h1.92c.72,0,.72.48.36,1.2a30.51,30.51,0,0,1-4.68,7.31995,2.07292,2.07292,0,0,1-1.56.6l-2.04.12c-.24,0-.48.12-.48.36a.5162.5162,0,0,0,.48.48h1.92c1.08,0,0,.6-.12.84a45.815,45.815,0,0,1-8.4,8.76,9.37792,9.37792,0,0,1-2.76.12h-2.04c-.24,0-.36.24-.36.48a.31819.31819,0,0,0,.36.36l2.04.12c1.44,0,.36.84.12.96-5.4,4.56-13.56,6-17.16,5.52-12-1.44-14.52-10.56-15.36-14.28a20.76983,20.76983,0,0,1-.96-3.24005c-.36-1.92,5.04-2.4,6.48-1.44,2.28,1.56006,7.56,3.12,11.76,3.12,3.84,0,11.64-2.76,13.92-9.36,2.4-6.84-3.48-14.28-6.12-16.92-3.24-3.24-6.36-8.52-5.04-12.36.96-2.87994,2.64-4.2,6.12-4.2,4.68,0,7.92,2.88,7.92,7.08,0,.36-.12.84-.48.84h-1.56a.51618.51618,0,0,0-.48.48c0,.24.24.36.48.36h1.44a.60655.60655,0,0,1,.6.84c-.24,1.44-.36,2.4-.72,3.84-.12.84,1.08,1.32,1.44.72l7.2-12.84c.6-.96-.6-1.2-1.44-.96-2.04.72-5.16,1.2-6.36.36a14.00651,14.00651,0,0,0-8.88-3.12c-6.36,0-10.92,1.56-13.8,6.84-.24.36-.84.36-1.32.36h-1.32c-.24,0-.36.24-.36.48s.12.48.36.48l1.08-.12c.48,0,.72.24.48.72-.12.48-.36.96-.48,1.44a13.76249,13.76249,0,0,0,.6,8.4c.12.12006-.12.24005-.6.24005h-1.92a.51618.51618,0,0,0-.48.48c0,.24.24.36.48.36h1.92c.96,0,1.08.12,1.44.6,1.08,1.44,2.16,2.52,3.36,4.2.48.48-1.32.6-2.28.6H229.8a.48.48,0,1,0,0,.96h7.8c1.32,0,3.48-.12,3.72.24,1.92,2.16,4.2,5.52,4.56,8.4.12.84-.24,1.2-1.2,1.2H243.6a.3182.3182,0,0,0-.36.36c0,.24.12.48.36.48h.96c.84,0,1.2.12,1.08.72-1.08,3.24005-2.52,5.64-8.76,5.52-6.6,0-7.92-6.36-6-13.08.36-1.32,0-1.92-.6-.84l-4.56,7.2a1.59281,1.59281,0,0,1-1.2.48h-.6a.48.48,0,1,0,0,.96c.48,0,.72.24.48.6l-1.68,2.52A84.256,84.256,0,0,0,213,92.52V92.4c6.12-.36,15-6,16.44-11.04,2.52-8.88-6-12.12-10.68-12.12h-20.4c-2.76,0-2.88,2.16-.36,2.16,1.44,0,2.64,1.2,2.04,2.4l-4.56,8.16c-.36.72-1.68.72-3.6.72h-1.92c-.24,0-.48.12-.48.36a.51618.51618,0,0,0,.48.48h1.92c1.32,0,2.76,0,2.28.96l-5.4,9.72c-.24.48-.96.48-2.76.48h-1.92a.51618.51618,0,0,0-.48.48c0,.24.24.36.48.36H186c1.44,0,1.92.24,1.56.96l-7.2,12.96c-.84.96-1.8,1.08-3.6,1.08-2.64,0-2.52,2.04.12,2.04H194.4c2.76,0,2.04-2.04.48-2.04-.96,0-1.92-1.8-1.32-2.76l8.88-17.04h.96c3.96,0,4.92,6.6,5.64,13.68.12.48-.84.6-2.88.6h-4.92c-.24,0-.48.12-.48.36a.51617.51617,0,0,0,.48.48h4.92c1.32,0,3.12,0,3.12.48a68.28194,68.28194,0,0,0,1.2,8.28c.24.84-1.2.72-2.64.72h-6.36a.51618.51618,0,0,0-.48.48c0,.24.24.36.48.36h6.36c1.92,0,3,0,3.12.48,2.64,9.96,14.4,17.88,25.68,17.4,9.84-.36,18-5.64,22.2-9.12,5.64-4.44,13.92-13.92,17.28-20.76C276.72,102.96,277.68,101.28,277.44,100.20007Z" fill="#552583"/><path d="M113.28,56.16a7.49031,7.49031,0,0,1-6.24,2.64h-.72l4.32-8.52a1.31984,1.31984,0,0,1,1.2-.72c.6,0,.48-1.08-.24-1.08h-6.72c-.6,0-.84,1.08-.24,1.08s.6.6.36,1.2l-3.84,7.56a1.91727,1.91727,0,0,1-1.2.6c-.6.24-.96,1.2-.24,1.2h10.8c.84,0,1.08-.24005,1.2-.6L114,56.16C114.24,55.8,113.64,55.68005,113.28,56.16Z" fill="#552583"/><path d="M145.92,48.72a1.26087,1.26087,0,0,1-1.44,0,6.40624,6.40624,0,0,0-3.48-1.2c-2.52,0-4.32.48-5.52,2.88-.84,2.04.12,3.84,2.28,4.8,1.08.48,2.28,1.08,1.8,2.28-.36.84-1.32.96-2.28.96-1.2-.12006-3-.96-3.24-2.64-.12-.6-.72-.48-.96-.12l-1.56,3c-.24.48.36.84.72.6a1.83458,1.83458,0,0,1,2.16-.36,8.25223,8.25223,0,0,0,3.96,1.44A5.98851,5.98851,0,0,0,144,57.48c1.32-2.04.48-4.08-1.8-5.16-1.32-.6-2.4-1.68-1.8-2.75995.36-.72,1.44-.6,2.04-.48a3.21737,3.21737,0,0,1,2.52,2.04.46568.46568,0,0,0,.84.11993l.72-1.92C146.76,48.96,146.16,48.6,145.92,48.72Z" fill="#552583"/><path d="M221.16,51.84l.96-1.8c.48-.72-.24-1.56-1.32-1.56H208.08c-.84,0-.6.96-.24.96.84,0,1.08.96.6,1.8L204.6,58.2c-.6.72-.96.96-1.68.96s-.96.96,0,.96h12.84c.48,0,.72-.12006.84-.48l1.8-2.28c.48-.48-.48-.48-.72-.24a8.31817,8.31817,0,0,1-6.36,2.16h-1.44l1.68-3.96h.36c1.2,0,2.52,0,2.76.84a.62164.62164,0,0,0,.96,0l1.44-3c.24-.48-.36-.48-.6-.24-.6,1.08-3.24.84-3.84.84h-.36l2.16-4.31995h2.4a3.435,3.435,0,0,1,3.24,2.28C220.2,51.96,221.04,52.2,221.16,51.84Z" fill="#552583"/><path d="M158.64,54l4.2-3.36V54Zm30.12-5.52h-4.44c-.96,0-.72.96-.24.96a1.43012,1.43012,0,0,1,1.2,2.16l-1.8,3.36-4.08-6a2.28131,2.28131,0,0,0-1.56-.6H173.4c-.84,0-.72.96-.24.96.84,0,.6.72.36,1.2l-3.48,6.84A.77513.77513,0,0,1,168.6,57.24L165.84,48.36c-.12-.36-1.68-.36-2.16,0L156.84,54h-3.48c-.72,0-1.08.36-1.08.72s.36.72,1.08.72h1.8L153.36,57c-1.08.72-2.16,1.8-2.76,1.8h-.48c-.72,0-1.08.12-1.08.6,0,.6.36.72.96.72h5.52c1.08,0,.84-1.31995.36-1.31995a1.038,1.038,0,0,1-.72-1.8l1.68-1.55994h3.36c1.92,0,3.36,2.28,2.16,3l-.96.48c-.36.24-.6,1.2,0,1.2h10.8c.84,0,.72-1.08.36-1.08-1.2,0-.6-1.56-.36-1.92l2.76-5.4,3.96,7.68c.36.48.6.72.96.72h1.56a.79943.79943,0,0,0,.84-.6l4.56-8.28c.72-1.43994,1.32-1.79993,2.28-1.79993C189.48,49.44006,189.72,48.48,188.76,48.48Z" fill="#552583"/><path d="M125.88,55.2c-1.2,2.4-3.24,3.84-4.44,3.24005-1.32-.6-1.44-3.12-.12-5.52,1.2-2.4,3.12-3.84,4.44-3.24C127.08,50.4,127.08,52.8,125.88,55.2Zm-1.08-7.32c-3.72,0-7.68,1.92-8.4,5.88a5.82152,5.82152,0,0,0,5.88,7.08c4.08,0,7.8-2.64,8.52-6.48S128.76,47.88,124.8,47.88Z" fill="#552583"/><path d="M201.6,53.76h-4.8c-.96,0-.72.96-.36.96a.75806.75806,0,0,1,.84.84c0,1.92-.84,2.64-2.64,2.64s-2.52-2.16-1.2-4.92a5.97718,5.97718,0,0,1,5.4-3.48c1.56,0,2.88.36,3,1.8.12.36.6.36.84,0l1.08-2.04c.12-.24005,0-.48-.36-.48-.36-.12-.96.36-1.44,0a9.37841,9.37841,0,0,0-4.68-1.44,9.24351,9.24351,0,0,0-8.76,4.92c-2.28,3.84.96,7.92,3.96,7.92,1.68,0,3.72-1.2,4.8-1.68l1.2.84a1.48145,1.48145,0,0,0,.96.48h.48c.48,0,.6-.6.72-.96l1.92-4.56C202.8,54.12006,202.68,53.76,201.6,53.76Z" fill="#552583"/><path d="M268.44,48.72a1.26085,1.26085,0,0,1-1.44,0,6.40629,6.40629,0,0,0-3.48-1.2c-2.52,0-4.32.48-5.52,2.88-.84,2.04.12,3.84,2.4,4.8.96.48,2.16,1.08,1.68,2.28-.36.84-1.32.96-2.28.96-1.2-.12006-3-.96-3.24-2.64-.12-.6-.72-.48-.96-.12l-1.56,3c-.24.48.36.84.72.6a1.83464,1.83464,0,0,1,2.16-.36,8.25211,8.25211,0,0,0,3.96,1.44c2.52,0,4.32-.72,5.64-2.88,1.32-2.04.6-4.08-1.8-5.16-1.32-.6-2.28-1.68-1.8-2.75995.36-.72,1.44-.6,2.04-.48a3.21732,3.21732,0,0,1,2.52,2.04.46569.46569,0,0,0,.84.11993l.72-1.92C269.28,48.96,268.68,48.6,268.44,48.72Z" fill="#552583"/><path d="M234.6,56.16c-1.68,2.04-3.84,2.64-6.36,2.64h-.6l4.32-8.52a1.10878,1.10878,0,0,1,1.2-.72c.48,0,.48-1.08-.24-1.08h-6.84c-.6,0-.72,1.08-.24,1.08.6,0,.72.6.48,1.2l-3.96,7.56a1.61556,1.61556,0,0,1-1.08.6c-.6.24-.96,1.2-.36,1.2h10.8c.84,0,1.08-.24005,1.32-.6l2.16-3.36C235.56,55.8,234.84,55.68005,234.6,56.16Z" fill="#552583"/><path d="M250.92,49.44006a3.69763,3.69763,0,0,1,3.24,2.28c.12.24.84.48,1.08.12l.96-1.8c.36-.72-.24-1.56-1.32-1.56H242.16c-.96,0-.6.96-.24.96.84,0,1.08.96.48,1.79993l-3.72,6.96a1.99077,1.99077,0,0,1-1.8.96c-.6,0-.84.96,0,.96h12.84c.6,0,.84-.12.96-.48l1.8-2.28c.36-.48-.48-.48-.84-.24005a7.94521,7.94521,0,0,1-6.24,2.16h-1.56l1.8-3.96H246c1.08,0,2.4,0,2.76.84a.502.502,0,0,0,.84,0l1.56-3c.24-.48-.48-.48-.6-.24-.6,1.08-3.24.84-3.96.84h-.36l2.28-4.31995Z" fill="#552583"/><path d="M153,19.2c-6-.36-10.92-.6-15.12-.12a17.2627,17.2627,0,0,1,5.64-7.32,77.32454,77.32454,0,0,1,11.52,1.44c10.68,2.04,27.24,8.64,34.44,18.12C179.88,24.96,164.16,20.04,153,19.2Zm-17.88.24005a93.85721,93.85721,0,0,0-12.48,2.28c-.6-1.56-2.16-6.36-2.76-7.92a59.86741,59.86741,0,0,1,20.28-2.04C138.48,13.08,135.72,18.00006,135.12,19.44006ZM105,28.32c-.72-1.2-4.2-4.44-6.12-5.04,4.44-3.36,14.64-8.04,18.6-8.88.6,1.2,2.4,6,3,7.92C117,23.04,107.88,26.4,105,28.32Zm96,10.92c-.96-1.2-2.28-3.6-11.88-12-14.28-12.36-33.12-18-50.76-18-12.96,0-24.36,2.88-37.08,9.84C85.2,27.96,78.6,38.16,76.92,40.2c-1.2,1.56-1.32,2.4-.6,2.88.6.36,1.68-.84,2.64-2.16,4.8-6.36,11.16-12.6,17.76-16.32,2.04.36,4.92,3.24,6,4.68A160.11636,160.11636,0,0,0,88.8,39c-2.28,1.8-3,2.76-2.4,3.48.48.6,2.28-.48,3.72-1.68a119.983,119.983,0,0,1,13.8-9.48c2.64,3,1.8,8.52.84,9.6-.48.72-.48,1.32,0,1.68.6.36,1.08-.48,1.8-1.56,1.8-2.52,1.08-8.52-.36-10.68,4.56-2.88,11.04-4.8,15-5.64.36.6,5.16,14.64,6.12,17.16.48,1.44.96,3.12,2.04,2.76.6-.12.24-1.68-.36-3.24-.72-1.92-4.32-13.68-5.52-17.16,1.32-.72,9.24-2.28,11.28-2.28-.96,5.16,2.64,7.32,6.72,9.96,2.16,1.44,16.08,9.36,18.96,11.16,1.68,1.08,3,1.68,3.36,1.2s-.72-1.68-2.28-2.52c-1.2-.72-14.16-8.28-19.56-11.64-3.84-2.52-5.88-5.04-5.04-8.52,1.32-.36,5.16-.36,9.24-.36,27.6.24,49.68,15.96,52.08,18.6,1.32,1.2,3,2.28,3.72,1.8C202.32,41.28,201.6,39.84,201,39.24005Z"/><path d="M207,133.44006c1.08-1.8,1.8-2.88.96-3.36-.72-.48-1.56,1.32-2.52,3-3.24,5.52-6.72,10.2-14.64,17.4a73.60823,73.60823,0,0,1-22.44,13.8c-3-8.4-14.4-44.16-14.76-45.24-.36-1.56006-.84-1.92-1.32-1.8-.6.24-.24,1.08.12,2.4.24,1.32,13.8,43.8,14.28,45.24-2.64,1.32-13.68,4.44-21.24,4.68005-6.84.24-14.88,0-18.96-.96C121.8,164.76,111,149.52,106.92,141.48c-4.8-9.6-8.04-18.36-8.88-22.08-.36-1.8-.84-3.12-1.8-2.88-.96.12-.36,1.56.24,3.48a121.64892,121.64892,0,0,0,8.76,21.84c5.4,10.44,14.88,22.8,17.64,26.16A76.32867,76.32867,0,0,1,93.6,154.68005c-8.64-6.48-16.08-14.64-19.8-20.64-.6-1.08-1.32-2.52-2.28-1.92-.48.36.12,1.44006.72,2.64,5.4,9.72,18.6,23.52,35.64,31.08,19.68,8.76,41.16,8.28,60.48.84C185.16,160.2,199.8,146.76,207,133.44006Z"/></svg>