<?xml version="1.0" encoding="UTF-8" standalone="no"?>
<svg xmlns:rdf="http://www.w3.org/1999/02/22-rdf-syntax-ns#" xmlns="http://www.w3.org/2000/svg" height="261.95996" width="197.9508" version="1.1" xmlns:cc="http://creativecommons.org/ns#" xmlns:dc="http://purl.org/dc/elements/1.1/" viewBox="0 0 197.9508 261.95996"><path d="M28.94695,228.35992c0,1.44006-.12,4.08008-3.12,5.04a12.37314,12.37314,0,0,1-3,.36h-2.4V218.04h3.6c1.92.12,3.96.12,4.56,1.92a17.516,17.516,0,0,1,.36,2.4v6Zm-8.4,9.6h2.52c3.24.12,6,.48,7.08,3.24a12.81472,12.81472,0,0,1,.36,3v6.48c0,3.12-.24,4.55994-1.44,5.52-.72.6-1.56.84-3.84.96h-4.68Zm12.12-1.08a7.0614,7.0614,0,0,0-2.4-1.31995,5.97106,5.97106,0,0,0,2.88-3.48,11.94734,11.94734,0,0,0,.36-3.24v-6.96c-.12-1.92-.24-4.08-1.68-5.64a7.57925,7.57925,0,0,0-5.88-2.28h-9.36a.80247.80247,0,0,0-.72.84v45.96c0,.48.24.84.72.84h9.6a9.59365,9.59365,0,0,0,6.48-2.16c2.16-2.04,2.52-4.44006,2.52-7.08008V244.44C35.18695,241.8,35.18695,238.92,32.66695,236.87994Z"/><path d="M52.34694,223.44v7.2c0,.96,0,3-2.28,3.72a5.77373,5.77373,0,0,1-2.52.48h-5.16v-16.8h5.28a6.40573,6.40573,0,0,1,3,.6C52.22694,219.48,52.22694,221.52,52.34694,223.44Zm-1.32,15.12c.36-.12.6-.24005.96-.36a7.57389,7.57389,0,0,0,4.8-5.28,11.61738,11.61738,0,0,0,.36-3.12v-7.56006c-.12-1.31995-.12-4.43994-2.76-6.6-2.16-1.68-4.56-1.68-6.96-1.8h-9a.672.672,0,0,0-.6.72v46.08a.672.672,0,0,0,.6.72h3.24a.69166.69166,0,0,0,.72-.72V238.92h3.84l8.16,21.96a.74626.74626,0,0,0,.72.48h3.36a.77427.77427,0,0,0,.72-.72c0-.24,0-.36-.12-.48Z"/><path d="M64.46694,224.04c0-2.64.72-4.44,2.4-5.52a5.34873,5.34873,0,0,1,3.12-.96,5.12011,5.12011,0,0,1,2.76.72,4.9208,4.9208,0,0,1,1.8,1.8c.84,1.67993,1.08,3.84,1.08,7.43994v22.44c-.12,2.4-.24,5.04-2.4,6.6a4.69988,4.69988,0,0,1-3.12,1.08,5.15016,5.15016,0,0,1-5.04-3.12,16.12644,16.12644,0,0,1-.48-5.04Zm12-8.88a10.75656,10.75656,0,0,0-6.36-1.8h-.24c-4.44,0-8.04,2.28-9.24,6a21.2689,21.2689,0,0,0-.84,4.8V250.8c.12,2.52.24,5.4,2.28,8.04,2.28,2.76,6.12,3.12,7.68,3.12,5.64,0,7.92-3,8.64-4.32,1.32-2.04,1.44-4.08,1.56-6.48V225.84C80.06694,222.12,80.06694,217.8,76.46694,215.16Z"/><path d="M87.387,224.04c0-2.64.72-4.44,2.28-5.52a5.54143,5.54143,0,0,1,3.12-.84,4.6061,4.6061,0,0,1,2.88.72,4.92108,4.92108,0,0,1,1.8,1.8c.84,1.56.96,3.84.96,7.44v22.32c0,2.52-.12,5.16-2.28,6.72a4.61852,4.61852,0,0,1-3.12.96,5.3685,5.3685,0,0,1-5.16-3,16.12652,16.12652,0,0,1-.48-5.04Zm11.88-8.88a10.376,10.376,0,0,0-6.24-1.8h-.24c-4.56,0-8.04,2.28-9.36,6a20.21937,20.21937,0,0,0-.72,4.8V250.8c.12,2.64.12,5.52,2.16,8.16,2.4,2.76,6.12,3,7.8,3,5.52,0,7.92-3,8.64-4.32,1.32-2.04,1.44-4.08,1.56-6.36V225.84C102.86695,222.12,102.86695,217.8,99.267,215.16Z"/><path d="M115.46694,232.68l9.6-18.12a.54508.54508,0,0,0,0-.6.65981.65981,0,0,0-.6-.36h-3.6a.65983.65983,0,0,0-.6.36l-10.2,19.8V214.2a.69167.69167,0,0,0-.72-.72h-3.24a.77425.77425,0,0,0-.72.72v46.08a.69165.69165,0,0,0,.72.72h3.12a.79336.79336,0,0,0,.84-.72v-17.28l2.52-4.8,7.8,22.32a.98662.98662,0,0,0,.72.48h3.48a.80244.80244,0,0,0,.72-.84c0-.12-.12-.24-.12-.36Z"/><path d="M143.067,257.04h-11.28V214.56a.77426.77426,0,0,0-.72-.72h-3.24a.77427.77427,0,0,0-.72.72v46.08a.77427.77427,0,0,0,.72.72h15.24a.77426.77426,0,0,0,.72-.72v-2.88A.77426.77426,0,0,0,143.067,257.04Z"/><path d="M160.22695,213.84h-3.48a.81022.81022,0,0,0-.72.48l-6.6,19.68-6.6-19.68a.658.658,0,0,0-.72-.48h-3.36a.65992.65992,0,0,0-.6.36,1.08207,1.08207,0,0,0-.12.6l9,25.55994v20.28a.80245.80245,0,0,0,.84.72h3.12a.69167.69167,0,0,0,.72-.72v-20.28l9.36-25.55994a.54508.54508,0,0,0,0-.6A1.59535,1.59535,0,0,0,160.22695,213.84Z"/><path d="M181.46694,213.84h-3.24a.62343.62343,0,0,0-.48.24.90982.90982,0,0,0-.24.48l.24,33.6c0,.96.12,1.8.12,2.76v1.56l-9.6-38.04a.64284.64284,0,0,0-.6-.6h-4.8a.77426.77426,0,0,0-.72.72v46.08a.69167.69167,0,0,0,.72.72h3.12c.24,0,.36,0,.48-.12.12-.24.24-.36.24-.6l-.24-32.64V223.56l9.24,37.31995a.658.658,0,0,0,.72.48h4.8a.79336.79336,0,0,0,.84-.72V214.56A.60083.60083,0,0,0,181.46694,213.84Z"/><path d="M197.907,27.36V21.6l-2.28-1.2c-1.68-.84-40.92-20.4-95.4-20.4h-2.52c-54.48,0-93.72,19.56-95.28,20.4l-2.4,1.2v5.64c-.36,23.16,2.4,82.08,38.4,127.8,29.16,37.2,56.64,45.72,59.64,46.56l1.2.36,1.2-.24c1.2-.36,29.16-8.52,59.16-46.56C195.50695,109.44,198.387,50.52,197.907,27.36Z"/><path d="M99.267,195.84c-2.28-.6-28.2-8.64-56.28-44.28C6.14695,104.64,6.027,43.32,6.267,28.8V25.68a.11753.11753,0,0,0,.12-.12v-.12l.84-.36c2.04-.84,6.36-2.75995,12.72-5.04a228.386,228.386,0,0,1,78-13.8h2.52a227.793,227.793,0,0,1,77.64,13.8c6.36,2.28,10.8,4.2,12.72,5.04l.84.36v.12l.12.12V28.8c.36,14.52.24,75.84-36.72,122.76C126.98694,187.2,101.427,195.23993,99.267,195.84Zm57.6-42.72c35.28-44.76,38.04-102.48,37.56-125.16v-4.2l-.72-.36c-1.56-.84-40.08-19.92-93.48-19.92h-2.64c-53.4,0-91.8,19.08-93.48,19.92l-.72.36v3.96c-.48,22.8,2.28,80.52,37.56,125.28,28.44,36.24,54.84,44.64,57.84,45.36l.36.12006.36-.12006C100.827,198.12,127.58695,190.2,156.867,153.12Z" fill="#fff"/><path d="M167.18694,54.6c-13.08-13.56-14.52-15.72-14.52-21.36,0-5.52,2.4-6.24,4.8-6.24a16.92142,16.92142,0,0,1,4.44.72c9.48,2.76,9.48,7.92,9.48,11.76V45a1.06878,1.06878,0,0,0,.6.96c2.4.72,3.48,1.2,5.88,2.04a.72634.72634,0,0,0,.96-.12.906.906,0,0,0,.48-.84V42.48c0-5.76,0-15.48-16.92-20.4-11.88-3.36-18,.24005-18,10.56,0,8.52,5.28,13.56,14.04,22.08l1.68,1.68c10.32,10.2,12.36,13.44,12.36,19.8,0,2.4-.36,3.96-1.08,4.92-.72,1.08-1.8,1.44006-3.6,1.44006a18.953,18.953,0,0,1-5.16-.84c-4.56-1.32-7.8-3.12-9.84-5.28-2.4-2.64-2.4-4.92-2.4-9.48v-4.8c0-.48-.24-.96-.72-.96-2.64-.6-3.84-.84-6.24-1.31995a.7953.7953,0,0,0-.84.24,1.79162,1.79162,0,0,0-.36.84V69.6c0,8.04,6.72,14.28,19.2,17.88a32.24788,32.24788,0,0,0,9.24,1.56c9.72,0,9.72-8.04,9.72-11.4C180.50695,68.75995,175.94693,63.6,167.18694,54.6Zm-26.4-36.84a224.13624,224.13624,0,0,0-37.92-3.6.89944.89944,0,0,0-1.08,1.08v3.84a1.16007,1.16007,0,0,0,1.08,1.08c5.88,0,9,.24,14.64.6V77.64a1.05061,1.05061,0,0,0,.96,1.08c2.52.24,3.72.24,6.24.6h.12a.66.66,0,0,0,.6-.36.72556.72556,0,0,0,.36-.72V21.6c5.64.6,8.88,1.08,14.76,2.16a1.1425,1.1425,0,0,0,.84-.24,1.08935,1.08935,0,0,0,.36-.84V18.84A1.46457,1.46457,0,0,0,140.78693,17.75995Zm-44.28-3.48a203.63954,203.63954,0,0,0-31.92,2.88.94648.94648,0,0,0-.96.96V79.8a1.36858,1.36858,0,0,0,.36.72,1.70563,1.70563,0,0,0,.72.24h.12A214.12073,214.12073,0,0,1,96.387,78a1.058,1.058,0,0,0,.96-1.08V73.08a1.03712,1.03712,0,0,0-.36-.72.72561.72561,0,0,0-.72-.36,202.48137,202.48137,0,0,0-24.48,1.8V49.44a180.45594,180.45594,0,0,1,20.04-1.68005.88316.88316,0,0,0,.96-.96V42.96a1.70572,1.70572,0,0,0-.24-.72.88175.88175,0,0,0-.72-.24,180.69926,180.69926,0,0,0-20.04,1.56V21.96a183.98776,183.98776,0,0,1,24.6-1.8.9801.9801,0,0,0,1.08-.96V15.36a.72567.72567,0,0,0-.36-.72A.66.66,0,0,0,96.50695,14.28Zm-40.92,4.44c-2.4.48-3.6.72-6,1.32a.92739.92739,0,0,0-.84.96l.48,44.75995c0,3,.12,5.76.24,8.28-6-15.6-12.36-31.68-18.84-47.88a1.05182,1.05182,0,0,0-1.2-.6c-3.6,1.2-5.4,1.8-8.88,3.24a1.04527,1.04527,0,0,0-.72.96V91.44a.81021.81021,0,0,0,.48.72c.12.24.36.24.6.24a.44086.44086,0,0,0,.36-.12c2.16-.84,3.36-1.2,5.52-2.04a.91257.91257,0,0,0,.72-.96c-.12-14.52-.12-29.16-.24-43.68,0-3.84,0-6-.12-8.76,6.24,16.2,12.48,31.92,18.36,46.92a.89628.89628,0,0,0,1.2.6c3.72-.84,5.64-1.32,9.36-2.04a1.01833,1.01833,0,0,0,.84-.96V19.68a1.29635,1.29635,0,0,0-.36-.84A1.35417,1.35417,0,0,0,55.58695,18.72Z" fill="#fff"/><path d="M133.58693,158.28c-.6.48-1.2.84-1.92,1.32-1.68,1.2-3.48,2.16-5.16,3.24a28.6931,28.6931,0,0,1-2.52,1.56c-6.12,3.84-13.56,8.04-21.36,10.44a55.63037,55.63037,0,0,1-6.48,1.56,29.43973,29.43973,0,0,1-5.52.48h-.36a41.15809,41.15809,0,0,1-6.72-.6,47.24362,47.24362,0,0,0,26.52,1.32,46.51831,46.51831,0,0,0,14.28-6.24,30.97609,30.97609,0,0,0,9.48-13.2C133.70694,158.16,133.58693,158.16,133.58693,158.28Zm-41.76,16.32a41.78739,41.78739,0,0,0,14.4-4.44,12.49761,12.49761,0,0,0,2.16-1.2c.6-.24,1.2-.6,1.8-.84,4.2-2.16,8.64-4.55994,14.04-7.55994,2.04-.96,3.84-2.04,5.76-3.12l2.16-1.2c.84-.48,1.68-.84,2.4-1.32.12-.12.12-.12.24-.12a45.89461,45.89461,0,0,0,1.44-8.28c-5.4,2.64-13.44,5.04-25.2,7.44-15,3-29.76,1.68-42.96-3.96-8.88-3.72-13.08-8.88-14.76-11.64a48.1595,48.1595,0,0,0,1.08,6,46.5823,46.5823,0,0,0,19.2,27.00006v-.12l1.2.72a20.65726,20.65726,0,0,0,3.96,1.68,34.89842,34.89842,0,0,0,8.64,1.2C88.82694,174.84,90.26694,174.72,91.82694,174.6Zm47.04-19.44c-.12-.12-.12-.12-.24-.12a2.31246,2.31246,0,0,0-1.08.36c-.12.12-.24.24-.36.24-.12.12-.24.12-.36.24a38.37909,38.37909,0,0,1-4.44,8.52,42.66041,42.66041,0,0,0,6.6-8.88h-.12Zm1.8-11.4c-.24.24-.36.24-.48.48a3.73125,3.73125,0,0,0-.72.48,41.19711,41.19711,0,0,1-1.68,8.52c1.44-.48,2.04.12,2.16.48,0,.12,0,.12.12.12a43.55262,43.55262,0,0,0,4.56-15A11.839,11.839,0,0,1,140.66693,143.75995Zm-1.2-2.4c.12-.11993.24-.11993.36-.24a14.35878,14.35878,0,0,0,5.04-7.67993,42.88932,42.88932,0,0,0-1.44-11.04.62343.62343,0,0,0-.24-.48,14.99429,14.99429,0,0,1-4.92,9.36A41.33419,41.33419,0,0,1,139.46694,141.35992Zm-68.76,5.52c10.92,3.6,16.92,4.68005,24.84,4.68005,2.88,0,6.24-.12,10.32-.48,11.64-.96,23.88-4.8,30.48-8.04a52.08258,52.08258,0,0,0-.96-9.6,12.32751,12.32751,0,0,1-6.84,1.67993c-2.76,0-6-.48-11.4-1.8-6.36-1.56-15.36-6.96-23.4-11.64-4.32-2.64-8.52-5.04-11.88-6.72-13.08-6.48-20.52-5.52-22.44-5.16a45.34655,45.34655,0,0,0-6.36,26.28C54.027,137.28,58.46694,142.8,70.70694,146.87994Zm6.72-37.31995a175.55551,175.55551,0,0,1,16.32,8.28c9.72,5.16,19.68,10.56,26.52,12.24,6,1.56,10.92,1.32,14.4-.36v-.24c-.12-.24-.12-.48-.24-.72-2.88-12.36-18.36-39.48-45.24-39.48-1.08,0-2.16.12-3.36.12a45.11576,45.11576,0,0,0-24.72,17.64,15.31119,15.31119,0,0,1,3.96-.6C68.54695,106.56,72.62694,107.64,77.42694,109.56Zm60,18.24a13.59435,13.59435,0,0,0,1.56-2.4c3.24-6.24.48-13.2-.84-15.6a46.06835,46.06835,0,0,0-43.68-21.84C112.82694,88.92,130.58693,105.36,137.42694,127.8Z" fill="#fff"/><path d="M117.027,142.56c0-3.36,0-8.28-3.96-12.12a8.66256,8.66256,0,0,0,1.08-2.4,16.8674,16.8674,0,0,0,.72-5.64v-9.36c-.12-3.48-.6-7.08-3.48-10.2-2.52-2.88-6.36-4.44-10.92-4.44h-12.48a5.48616,5.48616,0,0,0-3.72,1.56,5.081,5.081,0,0,0-1.44,3.6l.12,60.48a4.98277,4.98277,0,0,0,2.52,4.44,5.34047,5.34047,0,0,0,2.76.84h12.72a16.694,16.694,0,0,0,11.4-3.96h.12c4.2-3.72,4.56-8.16,4.68-12.36v-.12Z" fill="#fff"/><path d="M100.22695,127.68c-.96.36-1.56.36-3.84.48h-2.4c-.36,0-.48-.12-.48-.48V108.24a.43959.43959,0,0,1,.48-.48h3.84a10.62389,10.62389,0,0,1,4.92.84,2.58078,2.58078,0,0,1,1.08,1.44,12.22042,12.22042,0,0,1,.48,3.24v8.16C104.187,123.24,104.06694,126.48,100.22695,127.68Zm4.44,31.31995c-.96.72-2.16,1.08-5.04,1.2h-5.4a.672.672,0,0,1-.6-.72V135.36c0-.12,0-.36.36-.36h2.52c2.64.12,5.4.24005,7.2,1.44006a5.01655,5.01655,0,0,1,2.16,2.75995,13.48279,13.48279,0,0,1,.48,3.84v8.88C106.46694,155.87994,106.22695,157.8,104.66695,158.99994Zm9.12-15.96c0-3.48,0-7.56-3.48-10.44a9.59141,9.59141,0,0,0-2.64-1.56,8.491,8.491,0,0,0,3.36-4.56,14.30447,14.30447,0,0,0,.6-4.56v-9.6c-.12-2.64-.36-5.76-2.64-8.16-1.8-2.04-4.8-3.12-8.4-3.12h-13.08a1.46587,1.46587,0,0,0-1.08.48,1.67528,1.67528,0,0,0-.36,1.08v63a1.82888,1.82888,0,0,0,.72,1.32,1.73448,1.73448,0,0,0,.84.24h13.2a13.9658,13.9658,0,0,0,9.36-3.12c3.12-2.88,3.48-6.24,3.6-10.08Z"/></svg>