<?xml version="1.0" encoding="UTF-8" standalone="no"?>
<svg xmlns:rdf="http://www.w3.org/1999/02/22-rdf-syntax-ns#" xmlns="http://www.w3.org/2000/svg" height="186.25093" width="268.20001" version="1.1" xmlns:cc="http://creativecommons.org/ns#" xmlns:dc="http://purl.org/dc/elements/1.1/" viewBox="0 0 268.20001 186.25093"><path d="M267.48,124.68h-15.6s7.2,4.8,9,6.6c0,0,6.48,5.4,6.48,16.44v18.72s0,5.4-2.28,9.24005v.24c-.6.96-5.04,9.6-18.12,9.6,0,0-7.8,0-12.96-4.44006l-3.72,2.88L222.24,179.52v5.76H196.68L189,179.52v5.76H153.24l-4.32-5.64s-5.76,6-14.28,5.64c0,0-10.68.11993-16.32-9.12l-9.84,6.36a17.755,17.755,0,0,1-9.96,2.76,18.75693,18.75693,0,0,1-16.56-9.12S75.12,180.72,72.48,182.4A20.896,20.896,0,0,1,62.52,185.28a18.81685,18.81685,0,0,1-13.32-5.04l-8.52,5.04H24.96L24.48,183.96,22.2,185.16H.96V164.28l2.04-.6h.12c.24-.12,1.08-.96.96-3.72L3.72,105.6s.24-2.76-3-2.64V81.84h42l-3.24-5.4,5.28-5.64h-9s27.6-29.04,59.52-35.28L96.36,36.96,140.4.72l41.88,35.4,1.2-1.32s22.68,2.16,58.44,36l-9.96.12,6.72,8.52L237.96,81h9s8.04-.72,14.4,4.44l6-2.04Zm.72-42.12s-6.12,2.04-6.72,2.28A22.43423,22.43423,0,0,0,246.96,80.52h-7.68a3.51764,3.51764,0,0,1,.48-.96s-4.8-6-6.24-7.8c2.16,0,10.44-.12,10.44-.12l-1.32-1.2c-35.52-33.6-58.08-36.12-58.92-36.24h-.36s-.6.72-.96,1.08C181.32,34.44,140.64,0,140.64,0S97.92,35.04,96.72,36.12c-.36-.48-.84-1.2-.84-1.2H95.4C63.48,41.16,35.76,70.08,35.52,70.44l-1.2,1.2h8.76c-1.32,1.55994-4.44,4.92-4.44,4.92s2.04,3.36,2.88,4.68H0v22.68H.72a2.04624,2.04624,0,0,1,1.8.48A1.77973,1.77973,0,0,1,3,105.72c0,.36.36,54.36.36,54.36v.6c0,1.92-.6,2.4-.72,2.52-.24.12-2.52.72-2.52.72v22.2h22.2s1.08-.6,1.8-.96c0,.12.24.96.24.96H40.92s7.44-4.32,8.28-4.8a19.88831,19.88831,0,0,0,13.56,4.92,22.46177,22.46177,0,0,0,10.2-3.12s6.96-4.56,9-5.88a19.78076,19.78076,0,0,0,16.8,8.88,18.08125,18.08125,0,0,0,10.32-2.88s7.08-4.68,9.24-6c5.76,8.88,15.96,8.88,16.44,8.88a20.17345,20.17345,0,0,0,14.16-5.28c.72,1.08,3.96,5.28,3.96,5.28h36.96v-5.04c1.68,1.20007,6.6,5.04,6.6,5.04h26.52v-5.28c1.68.84,7.44,4.08,7.44,4.08s2.88-2.4,3.6-2.88c5.28,4.08,12.6,4.08,12.96,4.08,14.28,0,18.72-10.08,18.72-10.2,2.28-3.84,2.4-9.24,2.4-9.48V147.6c0-11.28-6.6-16.8-6.84-17.04a55.20733,55.20733,0,0,0-6.96-5.16h13.8V82.56Z" fill="#fff"/><path d="M244.32,119.16v0Z" fill="#5091cd"/><path d="M114.72,171.48c-.24.36-.36.6-.6.96A6.697,6.697,0,0,1,114.72,171.48Z" fill="#5091cd"/><path d="M73.32,177.84a.9368.9368,0,0,0-.48.48A.9368.9368,0,0,1,73.32,177.84Z" fill="#5091cd"/><path d="M55.08,96.48h0Z" fill="#5091cd"/><path d="M244.32,118.08v0Z" fill="#5091cd"/><path d="M264.36,87.84v33.6H250.2s-5.28-1.68-5.88-1.92v-.24a13.36,13.36,0,0,0,.24,2.04,5.83276,5.83276,0,0,0,1.8,3.12c.12,0,4.92,3.36,12,8.4.12.24,6.12,4.92,6,15V167.28A15.96625,15.96625,0,0,1,259.92,177.84c-3.12,3-7.56,4.68005-13.32,4.56006a17.99253,17.99253,0,0,1-12.72-5.4l-3.12,2.64-.6.48-.24.12s-8.76-4.56-10.8-5.64V182.28H197.28s-9-6.6-11.04-8.16v8.16H154.32s-4.68-5.4-5.76-6.72c-5.76,6.96-12.84,6.84-12.84,6.84-5.64-.24-9.96-1.92-12.96-5.28a16.54584,16.54584,0,0,1-3.24-5.28c-1.56,1.08-8.64,5.4-10.56,6.6-.24.24-.48.36-.6.48a15.21468,15.21468,0,0,1-9.24,3.36c-5.16,0-9.24-1.56006-12.24-4.56006a16.6676,16.6676,0,0,1-3.6-6c-1.68.96-9.6,6.12-11.4,7.2a13.884,13.884,0,0,1-1.92,1.32,15.13263,15.13263,0,0,1-7.68,2.16A15.53013,15.53013,0,0,1,50.88,177.72a10.49292,10.49292,0,0,1-.96-1.2c-2.16,1.31995-9.84,5.64-9.84,5.64H27.36l-.12-.36-.36-1.44c-1.32.48-5.4,1.8-5.4,1.8H3.96V166.92l.24-.24c.12,0,2.88-1.56,2.76-6.24V107.28s.12-5.76-2.88-7.20007l-.24-.12v-.24L3.96,85.2v-.48h22.2V84.6h21.6v-.12c-2.4-3.84-4.44-6.96-4.44-6.96l-.36-.6.36-.36a77.272,77.272,0,0,1,8.4-8.28h-9l1.92-1.8c.96-.84,24.96-22.68,48.72-27.6l.72-.12.36.48s.84,1.32,1.44,2.04L140.16,4.8l42.36,35.88c.6-.72,1.68-2.04,1.68-2.04l.36-.6.6.24c20.04,3.6,44.76,25.56,47.52,27.96l2.04,1.8h-9.84c5.64,5.88,9.72,10.68,10.2,11.16l.12.12s-.48.96-.6.96L231.84,84.72c4.56,0,11.88-.48,14.16-.48h-.12a3.702,3.702,0,0,1,1.08-.12c.36,0,8.52-.24,13.8,4.92l3-.96Zm-17.4-6.6h-8.88l.72-1.56-6.84-8.64,10.08-.12c-35.76-33.84-58.56-36-58.56-36l-1.08,1.32L140.52.84,96.36,37.08l-.96-1.44C63.36,41.88,35.88,70.92,35.88,70.92h8.88l-5.4,5.76,3.36,5.4H.72v21c3.24-.12,3,2.64,3,2.64l.24,54.36c.12,2.76-.72,3.6-.96,3.84H2.88l-1.92.6v20.76H22.2L24.48,184.08,24.96,185.4H40.68l8.52-5.04a19.25993,19.25993,0,0,0,13.32,5.16,21.83947,21.83947,0,0,0,9.96-3c2.64-1.68005,9.48-6.24,9.48-6.24a19.02111,19.02111,0,0,0,16.56,9.24,17.2573,17.2573,0,0,0,9.96-2.88l9.84-6.36c5.64,9.24,16.32,9.12,16.32,9.12,8.52.48,14.28-5.52,14.28-5.52l4.32,5.4H189v-5.76l7.68,5.76h25.56v-5.64l8.04,4.43994L234,181.2c5.28,4.44,12.96,4.32,12.96,4.32,13.08,0,17.52-8.52,18.12-9.6v-.12c2.28-3.84,2.28-9.24,2.28-9.24V147.72c0-11.04-6.48-16.43994-6.48-16.43994-1.8-1.8-9-6.6-9-6.6h15.6V83.64l-6.12,2.04C255.12,80.52,246.96,81.24,246.96,81.24Z" fill="#5091cd"/><path d="M113.52,173.4v0Z" fill="#5091cd"/><path d="M244.32,118.32v0Z" fill="#5091cd"/><path d="M115.56,169.68c-.24.48-.48.96-.84,1.56C115.08,170.64,115.32,170.16,115.56,169.68Z" fill="#5091cd"/><path d="M250.2,106.92s.12-2.52-1.2-3.84a2.63831,2.63831,0,0,0-2.04-.72s-2.64.12-2.64,5.04v12.24c.6.24,5.76,1.92,5.76,1.92V106.92Z" fill="#00285e"/><path d="M17.64,160.56c0,.12.48,4.68,3.6,6.36l.24.12V182.28s4.08-1.32007,5.52-1.8l-9.36-45.84Z" fill="#00285e"/><path d="M45.12,77.52l.24-.12c5.76-3.36,37.8-19.92,89.52-21.36,1.92-.12,48.36-2.16,97.68,23.88l.12.12-11.4,18h-.12c-5.76-3.12-36.24-18.96-80.28-20.88-.36,0-44.52-1.68-84.24,18.48h-.12ZM47.16,66.6l.36-.36c5.04-4.2,22.44-18.6,40.8-24.12l.24.24C74.76,51,63.24,59.04,54.24,66.6Zm161.52-12c-.12-.12-9.84-7.56-17.76-12.72l.12-.24c15.84,5.4,33.72,20.04,38.88,24.48l.36.36h-.6l-7.2-.12A117.152,117.152,0,0,0,208.68,54.6ZM54.96,96.48h.12a6.23472,6.23472,0,0,1,.36.6l.48.84.84-.48c38.52-19.8,82.32-18.6,84.12-18.6,47.4,2.16,79.8,20.88,80.04,21l.96.6,9.96-15.72,2.76-4.44.6-.84-.12-.12c-.48-.6-4.56-5.4-10.2-11.16h10.08l-2.04-1.8c-2.76-2.52-27.6-24.36-47.64-28.08l-.6-.12-.36.48s-.96,1.44-1.56,2.16l.12.12,1.2.96L185.4,40.2l.12.12006c7.56,3.96,22.32,15.36,22.44,15.36,9.12,6.36,18.36,16.2,23.04,21.36l-.24.36c-3.84-1.92-7.92-3.96-12-5.64-2.28-.96-4.44-1.92-6.6-2.64-41.88-16.2-76.8-14.4-77.16-14.4-5.52.12-10.92.48-16.32.96q-8.64.72-17.28,2.16a234.14456,234.14456,0,0,0-31.92,7.8L65.52,67.08a144.40434,144.40434,0,0,0-16.68,6.96l-.24-.36c5.52-5.4,18.84-16.92,45-32.76l.12-.12,1.2,1.56,1.2-.96.12-.12006a20.66281,20.66281,0,0,0-1.44-2.04l-.36-.6-.72.24C69.96,43.68,45.96,65.52,45,66.48l-1.92,1.8h9a71.75317,71.75317,0,0,0-8.4,8.16l-.36.6.36.6s2.04,3.24,4.44,7.08v.12C50.52,89.28,53.88,94.56,54.96,96.48Z" fill="#fdb927"/><path d="M230.28,66.48l-.36-.36C224.88,61.8,207,47.16,191.16,41.64l-.24.24c7.92,5.16,17.64,12.6,17.76,12.72a117.152,117.152,0,0,1,13.8,11.76l7.32.12Z" fill="#5091cd"/><path d="M88.56,42.36l-.24-.24c-18.36,5.52-35.76,19.92-40.8,24.12l-.36.36h7.08A294.94959,294.94959,0,0,1,88.56,42.36Z" fill="#5091cd"/><path d="M216,80.52s.72-1.56006-1.92-2.4l-5.52-2.16-1.08,2.88,6,2.4S215.4,82.2,216,80.52Z" fill="#5091cd"/><path d="M73.2,81.72a4.59955,4.59955,0,0,0,2.64-5.64s-1.08-3.36-5.76-2.16l-4.92,1.92L68.04,83.52Z" fill="#5091cd"/><path d="M70.32,70.44c8.76-1.92,10.2,3.84,10.2,3.84,2.04,6.6-4.68,9.6-4.68,9.6l-12,4.56L63.72,88.2c.36-.12.36-.6.36-.6L59.52,75.12c-.12-.12-.6,0-.6,0l-.12-.24Zm33.72-8.76a.69947.69947,0,0,0,.72-.84H105l.96,4.44h-.12a1.99854,1.99854,0,0,0-.72-.6L93.96,67.2l.48,2.4,6.72-1.56a.95787.95787,0,0,0,.72-.72h.24l.84,3.96h-.36a.83108.83108,0,0,0-.48-.36l-7.08,1.56.6,2.64,11.04-2.4s.48,0,.6-.84h.24l.96,4.44h-.24s-.48-.6-.84-.48l-16.56,3.6-.12-.36c.48,0,.36-.48.36-.48L88.32,65.4a.2628.2628,0,0,0-.36-.12006l-.12-.24Zm20.4-2.04V60s-.6,0-.48.36a1.69111,1.69111,0,0,0,.36.6l8.64,6.72-.48-7.56a.64027.64027,0,0,0-.6-.48V59.4l5.88-.24005v.36c-.48,0-.48.36-.48.36L137.88,73.2c0,.24005.48.12006.48.12006l.12.36-6,.36v-.12s.6,0,.48-.48c0-.24005-.36-.6-.36-.6l.36.24-10.68-8.16.6,8.88a.35675.35675,0,0,0,.48.36v.36l-5.64.12V74.4c.36,0,.48-.48.48-.48l-.6-13.2c-.12-.24-.48-.24-.48-.24l-.12-.24Zm22.2-.12,6.84.6-.12.36c-.24,0-.48,0-.36.24,0,.24.12.36.84,1.8l3.36,7.08,4.92-7.08c.24-.36.48-.6.48-.84s0-.36-.24-.36l.12-.48,5.76.6v.36c-.48,0-.72.24-1.08.84l-7.32,11.52c-.12.24-.36.36-.36.72,0,.24.12.24.24.36v.24l-6.6-.6.12-.36c.36,0,.12-.48.12-.48l-.12-.48-5.4-12.48c-.24-.84-.36-.84-.96-1.08ZM174.24,77.28a.35668.35668,0,0,0,.48-.36l3.24-13.08c0-.24-.36-.36-.36-.36l.12-.24,16.2,3.84s.84.36.96-.36h.24L194.16,71.16l-.24-.12006a.93385.93385,0,0,0-.36-.72L182.4,67.68l-.6,2.4,6.72,1.56a1.01478,1.01478,0,0,0,.96-.36h.24l-.96,3.96-.24-.12a1.21173,1.21173,0,0,0-.24-.6L181.2,72.84l-.6,2.64,11.04,2.64s.48.12.72-.6l.24.12L191.52,82.08l-.24-.12s-.12-.72-.6-.72Zm24.96,7.2c.48.12.6-.24.6-.24l4.92-12.6c0-.12-.36-.24-.36-.24l.12-.36,13.32,5.28c5.28,2.52,3.24,6.36,3.24,6.36-1.56,3.12-6.12,2.4-6.12,2.4L217.08,91.32a.235.235,0,0,1,.24.24v.12l-6.24-2.28.12-.24005a.66413.66413,0,0,0,.72-.36c-.12-.48-2.16-5.88-2.16-5.88l-3.24-1.2-1.8,4.44a.3867.3867,0,0,0,.24.6l-.12.36-5.76-2.28ZM56.76,95.64c39.72-20.16,83.88-18.48,84.36-18.48C185.04,79.08,215.52,94.92,221.28,98.04h.12l11.52-18-.24-.12c-49.32-26.04-95.76-24-97.68-23.88-51.72,1.44-83.64,18-89.52,21.36l-.12.12Z" fill="#5091cd"/><path d="M94.68,42.84h.24l-.24-.36-1.2-1.56-.12.12c-26.16,15.84-39.48,27.48-45,32.88l.24.24005A154.35206,154.35206,0,0,1,65.28,67.2c1.44-.48,2.64-.96,4.08-1.32-1.44.36-2.64.84-3.84,1.2C67.68,65.04,94.68,42.84,94.68,42.84Z" fill="#5091cd"/><path d="M218.16,71.52c-2.04-.84-4.2-1.68005-6.24-2.4,2.16.72,4.44,1.68,6.6,2.64,4.08,1.8,8.16,3.72,12,5.64l.24-.36c-4.68-5.16-13.92-15-23.04-21.36,0,0-14.76-11.4-22.44-15.36L185.16,40.2,183.84,41.88l-.24.36Z" fill="#5091cd"/><path d="M70.08,74.04c4.8-1.32,5.76,2.16,5.76,2.16,1.32,3.96-2.64,5.52-2.64,5.52l-5.16,1.92-2.88-7.8ZM59.52,75.12,64.08,87.6a.48455.48455,0,0,1-.36.6l.12.24005,12-4.56s6.72-3,4.68-9.6c0,0-1.44-5.75995-10.2-3.84L58.8,74.88l.12.24C59.04,75.12,59.4,75,59.52,75.12Z" fill="#fff"/><path d="M88.2,65.52l2.76,13.2a.48462.48462,0,0,1-.36.6l.12.24,16.56-3.48c.24-.24.84.36.84.36h.24L107.28,72l-.12.12c-.12.72-.6.72-.6.72l-11.04,2.4-.6-2.64,6.96-1.56a.82667.82667,0,0,1,.6.48l.24-.12-.84-4.08-.36.12c0,.6-.72.72-.72.72l-6.72,1.56-.48-2.4,11.28-2.52a.87259.87259,0,0,1,.6.6l.24-.12006-.96-4.44-.24.12c0,.72-.84.72-.84.72l-16.32,3.6.12.24005C87.72,65.52,88.08,65.28,88.2,65.52Z" fill="#fff"/><path d="M117.6,60.72l.6,13.32a.47013.47013,0,0,1-.48.48v.24l5.64-.24V74.28c-.48,0-.48-.36-.48-.36l-.6-9,10.68,8.16-.36-.12s.36.36.36.6c.12.36-.48.36-.48.36V74.16l6-.48-.12-.24s-.48,0-.48-.12L137.28,60a.47009.47009,0,0,1,.48-.48V59.28l-5.88.24005v.24a.48456.48456,0,0,1,.6.36l.48,7.68-8.64-6.72s-.24-.36-.36-.6c-.12-.36.48-.36.48-.36v-.36l-7.44.6.12.36C117,60.48,117.48,60.48,117.6,60.72Z" fill="#fff"/><path d="M191.28,82.2l.24.12.96-4.44-.12-.12c-.48.72-.84.48-.84.48l-11.04-2.52.6-2.64L188.16,74.76c.36.36.36.6.36.6l.24.12.96-3.96h-.36c-.24.48-.96.36-.96.36l-6.72-1.56.6-2.4,11.28,2.52a1.29833,1.29833,0,0,1,.36.84l.12.12006L195.12,66.96h-.24a.657.657,0,0,1-.96.36L177.6,63.48l-.12.24s.48.12.48.36l-3.24,13.08a.48457.48457,0,0,1-.6.36v.24l16.44,3.96C191.04,81.48,191.28,82.2,191.28,82.2Z" fill="#fff"/><path d="M208.56,75.96l5.52,2.16c2.64.84,1.92,2.4,1.92,2.4-.6,1.67993-2.64.72-2.64.72l-6-2.4ZM204.84,86.64a.3867.3867,0,0,1-.24-.6l1.68-4.44,3.36,1.32s2.04,5.4,2.16,5.76c0,0-.24.6-.72.36l-.12.24,6.12,2.4.12-.24L216.96,91.2l-2.28-6.24s4.68.84,6.24-2.4c0,0,2.04-3.84-3.24-6.24l-13.32-5.28-.12.24s.36.12006.36.36l-4.92,12.48a.38668.38668,0,0,1-.6.24l-.12.36,5.76,2.16Z" fill="#fff"/><path d="M147.6,60.84l5.4,12.6.12.48s.24.48-.12.48l-.12.36,6.6.72v-.36c-.12,0-.12,0-.12-.36a1.70585,1.70585,0,0,1,.24-.72l7.32-11.52c.36-.6.48-.84,1.08-.84v-.36l-5.76-.48-.12.36c.24,0,.36.24.24.36,0,.36-.24.48-.48.96l-4.92,6.96-3.36-6.96c-.72-1.44-.72-1.68005-.84-1.8,0-.24.12-.48.36-.36l.12-.36-6.84-.48-.12.24C147.24,60.12,147.36,60.12,147.6,60.84Z" fill="#fff"/><path d="M39.12,106.68v74.64H28.2L17.76,129.6l-1.08.12v30.96c0,.24.6,5.04,3.96,6.96v13.67993H5.04V167.64a8.04093,8.04093,0,0,0,3-6.96l-.12-53.16c0-.24005.24-6-3-7.92V85.92H18.36l10.92,53.4L30.36,139.2l-.12-32.52c0-.24.12-5.52-3-7.2V85.92H42.12V99.84C41.16,100.08,39.36,101.4,39.12,106.68Zm.96,0c.24-5.64,2.52-6,2.52-6h.48V84.84H26.28V100.2l.24.12006c2.88,1.2,2.76,6.36,2.76,6.36v27.6L19.32,85.32v-.48H4.08v.6l-.12,14.4v.36l.36.12006c2.88,1.44,2.76,7.2,2.76,7.2v53.16c.12,4.56-2.52,6.24-2.76,6.24l-.24.12V182.4H21.6V167.04l-.24-.12c-3.24-1.68-3.6-6.24-3.6-6.36V134.64l9.36,45.84.24,1.44.12.36h12.6Z" fill="#fff"/><path d="M151.56,169.08c-5.64,12.36-15.6,12.36-15.72,12.36-5.28-.11993-9.48-1.91992-12.36-4.91992-4.56-5.16-4.2-12.48-4.2-12.48V99.12c.24-5.52,2.04-9.72,5.16-12.6,4.8-4.44006,11.28-4.08,11.4-4.08,7.44,0,12.84,6.84,12.84,6.96l.24.24.36-.12,2.28-1.08v32.64H138.6V106.56q0-3.59995-1.44-5.04a2.22864,2.22864,0,0,0-1.68-.84,2.31784,2.31784,0,0,0-1.8.84c-1.56,1.55994-1.32,5.52-1.32,5.64v48.48c-.24,3.12.24,5.28,1.32,6.36a2.82394,2.82394,0,0,0,1.68.72,2.3877,2.3877,0,0,0,1.92-.84c1.68-1.92,1.32-6.24,1.32-6.36v-15h-2.4V130.2h15.24Zm.96.24005V129.24H135.24v12.48h2.4v13.92c.12,1.2.12,4.43994-1.08,5.64a1.47884,1.47884,0,0,1-2.28.11993c-.6-.72-1.2-2.16-1.08-5.52v-48.6c-.12-1.08.12-3.84,1.08-5.04a1.93554,1.93554,0,0,1,1.08-.36,1.48662,1.48662,0,0,1,.96.48c.6.48,1.2,1.68,1.2,4.32v15.6h15.12V87.12l-.72.24-2.64,1.2c-1.2-1.44-6.24-7.08-13.32-7.08-.24,0-7.08-.36-12.12,4.32-3.36,3.12-5.28,7.44-5.52,13.32v64.8a19.1389,19.1389,0,0,0,1.44,7.92,14.26219,14.26219,0,0,0,3.12,5.28c3,3.24,7.44,5.04,12.96,5.28.12,0,7.08.12006,12.84-6.84A27.78045,27.78045,0,0,0,152.52,169.32Z" fill="#fff"/><path d="M185.28,181.32H155.52V167.28c.84-.48,2.64-2.04,2.28-7.44006V103.92c0-.12-.12-3.6-2.52-5.4V84a138.16523,138.16523,0,0,1,29.88,5.64V121.08H175.8c0-3.24-.12-17.64-4.92-17.87994h-.6v27.12h7.92v10.32h-7.92v24l.48.12a2.18641,2.18641,0,0,0,1.8-.48c1.56-1.20007,3.36-4.92,3.12-15.84h9.6Zm-10.56-33.84v.6c.36,11.28-1.56,14.52-2.64,15.36a7.10653,7.10653,0,0,0-.72.48v-22.2h7.92V129.24h-7.92V104.4c2.76,1.31995,3.6,11.04,3.48,17.28v.48h11.28V88.92l-.36-.12a138.96126,138.96126,0,0,0-30.84-5.88h-.6V99l.24.12c2.28,1.56,2.28,4.8,2.28,4.8v56.04c.36,5.76-1.92,6.48-1.92,6.48h-.36v15.84h31.8v-34.8Z" fill="#fff"/><path d="M218.28,181.32h-19.8V167.28c.96-.48,3.72-2.52,3.6-9.12V109.92l-.24-.24a1.44813,1.44813,0,0,0-1.2.12c-1.56.84-2.52,4.68-2.88,11.28h-8.04V90.84a187.42394,187.42394,0,0,1,36.84,16.08v13.92h-7.68c-.36-2.04-1.32-8.16-3.72-8.64l-.6-.12006v45.96c0,.24005-.24,7.08,3.72,9Zm.72-14.88c-3.72-1.32-3.48-8.16-3.48-8.28V113.64c1.2,1.2,2.16,5.16,2.4,7.92l.12.48h9.48v-15.6l-.24-.12c-20.04-11.64-37.56-16.44-37.8-16.44l-.72-.24v32.52h9.96v-.48c.36-8.64,1.8-10.56,2.4-10.92v47.52c0,6.96-3.24,8.16-3.36,8.28l-.36.12v15.6h21.96V166.56Z" fill="#fff"/><path d="M42.12,99.84V85.92H27.36V99.48c3.12,1.68005,3,6.96,3,7.2V139.2l-.96.12L18.48,85.92H5.04L4.92,99.6c3.24,1.92,3.12,7.68005,3,7.92l.12,53.16a8.04094,8.04094,0,0,1-3,6.96v13.68H20.52V167.64c-3.36-1.92-3.84-6.72-3.84-6.96V129.72l.96-.12,10.44,51.72H39c0-6.6.12-74.64.12-74.64C39.36,101.4,41.16,100.08,42.12,99.84Z" fill="#fdb927"/><path d="M136.32,140.64h2.4v15c0,.11993.36,4.43994-1.44,6.36a2.38766,2.38766,0,0,1-1.92.84,2.82389,2.82389,0,0,1-1.68-.72c-1.08-1.08-1.56-3.24-1.32-6.24v-48.6c0-.12-.24-3.96,1.32-5.64a1.9818,1.9818,0,0,1,1.8-.72,2.41034,2.41034,0,0,1,1.68.72q1.44,1.43994,1.44,5.04V121.2h12.96V88.56l-2.28,1.08-.36.12-.24-.24c-.12-.12006-5.4-7.08008-12.84-7.08008-.12,0-6.6-.24-11.4,4.08008-3.12,2.87994-4.92,7.2-5.16,12.6v64.92s-.36,7.32,4.2,12.48c2.88,3.12,7.08,4.79993,12.36,4.91992.12,0,10.08,0,15.72-12.36v-38.76H136.32Z" fill="#fdb927"/><path d="M172.56,164.28c-.96.84-1.8.6-1.8.48l-.48-.12v-24h7.92V130.32h-7.92V103.2h.6c4.8.24,4.92,14.52,4.92,17.87994h9.36V89.64A130.73646,130.73646,0,0,0,155.28,84V98.52c2.52,1.8,2.52,5.28,2.52,5.4v55.92c.36,5.4-1.44,6.96-2.28,7.44006v14.03992h29.76V148.56h-9.6C175.92,159.36,174.12,163.08,172.56,164.28Z" fill="#fdb927"/><path d="M214.56,158.16V112.32h.6c2.4.48,3.36,6.6,3.72,8.75995h7.68V107.04c-17.76-10.2-33.48-15.12-36.84-15.96V121.2h8.04c.36-6.6,1.32-10.32,2.88-11.28.72-.36,1.08-.12,1.2,0l.24.12V158.4c.12,6.48-2.64,8.64-3.6,9.12006v13.91992h19.8V167.52C214.32,165.24,214.56,158.52,214.56,158.16Z" fill="#fdb927"/><path d="M230.04,150.72v-.48h14.04v8.64s0,3.24,1.44,4.68a1.56228,1.56228,0,0,0,1.56.6,2.46147,2.46147,0,0,0,1.44-.6c.84-.72,1.44-2.28,1.44-4.44v-8.64s.36-5.28-2.88-7.2c0,0-11.04-7.8-10.92-7.8-.24-.12-6.48-4.08-6.6-15V102.12c0-.24-.48-14.28,13.68-17.4a24.8274,24.8274,0,0,0,2.64-.48H246c-2.28,0-9.6.48-14.16.48l-9.96,15.72-.96-.6c-.24-.12-32.64-18.84-80.04-21-1.92,0-45.6-1.2-84.12,18.6l-.84.48-.48-.84a6.23472,6.23472,0,0,0-.36-.6h-.12c-1.2-1.92-4.44-7.08-7.2-11.52H43.08v15.72l-.36.12s-2.4.24-2.52,5.88l-.12,75.24v.36s7.8-4.32007,9.96-5.64c-4.68-6.36-3.96-15.6-3.96-15.96v-34.8a3.92259,3.92259,0,0,0-.72-2.52,1.75341,1.75341,0,0,0-1.32-.12l-.72.24V108.12l.24-.12c6.24-4.44,17.04-9.12,17.16-9.12l.72-.36v15.36l-.12.12c-.96.84-1.2,5.04-.96,7.44v34.8c-.24,3.72.6,5.04,1.2,5.4.36.48.72.36.72.36h.24a.62345.62345,0,0,0,.48-.24c.96-.96,1.08-4.2,1.08-5.4,0,0,.12-40.32.12-40.44,0-1.56-.24-2.16-.48-2.4a.92876.92876,0,0,0-.36-.12l-.6.12V97.92L63,97.8c11.4-5.4,17.64-6.96,17.76-6.96l.6-.12V106.8l-.24.12c-2.88,1.8-2.64,6.12-2.64,6.24005v48.72c.24,6.96-1.56,12.48-5.16,16.08-.12.12-.24.36-.36.48-.36.24-.6.48-.96.72C73.92,178.08,81.72,173.04,83.4,171.84A20.415,20.415,0,0,1,82.08,164.52v-60c.96-18.24,17.04-18.48,17.28-18.48,7.44-.36,12.36,5.28,13.56,6.6l2.04-.96.72-.24v30.84H100.92V111.12c0-2.64-.48-3.72-.96-4.2a1.48664,1.48664,0,0,0-.96-.48,1.303,1.303,0,0,0-1.08.48c-.96,1.08-1.08,3.84-1.08,4.8v44.4c-.24,3.36.48,4.8,1.08,5.4a1.29848,1.29848,0,0,0,.84.36,1.54065,1.54065,0,0,0,1.2-.48c1.2-1.32007,1.2-4.44006,1.08-5.52V141.84h-2.4V129.48h16.92v40.2c-.24.48-.48.96-.84,1.56a.37164.37164,0,0,1-.12.24,98379.86233,98379.86233,0,0,0-1.2,1.92.11753.11753,0,0,1-.12.12,20.533,20.533,0,0,1-4.44,5.04c2.04-1.2,9.12-5.64,10.68-6.6a22.39006,22.39006,0,0,1-1.44-7.92V99.12c.24-5.88,2.04-10.32,5.52-13.32a18.06821,18.06821,0,0,1,12.12-4.32c7.08,0,12.24,5.64,13.32,7.08l2.64-1.2.6-.24v35.04H137.64V106.68c0-2.64-.6-3.84-1.08-4.44a2.35693,2.35693,0,0,0-1.08-.48,1.09139,1.09139,0,0,0-.96.48c-1.08,1.08-1.2,3.96-1.2,4.92v48.6c-.24,3.48.48,4.92,1.08,5.52a1.48664,1.48664,0,0,0,.96.48,1.39137,1.39137,0,0,0,1.2-.48c1.2-1.32007,1.2-4.56006,1.2-5.64V141.72h-2.4V129.24h17.16v40.08a24.39848,24.39848,0,0,1-3.84,6.12c1.08,1.32,5.88,6.84,5.88,6.84V166.44h.36s2.4-.72,1.92-6.48V103.92s0-3.24-2.28-4.8l-.24-.12V82.92h.6a138.96111,138.96111,0,0,1,30.84,5.88l.36.12V122.16H174.84v-.48c.12-6.24-.72-15.96-3.48-17.28v24.84h7.92v12.48h-7.92v22.2c.12,0,.36-.24.72-.48,1.08-.84,3-4.08,2.64-15.36v-.6h11.64v26.64c2.04,1.56,11.04,8.16,11.04,8.16v-15.6l.36-.12c.12-.12,3.36-1.32,3.36-8.28V110.76c-.6.36-2.04,2.28-2.4,10.92v.48h-9.96V89.64l.72.24a172.17724,172.17724,0,0,1,37.8,16.44l.24.12v15.6h-9.48l-.12-.36c-.24-2.76-1.2-6.72-2.4-7.92v44.52s-.12,6.84,3.48,8.28l.36.12v7.92c1.8,1.08,10.8,5.64,10.8,5.64v-.96Z" fill="#00285e"/><path d="M29.4,134.16c0-9.12006-.12-27.48-.12-27.48,0-.12.24-5.28-2.64-6.36l-.36-.24005V84.84H19.32v.48Z" fill="#00285e"/><path d="M19.2,84.84h0Z" fill="#00285e"/><path d="M263.4,89.28v31.2H251.28V106.92c0-.12,0-3-1.56-4.56a3.35093,3.35093,0,0,0-2.64-1.08c-.12,0-3.72,0-3.72,6v10.56c0,.24-.36,5.52,2.52,7.44,0,0,4.8,3.36,11.88,8.4,0,0,5.76,4.56,5.52,14.16v19.44a15.07558,15.07558,0,0,1-4.08,9.84c-2.88,2.88-7.08,4.31995-12.6,4.2a16.90315,16.90315,0,0,1-12.24-5.4l-.36-.24-.36.24-2.76,2.16V151.2H243v7.68c0,.12-.12,3.6,1.68,5.4a2.84647,2.84647,0,0,0,2.4.84h-.12a3.10079,3.10079,0,0,0,2.16-.72c1.08-.96,1.8-2.75995,1.8-5.28v-8.4c0-.24.48-6-3.36-8.28.12,0-10.92-7.67993-10.92-7.67993-.12-.12-5.88-3.84-6.12-14.28V102c0-.72-.48-15.72,16.44-16.8.12,0,8.4-.36,13.2,4.92l.12.12h.36Zm-16.44-5.16c-.36,0-.72.12-1.08.12a9.36166,9.36166,0,0,0-2.64.48c-14.16,3-13.68,17.16-13.68,17.28v18.48c.12,10.92,6.36,14.88,6.6,15.12l10.92,7.68c3.24,2.04,2.88,7.2,2.88,7.32v8.52a6.43756,6.43756,0,0,1-1.44,4.56,2.46151,2.46151,0,0,1-1.44.6,2.28131,2.28131,0,0,1-1.56-.6c-1.44-1.44-1.44-4.68-1.44-4.68v-8.76H230.04v30.12l.24-.24.48-.48,3.12-2.52a18.67268,18.67268,0,0,0,12.84,5.4c5.64,0,10.08-1.56006,13.2-4.68005a15.56744,15.56744,0,0,0,4.44-10.44V147.96c.12-10.08-5.76-14.88-6-15-7.08-5.04-11.88-8.52-11.88-8.52a4.40046,4.40046,0,0,1-1.8-3.12c-.12-.6-.24-1.44-.36-1.92V118.08h0V107.4c.12-4.92,2.64-5.04,2.76-5.04a3.02782,3.02782,0,0,1,2.04.72,6.69349,6.69349,0,0,1,1.2,3.84v14.64h14.16V87.84l-.6.24-3,1.08C255.48,83.88,247.32,84.12,246.96,84.12Z" fill="#fff"/><path d="M260.16,90.12c-4.8-5.28-13.08-4.92-13.08-4.92C230.16,86.4,230.52,101.4,230.52,102v18.48c.24,10.44,6.12,14.16,6.24,14.28l10.92,7.67993c3.84,2.28,3.36,8.04,3.36,8.28v8.4c-.12,2.52-.72,4.31995-1.92,5.28a2.86712,2.86712,0,0,1-2.04.72,3.668,3.668,0,0,1-2.4-.84c-1.68-1.8-1.56-5.28-1.56-5.4V151.2H231V178.08l2.76-2.16.36-.24.24.24a17.248,17.248,0,0,0,12.36,5.4c5.4.12,9.6-1.43994,12.6-4.2a15.07558,15.07558,0,0,0,4.08-9.84V147.84c.12-9.6-5.52-14.16-5.64-14.16-7.08-5.04-11.88-8.4-11.88-8.4-2.76-1.92-2.52-7.2-2.52-7.44V107.28c.12-6,3.6-6,3.72-6a3.61516,3.61516,0,0,1,2.76,1.08c1.56,1.56,1.44,4.44,1.44,4.56v13.56h12.24V89.28l-2.76.96h-.24Z" fill="#fdb927"/><path d="M99.24,181.32q-7.38,0-11.52-4.32c-4.92-5.04-4.8-12.72-4.8-12.72V104.4c.96-17.28,15.6-17.52,16.32-17.52,7.92-.36,12.96,6.48,12.96,6.6l.24.24.36-.12,1.8-.84v28.32H101.88v-10.2a6.85978,6.85978,0,0,0-1.32-5.04,2.82389,2.82389,0,0,0-1.68-.72,2.44225,2.44225,0,0,0-1.8.72c-1.56,1.68005-1.32,5.4-1.32,5.64v44.16c-.24,3,.24,5.16,1.32,6.24a2.60164,2.60164,0,0,0,1.68.84,2.70514,2.70514,0,0,0,1.92-.96c1.68-1.92,1.32-6.12,1.32-6.24V140.64H99.6V130.32h14.88V169.2C109.08,181.68,99.72,181.44,99.24,181.32Zm14.28-7.8v-.12c.24-.36.36-.6.6-.96s.36-.6.6-.96a.25808.25808,0,0,1,.24-.24,9.04979,9.04979,0,0,1,.72-1.56v-40.2H98.76v12.36h2.4v14.04c.12,1.08.12,4.2-1.08,5.52a1.26373,1.26373,0,0,1-1.2.48,1.55585,1.55585,0,0,1-.84-.36c-.6-.6-1.32-2.16-1.08-5.4v-44.4c0-.96.12-3.72,1.2-4.8a1.09142,1.09142,0,0,1,.96-.48,1.48662,1.48662,0,0,1,.96.48c.48.48,1.08,1.56,1.08,4.2v11.16h14.76V91.44l-.84.24-2.04.96c-1.08-1.32-6.12-6.96-13.56-6.6-.12,0-16.2.24-17.28,18.48v59.76A20.894,20.894,0,0,0,83.52,171.72a17.78722,17.78722,0,0,0,3.72,6q4.5,4.68,12.24,4.68005a15.76232,15.76232,0,0,0,9.24-3.36c.24-.12.36-.36.6-.48A40.331,40.331,0,0,0,113.52,173.52Z" fill="#fff"/><path d="M114.48,169.32V130.44H99.6v10.32H102v14.88c0,.24.36,4.43994-1.32,6.24a3.26658,3.26658,0,0,1-1.92.96,2.82394,2.82394,0,0,1-1.68-.72c-1.08-1.2-1.56-3.24-1.32-6.24V111.6c0-.12-.24-3.96,1.32-5.52a2.15911,2.15911,0,0,1,1.8-.84,2.6016,2.6016,0,0,1,1.68.84c.96.96,1.32,2.64,1.32,5.04V121.2H114.6V92.88l-1.8.84-.36.12-.24-.24c-.12-.12-5.04-6.96-12.96-6.6-.6,0-15.36.24-16.32,17.52v59.76c0,.11993-.12,7.79993,4.8,12.84,2.76,2.76,6.6,4.31995,11.52,4.31995C99.72,181.43994,109.08,181.68,114.48,169.32Z" fill="#fdb927"/><path d="M62.4,181.43994A14.26685,14.26685,0,0,1,51.72,177.12c-5.52-6-4.68-16.44-4.68-16.44V125.76c0-1.56006-.36-2.64-1.2-3.24a2.01406,2.01406,0,0,0-1.56-.48V108.48c5.28-3.72,13.68-7.56,16.08-8.64v13.44c-1.32,1.8-1.08,7.44-1.08,8.16v34.68c-.12,3.12.48,5.28,1.56,6.24a2.21719,2.21719,0,0,0,1.68.48,1.71923,1.71923,0,0,0,1.2-.48c1.44-1.44,1.44-5.64,1.44-6.12V115.92c0-1.68-.24-2.64-.84-3.24-.24-.12-.36-.24-.6-.24V98.52a109.01528,109.01528,0,0,1,16.56-6.6v14.16c-3.12,2.16-3,6.84-2.88,6.96v48.6c.24,6.84-1.44,12-4.8,15.48A15.58765,15.58765,0,0,1,62.4,181.43994Zm10.92-3.6q5.4-5.58,5.04-16.2V112.92s-.24-4.44,2.64-6.24l.24-.12V90.48l-.6.24c-.12,0-6.24,1.44-17.76,6.84l-.24.12v15.6l.6-.12a.92876.92876,0,0,1,.36.12c.24.24005.6.84.48,2.4v40.44c0,1.2-.12,4.56-1.2,5.4a.90971.90971,0,0,1-.48.24h-.12a.94.94,0,0,1-.84-.24c-.48-.48-1.32-1.8-1.2-5.4v-34.8c-.12-2.4.12-6.6.96-7.56l.12-.12V98.28l-.6.36c-.12,0-11.04,4.68-17.16,9.12l-.24.12v15.36l.6-.24a1.773,1.773,0,0,1,1.32.12q.72.54.72,2.52v34.79993c0,.48-.72,9.6,3.96,16.08008.36.36.6.72.96,1.08a14.66285,14.66285,0,0,0,11.4,4.68,16.69811,16.69811,0,0,0,7.68-2.16c.6-.36,1.2-.84,1.92-1.32.24-.24.6-.48.84-.72C72.96,178.08,73.08,177.96,73.32,177.84Z" fill="#fff"/><path d="M77.28,161.64v-48.6c0-.24-.24-4.92,2.88-6.96V91.92A102.29762,102.29762,0,0,0,63.6,98.4v13.92c.12.12.36.12.6.36.72.48.96,1.56.96,3.12,0,0-.12,40.44-.12,40.32,0,.48.12,4.8-1.44,6.12a1.66634,1.66634,0,0,1-1.2.6,2.91522,2.91522,0,0,1-1.68-.6c-1.08-.96-1.56-3-1.56-6.12V121.43994c0-.72-.24-6.36,1.2-8.16V99.96a106.69124,106.69124,0,0,0-16.08,8.64v13.56a2.30582,2.30582,0,0,1,1.44.48c.84.6,1.2,1.67993,1.2,3.24v34.91992c0,.12006-.84,10.44006,4.68,16.44006,2.52,2.88,6.12,4.2,10.68,4.32a15.58753,15.58753,0,0,0,10.2-4.32C75.96,173.64,77.52,168.48,77.28,161.64Z" fill="#fdb927"/><path d="M140.4,9.12,178.56,41.4l2.4,1.92-4.68-1.92-19.92-8.28v10.8l-2.4-2.4-7.32-7.2L144,41.64l-2.88,7.8-3.36-7.8-3.48-7.8-8.4,6.84-2.52-8.4-22.08,8.76ZM95.88,41.52l-1.2.96.24.24-.24.12s-27,22.2-29.16,24c1.2-.36,2.4-.72,3.84-1.2a228.14283,228.14283,0,0,1,31.8-7.8Q109.8,56.4,118.44,55.68c5.4-.6,10.92-.84,16.32-.96.36,0,35.4-1.8,77.16,14.4,2.04.72,4.2,1.56,6.24,2.4L183.72,42.24l.24-.36-1.2-.96-.12-.12-42.36-36L95.88,41.28Z" fill="#00285e"/><polygon points="125.88 40.8 134.28 33.84 137.76 41.76 141.12 49.56 144 41.64 146.64 34.44 153.96 41.64 156.36 43.92 156.36 33.12 176.28 41.4 180.96 43.32 178.56 41.4 140.4 9.12 101.28 41.04 123.36 32.28 125.88 40.8" fill="#fff"/></svg>