<?xml version="1.0" encoding="UTF-8" standalone="no"?>
<svg xmlns:rdf="http://www.w3.org/1999/02/22-rdf-syntax-ns#" xmlns="http://www.w3.org/2000/svg" height="262.67999" width="262.67999" version="1.1" xmlns:cc="http://creativecommons.org/ns#" xmlns:dc="http://purl.org/dc/elements/1.1/" viewBox="0 0 262.67999 262.67999"><path d="M262.68,131.3042A131.34,131.34,0,1,1,131.37579,0,131.30942,131.30942,0,0,1,262.68,131.3042Z" fill="#bec0c2"/><path d="M255.16257,131.3042a123.73186,123.73186,0,1,1,0-.10987Q255.1626,131.24926,255.16257,131.3042Z" fill="#002d62"/><path d="M131.37579,13.31654a117.98765,117.98765,0,1,0,117.916,117.98763A117.957,117.957,0,0,0,131.37579,13.31654Z" fill="#fdbb30"/><path d="M212.13432,131.3042c0,45.53406-36.22679,82.4768-80.75853,82.4768-44.67492,0-80.75853-36.94272-80.75853-82.4768S86.70087,48.899,131.37579,48.899C175.97912,48.899,212.13432,85.77013,212.13432,131.3042Z" fill="#002d62"/><path d="M206.97953,131.3042c0,42.5987-33.79257,77.10721-75.60373,77.10721-41.73955,0-75.60373-34.50852-75.60373-77.10721S89.56464,54.197,131.37579,54.197,206.97953,88.7055,206.97953,131.3042Z" fill="#fff"/><polygon points="48.469 108.251 47.682 111.258 23.555 105.315 24.342 102.237 48.469 108.251" fill="#002d62"/><polygon points="51.834 71.165 62.216 79.112 60.426 81.474 40.737 66.368 41.74 65.008 55.987 68.731 45.248 60.497 47.038 58.135 66.726 73.17 65.795 74.601 51.834 71.165" fill="#002d62"/><path d="M77.2504,33.005l4.86842-2.50581c2.07624-1.07392,4.65364-1.00232,6.01393,1.57508,3.07856,6.15712,4.51045,8.80612,7.6606,14.82a4.05706,4.05706,0,0,1-2.14784,5.58437l-5.08321,2.5774ZM90.209,51.19l1.2887-.71594a2.0626,2.0626,0,0,0,1.15888-2.67686q-.0378-.09551-.085-.18692c-2.5774-5.01161-4.43886-8.59133-7.01625-13.67454a1.95146,1.95146,0,0,0-2.60155-.921q-.06056.0289-.119.0619l-1.50349.78754Z" fill="#002d62"/><polygon points="128.226 43.601 125.147 43.816 123.715 18.973 127.009 18.758 128.226 43.601" fill="#002d62"/><path d="M164.45243,50.18766l1.07391-4.79683-4.15247-1.57508-2.50581,4.22407-2.93538-1.14551,13.245-21.54993,3.07856,1.14551L167.531,51.33321ZM167.889,33.21977l-.14318-.07159-5.08322,8.37659,3.36495,1.21711Z" fill="#002d62"/><polygon points="201.395 59.853 191.802 68.874 189.725 66.726 207.839 49.687 208.913 50.832 202.97 64.435 212.922 55.056 214.926 57.204 196.813 74.243 195.668 73.026 201.395 59.853" fill="#002d62"/><path d="M213.781,106.103l4.36727-2.21943-1.43189-4.22407-4.86842.78754-1.00232-3.007,25.12964-3.36494,1.07391,3.07856-22.19428,12.09946Zm15.3928-7.947-.14318-.21478-9.66526,1.36029,1.14552,3.36494Z" fill="#002d62"/><path d="M32.50387,183.13857l-1.50348-2.86377,21.97949-11.38353,3.65132,6.94467c.71594,1.43189.358,2.50581-.71594,3.07856-3.93769,2.00464-5.94234,3.07856-9.88,5.15481a2.00119,2.00119,0,0,1-2.86378-1.00232L40.952,178.77132Zm10.81076-5.656,1.78986,3.36495,8.80612-4.65363L52.12075,172.829Z" fill="#002d62"/><path d="M65.29413,222.65871l2.43421-4.29567-3.57972-2.79218L60.4973,218.7926l-2.43421-1.933,19.04412-16.60991,2.5774,2.07625L67.87153,224.66336Zm8.51974-15.178-.14319-.21477L66.368,213.70941l2.79218,2.21943Z" fill="#002d62"/><path d="M109.3963,233.7558l3.15015.78754-1.57508,6.3719a1.97732,1.97732,0,0,1-2.34407,1.52478q-.04532-.00959-.09014-.0213c-2.21943-.50116-3.72291-.93073-6.01393-1.50348a2.01777,2.01777,0,0,1-1.52734-2.41041q.01076-.048.02385-.09541c1.93305-7.8754,3.007-12.24264,4.94-20.118a1.97731,1.97731,0,0,1,2.344-1.5248q.04534.00961.09018.02132c2.21943.50116,3.79451,1.00232,6.08553,1.50348a2.02836,2.02836,0,0,1,1.43844,2.4818l-.00655.024-1.2171,5.01161-3.15015-.716L112.618,220.654l-3.72291-.85913-4.582,18.90093,3.72291.85913Z" fill="#002d62"/><polygon points="155.145 242.276 147.127 243.779 142.831 219.294 150.706 217.862 151.136 220.511 146.339 221.298 147.771 229.317 152.281 228.529 152.711 231.178 148.272 231.966 149.847 240.486 154.572 239.698 155.145 242.276" fill="#002d62"/><path d="M191.7299,226.668l-2.72059,1.71827L175.0484,207.83866l6.80147-4.65363a1.90008,1.90008,0,0,1,2.93538.57275c1.933,2.79218,3.22175,4.65363,5.15481,7.51742a1.95524,1.95524,0,0,1-.57275,2.93538l-.358.28638,9.09249,7.80379-2.93538,2.00464-10.238-9.0209-.07159-1.14552,2.14784-1.43189-4.51045-6.58669-3.36495,2.291Z" fill="#002d62"/><path d="M217.00274,189.15251l4.94,3.15015,1.43189-2.291-4.79683-3.07856-9.23569.50116a2.5588,2.5588,0,0,1-1.64668-.358c-1.78986-1.14552-2.5774-1.71827-4.582-2.86377a1.94336,1.94336,0,0,1-.59753-2.68259l.02478-.038c.93073-1.64668,1.78986-2.86377,2.79218-4.43886a1.88184,1.88184,0,0,1,2.79218-.57275l4.36727,2.79218-1.71827,2.649-3.7945-2.4342-1.43189,2.36261,3.7229,2.291,8.80612-.57275a3.31587,3.31587,0,0,1,2.21943.50116c2.291,1.50348,3.07856,1.933,5.51277,3.43654a2.01308,2.01308,0,0,1,.716,2.72059c-1.00232,1.64668-1.78986,2.86377-2.86377,4.43886a1.89966,1.89966,0,0,1-2.79218.57275l-5.44117-3.50813Z" fill="#002d62"/><path d="M107.24847,84.4814l-20.476,92.78642h40.52245s4.51045-18.47136,4.86842-20.118H149.704c13.17338.07159,23.91254-4.36727,31.14358-12.887,13.245-14.39048,10.95394-35.36765,1.00232-47.39552A36.81806,36.81806,0,0,0,152.99732,83.4791H107.46325Z" fill="#bec0c2"/><path d="M129.228,153.49847l-4.86842,20.118H91.3545l19.04412-86.34289h42.5271A33.0445,33.0445,0,0,1,178.9861,99.37308c9.45046,11.38352,10.38119,30.356-.93073,42.59869-6.94467,8.09017-17.18266,11.74148-28.3514,11.5983Z" fill="#002d62"/><path d="M105.95977,107.03368h18.61455c2.14784,0,4.43886,1.71827,3.50813,4.51045a27.00346,27.00346,0,0,0-1.36029,5.51278c-.14319,1.36029,1.43189,2.291,2.291,2.291h38.01666c.716,0,1.07391-.21478,1.07391-.57276a11.45269,11.45269,0,0,0-.21477-2.43421c-.14318-.78754-.21477-1.00232-.93073-1.00232-4.72524,0-6.65828-2.14784-11.66989-5.298-4.94-3.22175-12.24265-5.08321-18.543-5.08321H106.24615Z" fill="#fdbb30"/><path d="M129.01318,131.59054a32.50038,32.50038,0,0,1-1.64667-4.65364c-.42957-1.93305-2.14784-3.50813-5.08321-3.50813H102.30845l.57276-2.21943,64.793.07159c.57275,0,.50116.28638.42957,1.00232,0,.71594-.21477,2.00464-.28638,2.79218-.07159.85913-.716.64435-1.2887.64435a10.45285,10.45285,0,0,0-5.79915,1.57508c-2.649,2.07624-8.44815,5.656-11.5983,6.58668C145.62309,134.88392,132.80769,138.89321,129.01318,131.59054Z" fill="#fdbb30"/><path d="M98.80033,139.7523H132.5929a6.12182,6.12182,0,0,1,3.79451,1.14551,30.8671,30.8671,0,0,0,10.52438,5.22639c1.71827.57276,4.79682-.14319,7.51741-1.64667,6.72988-3.8661,11.09714-11.09714,12.60062-15.82237.358-1.2171-.358-1.14551-1.21711-1.07392-2.86377.21478-5.87074,2.79218-9.80844,5.36958-4.00929,2.43421-11.95628,4.86842-19.61688,4.86842H99.30149Z" fill="#fdbb30"/><path d="M148.48687,94.43306a6.59933,6.59933,0,0,1,3.07856.14319c6.5151,2.5774,12.529,9.23568,15.10643,16.32353.50116,1.43189.64434,2.21943,0,2.291-2.93538.358-4.22406-1.14551-7.80379-3.43653a40.363,40.363,0,0,0-11.02554-5.298c-4.36727-1.36029-12.24265-1.64667-13.17338-1.64667-1.00232,0-.93073-.42957-.50116-.85913A26.5164,26.5164,0,0,1,148.48687,94.43306Z" fill="#fdbb30"/><path d="M179.27248,118.77517a.69215.69215,0,0,1-.64434.64435h-7.44583c-.93073,0-.93073-.42957-.93073-1.00232a10.83843,10.83843,0,0,1-.21477-2.291c0-.57276-.28638-1.2887.57275-1.64667a11.768,11.768,0,0,0,4.86842-4.65364c.21477-.57276.716-1.50349,1.21711-.71594C178.55653,111.90211,179.12928,115.33864,179.27248,118.77517Z" fill="#fdbb30"/><path d="M176.62348,132.09173c-.07159.28638-.64434.50116-.716,0a11.398,11.398,0,0,0-5.44117-5.79915c-.50116-.28638-.50116-.64435-.50116-1.2171.07159-.50116.28638-2.21943.358-2.86378,0-.57276.28638-1.00232.716-1.00232h7.73219c.21477,0,.57275.28638.57275.42957A24.34141,24.34141,0,0,1,176.62348,132.09173Z" fill="#fdbb30"/><path d="M156.577,146.55381c-.57275.14319-1.78986-.07159.07159-1.14551,5.58436-3.29335,10.66757-10.88236,11.95628-15.32121.57275-1.71827.57275-1.78986,1.2887-1.57508a7.81275,7.81275,0,0,1,3.29334,2.79218c1.00232,1.43189,1.50348,4.29566.85913,5.01161A26.42841,26.42841,0,0,1,156.577,146.55381Z" fill="#fdbb30"/><path d="M170.82433,111.9737c-1.2887.71594-1.57509.50116-1.86145-.42957-2.4342-8.51974-9.66526-14.89164-12.60062-16.82469-.50116-.28638-.42957-.57276,0-.50116,7.01626,1.00232,13.96091,4.79682,17.39745,10.02322C175.83594,107.24847,172.113,111.25775,170.82433,111.9737Z" fill="#fdbb30"/></svg>