<?xml version="1.0" encoding="UTF-8" standalone="no"?>
<svg xmlns:rdf="http://www.w3.org/1999/02/22-rdf-syntax-ns#" xmlns="http://www.w3.org/2000/svg" height="184.08002" width="246.47999" version="1.1" xmlns:cc="http://creativecommons.org/ns#" xmlns:dc="http://purl.org/dc/elements/1.1/" viewBox="0 0 246.47999 184.08002"><path d="M101.4,14.16c.12.12.36.12.48.24-5.76.48-11.52,1.08-16.92,1.92A15.66155,15.66155,0,0,1,101.4,14.16Zm60.24,2.16c-5.52-.84-11.16-1.56-16.92-1.92.12-.12.24-.12.48-.24A15.41452,15.41452,0,0,1,161.64,16.32Zm83.64,54.12.84.24V56.76a20.57664,20.57664,0,0,0-1.2-6.48,19.41308,19.41308,0,0,0-3.24-6,25.22473,25.22473,0,0,0-4.32-4.44,21.41769,21.41769,0,0,0-4.68-2.88c-1.08-.72-3.24-1.8-9-3.96-4.8-1.92-12.72-4.92-22.8-7.92a303.16117,303.16117,0,0,0-34.44-8.04h0c-.12-.12-9-11.28-22.32-5.52q-.72.36-1.44.72a8.43133,8.43133,0,0,1-7.08.84c-2.04-.48-4.56-1.8-3.48-6.24a4.86042,4.86042,0,0,1,2.28-3,3.38017,3.38017,0,0,1,2.64-.36c1.8.48,2.64,1.56,2.28,3a1.59275,1.59275,0,0,1-.96,1.32,1.71876,1.71876,0,0,1-1.8-.36,1.50109,1.50109,0,0,0-2.04.36,1.47242,1.47242,0,0,0,.36,1.92,4.62293,4.62293,0,0,0,4.56.72,5.39948,5.39948,0,0,0,2.76-3.48c.12-1.08.36-4.8-4.32-6.12a5.48645,5.48645,0,0,0-4.92.6,7.6589,7.6589,0,0,0-3.6,4.8v.12A13.19812,13.19812,0,0,0,127.92,4.68L123.24,0l-4.56,4.68A12.17794,12.17794,0,0,0,117.24,6.36v-.12a8.10022,8.10022,0,0,0-3.6-4.8,5.53172,5.53172,0,0,0-4.92-.6c-4.8,1.32-4.44,5.04-4.32,6.12a4.77066,4.77066,0,0,0,2.76,3.48,4.37049,4.37049,0,0,0,4.44-.72,1.38773,1.38773,0,0,0,.48-1.92,1.50109,1.50109,0,0,0-2.04-.36,1.79327,1.79327,0,0,1-1.8.36,2.00827,2.00827,0,0,1-1.08-1.32c-.24-1.44.48-2.4,2.28-3a3.67683,3.67683,0,0,1,2.76.36,5.34472,5.34472,0,0,1,2.28,3c1.08,4.44-1.56,5.76-3.48,6.24-3.48.96-5.16.12-7.2-.84a13.07734,13.07734,0,0,0-1.32-.72c-13.32-5.64-22.2,5.4-22.32,5.52l-.12.12a293.06577,293.06577,0,0,0-33.12,7.68A250.82848,250.82848,0,0,0,15.24,36.48l-1.92.84v.24c-.72.24-1.56.48-2.4.84-3,1.32-5.88,2.76-8.76,4.2L0,43.68V51.36a9.15516,9.15516,0,0,0,1.08,4.56,2.51026,2.51026,0,0,1,.48.72v8.4A11.84112,11.84112,0,0,0,.12,70.56a7.85689,7.85689,0,0,0,1.44,4.8V92.88l.24.48a19.26582,19.26582,0,0,0,11.16,10.8l-.24.12s4.44,7.08,11.16,8.52l-1.32.6a22.68068,22.68068,0,0,0,14.16,9.36l-1.44.72a27.84678,27.84678,0,0,0,15.36,7.56,76.2888,76.2888,0,0,0,145.32,0,27.78979,27.78979,0,0,0,15.24-7.56l-1.32-.72c9.24-1.68,14.04-9.36,14.04-9.36l-1.32-.6c6.84-1.43994,11.16-8.52,11.16-8.52l.48-.6a19.8071,19.8071,0,0,0,12.24-18V76.8A18.70636,18.70636,0,0,0,245.28,70.44Z" fill="#b4975a"/><path d="M238.92,64.44,243,66.12V56.76a16.50447,16.50447,0,0,0-.96-5.4,19.35377,19.35377,0,0,0-2.76-5.16,29.94663,29.94663,0,0,0-3.84-3.96,19.38419,19.38419,0,0,0-4.32-2.52c-.84-.6-2.88-1.68005-8.52-3.84-4.8-1.92-12.6-4.8-22.68-7.8-16.44-4.92-41.16-10.68-67.08-11.16a5.3211,5.3211,0,0,0-3.96-3.48,10.57189,10.57189,0,0,0-3.24-6.6l-2.4-2.4-2.4,2.4a11.32191,11.32191,0,0,0-3.12,6.6,5.2758,5.2758,0,0,0-4.08,3.48c-25.32.48-49.68,6.12-65.88,10.92a264.12656,264.12656,0,0,0-31.32,11.4v1.92a1.72906,1.72906,0,0,1-.36-.24A6.07743,6.07743,0,0,0,14.52,40.68a5.56468,5.56468,0,0,0-2.28.48c-2.88,1.32-5.76,2.76-8.64,4.2l-.48.24v5.76a5.84573,5.84573,0,0,0,.72,3,6.59559,6.59559,0,0,0,.84,1.08V65.76a9.59328,9.59328,0,0,0-1.44,4.8,4.52784,4.52784,0,0,0,1.44,3.6V92.28a16.56789,16.56789,0,0,0,11.4,9.6,1.08135,1.08135,0,0,1,.6.12006h.12a17.07246,17.07246,0,0,0,4.44.36c-1.56.72-3,1.43994-4.56,2.28,0,.12,4.56,7.56,15.48,6.48-1.8.84-3.6,1.68-5.4,2.64,0,.12,5.16,7.44,16.68,7.2-2.64,1.32-4.2,2.16-4.2,2.16a22.37206,22.37206,0,0,0,13.92,5.76,73.27134,73.27134,0,0,0,140.28,0,22.81977,22.81977,0,0,0,13.92-5.76s-1.68-.84-4.32-2.16c11.52.24,16.8-7.08,16.8-7.2-1.8-.96-3.6-1.8-5.4-2.64,10.92,1.08,15.48-6.36,15.48-6.48-1.56-.84-3-1.56-4.56-2.28a16.32577,16.32577,0,0,0,9.12-2.16c5.76-3.24,9-9.24,9-14.52V76.8C243.48,71.04,238.92,64.44,238.92,64.44Z" fill="#002b5c"/><path d="M171.96,135.12006c1.44.96,2.76,2.03992,4.2,3.11993,0-.11993-16.32,4.44-27.96-.6a5.60253,5.60253,0,0,0-1.2-.6,24.60248,24.60248,0,0,1-47.4,0,6.42809,6.42809,0,0,0-1.32.6c-11.52,5.04-27.84.48-27.84.6,1.44-1.08,2.76-2.16,4.08-3.11993A33.31221,33.31221,0,0,1,60.12,133.8a68.29648,68.29648,0,0,0,126.36,0A33.67458,33.67458,0,0,1,171.96,135.12006Z" fill="#e31837"/><path d="M116.52,24a5.84727,5.84727,0,0,1-2.76-2.88c-40.92.96-81.84,15.72-81.72,16.32a3.84644,3.84644,0,0,0-2.76,3.24v1.44A256.25132,256.25132,0,0,1,116.52,24.6Z" fill="#fff"/><path d="M217.08,38.4c.12-.6-42.84-16.32-84.24-17.28A6.4111,6.4111,0,0,1,130.08,24v.6a265.84494,265.84494,0,0,1,89.76,18.48V41.64A4.14077,4.14077,0,0,0,217.08,38.4Z" fill="#fff"/><path d="M127.8,16.68c-2.64-.36-3.12,3.36-3.24,4.68005h-.84c.12-3.6,1.8-5.04,1.8-7.44s-2.28-4.68-2.28-4.68-2.16,2.28-2.16,4.68,1.68,3.84,1.68,7.44h-.84c0-1.32-.48-5.04-3.12-4.68005-2.88.24005-2.52,4.32,0,4.56006,0,0-.48-1.8.96-1.8.96,0,1.32,1.32,1.32,1.92h-1.2V22.8h2.76A2.44448,2.44448,0,0,1,121.32,24.48a1.6812,1.6812,0,0,0,1.2.84,2.59676,2.59676,0,0,0,.72,1.68,2.59676,2.59676,0,0,0,.72-1.68,2.09844,2.09844,0,0,0,1.32-.84A2.44448,2.44448,0,0,1,123.96,22.8h2.76V21.36h-1.2c0-.6.24-1.92,1.32-1.92,1.44,0,.96,1.8.96,1.8C130.32,21,130.68,16.92,127.8,16.68Z" fill="#e31837"/><path d="M109.8,57.96a3.83275,3.83275,0,0,1-.36,1.68,7.76752,7.76752,0,0,1-.96,1.08,3.75384,3.75384,0,0,1-1.2.6,2.7353,2.7353,0,0,1-1.32.36,5.84262,5.84262,0,0,1-1.44-.12,3.59367,3.59367,0,0,1-1.2-.48,2.83287,2.83287,0,0,1-.96-1.08,3.00227,3.00227,0,0,1-.36-1.56v-22.2a3.00251,3.00251,0,0,1,.36-1.56006,4.69838,4.69838,0,0,1,.96-1.2,10.55323,10.55323,0,0,1,1.2-.72,6.02348,6.02348,0,0,1,1.44-.24,4.92248,4.92248,0,0,1,1.32.12,3.59375,3.59375,0,0,1,1.2.48,2.83374,2.83374,0,0,1,.96,1.08,3.00213,3.00213,0,0,1,.36,1.56Zm4.92-13.68V35.4a6.799,6.799,0,0,0-.72-3.24A4.84108,4.84108,0,0,0,112.08,30a5.27593,5.27593,0,0,0-2.76-1.2,10.35341,10.35341,0,0,0-3.36-.24,10.56762,10.56762,0,0,0-3.48.6,8.731,8.731,0,0,0-2.76,1.56,7.828,7.828,0,0,0-1.92,2.52,7.1444,7.1444,0,0,0-.72,3.24V45.36a2.19685,2.19685,0,0,0-1.56,2.04,1.81739,1.81739,0,0,0,1.56,1.8v9.84A6.79947,6.79947,0,0,0,97.8,62.28a6.57562,6.57562,0,0,0,1.92,2.16,8.28987,8.28987,0,0,0,2.76,1.08,11.0243,11.0243,0,0,0,3.48.12,10.40952,10.40952,0,0,0,3.36-.6A8.567,8.567,0,0,0,112.08,63.6,7.38553,7.38553,0,0,0,114,61.2a7.1443,7.1443,0,0,0,.72-3.24V48a1.94,1.94,0,0,0,1.68-1.92A1.7435,1.7435,0,0,0,114.72,44.28Z" fill="#fff"/><path d="M20.76,68.16s0,.12-.12,0v-.12c-.24-.36-6-19.8-6.36-20.64-.24-.84-.48-1.32-.48-1.44a1.02027,1.02027,0,0,0-.36-.6,2.3428,2.3428,0,0,0-.84.12c-1.8.84-3.48,1.68-5.28,2.52v1.68a3.011,3.011,0,0,0,.24,1.2c.24.24005.36.48.6.48A1.73442,1.73442,0,0,0,9,51.6V66.36a3.40592,3.40592,0,0,0-1.56,2.52A1.15647,1.15647,0,0,0,9,70.08V90.96c1.32-.72,2.64-1.32,3.96-2.04V62.88a.52556.52556,0,0,1,.12-.36c0,.12,0,.12.12.12a8.09046,8.09046,0,0,0,.48,1.44c.24.84,6,19.8,6,20.04a4.70289,4.70289,0,0,0,.48,1.08c.24.36.48.36.84.24.96-.48,1.92-.84,2.76-1.2a1.26881,1.26881,0,0,0,.84-.72,1.91513,1.91513,0,0,0,.36-.96V62.88a3.02958,3.02958,0,0,0,1.32-2.28,1.19771,1.19771,0,0,0-1.32-1.32V44.76a.89917.89917,0,0,1,.12-.6c.12-.24.24-.36.36-.6a4.18788,4.18788,0,0,0,.72-1.08,3.32191,3.32191,0,0,0,.36-1.56V39.6c-1.92.72-3.84,1.56-5.76,2.4Z" fill="#fff"/><path d="M214.2,68.4c0,.12,0,.12-.12.12a.419.419,0,0,0-.12-.24l-.72-2.88c-.36-1.32-.84-3-1.32-4.8-.48-1.92-1.08-3.84-1.56-5.88-.6-2.04-1.08-3.84-1.56-5.52-.48-1.8-.96-3.12-1.2-4.32-.36-1.2-.48-1.8-.48-1.8a2.41287,2.41287,0,0,0-.48-.96c-.12-.24-.48-.36-.84-.48q-2.7-.90005-5.4-1.8v1.68a2.37345,2.37345,0,0,0,.24,1.32,9.51918,9.51918,0,0,0,.48,1.08c.24.24.6.48.84.72V56.16a1.35647,1.35647,0,0,0-1.56,1.44,2.818,2.818,0,0,0,1.56,2.28V76.8c1.44.48,2.88.84,4.32,1.32V54.72c0,.12,0,.12.12.24a15.69237,15.69237,0,0,0,.48,1.68c.24,1.2.72,2.52,1.2,4.2s.96,3.6,1.56,5.52c.48,2.04,1.08,3.84,1.56,5.64.48,1.68.84,3.24005,1.2,4.44a13.21152,13.21152,0,0,0,.72,2.16,5.94017,5.94017,0,0,0,.48,1.56,1.44956,1.44956,0,0,0,.84.84c.96.36,1.8.72,2.76,1.08.36.12.72.12.84-.12a.85526.85526,0,0,0,.36-.72V65.64a1.259,1.259,0,0,0,1.32-1.32,3.48561,3.48561,0,0,0-1.32-2.4V50.76c0-.36,0-.48.12-.6a.92144.92144,0,0,1,.36-.24,1.902,1.902,0,0,0,1.08-1.8V46.8a56.18677,56.18677,0,0,0-5.76-2.16Z" fill="#fff"/><path d="M238.32,72.12006a23.08254,23.08254,0,0,0-2.16-3.72,29.20654,29.20654,0,0,0-2.4-3c.12-.12.12-.24.12-.48a3.40971,3.40971,0,0,0-1.8-2.76,2.03426,2.03426,0,0,0-1.2,0,2.10714,2.10714,0,0,0-.48-.6c-.84-.96-1.56-1.8-2.16-2.64a4.11982,4.11982,0,0,1-.84-2.28V48.96a1.39851,1.39851,0,0,1,.24-.84c.24-.24005.6-.24005.84-.36h1.08q.54.18,1.08.36a4.86334,4.86334,0,0,1,1.08.6c.36.24.72.6,1.08.84a6.59766,6.59766,0,0,1,.84,1.08,2.37334,2.37334,0,0,1,.24,1.2v1.8a4.0923,4.0923,0,0,0,.84,2.28,4.57759,4.57759,0,0,0,1.92,1.8,17.00071,17.00071,0,0,1,2.16.96v-3.6a11.149,11.149,0,0,0-.6-3.48,13.24919,13.24919,0,0,0-1.8-3.12,17.35219,17.35219,0,0,0-2.52-2.64,16.19711,16.19711,0,0,0-3.12-1.8,10.24567,10.24567,0,0,0-3.24-1.08,5.65584,5.65584,0,0,0-2.52.24,3.53886,3.53886,0,0,0-1.68,1.56,7.59135,7.59135,0,0,0-.6,3.12v6.36a8.5335,8.5335,0,0,0,.84,3.84,19.98465,19.98465,0,0,0,2.16,3.36,34.17112,34.17112,0,0,0,2.76,3.12c0,.24-.12.48-.12.72a3.40979,3.40979,0,0,0,1.8,2.76,1.23348,1.23348,0,0,0,1.44-.12A21.21924,21.21924,0,0,1,233.64,70.8a7.589,7.589,0,0,1,.84,3.12V83.04c0,.48-.12.84-.36.96a1.48141,1.48141,0,0,1-.96.48,3.69974,3.69974,0,0,1-1.2.12c-.36-.12-.84-.24-1.2-.36a8.07333,8.07333,0,0,1-1.32-.84,8.40772,8.40772,0,0,1-1.2-.96,8.07149,8.07149,0,0,1-.84-1.31995,2.31581,2.31581,0,0,1-.36-1.20007V77.76a3.626,3.626,0,0,0-.6-1.92,4.77308,4.77308,0,0,0-1.92-1.44c-.84-.36-1.56-.6-2.28-.96v3.72a8.60757,8.60757,0,0,0,.72,3.48,9.52207,9.52207,0,0,0,1.8,3,13.14882,13.14882,0,0,0,2.64,2.52,30.521,30.521,0,0,0,3.36,1.92,11.08929,11.08929,0,0,0,3.24.96,4.90846,4.90846,0,0,0,2.64,0,3.31291,3.31291,0,0,0,1.92-1.44,6.42713,6.42713,0,0,0,.6-2.88V75.96A9.27441,9.27441,0,0,0,238.32,72.12006Z" fill="#fff"/><path d="M74.28,51.12006c-.24,1.67993-.48,3.36-.6,5.04-.24,1.68-.48,3.12-.6,4.44s-.24,2.4-.36,3.12a7.76357,7.76357,0,0,1-.24,1.2Q71.94,61.5,71.4,58.8c-.24-1.8-.6-3.84-.96-6.12-.36-2.16-.84-4.43994-1.2-6.6s-.72-4.2-1.08-6-.72-3.36-.96-4.44c0-.24-.36-.48-.84-.6a3.96516,3.96516,0,0,0-1.68,0,13.45867,13.45867,0,0,0-1.56.6,2.26909,2.26909,0,0,0-.96,1.2,43.48452,43.48452,0,0,0-.84,4.68c-.36,2.04-.72,4.2-1.2,6.48q-.54,3.6-1.08,7.2c-.36,2.4-.72,4.68-1.08,6.6-.24,2.04-.6,4.2-.96,6.72-.12,0-.12-.36-.24-1.08s-.24-1.8-.36-3c-.24-1.2-.36-2.64-.6-4.2-.12-1.56006-.36-3.12-.6-4.8-.36-3.84-2.04-17.64-2.04-17.64-1.92.6-3.96,1.2-5.88,1.8v1.44a1.79173,1.79173,0,0,0,.36,1.2,1.59967,1.59967,0,0,0,.72.6c.12.12.36.12.48.24.12.24.12.36.24.6.48,3.96.84,7.56006,1.32,10.8a2.68106,2.68106,0,0,0-1.2,2.16,1.35647,1.35647,0,0,0,1.56,1.44.11752.11752,0,0,0,.12.12c.12,1.92.36,3.72.6,5.4.24,1.8.36,3.36.6,4.8.12,1.32.36,2.52.48,3.36a10.04049,10.04049,0,0,0,.12,1.44.65989.65989,0,0,0,.36.6c.12.24005.36.24005.72.24005,1.8-.48,3.6-1.08,5.52-1.44a1.38872,1.38872,0,0,0,.84-.6,7.12971,7.12971,0,0,0,.48-.96c1.44-8.28,2.76-16.44,4.2-24.72,1.32,7.56,2.64,15.24,4.08,22.8a5.21734,5.21734,0,0,0,.48.84,1.77941,1.77941,0,0,0,.84.12c1.92-.36,3.72-.72,5.52-1.08a1.93489,1.93489,0,0,0,.84-.48,3.05206,3.05206,0,0,0,.24-.84c0-.12.12-.6.24-1.55994.12-.84.24-2.04.48-3.6.12-1.44.36-3.12.48-4.92q.36-2.88007.72-5.76V51.6a2.30523,2.30523,0,0,0,1.68-2.16A1.42544,1.42544,0,0,0,79.2,48c.36-3.6.84-7.32,1.32-11.52a1.70568,1.70568,0,0,1,.24-.72c.12-.12.36-.24.48-.48a2.60211,2.60211,0,0,0,.72-.84A2.85029,2.85029,0,0,0,82.32,33V31.56c-2.04.24005-3.96.6-6,.96C76.32,32.52,74.64,47.04,74.28,51.12006Z" fill="#fff"/><path d="M191.04,60a.36487.36487,0,0,1-.48,0l-4.68-1.08c-.12-.12006-.36-.24005-.48-.36a1.08177,1.08177,0,0,1-.12-.6,3.83586,3.83586,0,0,1,.12-.84,18.829,18.829,0,0,0,.36-1.92c.12-.72.24-1.56.36-2.64.24-.96.36-1.92.6-3,.48-2.64.96-5.4,1.44-8.04h.12c.48,3,.96,5.88,1.44,8.88a30.14424,30.14424,0,0,1,.48,3.24c.24,1.08.36,2.04.48,2.88s.24,1.56.36,2.04a5.02089,5.02089,0,0,1,.12.84A.8991.8991,0,0,1,191.04,60Zm4.92-3.84a2.818,2.818,0,0,0-1.56-2.28q-.36-1.98-.72-3.96c-.36-1.92-.6-3.48-.84-5.04-.24-1.44-.48-2.64-.6-3.6S192,39.84,192,39.6a3.41611,3.41611,0,0,0-.72-1.68,3.68633,3.68633,0,0,0-1.8-1.2c-2.28-.48-4.44-1.08-6.6-1.56v1.08c0,1.43994.36,2.4,1.2,2.88.24.12.24.24.24.48v.72a7.76077,7.76077,0,0,0-.24,1.2c-.12.72-.36,1.68-.6,2.88s-.48,2.52-.84,4.08c-.12.72-.24,1.56-.36,2.28a1.49411,1.49411,0,0,0-1.92,1.44,2.32287,2.32287,0,0,0,1.2,2.04c-.96,4.8-3.12,16.31995-3.12,16.31995,1.56.24,3.12.6,4.56.96,0,0,1.44-7.8,1.44-8.04.12-.6.36-.84.84-.72,1.92.48,3.72.96,5.64,1.44l.72.36a1.78858,1.78858,0,0,1,.36.96c0,.12,1.08,8.64,1.08,8.64,1.68.48,3.24.96,4.92,1.44,0,0-2.04-12-3-18A1.35117,1.35117,0,0,0,195.96,56.16Z" fill="#fff"/><path d="M130.92,40.44a4.3112,4.3112,0,0,1-.72,2.64,2.43036,2.43036,0,0,1-2.28.96H124.8c-.12,0-.36-.12-.48-.12-.12-.12-.12-.24-.12-.48V33.12a.63639.63639,0,0,1,.72-.72h3a2.78768,2.78768,0,0,1,2.28,1.08,4.70481,4.70481,0,0,1,.72,2.76Zm5.64,20.88a1.65691,1.65691,0,0,1-.48-.36c-.12,0-.12-.24-.12-.6V52.08a10.41027,10.41027,0,0,0-.6-3.36,5.40349,5.40349,0,0,0-1.68-2.28c-.36-.36-.36-.72-.12-.96a5.488,5.488,0,0,0,1.68-2.04,5.70075,5.70075,0,0,0,.72-2.88V36.72a13.14226,13.14226,0,0,0-.48-3.24,7.92127,7.92127,0,0,0-1.44-2.64,6.80441,6.80441,0,0,0-2.52-1.8,13.59476,13.59476,0,0,0-3.6-.72c-3.48,0-6.84,0-10.32.12v1.32a2.72274,2.72274,0,0,0,.36,1.56,2.80439,2.80439,0,0,0,.84.84c.12,0,.24.12.36.24a5.19705,5.19705,0,0,1,.12.6V44.16a1.839,1.839,0,0,0-1.56,1.92,1.89666,1.89666,0,0,0,1.56,1.8v16.8h4.92V48.72c0-.48.24-.72.6-.72h3.12a2.78768,2.78768,0,0,1,2.28,1.08,4.3112,4.3112,0,0,1,.72,2.64V62.4a2.44219,2.44219,0,0,0,.72,1.8,3.20765,3.20765,0,0,0,1.92.72c1.32,0,2.76.12,4.08.12V63.24005a1.93046,1.93046,0,0,0-.36-1.32007A3.18122,3.18122,0,0,0,136.56,61.32Z" fill="#fff"/><path d="M152.16,51.96a1.52706,1.52706,0,0,0-.84,1.44c0,.24.12,8.4,0,8.52-.12.24-.36.24-.6.24q-2.16-.18008-4.32-.36c-.24,0-.36-.12-.48-.36a1.522,1.522,0,0,1-.12-.72c-.12-8.88-.12-17.76-.12-26.76a4.24258,4.24258,0,0,1,.12-.72c.12-.12006.24-.24005.36-.24005a2.80367,2.80367,0,0,0,.84-.84,1.93036,1.93036,0,0,0,.36-1.32V29.4c-2.76-.24-5.52-.48-8.28-.6v1.44006a2.55887,2.55887,0,0,0,.36,1.43994,5.54217,5.54217,0,0,0,.84.84l.36.36c.12.12.12.36.12.72V44.64a1.81739,1.81739,0,0,0-1.56,1.8,2.19679,2.19679,0,0,0,1.56,2.04v16.8c4.44.24,8.88.72,13.2,1.2.36,0,.72.12.96.12a1.01251,1.01251,0,0,0,.84-.24,1.08954,1.08954,0,0,0,.36-.84V52.2c-.72-.12-1.32-.24-2.04-.36A9.10675,9.10675,0,0,0,152.16,51.96Z" fill="#fff"/><path d="M43.8,40.68h-.36q-7.56,2.52008-15.12,5.4v1.44a4.4753,4.4753,0,0,0,.24,1.44,2.51032,2.51032,0,0,0,.72.48.62345.62345,0,0,1,.48.24c.12,0,.12.24005.12.6V61.2a3.26093,3.26093,0,0,0-1.44,2.52,1.23649,1.23649,0,0,0,1.44,1.32v16.8c.48-.12.84-.36,1.32-.48,2.16-.84,4.32-1.56006,6.48-2.4.96-.24,1.92-.6,2.76-.84q1.08-.36008,2.16-.72c.24-.12.6-.24.84-.36h.12c.12,0,.24-.12006.36-.12006.12-.12.36-.24.48-.48a1.36252,1.36252,0,0,0,.36-.96V65.16c-.72.24-1.44.48-2.04.72a4.82507,4.82507,0,0,0-1.92.96,2.01359,2.01359,0,0,0-.72,1.68c0,.12.12,5.28,0,5.52a.65991.65991,0,0,1-.6.36q-.9.36-1.8.72c-.84.24-1.68.6-2.52.84-.36.12-.6,0-.6-.48V64.2a.91247.91247,0,0,1,.72-.96c1.92-.72,3.84-1.32,5.76-2.04a.79334.79334,0,0,0,.72-.84V57.6a.62342.62342,0,0,0-.24-.48h-.48c-1.92.6-3.84,1.31995-5.76,1.92q-.72.36-.72-.36V48.48a2.028,2.028,0,0,1,.24-.6c.12-.12.36-.24.48-.36,1.56-.48,3-1.08,4.56-1.56.12,0,.12,0,.24.12s0,5.28,0,5.52c0,.72.24,1.08.72,1.2a6.597,6.597,0,0,0,1.92-.36,18.51185,18.51185,0,0,0,2.04-.6V41.4a.66.66,0,0,0-.36-.6A.89925.89925,0,0,0,43.8,40.68Z" fill="#fff"/><path d="M174.24,33.36c-.12,0-.12-.12-.24-.12h-.12c-5.16-.96-10.44-1.92-15.72-2.64v1.44a2.72288,2.72288,0,0,0,.36,1.56,1.26866,1.26866,0,0,0,.72.84l.48.48a1.70606,1.70606,0,0,1,.24.72V46.68A1.64052,1.64052,0,0,0,158.28,48.36a2.2815,2.2815,0,0,0,1.68,2.04V67.2c.36.12.84.12,1.2.24q3.42.54,6.84,1.08c.96.12,1.92.36,2.88.48a13.95342,13.95342,0,0,1,2.16.48c.24,0,.6.12.84.12h.48a.72153.72153,0,0,0,.48-.12,1.08944,1.08944,0,0,0,.36-.84V58.32c-.72-.12-1.44-.24-2.04-.36a5.121,5.121,0,0,0-1.92,0c-.6.12-.84.48-.84,1.32,0,.12.12,5.28,0,5.4-.12.24005-.36.24005-.6.24005q-.9-.18008-1.8-.36a17.21512,17.21512,0,0,1-2.64-.48c-.36,0-.6-.24-.6-.72V52.08c0-.48.24-.72.72-.6,2.04.36,3.96.6,6,1.08.48,0,.72-.12.72-.6V49.2a.91658.91658,0,0,0-.24-.6c-.24-.12-.36-.24-.6-.24-1.92-.36-3.84-.72-5.88-1.08a.63643.63643,0,0,1-.72-.72V36.36a.90979.90979,0,0,1,.24-.48c.12-.12.24-.12.48-.12,1.56.24,3.12.48,4.68.84.12,0,.12.12.24.12.12.24,0,5.4,0,5.52a1.70064,1.70064,0,0,0,.84,1.67993,16.52182,16.52182,0,0,0,1.92.72c.6.12,1.32.24,2.04.36V34.56a1.59505,1.59505,0,0,0-.36-.84A2.62345,2.62345,0,0,0,174.24,33.36Z" fill="#fff"/><path d="M82.44,147.96l1.68,1.68c.48.36,1.08.96,1.8.24a.89357.89357,0,0,0,.36-.84c0-.36-.24-.6-.84-1.08l-1.56-1.56Zm.96-3.84,3.48,3.36a2.54079,2.54079,0,0,1,1.2,2.4,2.87645,2.87645,0,0,1-2.28,2.16,2.95132,2.95132,0,0,1-2.4-1.2l-1.92-1.92-2.04,2.16L78,149.76Z" fill="#fff"/><polygon points="92.64 152.16 98.88 155.88 98.16 157.08 93.6 154.44 92.76 155.88 97.08 158.52 96.36 159.72 92.04 157.08 91.08 158.64 95.76 161.52 95.04 162.72 88.68 158.88 92.64 152.16" fill="#fff"/><polygon points="103.56 157.92 105.36 158.52 103.32 164.52 107.4 165.96 107.04 167.28 101.04 165.36 103.56 157.92" fill="#fff"/><path d="M130.68,166.44a3.30456,3.30456,0,0,1-.96,1.8,4.61393,4.61393,0,0,1-3.6,1.31995c-2.76.12-4.68-1.2-4.8-3.96-.12-2.88,2.16-4.2,4.56-4.32.96,0,3.48.12,4.56,2.28l-2.04.36a2.79534,2.79534,0,0,0-2.4-1.2,2.7034,2.7034,0,1,0,.24,5.4,2.4081,2.4081,0,0,0,2.4-1.56006Z" fill="#fff"/><path d="M139.44,161.64c0-.12-.12-.12-.24-.24a.44088.44088,0,0,0-.12-.36v.72l-.36,2.76,2.52-.72Zm-1.8-1.92,2.04-.6,5.76,6.36-2.04.6-1.08-1.2-3.84,1.2-.24,1.56-2.04.6Z" fill="#fff"/><path d="M147.12,156.24005l1.68-.96008,5.52,1.68005c.72.24.84.36,1.56.6-.48-.6-.6-.84-.96-1.31995l-2.04-3.48,1.68-.96,3.96,6.72-1.68.96-5.52-1.8a11.14622,11.14622,0,0,1-1.56-.48c.36.48.48.6.84,1.08l2.16,3.72009-1.56.96Z" fill="#fff"/><path d="M163.2,151.56c.96.36,1.92-.24,2.76-.96.24-.36,1.32-1.44.6-2.16-.36-.36-.84-.12-1.2.12a10.87515,10.87515,0,0,1-1.92,1.32c-.6.48-2.16,1.44-3.36.24a2.15605,2.15605,0,0,1-.48-1.08,3.60148,3.60148,0,0,1,1.44-3.24,5.48569,5.48569,0,0,1,2.4-1.56,4.26979,4.26979,0,0,1,1.8,0l-.96,1.68a2.38387,2.38387,0,0,0-.96,0,4.17011,4.17011,0,0,0-1.32.84c-.6.6-1.2,1.32-.6,1.92.36.36.72.12,1.2-.24.36-.12,1.68-1.08,1.92-1.2.84-.6,2.16-1.32,3.36-.12,1.68,1.8-.36,3.96-1.08,4.56a4.29423,4.29423,0,0,1-4.56,1.44Z" fill="#fff"/><path d="M114.36,114.24005s-27.96-9.36-15.84-39c0,0-29.52,1.2-69.84,17.52,0,0-2.88,1.08-4.56,1.68a9.47351,9.47351,0,0,1-8.16-.12S53.04,75,100.44,70.44c6.36-.48,7.08.36,5.52,2.76C104.52,75.12,87.6,96.72,114.36,114.24005Z" fill="#fff"/><path d="M89.52,83.64c-23.88,3.12-47.28,11.4-47.28,11.4,3.96,7.08,14.76,4.08,14.76,4.08C77.28,93.36,86.28,91.44,89.16,90.84A37.56919,37.56919,0,0,1,89.52,83.64Z" fill="#b4975a"/><path d="M89.76,95.28a250.8522,250.8522,0,0,0-37.68,10.44s5.4,6.12,15.96,3.12c8.76-2.52,20.16-6.12,23.64-7.2A26.19679,26.19679,0,0,1,89.76,95.28Z" fill="#b4975a"/><path d="M93.36,104.88c-3.6,1.2-21.6,7.08-29.16,9.96,0,0,4.32,5.88,16.92.96,8.76-3.48,13.68-5.52,15.72-6.48A33.547,33.547,0,0,1,93.36,104.88Z" fill="#b4975a"/><path d="M99.72,111.96c-3.24,1.32-14.88,6.48-21.72,9.72,0,0,8.52,4.2,19.32-2.4l6.6-4.44A32.58074,32.58074,0,0,1,99.72,111.96Z" fill="#b4975a"/><path d="M107.16,116.52c-2.16,1.32-11.04,6.96-15.36,10.2,0,0,7.44,3,15-4.08,2.4-2.28,3.72-3.6,4.44-4.44A36.80424,36.80424,0,0,1,107.16,116.52Z" fill="#b4975a"/><path d="M132.24,114.24005s27.96-9.36,15.84-39c0,0,29.4,1.2,69.84,17.52,0,0,2.88,1.08,4.56,1.68a9.20246,9.20246,0,0,0,8.04-.12S193.56,75,146.04,70.44c-6.24-.48-7.08.36-5.4,2.76C141.96,75.12,159,96.72,132.24,114.24005Z" fill="#fff"/><path d="M157.08,83.64c23.88,3.12,47.28,11.4,47.28,11.4-4.08,7.08-14.76,4.08-14.76,4.08-20.28-5.76-29.4-7.68005-32.28-8.28A49.7289,49.7289,0,0,0,157.08,83.64Z" fill="#b4975a"/><path d="M156.84,95.28a254.838,254.838,0,0,1,37.68,10.44s-5.4,6.12-15.96,3.12c-8.88-2.52-20.28-6.12-23.64-7.2A26.1968,26.1968,0,0,0,156.84,95.28Z" fill="#b4975a"/><path d="M153.12,104.88c3.6,1.2,21.72,7.08,29.28,9.96,0,0-4.32,5.88-16.92.96-8.88-3.48-13.68-5.52-15.84-6.48A21.08239,21.08239,0,0,0,153.12,104.88Z" fill="#b4975a"/><path d="M146.88,111.96c3.12,1.32,14.88,6.48,21.6,9.72,0,0-8.52,4.2-19.2-2.4l-6.6-4.44A32.58029,32.58029,0,0,0,146.88,111.96Z" fill="#b4975a"/><path d="M139.44,116.52c2.04,1.32,10.92,6.96,15.24,10.2,0,0-7.32,3-14.88-4.08-2.4-2.28-3.72-3.6-4.44-4.44C136.56,117.72,138,117.24005,139.44,116.52Z" fill="#b4975a"/><path d="M146.16,130.44a22.86008,22.86008,0,1,1-22.92-22.8A22.8159,22.8159,0,0,1,146.16,130.44Z" fill="#fff"/><path d="M141.36,135.12006a18.12,18.12,0,1,1-18.12-18.12A18.02784,18.02784,0,0,1,141.36,135.12006Z" fill="#b4975a"/><path d="M135.36,147.72a6.19568,6.19568,0,0,1-2.52-3.6v-.36a24.09236,24.09236,0,0,0,11.16-9.6A20.89348,20.89348,0,0,1,135.36,147.72ZM102.6,134.16a23.52344,23.52344,0,0,0,11.16,9.6v.36a6.1956,6.1956,0,0,1-2.52,3.6A21.18971,21.18971,0,0,1,102.6,134.16Zm4.8-17.52c-.96,5.16,1.2,10.08,3.24,14.52a39.96686,39.96686,0,0,1,3.12,9.24,21.13287,21.13287,0,0,1-11.16-13.92A21.054,21.054,0,0,1,107.4,116.64Zm22.32,24.96a22.32783,22.32783,0,0,1-4.92.96V109.44a21.96785,21.96785,0,0,1,9.24,2.88c4.2,6.12,1.92,11.52-.84,17.64C131.52,133.68,129.84,137.52,129.72,141.6Zm-4.92,3.96a22.11591,22.11591,0,0,0,5.04-.84,8.32789,8.32789,0,0,0,2.76,4.68,24.13961,24.13961,0,0,1-7.8,2.04Zm-8.04-.84a22.11619,22.11619,0,0,0,5.04.84v5.88a24.13961,24.13961,0,0,1-7.8-2.04A8.32779,8.32779,0,0,0,116.76,144.72Zm-4.32-32.4a22.49486,22.49486,0,0,1,9.36-2.88v33.12a22.328,22.328,0,0,1-4.92-.96c-.12-4.08-1.8-7.92-3.48-11.64C110.64,123.84,108.24,118.44,112.44,112.32ZM144,126.48A21.54724,21.54724,0,0,1,132.84,140.28a41.07313,41.07313,0,0,1,3.12-9.11993c2.04-4.44,4.2-9.36,3.24-14.52A21.054,21.054,0,0,1,144,126.48Zm-20.76-20.64a24.60027,24.60027,0,1,0,24.72,24.6A24.63361,24.63361,0,0,0,123.24,105.84Z" fill="#002b5c"/><path d="M130.56,73.8s-.12.84-.6.84a34.32766,34.32766,0,0,1-4.92-2.16,13.93863,13.93863,0,0,1-1.68-1.08s-1.32.72-1.92,1.08a34.24009,34.24009,0,0,1-4.8,2.16c-.48,0-.72-.84-.72-.84s-7.68,4.68005-7.68,17.64c0,9.72,5.04,14.04,5.04,14.04l.6,2.76h18.84l.6-2.76s5.04-4.32,5.04-14.04C138.36,78.48,130.56,73.8,130.56,73.8Z" fill="#002b5c"/><path d="M134.28,88.2a14.05911,14.05911,0,0,0-3.36-9.24s-.12,1.2-1.92-.12a9.92423,9.92423,0,0,0-11.4,0c-1.8,1.32-1.92.12-1.92.12a14.0591,14.0591,0,0,0-3.36,9.24c0,3.36.72,4.92,1.08,5.4,1.68,4.2,5.4,7.2,9.84,7.2a10.69556,10.69556,0,0,0,9.84-7.08C133.2,93.6,134.28,92.04,134.28,88.2Z" fill="#fff"/><path d="M127.44,97.2h0a2.7183,2.7183,0,0,1,.6-3.48s4.08.84,4.2-4.56a2.75244,2.75244,0,0,1,.48-1.68s-1.08-.96-3.36.72c-2.16,1.68-3.48,6.6-4.68,5.4-1.2-1.08-.72-7.44-1.44-7.68005-.6.24005-.12,6.6-1.32,7.68005-1.32,1.2-2.52-3.72-4.8-5.4s-3.24-.72-3.24-.72a4.66682,4.66682,0,0,1,.48,1.68c0,5.4,4.08,4.56,4.08,4.56a2.81591,2.81591,0,0,1,.72,3.48h0c-4.8-5.16-7.68-4.44-6.24,1.32,1.32,5.76,6.6,30.36,7.44,36.12-.12,5.04-.72,6.96-.96,7.32l-.48,1.08.6,1.08a19.36974,19.36974,0,0,1,1.8,3.48l1.92,5.04,2.04-5.04a19.36938,19.36938,0,0,1,1.8-3.48l.6-1.08-.6-1.08c-.12-.36-.72-2.16-.84-7.08.72-5.16,6.12-30.48,7.44-36.36C135.12,92.76,132.24,92.04,127.44,97.2Z" fill="#002b5c"/><path d="M120,122.88c-1.8-9.12-3.12-15.96-4.2-20.87994-.84-3.72,1.44-2.16,2.64.12Z" fill="#e31837"/><path d="M126.6,122.88c1.68-9.12,3.12-15.96,4.2-20.87994.84-3.72-1.44-2.16-2.64.12Z" fill="#e31837"/><path d="M117.24,91.92a.80342.80342,0,0,1-.48-.84c.12-.12.12-.24.24-.36a5.22253,5.22253,0,0,0-.84-.72s-.48,2.64,1.8,2.4a1.212,1.212,0,0,0-.24-.6C117.6,91.92,117.48,91.92,117.24,91.92Z" fill="#e31837"/><path d="M130.32,90.00006c-.24.24-.6.48-.72.72,0,.12.12.24.12.36a.61985.61985,0,0,1-.36.84c-.24,0-.36,0-.48-.12a6.24116,6.24116,0,0,0-.36.6C130.92,92.64,130.32,90.00006,130.32,90.00006Z" fill="#e31837"/><path d="M124.44,126.24005c.72-14.16,1.8-24.12006,1.8-25.32007a4.37291,4.37291,0,0,0-.24-1.67993l-.84,2.64-.24-4.68a7.39258,7.39258,0,0,0-1.68-1.68,11.08812,11.08812,0,0,0-1.68,1.68l-.24,4.68-.84-2.64a9.41313,9.41313,0,0,0-.24,1.67993c0,1.2,1.2,11.16,1.92,25.32007S121.2,143.04,121.2,143.04a29.78673,29.78673,0,0,1,2.04,4.08,37.53281,37.53281,0,0,1,2.16-4.08S123.6,140.4,124.44,126.24005Z" fill="#e31837"/><polygon points="114.96 168.84 113.04 168.6 114.24 160.8 116.16 161.16 114.96 168.84" fill="#fff"/></svg>