<?xml version="1.0" encoding="UTF-8" standalone="no"?>
<svg xmlns:rdf="http://www.w3.org/1999/02/22-rdf-syntax-ns#" xmlns="http://www.w3.org/2000/svg" height="149.88" width="279.84001" version="1.1" xmlns:cc="http://creativecommons.org/ns#" xmlns:dc="http://purl.org/dc/elements/1.1/" viewBox="0 0 279.84001 149.88"><path d="M177.24,47.04c.6,3.96-3.6,5.28-6.12,5.64L171,44.76v-.6C174.12,44.52,177,45.24,177.24,47.04Zm-9.12-3c0,.24-.12.48-.12.72l-.12,20.76,3.24-1.8L171,52.8c2.28.12,5.64.6,5.64,2.4v8.52l3.12,1.8-.12-10.92c0-3.24005-4.8-2.16-4.8-2.16s6-1.32007,5.64-6.24005c-.24-3-3.36-4.44-9-3.84h-.84a20.35069,20.35069,0,0,0-1.2-4.44,24.93562,24.93562,0,0,0-1.32,4.92,32.1397,32.1397,0,0,0-5.88,1.56A53.97777,53.97777,0,0,1,168.12,44.04Z"/><path d="M194.04,59.4c0,1.92-1.08,3.12-2.88,3.12s-2.88-.96-2.88-3.12V47.52c0-2.16,1.2-3.12,2.88-3.12a2.90616,2.90616,0,0,1,2.88,3.12Zm-.84-16.44h-3.96s-4.2,0-4.2,3.96V60c0,3.96,4.2,3.96,4.2,3.96h3.96s4.2.12,4.2-3.96V46.92C197.4,42.96,193.2,42.96,193.2,42.96Z"/><path d="M210.12,42.96h-3.96s-4.32,0-4.32,3.96V60c0,3.96,4.32,3.96,4.32,3.96h3.96s4.2.12,4.2-3.96V58.32h-3.24V59.4a2.868,2.868,0,0,1-3,3.12c-1.8,0-2.88-.96-2.88-3.12V47.52c0-2.16,1.2-3.12,2.88-3.12a2.93075,2.93075,0,0,1,3,3.12V48.6h3.24V46.92C214.44,42.96,210.12,42.96,210.12,42.96Z"/><path d="M273.48,51.48c-2.76,0-3.6-.12006-3.6-2.4V46.92c0-1.68005.36-2.64,3-2.64,2.76,0,3,1.32,3,3v1.08l3-1.56v-.36a3.48764,3.48764,0,0,0-3.48-3.72h-4.68s-3.96,0-3.96,3.48v3.12c0,2.88.12,3.84,4.2,3.84,3.12,0,5.04.12,5.04,2.76v3c0,2.4-.36,3.48-3,3.48-2.76,0-3.12-1.32-3.12-3.84V57.12l-3,1.2V60.6c0,3.24,3.96,3.24,3.96,3.24h4.56a3.76574,3.76574,0,0,0,3.72-4.08V55.2C279,51.72,277.32,51.48,273.48,51.48Z"/><path d="M238.8,59.28V54.24h1.08A24.72857,24.72857,0,0,0,247.44,52.8,26.45831,26.45831,0,0,0,239.88,51.36H238.8V47.88c-.12-.6.48-1.68.6-2.04a3.32518,3.32518,0,0,1,2.4-.84h5.64c-.36-2.28-4.2-1.92-4.2-1.92h-3.36s-4.56,0-4.56,4.2V60c0,4.08,4.56,3.96,4.56,3.96h3.36s3.84.36,4.2-1.8H241.8C241.68,62.04,238.8,62.28,238.8,59.28Z"/><path d="M249.84,42.96v2.76h5.04v17.4L258,65.16V45.72h1.2a17.75213,17.75213,0,0,0,6.12-1.32,15.31972,15.31972,0,0,0-6.12-1.44Z"/><polygon points="231.48 42.96 228.48 42.96 222 52.2 222 42.96 218.76 40.8 218.76 65.16 222 63.12 222 52.68 228.84 63.6 232.32 63.6 225 51.96 231.48 42.96"/><path d="M26.04,59.4c0,1.92-1.08,3.12-2.88,3.12s-2.88-.96-2.88-3.12V47.52c0-2.16,1.2-3.12,2.88-3.12a2.90617,2.90617,0,0,1,2.88,3.12Zm-.96-16.44H21.12s-4.32,0-4.32,3.96V60c0,3.96,4.32,3.96,4.32,3.96h3.96s4.32.12,4.32-3.96V46.92C29.4,42.96,25.08,42.96,25.08,42.96Z"/><path d="M42.84,44.88V59.52c0,3-2.4,3-2.4,3h-.96a2.65459,2.65459,0,0,1-2.28-3V45l-3.24-2.04V60.12c0,3.72,3.96,3.96,3.96,3.96H42s4.44-.12,4.44-3.96v-7.8s-.12-9.24-.12-9.36Z"/><path d="M99,65.4l2.76-2.04V51.6l9.48,12.48V48.36a33.44869,33.44869,0,0,0-1.44-7.92,37.65349,37.65349,0,0,0-1.32,7.92v6.96L99,42.96Z"/><path d="M57,51.48c-2.76,0-3.6-.12006-3.6-2.4V46.92c0-1.68005.36-2.64,3-2.64,2.76,0,3,1.32,3,3v1.08l3-1.56v-.36a3.48765,3.48765,0,0,0-3.48-3.72H54.24s-3.96,0-3.96,3.48v3.12c0,2.88.12,3.84,4.2,3.84,3.12,0,5.04.12,5.04,2.76v3c0,2.4-.36,3.48-2.88,3.48-2.88,0-3.24-1.32-3.24-3.84V57.12l-3,1.2V60.6c0,3.24,3.84,3.24,3.84,3.24h4.68a3.76574,3.76574,0,0,0,3.72-4.08V55.2C62.64,51.72,60.84,51.48,57,51.48Z"/><path d="M64.8,43.56006V46.2h5.04V63.36l3.12,2.04V46.2h1.08a14.31038,14.31038,0,0,0,6-1.32,12.68358,12.68358,0,0,0-6-1.31995Z"/><path d="M85.2,59.4V47.52c0-2.16,1.2-3.12,2.88-3.12a2.93074,2.93074,0,0,1,3,3.12V59.4a2.86794,2.86794,0,0,1-3,3.12C86.28,62.52,85.2,61.68005,85.2,59.4ZM90,63.96s4.32,0,4.32-4.08V46.92c0-4.08-4.32-4.08-4.32-4.08H86.04s-4.2,0-4.2,4.08V59.88c0,4.08,4.2,4.08,4.2,4.08Z"/><path d="M11.04,40.2a18.731,18.731,0,0,0-1.32,6.24v5.64H2.88V46.44A21.52365,21.52365,0,0,0,1.44,40.2,24.20668,24.20668,0,0,0,.12,46.44L0,65.76l3-1.68V54.24H9.84v9.84l3,1.68-.12-19.32A32.256,32.256,0,0,0,11.04,40.2Z"/><path d="M158.4,86.16l.12-15.36c14.16,1.8,25.8,3.72,25.8,7.2C184.44,81.72,173.76,84.72,158.4,86.16Zm-27.24.6.12-3.24c-.24-8.76.24-19.8.36-31.44,7.08.72,16.08,2.64,15.96,7.68l-.24,27.12c-2.64.12-5.28.12-7.92.12C136.56,87,133.8,86.88,131.16,86.76ZM94.8,78c0-3.48,12.84-5.4,25.68-7.31995,0,4.08-.12,8.64-.24,13.55994v1.92C105,84.72,94.8,81.72,94.8,78Zm55.32-43.31995C151.68,46.08,140.04,49.8,131.76,51a248.99132,248.99132,0,0,0-.84-24.96C140.76,27,149.4,29.4,150.12,34.68005Zm8.52,35.88L158.76,57.12c0-8.28-11.52-7.43994-15.24-6.96,4.44-.84,19.44-4.44,18.48-18.24-.6-9-12-13.56-30.72-11.76-.36,0-.6.12-.96.12A100.56826,100.56826,0,0,0,126,.96a120.984,120.984,0,0,0-5.04,20.64,149.9348,149.9348,0,0,0-19.92,4.56,188.23252,188.23252,0,0,1,19.44-.6c-1.2,12,.12,23.28,0,45-19.8-.6-37.08,3.24-36.84,9,.24,5.16,15.48,9.84,36.84,11.64l.96,29.16,1.44-19.79993c.12-2.4,1.92-2.16,1.92-.12l.6,25.91992,1.68-21.12c0-2.88,1.92-2.64,1.8-.12l.72,27L130.92,91.8c2.76.12,5.52.12,8.4.12,2.76,0,5.4,0,7.92-.12l1.32,41.16,1.08-21.6c0-2.75995,1.92-2.64,1.92-.12l1.08,30.12,1.2-26.04c0-2.52,2.04-2.4,2.16,0l.84,34.56,1.44-58.68c21.6-1.8,37.32-6.6,37.32-11.64C195.48,73.92,178.56,69.6,158.64,70.56006Z"/><path d="M178.08,46.32c.48,3.96-3.72,5.28-6.24,5.64V43.92a.72154.72154,0,0,0-.12-.48C174.96,43.8,177.84,44.52,178.08,46.32Zm-9.24-3v.6L168.6,64.8l3.24-1.8V52.08c2.16.12,5.64.48,5.52,2.28l.12,8.64,3,1.8V53.76c0-3.24-4.8-2.04-4.8-2.04s5.88-1.32,5.52-6.36c-.12-2.88-3.36-4.43994-9-3.84-.24,0-.6.12-.72.12a15.62343,15.62343,0,0,0-1.32-4.44,22.904,22.904,0,0,0-1.32,4.92,41.19893,41.19893,0,0,0-5.76,1.44S165.84,43.32,168.84,43.32Z" fill="#ce1141"/><path d="M194.88,58.68005a2.868,2.868,0,0,1-3,3.12c-1.8,0-2.88-.96-2.88-3.12V46.8c0-2.28,1.2-3.12,2.88-3.12a2.93071,2.93071,0,0,1,3,3.12ZM193.92,42.12h-3.96s-4.32,0-4.32,4.08V59.16c0,4.08,4.32,4.08,4.32,4.08h3.96s4.2.12,4.2-4.08V46.2C198.12,42.12,193.92,42.12,193.92,42.12Z" fill="#ce1141"/><path d="M210.84,42.12h-3.96s-4.2,0-4.2,4.08V59.16c0,4.08,4.32,4.08,4.32,4.08h3.96s4.2.12,4.2-4.08V57.6H211.8v1.08c0,1.92-1.08,3.12-2.88,3.12s-2.88-.96-2.88-3.12V46.8c0-2.28,1.2-3.12,2.88-3.12a2.90614,2.90614,0,0,1,2.88,3.12v1.08h3.36V46.2C215.16,42.12,210.84,42.12,210.84,42.12Z" fill="#ce1141"/><path d="M274.2,50.76c-2.76,0-3.6-.12-3.6-2.4V46.2c0-1.68.36-2.64,3-2.64,2.76,0,3,1.32,3,3v1.08l3-1.56v-.36A3.48766,3.48766,0,0,0,276.12,42h-4.68s-3.96,0-3.96,3.36V48.6c0,2.87994.12,3.84,4.2,3.84,3.12,0,5.04.12,5.04,2.76v3c0,2.4-.36,3.48-2.88,3.48-2.88,0-3.24-1.32007-3.24-3.84V56.4l-3,1.2v2.28c0,3.24,3.96,3.24,3.96,3.24h4.68s3.6,0,3.6-4.2V54.48C279.84,51,278.04,50.76,274.2,50.76Z" fill="#ce1141"/><path d="M239.52,58.56006V53.52h1.08a24.291,24.291,0,0,0,7.56-1.56,26.45644,26.45644,0,0,0-7.56-1.44h-1.08V47.16a3.79412,3.79412,0,0,1,.72-2.04,3.5605,3.5605,0,0,1,2.4-.96h5.64c-.48-2.16-4.2-1.8-4.2-1.8H240.6s-4.56,0-4.56,4.2v12.6c0,4.2,4.56,4.08,4.56,4.08h3.48s3.72.36,4.2-1.92h-5.76A2.64227,2.64227,0,0,1,239.52,58.56006Z" fill="#ce1141"/><path d="M250.56,42.24V45h5.04V62.4l3.24,2.04V45h1.2a16.95167,16.95167,0,0,0,6-1.44,14.7618,14.7618,0,0,0-6-1.32Z" fill="#ce1141"/><polygon points="232.2 42.24 229.2 42.24 222.72 51.48 222.72 42.12 219.48 40.08 219.48 64.44 222.72 62.4 222.72 51.84 229.56 62.76 233.04 62.76 225.72 51.12 232.2 42.24" fill="#ce1141"/><path d="M26.88,58.68005a2.868,2.868,0,0,1-3,3.12c-1.8,0-2.88-.96-2.88-3.12V46.8c0-2.28,1.2-3.12,2.88-3.12a2.93071,2.93071,0,0,1,3,3.12ZM25.92,42.12H21.96s-4.32,0-4.32,4.08V59.16c0,4.08,4.32,4.08,4.32,4.08h3.96s4.32.12,4.32-4.08V46.2C30.12,42.12,25.92,42.12,25.92,42.12Z" fill="#ce1141"/><path d="M43.68,44.16v14.52c0,3.12-2.52,3.12-2.52,3.12H40.2a2.96716,2.96716,0,0,1-2.4-3.12v-6.6l.12-7.92-3.24-2.04V59.4c0,3.6,3.96,3.84,3.96,3.84h4.08s4.32-.12,4.32-3.84V42.12Z" fill="#ce1141"/><path d="M99.84,64.56006l2.76-2.04V50.76l9.48,12.48V47.52a33.44814,33.44814,0,0,0-1.44-7.92,38.06035,38.06035,0,0,0-1.44,7.92v6.96L99.84,42.12Z" fill="#ce1141"/><path d="M57.72,50.76c-2.64,0-3.6-.12-3.6-2.4V46.2c0-1.68.36-2.64,3-2.64,2.76,0,3.12,1.32,3.12,3v1.08l3-1.56v-.36A3.564,3.564,0,0,0,59.64,42H55.08S51,42,51,45.36V48.6c0,2.87994.24,3.84,4.2,3.84,3.24,0,5.04.12,5.04,2.76v3c0,2.4-.36,3.48-2.88,3.48-2.88,0-3.12-1.32007-3.12-3.84V56.4l-3,1.2v2.28c0,3.24,3.84,3.24,3.84,3.24h4.68a3.81144,3.81144,0,0,0,3.72-4.2V54.48C63.36,51,61.68,50.76,57.72,50.76Z" fill="#ce1141"/><path d="M65.64,42.72V45.48h5.04V62.52l3,2.16V45.48h1.2a15.23484,15.23484,0,0,0,6-1.31995,14.72121,14.72121,0,0,0-6-1.44Z" fill="#ce1141"/><path d="M85.92,58.68005V46.8c0-2.28,1.2-3.12,2.88-3.12a2.93071,2.93071,0,0,1,3,3.12v11.88a2.868,2.868,0,0,1-3,3.12C87,61.8,85.92,60.84,85.92,58.68005ZM90.84,63.12s4.2.12,4.2-3.96V46.2c0-4.08-4.2-4.08-4.2-4.08H86.88s-4.32,0-4.32,4.08V59.16c0,3.96,4.32,3.96,4.32,3.96Z" fill="#ce1141"/><path d="M11.88,39.36a23.2866,23.2866,0,0,0-1.44,6.36v5.64H3.6V45.72a23.09952,23.09952,0,0,0-1.32-6.36A21.08224,21.08224,0,0,0,.84,45.72V65.04l3-1.68005-.12-9.84h6.96l-.12,9.84,3,1.68005-.12-19.32A44.56046,44.56046,0,0,0,11.88,39.36Z" fill="#ce1141"/><path d="M159.36,85.2l.12-15.48c14.16,1.8,25.8,3.84,25.8,7.2C185.28,80.76,174.72,83.88,159.36,85.2Zm-11.04.72c-2.52,0-5.28.12-7.92.12-2.88,0-5.52-.12-8.28-.12l.12-3.36c-.24-8.64.24-19.68005.36-31.44006,7.08.84,16.08,2.64,15.96,7.68005ZM131.88,25.08c9.72.96,18.48,3.24,19.2,8.64,1.44,11.4-10.08,15.12-18.48,16.32A248.70936,248.70936,0,0,0,131.88,25.08ZM121.2,85.2c-15.24-1.32-25.56-4.44-25.56-8.28,0-3.36,12.84-5.28,25.68-7.2,0,4.08-.12,8.64-.24,13.56Zm38.28-15.6.12-13.44c0-8.28-11.4-7.44-15.12-6.96,4.32-.84,19.32-4.44,18.48-18.24-.6-9-12-13.56-30.84-11.76-.24,0-.6.12-.84.12A100.69269,100.69269,0,0,0,126.84,0a132.48379,132.48379,0,0,0-5.04,20.52,167.98019,167.98019,0,0,0-19.92,4.68,191.69979,191.69979,0,0,1,19.56-.6c-1.2,12,0,23.28,0,45-19.8-.6-37.08,3.12-36.84,9,.12,5.16,15.48,9.84,36.84,11.64l.84,29.16,1.56-19.8c0-2.4,1.8-2.28,1.8-.12l.72,25.92,1.56-21.12c0-2.88,1.92-2.76,1.92-.12l.72,27,1.32-40.32c2.76.12,5.52.12,8.4.12,2.64,0,5.4,0,7.92-.12L149.4,132l1.2-21.6c0-2.64,1.8-2.64,1.8-.12l1.2,30.12,1.08-26.04c.12-2.52,2.16-2.4,2.16,0L157.8,148.92,159.12,90.24v-.12c21.72-1.8,37.32-6.48,37.32-11.52C196.44,73.08,179.4,68.76,159.48,69.6Z" fill="#ce1141"/></svg>