<?xml version="1.0" encoding="UTF-8" standalone="no"?>
<svg xmlns:rdf="http://www.w3.org/1999/02/22-rdf-syntax-ns#" xmlns="http://www.w3.org/2000/svg" height="173.87994" width="385.39316" version="1.1" xmlns:cc="http://creativecommons.org/ns#" xmlns:dc="http://purl.org/dc/elements/1.1/" viewBox="0 0 385.39316 173.87994"><path d="M146.77756,111.26682h8.40828l-2.53065,6.36744Zm-10.041,28.57183-13.38794,19.837,21.95949-7.18377,8.89808,21.38806,6.694-23.02073,24.735,6.36744L169.635,138.69578,188.819,122.77719l-17.14309,1.06124,11.3471-12.73487h22.12275l25.30648-44.817V36.73517H212.49278l-8.57155,15.26552-1.63267,11.51036L189.3904,86.45019H177.5535l11.592-20.49008V36.81684H170.533l-8.32665,15.18389-1.46941,11.592L140.49175,99.7565l3.10208,8.00011-3.91842-4.245,1.63267,21.79622-23.59217,1.06124Z" fill="#fff"/><path d="M40.89853,86.45019c-7.26541,1.87757-14.69408,3.91842-21.87786,5.87763-.81634.2449-1.551.57143-2.28575.73471v-18.286c1.14287-.32654,2.12248-.65307,3.26535-.898,5.95927-1.79594,11.91853-3.347,17.8778-4.898.9796-.32654,2.12248-.4898,3.10209-.81634v9.95932C46.6129,76.65413,52.164,75.348,57.7151,74.12349V61.96005c-1.95921-2.85719-3.83679-5.796-5.87764-8.89808-1.38778.32654-2.85718.73471-4.245,1.06124h-.2449C35.42907,56.98038,23.59217,60.1641,11.8369,63.756a11.62288,11.62288,0,0,0-1.30614.40817,45.73826,45.73826,0,0,0-4.40822,1.38778C4.08169,69.71526,2.12248,73.87858.2449,77.87864v24.57177c2.93882,2.04084,5.87763,4.08169,8.89808,6.20417,2.449-.73471,4.81639-1.551,7.26541-2.20412,7.51031-2.28575,15.02062-4.245,22.44929-6.20417.81634-.16327,1.63268-.40817,2.449-.57143v19.02068c-.9796.2449-2.12248.4898-3.10209.81634-6.20417,1.551-12.40834,3.18371-18.53087,5.0613-1.06124.2449-2.12248.57143-3.18372.898v-9.95933c-5.46946,1.63267-11.02056,3.347-16.49,5.0613v12.24507c1.95921,2.77555,3.83679,5.5511,5.796,8.32665,1.38777-.40817,2.85718-.898,4.32659-1.30614a9.871,9.871,0,0,1,1.46941-.40817c11.91853-3.67352,23.9187-6.93887,36.08214-9.79605,1.551-.40817,2.93882-.73471,4.48986-1.06124,2.04084-3.91842,3.91842-7.91848,5.95927-11.75527V91.5115c-2.93882-2.28575-5.95927-4.73476-8.89808-7.02051C46.20473,85.144,43.51081,85.87875,40.89853,86.45019Z"/><path d="M385.39316,107.43007c-2.93882-3.91842-5.87764-7.91848-8.81646-11.8369-2.6123-.81634-5.30619-1.63267-7.91849-2.449-7.2654-2.12248-14.53081-4.16332-21.87786-5.95926-.81635-.16327-1.551-.40817-2.36739-.57143V68.16422c1.06124.32654,2.12248.4898,3.18371.81634,5.95927,1.551,12.00018,3.10208,17.95945,4.898.97961.2449,2.12248.57143,3.10208.898v9.87769c5.55108,1.63268,11.02057,3.347,16.49,5.0613V77.5521c-1.87758-4.00005-3.8368-8.00011-5.71438-12.00017-1.46939-.40817-2.85719-.898-4.32658-1.30614-.08163,0-.08163,0-.16326-.08164-11.75529-3.67352-23.59216-6.93887-35.51071-9.71442a7.64065,7.64065,0,0,0-1.30615-.32654c-1.551-.40817-3.02045-.73471-4.57149-1.14287-2.04084,3.02045-4.08169,6.12253-6.0409,9.143V86.69509c3.02045,3.67352,5.95927,7.347,8.97973,11.02056,2.449.65307,4.97962,1.22451,7.347,1.79594q11.26544,2.93882,22.53092,6.12253c.81635.16327,1.55106.4898,2.28574.65307v19.02067c-.97961-.2449-2.12248-.57143-3.10208-.898-6.20416-1.79594-12.40833-3.42861-18.53086-5.0613-1.06124-.2449-2.12248-.4898-3.18371-.81634V108.573c-5.5511-1.46941-11.1022-2.77555-16.6533-4.00006V116.818c1.87758,3.83679,3.8368,7.75521,5.87764,11.592,1.38778.2449,2.93882.65307,4.32658.97961.4898.08163.898.2449,1.38778.32653,12.16344,2.93882,24.24525,6.12253,36.16375,9.87769,1.55106.40817,2.93882.898,4.32658,1.30614,1.95917-2.77555,5.796-8.57155,5.796-8.57155C385.39316,132.65492,385.39316,115.83835,385.39316,107.43007Z"/><path d="M117.14449,57.47016V78.77661c-1.38777.2449-2.53065.32654-3.91842.4898-7.2654.97961-14.53082,2.04084-21.71459,3.18372V57.22529c7.26541-1.22451,14.44919-2.20411,21.71459-3.10208,1.38777-.2449,2.53065-.32654,3.91842-.4898Zm5.95926-16.49c-.57143.08163-.898.08163-1.46941.16327-15.75532,1.79594-31.429,4.245-47.02107,7.18377v75.51125c5.5511-1.14287,11.26546-2.12248,16.8982-3.02045V94.45027c10.041-1.551,20.16355-3.02045,30.12287-4.245.57143-.08163.898-.08163,1.46941-.16327,1.46941-.2449,3.02045-.32653,4.48986-.4898,2.12248-4.00005,4.32659-7.83685,6.53071-11.75527V50.69458c-2.12248-3.42862-4.245-7.02051-6.53071-10.44913-1.46941.32654-3.02045.48976-4.48985.73466Z"/><path d="M289.71834,78.695c-7.347-1.14287-14.77572-2.20411-22.12275-3.02045V53.3885c7.51031.898,14.85735,1.95921,22.36766,3.18372,1.2245.16327,2.53065.40817,3.75515.57143v22.286C292.41225,79.10315,291.02447,78.93988,289.71834,78.695Zm14.85735,8.48992c2.04084-.81634,4.00006-1.46941,6.0409-2.28575V58.77633c-3.59189-4.16333-7.10214-8.32665-10.694-12.49-16.32676-2.77555-32.73515-5.06129-49.22517-6.5307v75.51126c5.63273.4898,11.34709,1.06124,16.97982,1.79594V87.51143c4.32658.4898,8.73481,1.14287,13.06142,1.71431,1.38778.16327,2.93882.40817,4.32658.57143,2.93882.40817,5.796.97961,8.73481,1.30614v29.55144c.32654,0,.57143.16327.898.16327,5.38784.898,10.6124,1.79594,16.00022,2.77555V91.51149C308.57575,90.12371,306.61653,88.73594,304.57569,87.18489Z"/><path d="M71.18467,21.14315c-2.449.40817-4.73476.898-7.10214,1.38777a3.11006,3.11006,0,0,0-.81634.2449v-6.0409c.32654-.08163.73471-.08163.97961-.16327,1.95921-.40817,3.91842-.7347,5.87763-1.14287.32654-.08163.73471-.08163,1.06124-.16327v3.18372c1.79594-.2449,3.59189-.65307,5.46946-.97961V13.55121c-.65307-1.06124-1.22451-1.95921-1.95921-2.93882a8.04319,8.04319,0,0,1-1.38778.16327h-.08164c-3.91842.7347-7.75521,1.46941-11.592,2.28575a3.536,3.536,0,0,1-.40817.08163c-.4898.08163-.97961.16327-1.38778.2449-.57143,1.38777-1.30614,2.53065-1.95921,3.91842v8.00011c1.06124.73471,1.95921,1.46941,2.93882,2.28575l2.449-.4898c2.449-.4898,4.898-.898,7.26541-1.46941.32654,0,.57143-.08163.81634-.08163v6.12253c-.2449.08163-.65307.08163-.97961.16327-2.04084.40817-4.08169.81634-6.12253,1.14287-.2449.08163-.65307.08163-.97961.16327V29.9596c-1.79594.40817-3.67352.65307-5.38783,1.06124V35.0209c.65307.9796,1.22451,1.87758,1.95921,2.85718.4898-.08163.898-.16327,1.38778-.2449.2449,0,.32654-.08163.4898-.08163,4.00006-.81634,7.83685-1.551,11.75527-2.28575.4898-.08163,1.06124-.16327,1.46941-.2449.57143-1.22451,1.30614-2.449,1.87758-3.75515v-8.245c-.97961-.81634-1.87758-1.63268-2.93882-2.36738C72.98061,20.81662,72.08264,20.89825,71.18467,21.14315Z"/><path d="M90.77678,22.61256q1.59186-6.00008,2.93882-12.24507c1.06124,3.75515,1.95921,7.59194,2.93882,11.3471C94.77684,22.04113,92.736,22.36766,90.77678,22.61256ZM89.96045,8.00011c-2.20412,8.48991-4.40823,16.97983-6.7756,25.46974,1.71431-.32653,3.42862-.65307,5.22456-.81634.4898-1.95921.898-3.83679,1.38777-5.63273,2.61228-.40817,5.22456-.81634,8.00011-1.22451.4898,1.71431.898,3.51025,1.38777,5.22456,1.79594-.32653,3.75516-.4898,5.5511-.81634-2.20412-7.83684-4.40822-15.67369-6.77561-23.4289-2.69391.40817-5.30619.81634-8.0001,1.22447Z"/><path d="M125.47115,19.59206c-2.77555-5.14293-5.71436-10.20422-8.57155-15.34715-1.87757.1633-3.83679.40817-5.796.65307V29.38812c1.63267-.16327,3.26535-.40817,4.898-.57144V12.40829c2.85718,5.14293,5.63273,10.36753,8.48991,15.51042,1.95921-.2449,3.83679-.40817,5.87763-.65307V2.7755c-1.63267.2449-3.26535.32654-4.898.57144Z"/><path d="M155.594,15.837c.97961-3.91842,1.95921-8.00011,3.02045-11.91853.97961,3.83679,1.87757,7.75521,2.93882,11.67363C159.51243,15.67369,157.55323,15.75532,155.594,15.837Zm-.81634-14.77572c-2.28575,8.32668-4.57149,16.65329-6.77561,24.89831,1.71431-.08163,3.42861-.16327,5.22456-.32653.4898-1.79594.898-3.67352,1.38777-5.5511,2.69392-.16327,5.38783-.2449,8.00011-.40817.57143,1.87758.97961,3.67352,1.46941,5.46946,1.87757-.08163,3.75516-.16327,5.63273-.16327-2.20412-8.08175-4.57149-16.08186-6.77561-24.1636-2.85716,0-5.55108.0816-8.16336.24486Z"/><path d="M192.00268,16.24508c-2.85717-5.46942-5.796-10.77562-8.65318-16.16345-1.87758,0-3.8368.08163-5.71436.08163V24.65341c1.63267,0,3.18371-.08163,4.81638-.08163V8.0817c2.85719,5.46946,5.71436,10.77566,8.48992,16.24513h5.87764V0H192.0027Z"/><path d="M204.81918,4.48986c2.28574,0,4.48986.1633,6.694.2449V24.735c1.796.16327,3.67352.16327,5.46947.2449V4.898c2.20411.16327,4.48986.2449,6.694.32654V.898C217.39079.57144,211.105.40817,204.81918.2449Z"/><path d="M273.63647,21.22479c-2.85719-5.796-5.63273-11.51037-8.57155-17.30632-1.95921-.2449-3.8368-.40817-5.796-.57144V27.83716c1.63267.16327,3.26534.2449,4.898.4898V11.91853c2.77554,5.796,5.63273,11.51037,8.48992,17.388,1.87758.2449,3.8368.4898,5.71436.73471V5.5511c-1.551-.2449-3.18371-.40817-4.81638-.65307V21.22479Z"/><path d="M286.37135,10.36744c1.46941.2449,2.77554.40817,4.16332.65307v16.8982c-1.38778-.2449-2.69391-.40817-4.16332-.65307V31.0208c4.57149.65307,9.143,1.30614,13.71448,2.12248V29.38817c-1.46941-.16327-2.77554-.40817-4.16332-.65307V11.8369c1.38778.16327,2.69391.40817,4.16332.65307V8.73482c-4.57149-.65307-9.143-1.38777-13.71448-2.12248Z"/><path d="M245.79936,7.67358V22.53093c-.4898,0-.898-.08163-1.38778-.08163-1.95921-.2449-3.8368-.32653-5.796-.40817-.4898,0-.898-.08163-1.38778-.08163V5.63273c.4898,0,.898.08163,1.38778.08163,1.95921.16327,3.8368.32653,5.796.40817.4898,0,.898.08163,1.38778.08163Zm3.347-5.3062c-.4898,0-.97961-.08163-1.46941-.08163-4.00006-.32653-7.83686-.57144-11.75529-.898h-.4898c-.57143,0-1.06124-.08167-1.551-.08167-.7347,1.06124-1.38778,2.28575-2.12248,3.42862V21.95949c.7347,1.14287,1.38778,2.53065,2.12248,3.67352.4898,0,.97961.16327,1.551.16327h.4898c3.91843.2449,7.75521.4898,11.75527.898.4898,0,.97961.08163,1.46941.08163.73469-1.14287,1.46941-2.28575,2.12248-3.42862V6.12253c-.65306-1.22451-1.38776-2.449-2.12248-3.75515Z"/><path d="M322.04532,18.2043V33.06165c-.4898-.08163-.898-.2449-1.46941-.32653-1.87758-.40817-3.8368-.65307-5.71436-1.06124a9.492,9.492,0,0,0-1.46941-.32653V15.02059a9.492,9.492,0,0,0,1.46941.32653c1.87758.40817,3.8368.7347,5.71436,1.14291.57143.08163.97961.16327,1.46941.2449Zm5.30619-.81634c-.65306-1.30614-1.38778-2.77555-1.95921-4.08169-.57143-.08163-1.06124-.16327-1.551-.2449-3.8368-.81634-7.67358-1.551-11.67363-2.28575-.16326,0-.32654-.08163-.4898-.08163a9.49193,9.49193,0,0,1-1.46941-.32653,35.70865,35.70865,0,0,0-2.04084,3.26535V30.85757c.7347,1.30614,1.38778,2.61228,2.04084,3.91842.4898.08163.97961.2449,1.46941.32653a2.88677,2.88677,0,0,1,.4898.08163c3.91843.73471,7.83684,1.38778,11.67363,2.20411a8.671,8.671,0,0,0,1.551.32653c.65306-1.14287,1.38778-2.12248,1.95921-3.26535Z"/><polygon points="163.431 64.654 143.512 100.083 146.859 108.328 159.186 108.328 153.553 122.614 143.022 111.185 144.247 128.002 125.879 128.818 140.492 139.022 130.124 154.451 146.859 149.063 153.716 165.635 159.023 147.512 177.635 152.247 165.553 138.369 180.329 126.124 165.064 127.104 181.635 108.328 203.431 108.328 227.513 65.634 227.513 39.674 213.962 39.674 206.125 53.47 204.819 64.654 190.86 89.552 172.574 89.552 186.207 65.47 186.207 39.756 172.084 39.756 164.574 53.47 163.431 64.654"/><polygon points="222.452 43.511 216.085 43.511 211.187 52.082 217.799 52.082 222.452 43.511" fill="#c4ced4"/><polygon points="181.227 43.511 174.451 43.511 169.635 52.082 176.819 52.082 181.227 43.511" fill="#c4ced4"/><polygon points="168.411 98.205 154.206 130.614 147.839 123.757 148.492 132.41 138.941 132.818 146.533 138.206 141.226 146.206 149.88 143.349 153.472 151.92 156.165 142.533 165.88 145.063 159.594 137.798 167.268 131.43 156.492 132.165 155.757 132.165 178.125 98.369 197.554 98.369 214.779 67.593 208.085 67.593 193.635 92.981 158.859 92.981 173.39 67.593 166.615 67.593 149.063 98.369 168.411 98.369 168.411 98.205" fill="#c4ced4"/><polygon points="175.023 55.593 168.737 55.593 167.921 63.021 174.37 63.021 175.023 55.593" fill="#c4ced4"/><polygon points="216.411 55.593 210.207 55.593 209.391 63.021 215.758 63.021 216.411 55.593" fill="#c4ced4"/><path d="M151.18579,140.24686a2.79,2.79,0,0,0,2.85718-2.72112q.00167-.068,0-.13606a2.83941,2.83941,0,0,0-2.82153-2.85718q-.01783-.00011-.03565,0a2.85838,2.85838,0,0,0,0,5.71436Z"/></svg>