<?xml version="1.0" encoding="UTF-8" standalone="no"?>
<!-- Created with Inkscape (http://www.inkscape.org/) by Marsupilami -->
<svg
   xmlns:svg="http://www.w3.org/2000/svg"
   xmlns="http://www.w3.org/2000/svg"
   version="1.0"
   width="753"
   height="768"
   viewBox="0 0 61.146881 62.399132"
   id="svg20746">
  <defs
     id="defs20748">
    <clipPath
       id="clipPath20010">
      <path
         d="M 335.8173,532.9612 C 330.9389,532.9612 326.9827,536.9168 326.9827,541.7957 C 326.9827,546.6749 330.9389,550.6305 335.8173,550.6305 C 340.6966,550.6305 344.6526,546.6752 344.6526,541.7957 C 344.6526,536.9168 340.6966,532.9612 335.8173,532.9612"
         id="path20012" />
    </clipPath>
    <clipPath
       id="clipPath19998">
      <path
         d="M 321.6188,554.7054 C 319.7433,554.7054 317.8539,553.2125 317.4212,551.387 L 314.4547,539.4786 L 310.1405,522.4027 L 333.4041,522.4027 L 333.4041,522.4045 L 339.4248,522.4045 C 341.3006,522.4045 343.1899,523.8598 343.6227,525.6853 L 350.4888,554.73"
         id="path20000" />
    </clipPath>
    <clipPath
       id="clipPath19910">
      <path
         d="M 303.627,506.0807 L 337.5949,506.0941 C 339.3619,506.0948 341.1337,507.504 341.5315,509.2261 L 352.5035,555.9332 L 321.3189,555.939 C 318.4625,556.0286 315.8343,555.078 314.9582,551.569"
         id="path19912" />
    </clipPath>
  </defs>
  <g
     transform="translate(-344.42656,-501.16262)"
     id="layer1">
    <path
       d="M 344.42656,563.56175 L 386.88644,563.545 C 389.09519,563.54412 391.30994,561.78262 391.80719,559.63 L 405.52219,501.24612 L 366.54144,501.23887 C 362.97094,501.12687 359.68569,502.31512 358.59056,506.70137"
       id="path19902"
       style="fill:#000000;fill-opacity:1;fill-rule:nonzero;stroke:none" />
    <path
       d="M 392.01956,559.34975 C 391.63706,561.004 389.88106,562.401 388.18456,562.40212 C 388.18456,562.40212 348.66294,562.41687 345.99631,562.41787 C 346.64631,559.78212 359.93331,505.896 359.93331,505.896 C 360.73769,502.67612 362.93481,501.17112 366.84719,501.16262 C 366.84719,501.16262 402.95694,501.16975 405.57344,501.17025 C 404.96519,503.78312 392.01956,559.34975 392.01956,559.34975"
       id="path19904"
       style="fill:#959798;fill-opacity:1;fill-rule:nonzero;stroke:none" />
    <g
       transform="matrix(1.25,0,0,-1.25,-35.10719,1196.1626)"
       clip-path="url(#clipPath19910)"
       id="g19908">
      <path
         d="M 341.7014,509.4503 C 341.3954,508.1269 339.9906,507.0093 338.6334,507.0084 C 338.6334,507.0084 307.0161,506.9966 304.8828,506.9958 C 305.4028,509.1044 316.0324,552.2133 316.0324,552.2133 C 316.6759,554.7892 318.4336,555.9932 321.5635,556 C 321.5635,556 350.4513,555.9943 352.5445,555.9939 C 352.0579,553.9036 341.7014,509.4503 341.7014,509.4503"
         id="path19914"
         style="fill:#959798;fill-opacity:1;fill-rule:nonzero;stroke:none" />
    </g>
    <path
       d="M 7.59375,43.6875 L 7.5625,43.8125 L 6.4375,47.75 L 8.3125,47.75 C 8.3125002,47.750002 8.37475,47.58112 8.4375,47.375 L 6.84375,47.375 L 7.90625,43.6875 L 7.59375,43.6875 z M 33.15625,43.6875 L 33.125,43.8125 L 32,47.75 L 33.9375,47.75 C 33.9375,47.749998 33.99338,47.61475 34.0625,47.375 L 32.40625,47.375 L 33.46875,43.6875 L 33.15625,43.6875 z M 14.15625,43.71875 L 13,47.75 L 14.90625,47.75 C 14.90625,47.750002 14.968,47.59712 15.03125,47.375 L 13.40625,47.375 L 14.46875,43.71875 L 14.15625,43.71875 z M 16.8125,43.71875 C 16.8125,43.718748 16.67387,44.20675 16.5625,44.59375 C 16.687501,44.594121 16.8125,44.5935 16.875,44.59375 C 16.906,44.486501 17.02625,44.06012 17.125,43.71875 L 16.8125,43.71875 z M 27.1875,43.71875 L 26,47.75 L 30.25,47.75 L 30.375,47.375 L 26.4375,47.375 L 27.46875,43.71875 L 27.1875,43.71875 z M 39.6875,43.71875 L 38.53125,47.75 L 40.4375,47.75 L 40.5625,47.375 L 38.9375,47.375 L 39.96875,43.71875 L 39.6875,43.71875 z M 43.21875,43.71875 C 43.218751,43.718748 43.84525,45.28362 43.90625,45.4375 C 43.78713,45.563869 41.71875,47.75 41.71875,47.75 L 44.28125,47.75 C 44.281251,47.750002 44.4335,47.58937 44.625,47.375 L 42.34375,47.375 C 42.34375,47.375001 44.28475,45.31387 44.40625,45.1875 C 44.36162,45.078749 44.0245,44.23937 43.8125,43.71875 L 43.21875,43.71875 z M 46.1875,43.71875 C 46.1875,43.718751 46.05375,43.86363 45.90625,44.03125 C 45.933999,44.108882 45.98038,44.16175 46,44.21875 C 46.107381,44.095499 46.2785,43.90075 46.4375,43.71875 L 46.1875,43.71875 z M 20.875,43.90625 C 20.42,44.151501 20.32262,44.54713 20.3125,44.625 C 20.30962,44.635378 19.71875,46.71875 19.71875,46.71875 C 19.71,46.76475 19.71875,46.81425 19.71875,46.875 C 19.71875,47.068499 19.78187,47.3125 19.9375,47.5 C 20.07975,47.67113 20.28475,47.7495 20.53125,47.75 C 20.5315,47.750002 23.3125,47.75 23.3125,47.75 C 23.743749,47.749998 24.04513,47.5305 24.21875,47.25 C 24.08075,47.3245 23.90675,47.375 23.71875,47.375 L 20.9375,47.375 C 20.69163,47.374131 20.486,47.265 20.34375,47.09375 C 20.139501,46.848122 20.12037,46.50437 20.15625,46.3125 L 20.71875,44.34375 C 20.718749,44.343749 20.75212,44.21012 20.75,44.21875 C 20.7685,44.132871 20.81138,44.01612 20.875,43.90625 z M 22.5625,44.59375 C 22.54663,44.649502 22.49087,44.81175 22.4375,45 C 22.624871,45.000001 22.85975,45 23,45 C 22.947751,45.181381 22.79338,45.69612 22.6875,46.0625 C 22.815631,46.062501 22.94075,46.0625 23,46.0625 C 23.04738,45.898621 23.32675,44.86937 23.40625,44.59375 C 23.16937,44.593752 22.70825,44.59375 22.5625,44.59375 z M 29.15625,44.59375 C 29.137751,44.661122 29.11813,44.72112 29.09375,44.8125 C 29.33388,44.812118 30.51587,44.8125 31.09375,44.8125 L 31.15625,44.59375 C 30.568749,44.594619 29.31075,44.59375 29.15625,44.59375 z M 9.53125,44.625 C 9.5063698,44.712751 9.48112,44.84725 9.4375,45 C 9.7221197,45 10.10312,45 10.28125,45 C 10.26562,45.05562 10.23663,45.12587 10.21875,45.1875 C 10.35575,45.187499 10.47888,45.1875 10.53125,45.1875 C 10.56613,45.064869 10.632,44.8185 10.6875,44.625 C 10.42288,44.625001 9.69187,44.625 9.53125,44.625 z M 35.125,44.625 C 35.11312,44.666371 35.09125,44.823 35.03125,45.03125 C 35.100131,45.03125 35.15075,45.031 35.21875,45.03125 C 35.125881,45.352379 34.4375,47.75 34.4375,47.75 L 36.375,47.75 L 36.46875,47.375 L 34.84375,47.375 C 34.843749,47.375001 35.56375,44.94575 35.65625,44.625 C 35.472871,44.624372 35.24387,44.62537 35.125,44.625 z M 28.78125,45.90625 C 28.765,45.960121 28.74075,45.99012 28.71875,46.0625 C 28.96688,46.062999 30.18487,46.06225 30.75,46.0625 L 30.8125,45.90625 C 30.21612,45.906499 28.932,45.906 28.78125,45.90625 z M 15.6875,46.0625 C 15.67125,46.1195 15.64637,46.28488 15.59375,46.46875 C 15.74525,46.468501 15.909,46.46912 16.03125,46.46875 C 15.953499,46.740621 15.65625,47.75 15.65625,47.75 L 17.53125,47.75 L 17.65625,47.375 L 16.0625,47.375 C 16.0625,47.375001 16.35938,46.33488 16.4375,46.0625 C 16.213629,46.062999 15.82663,46.06188 15.6875,46.0625 z M 11.59375,46.34375 C 11.39938,46.441748 11.17,46.49425 10.8125,46.5 L 9.78125,46.5 C 9.7812499,46.5 9.1655,46.50038 9,46.5 C 8.9797501,46.567129 8.92562,46.70775 8.875,46.875 C 9.1034998,46.875501 9.375,46.90625 9.375,46.90625 L 10.375,46.90625 C 11.05875,46.894879 11.36325,46.71675 11.59375,46.34375 z M 45.5625,46.375 C 45.469999,46.47825 45.3095,46.67212 45.15625,46.84375 C 45.253369,47.16075 45.4375,47.75 45.4375,47.75 L 47.46875,47.75 C 47.468751,47.750002 47.40888,47.57638 47.3125,47.34375 L 45.84375,47.375 C 45.843751,47.375001 45.65387,46.67325 45.5625,46.375 z M 16.21875,49.09375 L 16.15625,49.28125 L 16.1875,49.28125 L 14.125,56.875 C 13.98762,57.551248 14.05138,58.486 14.625,59.1875 C 15.10513,59.775002 15.85075,60.09375 16.8125,60.09375 L 22.34375,60.09375 L 22.625,60.09375 L 22.78125,59.59375 L 22.90625,59.0625 C 21.145631,59.064252 16.56275,59.09375 16.5625,59.09375 C 16.052251,59.093131 15.65737,58.89975 15.375,58.53125 C 15.06837,58.131251 14.9375,57.54788 14.9375,56.96875 C 14.9375,56.582379 15.003,56.18275 15.09375,55.84375 L 16.90625,49.09375 L 16.40625,49.09375 L 16.21875,49.09375 z M 21.59375,49.125 L 21.5625,49.28125 C 21.44275,49.722749 20.30888,53.83638 19.78125,55.78125 C 20.075999,55.781879 20.36637,55.78125 20.46875,55.78125 C 20.522001,55.584252 21.73013,51.15987 22.28125,49.125 L 21.78125,49.125 L 21.59375,49.125 z M 26.71875,49.125 L 23.75,60.09375 L 27.75,60.09375 C 27.75,60.093751 27.8665,59.70313 28.03125,59.09375 L 24.71875,59.09375 L 27.40625,49.125 C 27.07038,49.124999 26.84375,49.125 26.84375,49.125 L 26.71875,49.125 z M 6.15625,49.40625 C 5.55,49.594118 5.20387,50.07 5,50.78125 C 4.8915001,51.157632 4.23438,53.68962 4.15625,54 C 3.9353798,54.879999 4.35412,55.59413 5.125,55.78125 C 6.5043702,55.781249 9.6755,55.78125 9.875,55.78125 C 9.9216197,55.623629 10.01875,55.2545 10.09375,55 C 9.6757502,55.0005 6.75,55 6.75,55 C 6.2047498,55.000251 5.73113,54.782 5.4375,54.40625 C 5.1338802,54.01688 5.04663,53.49862 5.1875,52.9375 C 5.2644998,52.629749 5.95175,50.073 6.0625,49.6875 C 6.09288,49.583118 6.12,49.50012 6.15625,49.40625 z M 37.65625,49.40625 C 37.0495,49.59425 36.704,50.07 36.5,50.78125 C 36.390998,51.157632 35.70288,53.68962 35.625,54 C 35.404001,54.879999 35.82338,55.59413 36.59375,55.78125 C 37.973749,55.781249 41.14412,55.78125 41.34375,55.78125 C 41.390002,55.623629 41.48788,55.2545 41.5625,55 C 41.144501,55.0005 38.21875,55 38.21875,55 C 37.67475,55.000251 37.23138,54.78237 36.9375,54.40625 C 36.63375,54.017 36.516,53.49837 36.65625,52.9375 C 36.738751,52.607502 37.42625,50.054 37.53125,49.6875 C 37.561369,49.583118 37.61988,49.5005 37.65625,49.40625 z M 30.78125,51.40625 C 30.7665,51.461121 30.65387,51.86925 30.5,52.4375 C 30.785999,52.438119 31.09037,52.43725 31.25,52.4375 C 31.1335,52.863622 29.15625,60.09375 29.15625,60.09375 L 33.125,60.09375 L 33.40625,59.09375 L 30.125,59.09375 C 30.124999,59.093748 32.103,51.83175 32.21875,51.40625 C 31.895631,51.405619 30.98287,51.4065 30.78125,51.40625 z M 9.96875,51.46875 C 9.9242505,51.630371 9.81938,51.99725 9.75,52.25 C 10.161,52.250371 13.15625,52.25 13.15625,52.25 C 13.28912,52.2495 13.415,52.29075 13.53125,52.3125 L 13.96875,52.28125 L 14.1875,51.46875 C 12.6655,51.470249 10.14863,51.46837 9.96875,51.46875 z M 41.46875,51.46875 C 41.424499,51.630371 41.31937,51.99725 41.25,52.25 C 41.661369,52.250371 44.625,52.25 44.625,52.25 C 44.757751,52.2495 44.88425,52.29075 45,52.3125 L 45.4375,52.28125 L 45.65625,51.46875 C 44.134,51.470249 41.64862,51.46837 41.46875,51.46875 z M 3.375,57 L 2.5625,60.03125 L 10.8125,60.03125 C 11.47625,60.034499 11.86437,59.6555 12.125,59.1875 C 12.09087,59.189501 12.06563,59.18775 12.03125,59.1875 L 3.5625,59.1875 L 4.15625,57 L 3.375,57 z M 34.875,57 L 34.03125,60.03125 L 42.28125,60.03125 C 42.945371,60.034499 43.33338,59.6555 43.59375,59.1875 C 43.559881,59.189501 43.53437,59.18775 43.5,59.1875 L 35.03125,59.1875 L 35.625,57 L 34.875,57 z"
       transform="translate(344.42656,501.16262)"
       id="path19916"
       style="fill:#000000;fill-opacity:1;fill-rule:nonzero;stroke:none" />
    <path
       d="M 8.25,43.59375 C 8.19587,43.78213 7.3433701,46.738002 7.25,47.0625 C 7.52412,47.0625 8.3689999,47.062502 8.53125,47.0625 C 8.57987,46.90275 8.7499996,46.312501 8.75,46.3125 L 8.78125,46.1875 L 9.78125,46.21875 C 9.78125,46.21875 10.78087,46.218749 10.78125,46.21875 C 11.54537,46.20625 11.70612,46.009119 11.9375,45.46875 C 12.05525,45.1945 12.23438,44.630131 12.25,44.28125 C 12.25088,44.26513 12.25,44.236118 12.25,44.21875 C 12.25,44.07037 12.21638,43.878128 12.09375,43.75 C 11.98963,43.64063 11.81075,43.594129 11.59375,43.59375 C 11.59375,43.59375 8.4551203,43.59413 8.25,43.59375 z M 14.8125,43.59375 C 14.75812,43.78138 13.87525,46.737632 13.78125,47.0625 C 14.05662,47.0625 14.92863,47.062502 15.09375,47.0625 C 15.14475,46.88538 15.46875,45.781252 15.46875,45.78125 L 16.8125,45.78125 C 16.8125,45.78125 16.51525,46.790882 16.4375,47.0625 C 16.71075,47.0625 17.5545,47.062502 17.71875,47.0625 C 17.77325,46.875 18.656,43.91888 18.75,43.59375 C 18.47613,43.59375 17.633,43.59375 17.46875,43.59375 C 17.4175,43.771 17.093749,44.906249 17.09375,44.90625 L 15.71875,44.90625 C 15.71875,44.90625 16.01325,43.86675 16.09375,43.59375 C 15.8175,43.59375 14.97712,43.59375 14.8125,43.59375 z M 21.96875,43.59375 C 21.18425,43.59375 21.039999,44.245131 21.03125,44.28125 L 20.96875,44.4375 C 20.96875,44.4375 20.438119,46.375002 20.4375,46.375 C 20.43312,46.39862 20.437499,46.431131 20.4375,46.46875 C 20.4375,46.59488 20.451129,46.771749 20.5625,46.90625 C 20.65038,47.01175 20.776119,47.061878 20.9375,47.0625 L 23.71875,47.0625 C 24.14975,47.0625 24.414631,46.731119 24.5,46.4375 L 25.09375,44.34375 C 25.10425,44.30462 25.124999,44.25475 25.125,44.1875 C 25.125,44.05012 25.094249,43.873252 25,43.75 C 24.91775,43.64212 24.78737,43.594129 24.625,43.59375 C 24.625,43.59375 21.969001,43.593751 21.96875,43.59375 z M 27.8125,43.59375 C 27.75837,43.782 26.90587,46.738002 26.8125,47.0625 C 27.15062,47.0625 30.27262,47.062502 30.46875,47.0625 C 30.507,46.9285 30.594751,46.559249 30.65625,46.34375 C 30.33263,46.34375 28.343749,46.343749 28.34375,46.34375 L 28.5625,45.625 C 28.5625,45.625 30.67638,45.625002 30.875,45.625 C 30.90888,45.5065 30.97925,45.277748 31.03125,45.09375 C 30.70875,45.09375 28.718751,45.093751 28.71875,45.09375 L 28.9375,44.3125 C 28.9375,44.3125 31.0545,44.312498 31.25,44.3125 C 31.28962,44.18137 31.40212,43.811 31.46875,43.59375 C 31.12537,43.59375 28.008,43.59375 27.8125,43.59375 z M 33.8125,43.59375 C 33.75875,43.78225 32.905368,46.737878 32.8125,47.0625 C 33.08875,47.0625 33.958618,47.062498 34.125,47.0625 C 34.1805,46.86875 34.906251,44.343751 34.90625,44.34375 L 36.03125,44.34375 C 36.03125,44.34375 35.342501,46.741128 35.25,47.0625 C 35.52563,47.06275 36.396498,47.062499 36.5625,47.0625 C 36.70362,46.569 37.312502,44.46937 37.3125,44.46875 C 37.34,44.373 37.343751,44.265249 37.34375,44.15625 C 37.34375,44.00738 37.32813,43.853251 37.25,43.75 C 37.16588,43.63775 37.031,43.593751 36.84375,43.59375 C 36.84375,43.59375 34.016499,43.593998 33.8125,43.59375 z M 40.3125,43.59375 C 40.25875,43.78288 39.40512,46.738752 39.3125,47.0625 C 39.587,47.0625 40.459748,47.062502 40.625,47.0625 C 40.67912,46.87475 41.530999,43.9185 41.625,43.59375 C 41.34875,43.59375 40.478619,43.59375 40.3125,43.59375 z M 44.0625,43.59375 C 44.19,43.90788 44.750001,45.25 44.75,45.25 C 44.75,45.25 43.3615,46.685882 43,47.0625 C 43.44462,47.0625 44.463252,47.062502 44.5625,47.0625 C 44.64138,46.97425 45.6875,45.8125 45.6875,45.8125 C 45.6875,45.8125 46.010498,46.894132 46.0625,47.0625 C 46.22512,47.0625 47.131501,47.06287 47.4375,47.0625 C 47.30675,46.746 46.750001,45.374999 46.75,45.375 C 46.75,45.375 48.150502,43.9715 48.53125,43.59375 C 48.06987,43.5935 47.038378,43.593751 46.9375,43.59375 C 46.8585,43.684 46.031249,44.59375 46.03125,44.59375 L 45.875,44.78125 C 45.875,44.78125 45.525129,43.75313 45.46875,43.59375 C 45.31225,43.59375 44.368752,43.59375 44.0625,43.59375 z M 9.3125,44.3125 L 10.875,44.3125 L 11.09375,44.3125 L 10.75,45.46875 L 9,45.46875 L 9.3125,44.3125 z M 22.34375,44.3125 L 23.59375,44.3125 L 23.78125,44.3125 L 23.21875,46.34375 L 21.75,46.34375 L 22.34375,44.3125 z M 8.0625,48.46875 C 7.17687,48.47363 6.67325,48.884251 6.40625,49.8125 C 6.29575,50.19662 5.6391301,52.724631 5.5625,53.03125 C 5.52625,53.17463 5.4999998,53.30388 5.5,53.4375 C 5.5,53.72388 5.5900002,53.983619 5.75,54.1875 C 5.97388,54.47512 6.3178801,54.62525 6.75,54.625 L 10.59375,54.625 L 10.125,56.15625 C 10.125,56.15625 5.0102502,56.156251 4.75,56.15625 C 4.68925,56.379 4.1324998,58.473499 4.03125,58.84375 C 5.36962,58.84375 12.03037,58.843749 12.03125,58.84375 C 12.6985,58.84663 13.17887,58.409379 13.46875,57.5 C 13.61112,57.05275 14.05262,55.204379 14.15625,54.78125 C 14.24762,54.40875 14.43387,53.479622 14.03125,52.96875 C 13.84725,52.73562 13.5485,52.623129 13.15625,52.625 L 9.28125,52.625 L 9.71875,51.09375 C 9.71875,51.09375 14.79838,51.093751 15.0625,51.09375 C 15.12038,50.86725 15.6565,48.83313 15.75,48.46875 C 15.31438,48.46875 8.0625004,48.46875 8.0625,48.46875 z M 17.4375,48.46875 C 17.17513,49.44363 15.4375,55.93625 15.4375,55.9375 C 15.35513,56.24437 15.28125,56.61062 15.28125,56.96875 C 15.28125,57.472 15.40225,57.980999 15.65625,58.3125 C 15.86738,58.58787 16.169379,58.7185 16.5625,58.71875 C 16.5625,58.71875 23.049,58.719371 23.3125,58.71875 C 23.38075,58.466 25.94713,48.896499 26.0625,48.46875 C 25.66938,48.46875 23.04937,48.468749 22.8125,48.46875 C 22.743,48.72437 20.75,56.124999 20.75,56.125 L 18.5625,56.125 C 18.5625,56.125 20.540381,48.894879 20.65625,48.46875 C 20.26388,48.4685 17.674749,48.469128 17.4375,48.46875 z M 27.9375,48.46875 C 27.86925,48.7215 25.30262,58.2915 25.1875,58.71875 C 25.58037,58.71875 28.20088,58.71875 28.4375,58.71875 C 28.50688,58.46313 30.5,51.0625 30.5,51.0625 L 32.6875,51.0625 C 32.6875,51.0625 30.710001,58.29262 30.59375,58.71875 C 30.98688,58.719 33.575252,58.749748 33.8125,58.75 C 34.07488,57.775 35.812131,51.25 35.8125,51.25 C 35.89463,50.944 35.937499,50.576502 35.9375,50.21875 C 35.9375,49.71462 35.84863,49.237629 35.59375,48.90625 C 35.38325,48.63063 35.08,48.46875 34.6875,48.46875 C 34.6875,48.46875 28.201,48.468752 27.9375,48.46875 z M 39.53125,48.46875 C 38.64613,48.47363 38.141879,48.853379 37.875,49.78125 C 37.7705,50.146 37.113371,52.702001 37.03125,53.03125 C 36.99512,53.17438 36.968749,53.303751 36.96875,53.4375 C 36.96875,53.72375 37.058872,53.983001 37.21875,54.1875 C 37.44262,54.4745 37.787119,54.62525 38.21875,54.625 L 42.0625,54.625 L 41.625,56.15625 C 41.625,56.15625 36.479372,56.156251 36.21875,56.15625 C 36.15775,56.379 35.6015,58.473499 35.5,58.84375 C 36.83837,58.84375 43.499379,58.843749 43.5,58.84375 C 44.1675,58.84663 44.647249,58.409379 44.9375,57.5 C 45.072,57.07713 45.530621,55.292631 45.65625,54.78125 C 45.74725,54.4085 45.903249,53.479252 45.5,52.96875 C 45.31637,52.73562 45.017621,52.623129 44.625,52.625 L 40.75,52.625 L 41.1875,51.09375 C 41.1875,51.09375 46.267501,51.093751 46.53125,51.09375 C 46.58937,50.86725 47.124999,48.83313 47.21875,48.46875 C 46.78275,48.46875 39.53125,48.46875 39.53125,48.46875 z"
       transform="translate(344.42656,501.16262)"
       id="path19970"
       style="fill:#ffffff;fill-opacity:1;fill-rule:nonzero;stroke:none" />
    <path
       d="M 366.91631,502.78087 C 364.57194,502.78087 362.21019,504.647 361.66931,506.92887 L 357.96119,521.81437 L 352.56844,543.15925 L 381.64794,543.15925 L 381.64794,543.157 L 389.17381,543.157 C 391.51856,543.157 393.88019,541.33787 394.42119,539.056 L 403.00381,502.75012"
       id="path19992"
       style="fill:#51007b;fill-opacity:1;fill-rule:nonzero;stroke:none" />
    <g
       transform="matrix(1.25,0,0,-1.25,-35.10719,1196.1626)"
       clip-path="url(#clipPath19998)"
       id="g19996">
      <path
         d="M 342.6522,539.3071 L 346.9213,542.2915 L 347.6641,543.542 L 342.1674,543.2791 L 341.5965,547.3425 L 345.4859,550.9332 L 344.3895,550.8635 L 338.2044,548.7629 L 337.3758,554.0788 L 336.5578,553.4839 L 333.6685,548.8698 L 331.7141,547.6859 L 328.5009,552.9551 L 327.8807,550.9332 L 328.1906,547.1703 L 328.2191,545.6235 L 328.1631,545.5441 L 323.6158,547.5087 L 324.1869,545.2974 L 326.2246,542.7418 L 323.1181,542.8897 L 323.8507,541.5413 L 325.5149,540.817 L 312.4279,531.3241 L 314.7416,532.2094 L 322.8115,537.6267 L 312.4366,528.6558 L 311.4201,527.4005 L 325.4142,537.6464 L 324.7851,536.212 L 311.7806,524.2955 L 310.3744,522.468 L 325.0118,533.3808 L 326.4461,533.2172 L 317.4025,524.5924 L 315.8695,522.4663 L 329.2041,532.759 L 331.6303,533.3431 L 321.4541,524.6508 L 319.8095,522.4587 L 334.3479,532.9152 L 336.7996,529.0355 L 339.0782,527.6686 L 339.8085,534.8277 L 344.5376,534.815 L 345.867,535.6082"
         id="path20002"
         style="fill:#000000;fill-opacity:1;fill-rule:nonzero;stroke:none" />
      <path
         d="M 347.6641,543.542 L 342.853,545.2569 L 345.4859,550.9332 L 339.5713,548.6791 L 337.3758,554.0788 L 334.6793,549.7579 L 328.5009,552.9551 L 328.9607,547.1118 L 323.6158,547.5087 L 326.4197,543.9789 L 323.1181,542.8897 L 325.2333,541.9019 L 312.4279,531.3241 L 326.6833,540.7324 L 311.4201,527.4005 L 325.3076,535.95 L 310.3744,522.468 L 327.262,533.129 L 315.8695,522.4663 L 332.5078,533.1494 L 319.8095,522.4587 L 335.9557,532.3871 L 339.0782,527.6686 L 341.6615,535.6124 L 345.867,535.6082 L 343.808,540.6953"
         id="path20004"
         style="fill:#d7b025;fill-opacity:1;fill-rule:nonzero;stroke:none" />
    </g>
    <g
       transform="matrix(1.25,0,0,-1.25,-35.10719,1196.1626)"
       clip-path="url(#clipPath20010)"
       id="g20008">
      <path
         d="M 335.8134,532.6125 C 340.8882,532.6125 345.0013,536.7261 345.0013,541.8007 C 345.0013,546.8744 340.8882,550.9882 335.8134,550.9882 C 330.7404,550.9882 326.6263,546.8744 326.6263,541.8007 C 326.6263,536.7264 330.7404,532.6125 335.8134,532.6125"
         id="path20014"
         style="fill:#ad0e35;fill-opacity:1;fill-rule:nonzero;stroke:none" />
      <path
         d="M 335.8006,535.1125 C 340.0161,534.2129 344.1632,536.9011 345.0622,541.1172 C 345.9623,545.3328 343.2746,549.4792 339.0587,550.3792 C 334.8431,551.2789 330.6967,548.5907 329.797,544.3751 C 328.8975,540.1597 331.5854,536.0123 335.8006,535.1125"
         id="path20016"
         style="fill:#c56313;fill-opacity:1;fill-rule:nonzero;stroke:none" />
      <path
         d="M 334.8922,550.1454 C 334.8922,550.1454 345.7594,549.2529 343.0916,537.3761 C 343.0916,537.3761 346.0616,542.929 342.129,547.4481 C 342.129,547.4481 339.4179,550.6497 334.8922,550.1454"
         id="path20018"
         style="fill:#d7b025;fill-opacity:1;fill-rule:nonzero;stroke:none" />
      <path
         d="M 341.1201,544.453 C 341.0782,544.559 341.0497,544.6249 341.0396,544.6447 C 340.6457,545.4823 340.178,546.195 339.6662,546.8024 C 341.9024,547.3066 343.5132,547.0644 343.5389,547.0627 L 343.3501,547.6385 C 343.2311,547.6456 341.5896,547.875 339.2242,547.2925 C 338.6131,547.9205 337.9557,548.4167 337.2948,548.8096 C 337.6643,549.23 337.9568,549.7907 338.0721,550.5416 L 337.594,550.5282 C 337.594,550.5282 337.5227,549.722 336.8991,549.0331 C 334.4944,550.3167 332.1633,550.2966 332.021,550.3074 L 331.8698,549.7389 C 331.9888,549.7292 334.1709,549.6544 336.3581,548.5775 C 335.8937,548.2813 335.258,548.0717 334.3842,548.0717 C 334.3842,548.0717 330.2716,547.9414 328.4548,546.783 L 327.6685,545.4818 C 327.6685,545.4818 330.0934,547.5792 334.5346,547.5596 C 334.5346,547.5596 335.7717,547.5908 336.794,548.3494 C 337.3892,548.0175 337.9746,547.6063 338.508,547.0963 C 336.9632,546.6317 335.1729,545.8192 333.3219,544.4107 C 333.1613,544.2964 329.1321,541.3694 327.7889,536.485 L 329.1287,535.2824 C 330.3725,541.0496 333.9835,543.9953 334.0223,544.0233 C 335.718,545.4163 337.4487,546.1946 338.9615,546.6235 C 339.4954,546.0154 339.9561,545.2886 340.2926,544.4195 C 339.6412,544.3422 337.4086,543.8197 336.1045,540.2917 C 336.0955,540.2656 334.9003,536.3871 334.9003,536.3871 C 334.8639,536.2443 334.1609,533.2061 331.5998,533.1797 L 331.6116,532.1824 C 335.0752,531.6393 335.5431,533.6152 336.1822,535.9632 C 336.6006,537.7635 337.1367,539.9882 337.1367,539.9882 C 337.8124,543.2086 339.9355,543.7262 340.4964,543.8063 C 340.9231,542.27 341.6602,538.0377 339.0025,533.4655 L 340.3331,532.8664 C 340.5249,533.1653 340.8787,533.4736 341.0338,533.7774 C 342.7924,538.0814 341.9114,542.0464 341.3443,543.8162 C 343.5613,543.5829 344.8345,541.2854 344.8835,541.1866 L 345.5576,541.2977 C 345.4951,541.4238 344.1322,544.3456 341.1201,544.453"
         id="path20020"
         style="fill:#d7b025;fill-opacity:1;fill-rule:nonzero;stroke:none" />
      <path
         d="M 344.5816,542.9214 L 344.5816,542.9223 C 343.8742,543.8121 343.0451,544.2765 342.3037,544.5146 C 342.0107,544.6116 341.6965,544.6821 341.3589,544.7178 C 341.1085,544.7462 340.8891,544.7523 340.7135,544.749 C 340.3011,545.6003 339.8117,546.3184 339.2758,546.9223 C 341.6458,547.532 343.2922,547.2493 343.3188,547.2477 L 343.1425,547.7623 C 343.0939,547.7651 342.7892,547.8051 342.2875,547.812 L 342.2856,547.8139 C 341.0333,547.8488 339.8425,547.6535 338.8292,547.3895 C 338.247,547.9569 337.6257,548.4077 337.0002,548.7656 C 337.043,548.8085 337.0856,548.8524 337.1266,548.8987 C 337.5433,549.3527 337.7435,549.896 337.8337,550.3986 C 337.834,550.3986 337.834,550.3989 337.834,550.3989 C 337.8879,550.6992 337.9034,550.985 337.9034,551.2275 L 337.2369,550.9621 C 337.233,550.8392 337.2228,550.6897 337.1981,550.5261 L 337.1957,550.5264 C 337.1913,550.472 337.1819,550.4181 337.1691,550.3649 C 337.1682,550.3591 337.1675,550.3535 337.1664,550.348 C 337.0486,549.8599 336.6473,549.4156 336.3194,549.1201 C 333.9941,550.2179 331.8081,550.1489 331.6711,550.1598 L 331.5382,549.7389 C 331.6521,549.7296 333.6544,549.6609 335.7428,548.712 C 335.3714,548.5858 334.9091,548.5187 334.3292,548.5437 C 333.5757,548.6365 328.9505,548.6923 327.2948,546.9095 L 327.933,546.0282 C 328.0082,546.1091 328.0971,546.1876 328.1957,546.2637 C 328.239,546.2922 330.5715,547.8268 334.4076,547.788 C 334.4076,547.788 335.5014,547.7505 336.4668,548.3468 C 337.0287,548.0333 337.5813,547.6484 338.0903,547.1768 C 336.6904,546.7342 335.778,546.2256 335.778,546.2256 C 334.0973,545.3328 333.6097,544.9709 332.4002,543.9918 C 332.3377,543.9282 332.2771,543.863 332.2158,543.7977 C 330.9109,542.6307 328.549,540.1282 327.5813,536.609 L 328.8714,535.8498 C 329.0148,536.4818 329.1944,537.0795 329.3983,537.6439 C 329.5947,538.1752 329.806,538.6631 329.9805,539.0422 C 331.5436,542.3332 333.7845,544.1254 333.8148,544.1471 C 335.4887,545.4756 337.1217,546.2579 338.549,546.7131 C 339.0701,546.1395 339.5257,545.4568 339.8703,544.6439 C 339.6111,544.5812 339.2867,544.4725 338.9273,544.2834 C 336.4967,543.0676 335.8238,540.0437 335.8238,540.0437 C 335.8238,540.0439 335.8238,540.0439 335.8238,540.0439 C 335.4602,538.9446 334.7513,536.7981 334.7513,536.7981 C 334.7119,536.6558 333.9476,533.6323 331.3864,533.6582 L 331.3645,532.8798 C 332.6853,532.6451 333.1724,532.4114 333.7944,532.7641 C 333.8731,532.7498 334.1718,532.8145 334.4099,533.0726 C 334.4099,533.0726 334.8403,533.2741 335.37,534.5801 C 335.5877,535.092 335.7578,535.6844 335.9453,536.323 C 335.9851,536.5162 336.0297,536.7213 336.0776,536.9326 C 336.0822,536.9517 336.0864,536.97 336.091,536.9897 C 336.091,536.9897 336.0922,536.9948 336.0938,537.0024 C 336.4474,538.5443 336.9664,540.3797 336.9664,540.3797 C 336.9879,540.4648 337.0116,540.5465 337.0345,540.6277 C 337.1835,541.0767 337.3404,541.4858 337.4984,541.7968 C 338.3086,543.3337 339.5162,543.8121 340.1155,543.9572 C 340.5182,542.5386 341.3832,538.0428 338.6253,533.3958 L 337.1664,531.6066 L 339.951,532.8416 C 342.763,537.2287 341.5518,542.2978 340.9886,544.0321 C 343.4551,543.9601 344.8181,541.6575 344.8669,541.5547 L 345.5056,541.4918 C 345.4778,541.5506 345.1846,542.211 344.5816,542.9214"
         id="path20022"
         style="fill:#000000;fill-opacity:1;fill-rule:nonzero;stroke:none" />
    </g>
  </g>
</svg>
