<?xml version="1.0" encoding="UTF-8" standalone="no"?>
<svg xmlns:rdf="http://www.w3.org/1999/02/22-rdf-syntax-ns#" xmlns="http://www.w3.org/2000/svg" xml:space="preserve" height="269.42" viewBox="0 0 269.35434 269.42087" width="269.35" version="1.1" xmlns:cc="http://creativecommons.org/ns#" xmlns:dc="http://purl.org/dc/elements/1.1/"><g transform="matrix(1.25 0 0 -1.25 -248.16 827.57)"><g><ellipse rx="106.94" ry="106.97" transform="scale(1,-1)" cy="-554.27" cx="306.25" fill="#9ea2a2"/><ellipse rx="103.17" ry="103.19" transform="scale(1,-1)" cy="-554.42" cx="306.79" fill="#0c2340"/><path d="m307.05 622.65c-5.2361 0.0307-10.403-0.54584-15.411-1.6781-0.46093-1.4892-1.0856-4.3925-0.039-7.0328 0.63086-1.5912 1.8538-2.8814 3.5766-3.8844 4.7256 1.924 9.856 3.8912 14.805 5.5469 6.2496 2.2813 11.802 3.5374 16.117 4.2031-0.11592 0.0322-0.2256 0.074-0.34063 0.10625-3.0699 0.89321-6.1488 1.5616-9.2266 2.0156-3.173 0.46663-6.3396 0.70501-9.4812 0.72344zm-20.175-2.9391c-9.7683-2.9627-18.784-8.0752-26.336-14.961 0.3303 0 0.70142-0.0109 1.05-0.0187 6.4727 0.3834 15.685 0.11883 20.95-0.0937 2.222 0.9986 4.9263 2.1871 7.9266 3.4594-1.3062 1.213-2.2998 2.6319-2.9438 4.2719-1.0195 2.6028-0.97972 5.2465-0.64687 7.3422zm48.6-3.4422-0.003-0.0797c-0.18822 0.005-14.558 0.33443-32.344-8.2906-0.31331-0.1819-0.62055-0.37815-0.92344-0.58438 5.5717-1.6312 10.174-1.9649 13.48-2.1906 0.77812-0.054 1.4699-0.10116 2.0703-0.15782l0.49375-0.0422c2.1471-0.18212 5.1505-0.52364 8.6875-1.1562 2.6298 3.2224 5.8069 5.2298 7.9453 5.7047 2.5227-0.9446 3.8106-2.4178 4.7281-4.5188 3.4943-1.4656 5.8344-4.0451 7.375-7.1281 8.0857-3.5213 16.214-8.7341 22.427-16.455-6.5102 15.054-18.367 27.686-33.936 34.898zm-37.052-12.297c-1.4709-1.626-2.6808-3.3429-3.5906-4.7859 1.8465-1.9215 5.3746-5.6145 7.1234-7.5812 3.0194-1.8169 6.0472-3.7862 9.05-5.8906 4.7813 5.3835 9.0291 9.7511 13.219 14.136-2.0347 0.2902-4.143 0.53213-6.3406 0.72031l-0.54531 0.0453c-0.56552 0.0566-1.2212 0.0987-1.9531 0.15-3.7653 0.25448-9.7491 0.71928-16.962 3.2063zm-38.034-3.6156c-1.7579 0.003-3.2491-0.0623-4.3797-0.14063-5.6676-6.2365-10.237-13.613-13.339-21.9 6.9476 7.2108 17.399 14.879 29.008 12.609 0.9176 1.6295 1.8469 3.2608 2.6922 4.7422-3.6259 2.3772-5.8905 4.0998-12.138 4.6609-0.64199 0.0181-1.2578 0.0271-1.8437 0.0281zm88.453-7.9172c2.0739-9.2926-0.27968-19.85-0.27968-19.85s5.0528-2.9246 6.2797-8.5016c0.005-0.003 0.674-0.28696 1.2047-1.1078 1.4116-1.7315 3.2128-5.7265 0.3172-13.581 0 0-1.7183 3.6662-5.3547-0.28125-0.31371-0.43745-0.61603-0.86987-0.91407-1.2969 6.9258-9.5313 12.202-19.478 14.888-29.188 3.0812 5.0506 5.5659 10.58 7.3 16.534 2.412 8.2869 3.1668 16.66 2.4906 24.778-1.7585 8.1066-7.4847 23.04-25.931 32.494zm-63.494-1.5891c-1.87-0.89406-3.9198-1.9349-5.8953-3.0781 5.5629-3.6494 9.7031-9.8205 12.853-17.069 4.4232 1.5354 7.4766 1.5672 7.4766 1.5672 2.9706 3.7784 5.7134 7.0925 8.2875 10.087-2.9732 2.0791-5.9654 4.0237-8.95 5.8109-3.2738 1.1782-11.091 2.3135-13.772 2.6812zm-18.389-3.8891c-12.171-0.40573-22.927-13.106-27.269-18.991-3.0351-14.77-1.0207-29.574 4.9719-42.473 3.2198 3.0185 6.317 6.1421 9.2641 9.2547-0.23094 9.8032 1.0845 19.255 3.9531 28.288 2.4068 7.5724 5.6457 13.972 9.0938 19.306 0.52371 1.0335 1.3988 2.6529 2.4375 4.5281-0.82249 0.0879-1.6402 0.11455-2.4516 0.0875zm8.3766-1.8266c-1.0413-0.75462-1.9829-1.5281-2.775-2.3063-7.9567-11.193-13.622-25.81-14.17-43.258 8.4987 9.357 15.493 18.027 20.264 22.619 3.3061 3.1771 6.6473 5.3514 9.6719 6.8406-3.164 7.2962-7.3422 13.257-12.991 16.105zm72.117-41.319c-4.4572-7.2421-6.6476-14.055-6.8969-26.008-0.13678-6.5476 3.0896-11.592 5.4859-19.377 5.9359 4.181 11.23 9.314 15.62 15.266-1.9728 9.7762-7.111 20.113-14.209 30.119z" fill="#236192"/><path d="m334.69 606.49c-1.314 0.0378-3.0021-1.1386-5.0719-4.9094 4.4171 4.7308 8.3047 1.6828 8.3047 1.6828-0.47254 1.123-1.5433 3.178-3.2328 3.2266zm-41.386-0.93438-9.4797-4.7578s-6.785 0.55953-10.352 0.66406c3.2529-2.0983 6.0766-4.5094 6.0766-4.5094l-4.1953-6.9594 8.9469 4.8656s5.6463-0.95086 10.788-2c-2.9384 3.3575-6.5125 5.8406-6.5125 5.8406l4.7281 6.8562zm3.8156-40.947c-5.1665-2.582-12.937-10.327-12.937-10.327 3.7461 2.5488 11.531 3.6984 11.531 3.6984 0.1612 3.1936 1.4062 6.6281 1.4062 6.6281z" fill="#78be20"/><path d="m306.56 631.3c-38.221 0-70.98-28.596-76.208-66.511-2.1706-15.744 0.49834-31.412 7.5531-45.283 0.88272 0.73458 1.7616 1.4869 2.6313 2.2484-6.4727 13.085-8.8962 27.796-6.8563 42.577 4.9966 36.265 36.328 63.609 72.88 63.609 3.368 0 6.7815-0.23399 10.147-0.69844 19.461-2.683 36.73-12.805 48.625-28.506 11.896-15.698 16.971-35.063 14.287-54.523-2.9601-21.474-15.154-39.817-32.194-51.211 0.23004-1.1433 0.43406-2.3459 0.60312-3.6094 18.474 11.84 31.75 31.387 34.919 54.361 2.8042 20.349-2.5032 40.597-14.941 57.011-12.438 16.415-30.492 26.999-50.841 29.803-3.5161 0.48537-7.0849 0.73281-10.606 0.73281zm33.645-31.925c0.15336-0.4801-0.0194-2.168-0.15626-3.4969 0 0-0.0124 0.0203-0.0203 0.0281-3.0838-0.5603-9.882 0.20841-12.087 1.3656-8.3592-8.9658-17.472-21.439-24.331-32.897-2.9732-6.057-5.8896-13.166-6.6172-18.941 0 0-0.94725 2.6124-1.1703 6.0953-3.7966-1.4656-16.696-7.8052-19.458-27.247 0 0 8.2014 8.4596 17.266 11.758 0 0-5.7423-15.037 5.2172-41.684 0 0 4.4356 16.341 13.713 20.462 5.6187-27.903 22.09-28.359 26.894-47.345 0 0 5.0321 9.8349-1.025 26.55 0 0 2.0904-0.58088 3.8594-2.6688 0 0-0.27484 4.8884-4.8453 15.438-2.9784 5.6484-3.9125 13.267-3.9125 13.267-2.6752-2.4233-3.3578-10.611-3.3578-10.611-8.1772 22.185 15.032 44.168 19.267 47.412 2.0687 1.586 3.3422 1.6103 4.1125 1.2312 0.79647 1.6504 0.72483 2.7092-0.23281 3.3984 0 0-0.40483 0.27571-0.49375 0.32187-2.4634 1.315-6.8777-2.5156-9.7594-4.1016-2.88-1.5859-7.0778-4.9668-9.1281-0.31093-2.0495 4.6558 2.6648 11.939 4.2969 16.52 3.6032 10.133 3.735 16.096 2.9734 19.323 3.3304-3.7592 4.3766-10.967 4.3766-10.967s1.2377 13.534-5.3797 17.098zm-72.152-77.281s-15.472-11.338-31.294-12.245c0 0 15.658-3.6891 22.278-0.98436-0.63612 0.41565-1.3473 1.0163-2.0531 1.9156 0 0 6.3951 4.1171 11.034 11.231 0.009 0.0262 0.024 0.0558 0.0344 0.0828z" fill="#9ea2a2"/><path d="m314.73 650.41-0.37656-2.8375 3.6125-0.47969-1.3422-10.127 2.9109-0.3875 1.3422 10.13 3.6125-0.47968 0.375 2.8359-10.134 1.3453zm-25.088-1.1578-0.41874-0.0703-3.6531-14.017 3.1828 0.55 1.8187 6.8781 4-5.875 3.2063 0.55313-8.136 11.981zm43.513-2.3531-3.7188-12.541 2.8141-0.83437 3.7188 12.538-2.8141 0.8375zm-56.7-0.69063-9.475-3.8344 1.0719-2.6516 3.3766 1.3656 3.8344-9.4688 2.7219 1.0984-3.8328 9.4734 3.3766 1.3656-1.0734 2.6516zm69.4-3.5625-6.1156-11.711 2.5875-1.3531 2.8172 5.3969 1.3344-4.9984 0.33749-0.17812 4.8578 1.7687-2.8188-5.3969 2.6109-1.3641 6.1141 11.712-0.39531 0.20625-8.6141-3.1453-2.3203 8.7984-0.0172 0.0641-0.37813 0.2zm-87.909-6.0656c-3.7112 0-6.7188-3.0075-6.7188-6.7188s3.0075-6.7172 6.7188-6.7172 6.7203 3.0059 6.7203 6.7172-3.009 6.7188-6.7203 6.7188zm0-3.0531c2.026 0 3.6656-1.6396 3.6656-3.6656 0-2.0234-1.6396-3.6672-3.6656-3.6672s-3.6656 1.6438-3.6656 3.6672c0 2.026 1.6396 3.6656 3.6656 3.6656zm108.39-3.4938-1.9156-2.2047-1.3062-1.5031-0.10469-0.12031-1.8094-2.0828-1.5531-1.7906-1.9172-2.2031 2.2047-1.9156 1.9125-1.6609c0.83741-0.7276 1.8192-1.1303 2.8422-1.1625 1.2104-0.0375 2.365 0.46937 3.1641 1.3922 0.7006 0.80519 1.0354 1.8233 0.96562 2.8672 0.73809 0.19868 1.4164 0.61899 1.9531 1.2359 0.8235 0.94721 1.1597 2.1135 0.94531 3.275-0.17428 0.9446-0.69536 1.8008-1.5484 2.5406l-1.6281 1.4172-2.2047 1.9156zm0.28749-4.1187 1.6312-1.4172c0.6849-0.59518 0.78743-1.1512 0.3125-1.6984-0.58296-0.67099-1.3121-0.28486-1.8219 0.15781l-1.5328 1.3312 1.4109 1.6266zm-124.33-1.5922-0.25782-0.005c-1.4622-0.0436-2.8412-0.7607-4.0969-2.1297-0.79209-0.86615-1.2757-1.8892-1.3672-2.8844-0.1098-1.1651 0.32043-2.2261 1.2406-3.0688 1.4247-1.3045 3.0995-1.3923 5.1203-0.26562l1.4062 0.77812c0.72936 0.41044 1.2012 0.56611 1.5906 0.20625 0.4671-0.4235 0.35436-1.0245-0.32969-1.7844-0.005-0.008-0.0115-0.0167-0.0203-0.0219-0.90626-0.98816-1.9315-1.0625-2.6234-1.0328l-0.25 0.0109-0.31875-3.2609 0.27656-0.0141c1.0866-0.0584 3.2146 0.17627 5.2328 2.3844 0.0192 0.0218 0.0371 0.0417 0.0563 0.0609 1.0248 1.1406 1.5715 2.2696 1.6281 3.3562 0.0593 1.1302-0.41011 2.1554-1.3922 3.0547-1.457 1.3332-3.0431 1.3604-5.3 0.0969l-1.575-0.87968c-0.57951-0.32765-0.91507-0.34085-1.2375-0.0438-0.37818 0.34681-0.30817 0.88003 0.18593 1.4281 0.003 0.003 0.003 0.005 0.005 0.008 0.56642 0.61695 1.1885 0.93433 1.9641 0.99531l0.26093 0.0187-0.19843 2.9922zm121.12-2.1172 1.8-1.5641c0.7407-0.64134 0.91498-1.4059 0.44531-1.9453-0.46969-0.53676-1.227-0.5149-1.8875 0.0594l-1.9125 1.6641 1.5547 1.7859zm16.958-5.7312-10.256-8.1188 5.5172-6.9719 2.2891 1.8125-3.6938 4.6688 1.7172 1.3578 3.1812-4.0188 2.2906 1.8109-3.1828 4.0187 1.6906 1.3391 3.6938-4.6688 2.2719 1.7984-5.5188 6.9719zm-151.24-4.3984-4.9312-7.3953 10.881-7.2562 4.9328 7.3953-2.4281 1.6219-3.3047-4.9547-1.8219 1.2125 2.8453 4.2672-2.4297 1.6203-2.8438-4.2656-1.7953 1.1953 3.3031 4.9547-2.4078 1.6047zm162.01-11.106-11.73-5.7812 1.2953-2.6344 5.4297 2.675-3.7094-6.1641 1.5469-3.1359s2.6834 4.5176 2.8734 4.8156c1.1223-1.1868 2.9648-1.347 4.5969-0.54531 2.4469 1.2078 3.2181 3.6313 1.8578 6.3875l-2.1609 4.3828zm-1.2844-3.9078 0.82813-1.6828c0.59343-1.2052 0.31417-2.0402-0.75156-2.5656-1.0788-0.53158-1.9285-0.25201-2.5219 0.95313l-0.82969 1.6828 3.275 1.6125zm-170.82-1.8734-1.1188-2.7391 6.3188-2.5812-9.2125-4.2016-0.17813-0.44063 12.209-4.9906 1.1062 2.7062-6.3484 2.5922 9.2547 4.2188 0.17812 0.44374-12.209 4.9922zm179.46-10.255-11.697-7.7687 0.10937-0.45313 7.875-1.8297-6.1812-5.1906 0.10937-0.45625 13.952-1.5781-0.72812 3.0109-6.7141 0.79219 5.5234 4.6312-0.10626 0.44375-7.039 1.6547 5.6234 3.7234-0.72656 3.0203zm-186.55-10.664-0.45469-2.9203 6.7422-1.0531-7.9969-6.2125-0.0719-0.47344 13.031-2.0391 0.45313 2.8906-6.7734 1.0594 8.0297 6.2359 0.075 0.47344-13.034 2.0391zm137.05-6.0656c0.644-0.99603 0.66645-2.3715 0.59062-3.2516 0.8644 0.21263 1.5105 0.24471 1.9906 0.21251-0.14203 0.39644-0.411 0.99082-0.89376 1.5781-0.68664 0.83479-1.6875 1.4609-1.6875 1.4609zm-6.825-1.3172c0.71888-2.128 0.56648-4.2819 0.39219-5.4766 1.0065 0.69273 1.9208 1.2642 2.7547 1.7312-0.1525 0.36167-0.38598 0.88038-0.74062 1.5078-0.66488 1.1947-2.4063 2.2375-2.4063 2.2375zm54.461-6.3922c-3.7113 0-6.7188-3.009-6.7188-6.7203 0-3.7112 3.0075-6.7156 6.7188-6.7156 3.7112 0 6.7203 3.0044 6.7203 6.7156 0 3.7113-3.0091 6.7203-6.7203 6.7203zm0-3.0547c2.026 0 3.6672-1.6396 3.6672-3.6656 0-2.0233-1.6412-3.6656-3.6672-3.6656s-3.6656 1.6423-3.6656 3.6656c0 2.026 1.6396 3.6656 3.6656 3.6656zm-173.6-3.8516-13.075-0.31251 0.0703-2.9359 13.073 0.31249-0.0687 2.936zm0.58281-10.77-12.925-2.7312 0.0937-0.4375 7.9047-4.6469-5.3141-7.3875-0.0391-0.0531 0.0891-0.41875 12.925 2.7297-0.60312 2.8578-5.9547-1.2578 3.0109 4.2063-0.0813 0.375-4.4547 2.625 5.9578 1.2578-0.60937 2.8812zm165.54-2.65-1.9812-8.4922 2.8984-0.67656 1.3156 5.6328 9.8375-2.2953 0.66875 2.8609-12.739 2.9703zm9.4656-16.35-14.47-0.65468-0.15782-0.39532 10.025-10.455 1.2 2.9984-4.9047 5.1547 7.0969 0.32968 1.2109 3.0219zm-19.437-11.055-4.7531-7.5141 2.4656-1.5594 3.1844 5.0312 1.85-1.1688-2.7391-4.3344 2.4656-1.5609 2.7438 4.3328 1.8219-1.1516-3.1828-5.0328 2.4438-1.5469 4.7531 7.514-11.053 6.9906zm-6.6234-13.927c-0.23356 0-2.3301-0.0171-3.7609-0.7125-0.75114-0.36423-1.4049-0.82881-1.9391-1.3656-0.68404-0.68667-1.167-1.494-1.3953-2.3531-0.37818-1.4378 0.0378-2.9429 1.0844-3.9328 1.0056-0.9472 2.4175-1.2484 3.7812-0.80312 0.45049 0.14728 0.97681 0.40566 1.5859 0.70625 0.71628 0.35119 1.7976 0.90714 2.2969 0.93594 1.2043 0.0706 1.175-1.6634-0.36563-2.4172-0.57162-0.27626-1.5512-0.56206-2.0609-0.62656l0.36875-2.9438c0.20129 0.0244 1.9823 0.26456 3.2484 1.0453 2.1654 1.3367 2.5879 3.0429 2.6437 3.9422 0.0566 0.84789-0.29752 2.0996-1.2125 2.9797-0.77292 0.74326-1.815 1.0869-2.9312 0.97188-1.0256-0.1072-2.232-0.70215-3.2969-1.225-0.46706-0.22828-0.94732-0.46475-1.2-0.54844-0.32939-0.1072-0.6075-0.0606-0.82187 0.14062-0.20128 0.18995-0.37186 0.55641-0.25156 1.0156 0.18296 0.68405 0.83987 1.3615 1.7609 1.8094 0.61696 0.3006 1.8379 0.41406 2.4609 0.41406l0.005 2.9672z" fill="#fff"/></g></g></svg>
