<?xml version="1.0" encoding="utf-8"?>
<!-- Designed by Vexels.com - 2016 All Rights Reserved - https://vexels.com/terms-and-conditions/  -->

<svg version="1.1" id="Layer_1" xmlns="http://www.w3.org/2000/svg" xmlns:xlink="http://www.w3.org/1999/xlink" x="0px" y="0px"
	 width="1200px" height="1200px" viewBox="0 0 1200 1200" enable-background="new 0 0 1200 1200" xml:space="preserve">
<g>
	<path fill="#273C7F" d="M1027.374,570.995c0-239.131-193.897-432.982-433.073-432.982c-239.177,0-433.074,193.851-433.074,432.982
		c0,239.122,193.897,432.964,433.074,432.964C833.477,1003.958,1027.374,810.117,1027.374,570.995z"/>
	<g>
		<g>
			<path fill="#273C7F" d="M260.205,945.921l-60.231,30.32c-3.176,1.42-5.05,2.439-5.614,3.076c-1.638,1.82-1.347,4.395,0.865,7.735
				l-1.702,1.893l-25.697-23.095l1.701-1.893c3.076,1.838,5.587,1.674,7.544-0.5c0.527-0.592,1.565-2.839,3.094-6.744l30.703-80.178
				c1.528-3.976,2.302-6.907,2.33-8.772c0.027-1.874-0.683-3.767-2.121-5.706l1.702-1.893l27.745,24.924l-1.701,1.902
				c-2.958-1.656-5.224-1.602-6.826,0.182c-0.819,0.91-1.674,2.493-2.566,4.75l-22.658,56.955l55.736-27.654
				c2.402-1.192,3.876-2.083,4.404-2.675c1.638-1.82,1.374-4.159-0.773-7.016l1.701-1.893l29.001,26.062l-1.701,1.892
				c-3.285-1.674-5.769-1.575-7.434,0.273c-0.565,0.636-1.302,2.12-2.203,4.449l-22.139,57.41l53.524-27.926
				c2.694-1.356,4.514-2.549,5.432-3.576c1.565-1.729,1.183-4.14-1.128-7.216l1.711-1.893l27.445,24.66l-1.702,1.893
				c-2.457-1.193-4.441-1.693-5.961-1.493c-1.519,0.2-4.285,1.319-8.299,3.349l-76.456,39.074c-3.649,1.865-5.896,3.258-6.743,4.214
				c-1.747,1.938-1.438,4.377,0.91,7.344l-1.711,1.892l-26.035-23.395l1.711-1.893c3.112,2.02,5.66,1.92,7.653-0.291
				c0.674-0.746,1.665-3.067,2.975-6.962L260.205,945.921z"/>
			<path fill="#273C7F" d="M372.132,1076.056l-43.806-21.421l-13.204,10.556c-1.829,1.474-3.012,2.757-3.548,3.849
				c-1.029,2.102-0.155,4.323,2.593,6.679l-1.119,2.276l-31.886-15.579l1.119-2.293c2.075,0.546,3.831,0.582,5.287,0.109
				c1.456-0.473,3.494-1.784,6.115-3.922l72.133-57.692c2.293-1.829,3.785-3.458,4.495-4.886c1.064-2.193,0.473-4.441-1.793-6.725
				l1.119-2.293l34.179,16.717l-1.119,2.284c-3.176-0.546-5.26,0.182-6.234,2.184c-0.673,1.383-0.991,3.176-0.964,5.378
				l-0.073,93.181c0,3.958,0.292,6.807,0.901,8.554c0.6,1.738,1.801,3.285,3.594,4.641l-1.119,2.284l-35.48-17.344l1.119-2.293
				c3.367,0.992,5.651,0.282,6.834-2.148c0.491-1.01,0.746-2.712,0.756-5.123L372.132,1076.056z M372.614,1059.722l1.374-42.422
				l-32.886,27.017L372.614,1059.722z"/>
			<path fill="#273C7F" d="M455.685,1087.676l-7.252,35.334c-0.319,1.556-0.2,2.839,0.373,3.849c0.573,1.01,1.701,1.929,3.404,2.776
				l-0.51,2.493l-32.804-6.724l0.509-2.503c1.957-0.137,3.376-0.555,4.269-1.237c0.892-0.683,1.501-1.812,1.82-3.367l18.499-90.151
				c0.328-1.611,0.227-2.904-0.327-3.877c-0.546-0.982-1.684-1.929-3.431-2.821l0.51-2.494l65.754,13.495
				c8.008,1.637,14.269,3.412,18.764,5.305c4.514,1.911,8.262,4.386,11.275,7.435c3.503,3.539,5.778,7.825,6.834,12.866
				c0.973,4.859,0.946,9.837-0.101,14.933c-3.567,17.361-15.169,25.57-34.825,24.623l14.368,33.587
				c2.539,5.888,4.486,9.736,5.851,11.566c1.365,1.829,3.24,3.058,5.623,3.713l-0.518,2.493l-37.973-7.789l0.519-2.502
				c2.693,0.127,4.194-0.538,4.495-2.003c0.191-0.928-0.546-3.439-2.22-7.525l-14.851-35.716L455.685,1087.676z M459.289,1070.132
				l35.416,7.271c5.232,1.073,8.963,1.674,11.184,1.81c2.211,0.128,4.323-0.118,6.324-0.737c4.34-1.329,7.08-4.777,8.226-10.337
				c1.138-5.559-0.027-9.809-3.485-12.748c-1.638-1.411-3.458-2.475-5.487-3.185c-2.02-0.719-5.696-1.62-11.029-2.721l-35.425-7.271
				L459.289,1070.132z"/>
			<path fill="#273C7F" d="M584.419,1104.393l1.657,36.026c0.082,1.583,0.51,2.803,1.319,3.64c0.791,0.846,2.12,1.456,3.976,1.847
				l0.118,2.549l-33.45,1.547l-0.109-2.548c1.847-0.619,3.121-1.365,3.821-2.247c0.691-0.874,1.001-2.121,0.928-3.704l-4.241-91.934
				c-0.073-1.638-0.5-2.866-1.274-3.685c-0.773-0.81-2.111-1.447-4.022-1.884l-0.118-2.548l67.056-3.094
				c8.171-0.383,14.659-0.2,19.491,0.527c4.841,0.746,9.091,2.22,12.757,4.441c4.268,2.565,7.525,6.16,9.792,10.783
				c2.138,4.468,3.33,9.309,3.576,14.495c0.819,17.708-8.417,28.519-27.7,32.441l22.195,29.019c3.903,5.077,6.743,8.335,8.517,9.764
				c1.766,1.438,3.886,2.175,6.352,2.22l0.118,2.548l-38.719,1.783l-0.118-2.538c2.648-0.555,3.94-1.565,3.867-3.049
				c-0.045-0.955-1.373-3.212-4.004-6.752l-23.185-30.966L584.419,1104.393z M583.591,1086.502l36.116-1.665
				c5.342-0.254,9.1-0.582,11.284-1.001c2.184-0.418,4.167-1.182,5.951-2.265c3.886-2.358,5.688-6.379,5.424-12.048
				c-0.255-5.669-2.43-9.5-6.507-11.493c-1.929-0.974-3.967-1.556-6.097-1.747c-2.139-0.2-5.924-0.164-11.365,0.09l-36.117,1.657
				L583.591,1086.502z"/>
			<path fill="#273C7F" d="M696.19,1129.08l-19.918-89.851c-0.337-1.547-0.965-2.666-1.865-3.33
				c-0.901-0.674-2.321-1.065-4.286-1.183l-0.546-2.484l32.686-7.243l0.555,2.484c-1.738,0.873-2.876,1.82-3.404,2.839
				c-0.518,1.01-0.619,2.293-0.264,3.849l19.902,89.841c0.363,1.62,1.001,2.757,1.929,3.449c0.937,0.691,2.348,1.073,4.241,1.137
				l0.555,2.494l-32.695,7.244l-0.546-2.494c1.728-0.919,2.857-1.875,3.384-2.866C696.455,1131.983,696.537,1130.682,696.19,1129.08
				z"/>
			<path fill="#273C7F" d="M762.646,1002.175c17.244-7.262,32.904-8.299,46.982-3.121c14.841,5.387,25.56,15.897,32.158,31.548
				c4.032,9.591,5.241,19.619,3.622,30.083c-3.157,20.457-16.143,35.489-38.947,45.099c-17.107,7.207-32.704,8.217-46.772,3.03
				c-7.535-2.757-14.187-7.071-19.956-12.931c-5.077-5.169-9.064-11.184-11.948-18.027c-4.223-10.028-5.551-20.265-3.986-30.712
				C726.811,1027.154,739.769,1012.167,762.646,1002.175z M769.889,1019.174c-9.427,3.967-16.097,10.109-19.992,18.427
				c-4.623,9.828-4.64,20.165-0.073,31.012c4.559,10.857,11.984,18.054,22.249,21.612c8.663,3.012,17.763,2.521,27.29-1.493
				c9.518-4.013,16.207-10.164,20.056-18.463c2.302-4.941,3.412-10.274,3.33-15.989c-0.082-5.077-1.111-9.945-3.067-14.587
				c-4.777-11.329-12.258-18.673-22.432-22.039C788.571,1014.751,779.453,1015.26,769.889,1019.174z"/>
			<path fill="#273C7F" d="M882.626,1012.34l21.957,28.6c0.974,1.264,2.03,2.02,3.158,2.247c1.137,0.227,2.575-0.027,4.331-0.764
				l1.547,2.029l-26.553,20.383l-1.556-2.02c1.174-1.565,1.793-2.912,1.856-4.032c0.064-1.119-0.39-2.32-1.356-3.576l-56.045-72.989
				c-1.001-1.301-2.056-2.074-3.158-2.302c-1.092-0.227-2.557,0.018-4.367,0.755l-1.556-2.02l53.233-40.885
				c6.488-4.968,11.921-8.545,16.307-10.701c4.386-2.166,8.717-3.385,12.994-3.668c4.968-0.327,9.7,0.756,14.205,3.259
				c4.304,2.439,8.044,5.723,11.22,9.855c10.802,14.05,9.4,28.199-4.176,42.441l34.798,11.119c6.115,1.929,10.3,2.985,12.576,3.149
				c2.275,0.164,4.431-0.445,6.479-1.82l1.556,2.02l-30.748,23.605l-1.548-2.02c1.857-1.957,2.33-3.531,1.429-4.714
				c-0.582-0.755-2.967-1.838-7.143-3.239l-36.726-12.157L882.626,1012.34z M871.715,998.135l28.673-22.021
				c4.24-3.249,7.134-5.678,8.69-7.271c1.547-1.592,2.748-3.349,3.586-5.26c1.838-4.149,1.028-8.49-2.439-12.985
				c-3.458-4.514-7.426-6.406-11.911-5.705c-2.139,0.3-4.141,0.991-6.006,2.047c-1.856,1.065-4.95,3.248-9.272,6.57l-28.673,22.021
				L871.715,998.135z"/>
			<path fill="#273C7F" d="M981.631,836.151l11.684,26.116l-2.375,0.901c-0.382-0.374-0.691-0.674-0.947-0.874
				c-1.392-1.137-3.849-1.182-7.38-0.145c-11.001,3.048-20.483,9.436-28.445,19.164c-3.521,4.296-6.087,8.527-7.708,12.686
				c-1.137,3.067-1.492,6.005-1.064,8.826c0.428,2.83,1.602,5.023,3.54,6.607c3.157,2.585,6.851,2.466,11.083-0.373
				c2.175-1.465,6.206-5.142,12.103-11.011l8.799-8.744c5.259-5.169,9.864-9.073,13.804-11.703c3.94-2.639,7.981-4.522,12.139-5.66
				c4.258-1.111,8.699-1.119,13.285-0.036c4.596,1.083,8.764,3.149,12.495,6.206c5.914,4.841,9.627,11.029,11.129,18.564
				c1.401,6.825,0.164,14.65-3.704,23.477c-2.857,6.597-6.797,12.958-11.811,19.083c-8.991,10.983-20.538,19.646-34.643,25.979
				c-2.931,1.401-4.577,2.321-4.941,2.767c-0.428,0.528-0.655,1.729-0.682,3.595l-2.366,1.01l-13.268-25.889l2.312-1.064
				c0.364,0.309,0.637,0.527,0.791,0.655c1.848,1.52,4.269,2.038,7.262,1.574c4.532-0.682,9.919-3.084,16.161-7.18
				c6.242-4.104,11.384-8.626,15.434-13.576c4.413-5.387,7.262-10.747,8.535-16.07c0.701-2.948,0.718-5.742,0.046-8.39
				c-0.674-2.658-1.93-4.732-3.777-6.242c-2.784-2.284-5.988-2.43-9.6-0.446c-2.511,1.401-6.689,4.96-12.53,10.674l-8.644,8.554
				c-5.806,5.751-10.065,9.682-12.795,11.785c-2.712,2.101-5.787,3.922-9.236,5.441c-4.869,2.167-10.019,2.803-15.432,1.884
				c-4.896-0.828-9.492-3.003-13.814-6.534c-7.107-5.824-11.01-13.04-11.702-21.676c-0.947-11.329,3.749-23.332,14.104-35.98
				c4.35-5.314,8.955-9.809,13.795-13.494c4.85-3.685,11.529-7.754,20.074-12.212c2.866-1.574,4.523-2.63,4.959-3.157
				c0.692-0.847,1.029-2.23,1.01-4.141L981.631,836.151z"/>
		</g>
	</g>
	<g>
		<g>
			<path fill="#273C7F" d="M212.268,282.853l-9.264,13.521c-0.564,0.828-0.8,1.583-0.71,2.257c0.091,0.664,0.528,1.465,1.302,2.393
				l-0.882,1.283l-12.758-8.744l0.882-1.283c1.174,0.409,2.084,0.537,2.73,0.373c0.647-0.164,1.247-0.664,1.82-1.492l17.781-25.962
				l1.283,0.882c-0.382,1.128-0.491,2.029-0.327,2.703c0.172,0.682,0.673,1.301,1.501,1.865l11.229,7.699
				c0.827,0.573,1.583,0.81,2.265,0.737c0.683-0.074,1.483-0.501,2.421-1.302l1.001,0.691c-1.182,14.46-5.114,26.572-11.802,36.327
				c-6.051,8.845-13.094,14.632-21.129,17.334c-10.11,3.404-19.875,1.884-29.283-4.577c-8.772-6.005-13.614-13.914-14.514-23.732
				c-0.855-9.309,2.093-18.881,8.836-28.718c2.148-3.13,4.449-5.887,6.925-8.253c2.466-2.375,5.596-4.859,9.382-7.462
				c1.957-1.319,3.212-2.375,3.74-3.149c0.391-0.555,0.528-1.428,0.428-2.593l1.373-0.71l8.699,15.424l-1.383,0.755
				c-0.901-0.573-1.619-0.892-2.148-0.946c-0.527-0.046-1.337,0.109-2.412,0.472c-2.339,0.792-5.022,2.476-8.053,5.033
				c-3.022,2.566-5.497,5.251-7.416,8.053c-3.922,5.724-5.569,11.566-4.941,17.526c0.718,6.743,4.058,12.148,10.019,16.234
				c5.769,3.949,11.848,5.077,18.245,3.367c5.86-1.565,10.92-5.45,15.161-11.657c2.074-3.021,3.766-6.242,5.087-9.654
				c1.328-3.422,2.12-6.616,2.374-9.582L212.268,282.853z"/>
			<path fill="#273C7F" d="M236.346,191.582c8.426-7.944,17.253-11.965,26.48-12.066c9.709-0.155,18.118,3.549,25.233,11.092
				c4.359,4.623,7.18,10.119,8.463,16.489c2.493,12.439-1.828,23.905-12.967,34.406c-8.353,7.889-17.143,11.866-26.37,11.965
				c-4.932,0.073-9.682-0.955-14.259-3.057c-4.022-1.865-7.598-4.441-10.71-7.743c-4.55-4.842-7.489-10.429-8.791-16.772
				C220.94,213.758,225.244,202.32,236.346,191.582z M244.126,199.754c-4.604,4.35-7.153,9.327-7.644,14.96
				c-0.601,6.651,1.574,12.593,6.506,17.835c4.932,5.224,10.738,7.744,17.417,7.544c5.641-0.164,10.792-2.439,15.442-6.825
				c4.659-4.386,7.216-9.382,7.68-14.987c0.282-3.34-0.2-6.643-1.447-9.919c-1.128-2.893-2.748-5.469-4.858-7.699
				c-5.151-5.469-11.029-8.053-17.618-7.762C253.981,193.138,248.822,195.422,244.126,199.754z"/>
			<path fill="#273C7F" d="M332.093,186.76l34.242-22.176c0.847-0.546,1.365-1.147,1.547-1.811c0.192-0.664,0.101-1.574-0.264-2.729
				l1.311-0.847l9.336,14.414l-1.31,0.846c-0.91-0.81-1.701-1.264-2.384-1.356c-0.682-0.1-1.447,0.128-2.293,0.664l-49.02,31.74
				l-0.846-1.302c0.8-0.909,1.255-1.701,1.356-2.384c0.09-0.683-0.128-1.447-0.674-2.293l-30.521-47.146
				c-0.546-0.846-1.146-1.356-1.81-1.547c-0.664-0.191-1.575-0.109-2.73,0.264l-0.846-1.31l17.389-11.256l0.846,1.301
				c-0.819,0.882-1.283,1.665-1.373,2.366c-0.082,0.691,0.145,1.466,0.691,2.312L332.093,186.76z"/>
			<path fill="#273C7F" d="M391.587,157.604l-21.093-52.05c-0.382-0.928-0.882-1.547-1.492-1.856
				c-0.619-0.309-1.529-0.401-2.73-0.264l-0.582-1.438l34.315-13.914c7.517-3.048,13.641-4.531,18.363-4.449
				c6.771,0.155,12.713,2.538,17.808,7.152c4.023,3.622,7.253,8.445,9.701,14.487c4.304,10.611,4.313,20.011,0.045,28.21
				c-1.792,3.458-4.304,6.424-7.571,8.927c-3.258,2.484-7.726,4.886-13.413,7.189l-34.315,13.913l-0.583-1.446
				c0.965-0.737,1.547-1.429,1.774-2.084C392.042,159.333,391.96,158.541,391.587,157.604z M402.825,146.757l16.871-6.843
				c5.387-2.184,9.136-4.558,11.247-7.125c4.523-5.514,4.941-12.831,1.237-21.967c-2.684-6.606-6.306-11.037-10.856-13.276
				c-2.53-1.247-5.196-1.783-8.008-1.619c-2.794,0.182-6.242,1.101-10.328,2.757l-16.88,6.834L402.825,146.757z"/>
			<path fill="#273C7F" d="M486.842,99.63l3.494,17.844l41.895-8.217c0.956-0.183,1.638-0.555,2.066-1.092
				c0.428-0.555,0.683-1.428,0.773-2.639l1.529-0.3l3.303,16.852l-1.529,0.292c-0.546-1.073-1.11-1.793-1.711-2.139
				c-0.591-0.346-1.365-0.418-2.32-0.237l-59.176,11.602l-0.291-1.528c1.073-0.537,1.793-1.111,2.138-1.711
				c0.346-0.592,0.418-1.384,0.227-2.375l-10.802-55.117c-0.2-0.983-0.565-1.684-1.11-2.111c-0.546-0.418-1.429-0.674-2.63-0.773
				l-0.3-1.52l58.02-11.375c0.964-0.191,1.646-0.555,2.074-1.11c0.41-0.555,0.674-1.429,0.765-2.621l1.528-0.3l3.303,16.843
				l-1.529,0.3c-0.537-1.064-1.11-1.783-1.701-2.129c-0.6-0.355-1.383-0.437-2.33-0.246l-40.748,7.981l3.021,15.469l26.444-5.186
				c0.955-0.191,1.638-0.555,2.066-1.101c0.418-0.537,0.673-1.419,0.773-2.62l1.52-0.3l3.23,16.452l-1.528,0.3
				c-0.537-1.046-1.101-1.756-1.701-2.12c-0.601-0.355-1.374-0.446-2.33-0.255L486.842,99.63z"/>
			<path fill="#273C7F" d="M572.161,71.857l0.664,40.348c0.009,1.01,0.246,1.765,0.718,2.275c0.456,0.51,1.275,0.928,2.448,1.229
				l0.019,1.555l-19.492,0.309l-0.027-1.547c1.165-0.346,1.965-0.783,2.411-1.31c0.446-0.519,0.664-1.292,0.647-2.293l-0.91-56.209
				c-0.018-0.964-0.254-1.711-0.718-2.221s-1.283-0.919-2.448-1.228l-0.027-1.556l22.558-0.364l0.018,1.556
				c-1.383,0.382-2.066,1.138-2.047,2.275c0.009,0.774,0.482,1.63,1.402,2.549l37.227,37.473l-0.637-39.375
				c-0.018-0.974-0.254-1.72-0.709-2.221c-0.473-0.519-1.283-0.928-2.457-1.228l-0.027-1.556l19.5-0.319l0.028,1.556
				c-1.165,0.346-1.966,0.773-2.421,1.301c-0.437,0.528-0.655,1.275-0.637,2.248l0.91,56.21c0.009,1.001,0.254,1.765,0.718,2.275
				c0.464,0.51,1.275,0.919,2.448,1.22l0.028,1.565l-20.912,0.328l-0.018-1.547c1.356-0.319,2.02-1.019,2.002-2.129
				c0-0.647-0.819-1.766-2.438-3.368L572.161,71.857z"/>
			<path fill="#273C7F" d="M769.171,85.625L757.185,98.42l-1.091-1.128c0.118-0.3,0.209-0.555,0.264-0.737
				c0.309-1.056-0.264-2.457-1.711-4.195c-4.422-5.469-10.365-9.3-17.836-11.475c-3.294-0.955-6.324-1.41-9.081-1.328
				c-2.02,0.09-3.777,0.591-5.268,1.501c-1.502,0.91-2.466,2.102-2.894,3.558c-0.691,2.394,0.282,4.45,2.921,6.161
				c1.365,0.864,4.441,2.265,9.209,4.195l7.116,2.893c4.222,1.729,7.552,3.395,10.01,4.987c2.457,1.592,4.514,3.422,6.179,5.496
				c1.674,2.139,2.757,4.632,3.267,7.48c0.5,2.839,0.346,5.688-0.483,8.508c-1.302,4.487-3.913,8.035-7.817,10.683
				c-3.54,2.412-8.289,3.567-14.241,3.494c-4.449-0.046-9.018-0.755-13.714-2.129c-8.435-2.448-16.17-6.907-23.204-13.34
				c-1.51-1.311-2.439-2.029-2.776-2.121c-0.409-0.118-1.146,0.036-2.22,0.464l-1.147-1.092l11.466-13.631l1.165,1.046
				c-0.082,0.281-0.145,0.491-0.182,0.609c-0.41,1.401-0.11,2.885,0.882,4.459c1.501,2.393,4.167,4.869,8.026,7.407
				c3.849,2.539,7.671,4.359,11.475,5.46c4.14,1.209,7.871,1.547,11.201,0.991c1.847-0.3,3.439-0.955,4.787-1.965
				c1.337-1.01,2.211-2.211,2.62-3.613c0.61-2.111-0.09-3.95-2.102-5.514c-1.401-1.074-4.431-2.593-9.108-4.523l-6.979-2.839
				c-4.678-1.902-7.945-3.367-9.801-4.404c-1.856-1.029-3.64-2.339-5.35-3.913c-2.421-2.221-4.031-4.978-4.832-8.254
				c-0.728-2.948-0.619-6.051,0.337-9.327c1.564-5.387,4.722-9.299,9.445-11.747c6.207-3.221,14.169-3.422,23.878-0.592
				c4.077,1.183,7.754,2.703,11.029,4.559c3.276,1.856,7.217,4.65,11.84,8.408c1.592,1.247,2.593,1.92,2.993,2.039
				c0.656,0.191,1.529,0.054,2.603-0.41L769.171,85.625z"/>
			<path fill="#273C7F" d="M823.605,115.864l-22.031,45.252c-0.437,0.901-0.564,1.692-0.382,2.357
				c0.182,0.664,0.728,1.401,1.638,2.203l-0.683,1.401l-18.627-9.072l0.674-1.392c1.192,0.218,2.111,0.191,2.739-0.073
				c0.637-0.273,1.183-0.855,1.62-1.766l22.021-45.243l-18.536-9.027c-0.874-0.418-1.638-0.555-2.302-0.382
				c-0.665,0.182-1.402,0.719-2.211,1.647l-1.392-0.683l7.508-15.433l1.392,0.682c-0.191,1.22-0.164,2.139,0.1,2.757
				c0.255,0.619,0.81,1.147,1.693,1.575l50.066,24.359c0.901,0.446,1.684,0.573,2.339,0.401c0.664-0.173,1.401-0.728,2.211-1.647
				l1.401,0.691l-7.517,15.424l-1.392-0.674c0.219-1.21,0.2-2.129-0.073-2.748c-0.273-0.628-0.855-1.165-1.766-1.601
				L823.605,115.864z"/>
			<path fill="#273C7F" d="M874.444,192.092l-24.769-17.216l-8.999,5.114c-1.247,0.71-2.084,1.374-2.511,1.984
				c-0.81,1.174-0.483,2.603,0.982,4.295l-0.892,1.283l-18.018-12.539l0.883-1.274c1.21,0.527,2.284,0.718,3.212,0.573
				c0.928-0.136,2.293-0.737,4.086-1.783l49.147-27.954c1.565-0.882,2.62-1.729,3.176-2.521c0.855-1.228,0.691-2.639-0.482-4.25
				l0.892-1.282l19.328,13.431l-0.892,1.283c-1.884-0.637-3.213-0.401-3.986,0.718c-0.546,0.773-0.9,1.829-1.073,3.158
				l-8.436,56.445c-0.363,2.384-0.436,4.149-0.227,5.259c0.219,1.111,0.81,2.166,1.774,3.158l-0.882,1.283l-20.065-13.959
				l0.882-1.275c1.966,0.937,3.422,0.719,4.368-0.636c0.382-0.555,0.701-1.565,0.919-3.03L874.444,192.092z M876.21,182.237
				l4.65-25.552l-22.467,13.167L876.21,182.237z"/>
			<path fill="#273C7F" d="M951.137,207.234l-34.733,36.426c-0.683,0.728-1.046,1.438-1.074,2.129
				c-0.036,0.691,0.264,1.547,0.883,2.593l-1.074,1.12l-14.997-14.287l1.074-1.127c1.073,0.573,1.947,0.827,2.639,0.764
				c0.682-0.063,1.373-0.455,2.066-1.183l34.724-36.435l-14.923-14.223c-0.71-0.674-1.401-1.028-2.084-1.056
				c-0.673-0.046-1.547,0.255-2.593,0.892l-1.128-1.073l11.839-12.421l1.128,1.073c-0.555,1.092-0.81,1.984-0.755,2.658
				c0.063,0.664,0.436,1.337,1.137,2.011l40.303,38.41c0.728,0.691,1.438,1.056,2.121,1.092c0.682,0.036,1.556-0.265,2.603-0.892
				l1.128,1.073l-11.848,12.421l-1.119-1.073c0.582-1.083,0.837-1.966,0.764-2.639c-0.064-0.683-0.464-1.365-1.192-2.066
				L951.137,207.234z"/>
			<path fill="#273C7F" d="M977.008,275.6l-14.714,10.693l25.115,34.533c0.573,0.783,1.192,1.256,1.866,1.401
				c0.673,0.155,1.583,0.019,2.721-0.409l0.909,1.264l-13.886,10.091l-0.91-1.255c0.756-0.947,1.165-1.766,1.22-2.457
				c0.063-0.682-0.191-1.419-0.764-2.202l-35.462-48.765l1.256-0.92c0.946,0.756,1.765,1.165,2.448,1.229
				c0.682,0.063,1.438-0.2,2.247-0.792l45.416-33.041c0.819-0.592,1.301-1.219,1.456-1.893c0.155-0.674,0.019-1.574-0.409-2.712
				l1.256-0.91l34.788,47.82c0.564,0.782,1.192,1.247,1.874,1.392c0.674,0.155,1.575,0.018,2.694-0.401l0.919,1.256l-13.886,10.101
				l-0.91-1.256c0.737-0.947,1.147-1.756,1.211-2.448c0.064-0.691-0.182-1.428-0.755-2.211l-24.424-33.587l-12.74,9.272
				l15.843,21.785c0.573,0.783,1.192,1.256,1.865,1.411c0.673,0.145,1.574,0.009,2.712-0.41l0.919,1.256l-13.576,9.864l-0.91-1.256
				c0.729-0.928,1.128-1.747,1.201-2.429c0.082-0.71-0.172-1.447-0.745-2.23L977.008,275.6z"/>
		</g>
	</g>
	<path fill="#F9B019" d="M594.301,162.199c-220.404,0-399.077,177.899-399.077,397.348s178.673,397.357,399.077,397.357
		s399.077-177.908,399.077-397.357S814.705,162.199,594.301,162.199z M594.301,186.377c206.99,0,374.798,167.08,374.798,373.17
		c0,63.407-15.906,123.11-43.924,175.396l1.092-4.705c0,0-78.959-14.068-192.532-69.23
		c-183.332-89.232-326.115-249.86-326.115-249.86v-48.674l-13.513-5.942l-10.819,10.273v16.761l-4.323-5.951l-1.629-28.118
		l-14.05,0.537c1.62,10.283-9.746,11.903-9.746,11.903s-1.274,11.438-4.514,52.724c-35.262,94.6-107.55,177.999-125.722,198.046
		c-2.484-17.362-3.794-35.107-3.794-53.161C219.511,353.457,387.31,186.377,594.301,186.377z M502.021,811.308
		c66.373-8.089,369.93-3.239,369.93-3.239l2.593-0.756c-3.586,4.004-7.235,7.935-10.983,11.785
		C808.117,811.209,649.482,810.554,502.021,811.308z M227.737,637.568c0.292-0.327,10.156-11.702,12.749-17.626
		c1.392-3.176-8.636,34.943-8.636,33.824c0-0.991-3.203-12.767-3.968-15.56C227.829,637.995,227.783,637.787,227.737,637.568z
		 M253.645,600.022c0,0,14.659-19.91,17.662-26.298l-22.549,128.897l-10.529-29.31L253.645,600.022z M254.491,717.109
		l28.091-160.301l25.551-42.468l-39.829,227.739l-11.957-20.994C255.71,719.766,255.11,718.437,254.491,717.109z M317.907,781.534
		l-22.176,3.013l54.125-304.776L349.1,611.297L317.907,781.534z M347.226,662.037l-0.383,115.749l-20.665,2.247L347.226,662.037z
		 M288.97,774.41c-5.26-4.896-15.033-21.803-15.033-21.803l47.355-262.308l28.555-58.629L288.97,774.41z M347.408,829.117
		l-1.993,9.418c-3.185-2.83-6.351-5.696-9.454-8.627L347.408,829.117z M378.047,384.323l6.388,5.26l11.648,380.685l-8.654,1.12
		L378.047,384.323z M391.923,827.497l8.108-0.81l1.384,52.87c-3.185-1.911-6.361-3.859-9.491-5.86V827.497z M416.757,648.879
		l38.327,117.25l-30.439,2.247L416.757,648.879z M415.247,614.673l-2.257-79.295l71.788,228.121l-21.803,2.247L415.247,614.673z
		 M410.742,502.301l-2.257-86.055c0,0,3.758,5.259,5.259,10.519c1.51,5.268,104.101,331.466,104.101,332.594
		c0,1.12-24.796,2.257-24.796,2.257L410.742,502.301z M773.757,747.338l-23.305-0.755l-18.409-63.134l26.299,14.659L773.757,747.338
		z M767.368,703.741l1.493,0.382l0.136,0.391l28.428,13.513l7.516,28.937l-22.54,0.373l-13.404-42.823L767.368,703.741z
		 M740.679,746.583c-1.128,0.382-24.051,1.51-24.051,1.51l-29.31-91.698l32.313,21.048
		C719.632,677.443,741.808,746.209,740.679,746.583z M707.984,748.466l-23.669,1.119c0,0-37.208-119.879-37.582-121.372
		l30.066,20.666L707.984,748.466z M676.043,750.341l-22.167,1.128l-49.229-154.831l29.31,19.919L676.043,750.341z M644.477,750.723
		l-25.551,1.501l-61.26-193.168l34.579,28.946L644.477,750.723z M612.164,753.717l-21.803,1.128c0,0-60.503-185.644-75.91-234.117
		c3.376,4.131,31.94,27.808,31.94,27.808L612.164,753.717z M580.597,755.227l-22.167,1.501l-89.068-276.967l33.824,30.066
		L580.597,755.227z M548.284,757.475l-22.549,1.883l-102.973-326.57l33.442,33.068L548.284,757.475z M807.198,723.67
		c12.403,6.005,59.758,24.041,60.877,24.041c1.128,0-52.605-0.745-54.116-0.745C812.467,746.965,807.198,723.67,807.198,723.67z
		 M434.319,897.092c-1.165-14.724-4.058-50.913-5.96-71.214c133.465-10.819,368.51,6.006,418.059,9.791
		c-66.564,60.295-155.032,97.057-252.116,97.057C537.064,932.726,482.839,919.932,434.319,897.092z"/>
</g>
</svg>
