<?xml version="1.0" encoding="UTF-8" standalone="no"?>
<svg xmlns:rdf="http://www.w3.org/1999/02/22-rdf-syntax-ns#" xmlns="http://www.w3.org/2000/svg" xml:space="preserve" height="253.81" viewBox="0 0 253.8425 253.81438" width="253.84" version="1.1" xmlns:cc="http://creativecommons.org/ns#" xmlns:dc="http://purl.org/dc/elements/1.1/"><g transform="matrix(1.25 0 0 -1.25 -37.788 1022)"><g><ellipse rx="100.74" ry="100.73" transform="scale(1,-1)" cy="-715.98" cx="132.07" fill="#c4ced4"/><ellipse rx="96.628" ry="96.781" transform="scale(1,-1)" cy="-716.47" cx="131.66" fill="#e31837"/><g><path d="m228.58 721.05-193.73-0.018c-0.09-1.656-0.1395-3.321-0.1395-4.9995 0-8.829 1.3005-17.469 3.7035-25.731 22.815 0.005 163.37 0.0135 186.57 0.027 2.4165 8.3295 3.717 17.046 3.717 25.947 0 1.5975-0.045 3.1905-0.126 4.7745" fill="#fff"/><path d="m119.28 619.37c3.9285-0.486 7.929-0.7425 11.988-0.747h0.0585 0.054 0.018c8.8245 0 17.37 1.1835 25.497 3.3795 25.452 7.308 47.169 25.358 59.859 48.524h-170.1c14.805-26.838 41.854-46.782 72.626-51.156" fill="#002b5c"/><path d="m191.13 748.16c-4.1535 7.6545-9.738 14.414-16.398 19.922-1.251 1.035-2.547 2.007-3.87 2.9475-11.02 7.857-24.48 12.501-39.042 12.528h-0.117c-36.104-0.005-65.606-28.332-67.473-63.99-0.0585-1.1475-0.09-2.3085-0.0945-3.474v-0.117c0.0045-9.3195 1.89-18.202 5.3055-26.28 0.423-1.008 0.8775-2.007 1.35-2.9925 3.789-7.8705 9.063-14.895 15.453-20.709 1.5975-1.458 3.267-2.835 4.995-4.131 11.264-8.433 25.24-13.432 40.392-13.45h0.036 0.0405 0.0135c8.1585 0.005 15.975 1.449 23.211 4.0995 25.848 9.459 44.307 34.263 44.338 63.392v0.036 0.005 0.045c0 9.315-1.89 18.194-5.301 26.271-0.855 2.0205-1.8 3.987-2.8395 5.8995" fill="#c4ced4"/><path d="m129.37 12.695s1.65 1.204 1.48 2.717l-2.11 18.844 4.31 0.482c0.84 0.096 1.48 0.105 1.82-0.474 0 0 0.53-4.747 1.13-10.063l4.36 9.588c0.64 1.575-0.76 1.688-0.76 1.688l1.28 0.175v-0.007l4.29 0.482c0.85 0.096 1.48 0.099 1.82-0.475l2.32-20.689-6.04-0.686-1.65-0.166s1.53 1.094 1.37 2.602l-0.9 8.016-5.13-10.786c-0.14-0.27-0.37-0.435-0.72-0.474-0.75-0.079-5.09-0.58-5.09-0.58l-1.78-0.194zm-3.16 0.256c-0.61 0.011-2.97 0.187-5.45 0.272-0.6 0.123-1.7 0.145-1.46 2.636l1 18.862 6.08-0.325 0.45-0.123s-0.41-0.693-0.55-1.863c0 0-0.96-17.099-0.96-17.887 0-0.781 0.89-1.572 0.89-1.572zm-12.77 0.5l-7.7 1.61s1.92 0.613 2.24 2.109l0.02 0.06 1.11 5.327-4.23 0.888c-1.24 0.259-1.5 1.494-1.5 1.494l-1.81-9.017-7.277 1.512s1.5 0.701 1.82 2.197l0.035 0.06 3.832 18.502 4.25-0.879c0.84-0.168 1.44-0.367 1.59-1.019l-1.55-7.428 5.89-1.23 1.68 8.095 4.25-0.871c0.84-0.174 1.44-0.372 1.59-1.019l-4.24-20.391zm43.34 3.938c-0.38 0.022-0.7 0.086-0.99 0.193-1.14 0.428-2.11 1.815-2.93 4.166l-3.06 8.842c-0.37 1.04-0.6 1.91-0.68 2.619-0.18 1.378 0.15 2.443 0.94 3.191 0.79 0.749 2.25 1.502 4.42 2.25l3.78 1.309c2.73 0.945 4.66 1.199 5.78 0.766 1.14-0.434 2.12-1.81 2.94-4.166 0 0 1.46-4.149 1.67-4.774 0.35-1.142-0.51-1.866-0.99-2.029l-7.09-2.471c-0.83-0.287-1.36 0.345-1.65 0.879-0.29 0.54-1.34 3.568-1.34 3.568l-0.37 0.95s0.81-0.788 1.87-0.422l2.6 0.906c-0.39 0.951-0.83 1.489-1.28 1.635-0.41 0.14-1.27-0.029-2.59-0.485 0 0-0.91-0.353-1.16-0.5-0.63-0.41-0.91-0.93-0.82-1.599 0.04-0.383 0.18-0.908 0.42-1.6l1.7-4.896c0.46-1.311 0.92-2.046 1.4-2.198 0.48-0.146 1.37 0.006 2.69 0.467l6.44 2.223c1.17 0.405 1.39 1.926 1.39 1.926l0.45-1.284 1.14-3.304c0.33-1.26-0.47-1.936-1.55-2.313l-8.37-2.9c-2.03-0.705-3.61-1.018-4.76-0.949zm-67.479 1.599c-0.275-0.015-0.554 0.023-0.817 0.133l-7.312 3.049c-2.638 1.097-4.234 2.182-4.791 3.262-0.557 1.068-0.349 2.773 0.607 5.08l0.844 1.968c0.129 0.299 0.283 0.574 0.457 0.827 0.669 0.967 1.598 1.615 2.813 1.941 1.44 0.371 3.085 0.161 4.947-0.615l2.847-1.186c1.103-0.455 1.905-0.338 2.383 0.36 0.13 0.185 0.194 0.395 0.194 0.615 0 0 0.323 0.998-1.944 1.943l-5.738 2.399c-1.282 0.433-3.146-0.782-3.146-0.782s1.18 2.799 1.906 4.526c0.422 1.007 1.708 1.661 2.76 1.222l0.572-0.238 3.955-1.642 2.855-1.196c2.644-1.102 4.235-2.176 4.791-3.261 0.563-1.08 0.318-2.641-0.632-4.93 0 0-0.737-1.707-0.985-2.18-1.384-2.655-4.28-3.558-7.217-2.338l-3.304 1.379c-1.193 0.495-2.03 0.4-2.496-0.281-0.017-0.023-0.147-0.3-0.159-0.334-0.146-0.495-0.52-1.361 1.241-2.092l5.976-2.486c1.288-0.535 3.242 0.746 3.242 0.746s-1.18-2.814-1.906-4.535c-0.316-0.755-1.117-1.308-1.943-1.354zm85.669 4.588c-0.47-0.009-0.79 0.362-0.93 0.572-0.18 0.299-2.03 3.559-2.03 3.559l-0.82 1.451s1.24-1.208 2.66-0.387l3.18 1.846-8.13 14.08 5.73 3.323s0.02-0.933 0.54-1.997c0 0 4.5-7.835 7.13-12.375l2.45 1.424c1.41 0.816 1.36 3.033 1.36 3.033l1.33-2.337 2.21-3.85-8.99-5.195s-0.04-0.025-0.08-0.053l-5.1-2.943c-0.18-0.106-0.36-0.148-0.51-0.151zm-111.86 8.799l-3.586 2.504c-0.72 0.512-1.034 0.996-0.966 1.75l6.047 18.412c0.388 1.153-1.02 3.234-1.02 3.234l6.303-4.412c0.568-0.393 0.694-1.059 0.492-1.695l-0.889-2.602 4.809-3.357 1.863 1.178c1.074 0.888 0.307 1.881 0.307 1.881l6.918-4.844-20.278-12.049zm129.65 3.611c-1.22 0.034-2.59 1.031-4.13 2.989l-5.78 7.357c-0.68 0.866-1.17 1.617-1.48 2.258-0.61 1.249-0.68 2.355-0.17 3.322 0.5 0.968 1.65 2.157 3.44 3.568l3.14 2.479c2.28 1.789 4.03 2.656 5.22 2.611 1.22-0.039 2.6-1.03 4.14-2.988l5.79-7.357c0.67-0.855 1.17-1.609 1.48-2.25 0.62-1.244 0.65-2.383 0.1-3.401-0.45-0.911-1.6-2.091-3.43-3.525l-3.14-2.479c-2.24-1.766-3.97-2.623-5.18-2.584zm-140.07 2.567l-0.633 0.756-3.375 3.832c-0.017 0.022-0.015 0.034-0.043 0.062-0.456 0.518-0.788 0.963-0.748 1.442l8.595 13.261-12.111-6.547c-1.541-0.618-0.896-2.302-0.896-2.302l-1.213 1.371-2.487 2.812c-0.011 0.023-0.024 0.042-0.052 0.071-0.63 0.708-0.94 1.426-0.608 2.197l8.694 12.224-12.147-6.24c-1.575-0.81-0.889-2.556-0.889-2.556l-1.291 1.441-2.857 3.252c-0.011 0.017-0.019 0.031-0.053 0.07-0.652 0.737-0.823 1.805-0.193 2.328 0.096 0.079 0.045 0.053 0.045 0.053l18.851 8.834 4.43-5.019c0.602-0.681 0.774-1.046 0.492-1.766l-3.568-6.645 7.312 3.604 4.711-5.354c0.585-0.663 0.674-1.596 0.432-2.31l-10.029-16.779c-0.647-1.137-0.369-2.092-0.369-2.092zm13.738 2.752l2.9 1.906-1.74 1.266-1.16-3.172zm127.75 1.459c0.46 0.025 1.2 0.421 2.15 1.132 0.59 0.475 1.06 0.877 1.22 1.083 0.47 0.568 0.54 1.167 0.25 1.775-0.17 0.337-0.48 0.78-0.95 1.326l-3.2 4.07c-0.87 1.114-1.57 1.648-2.15 1.625-0.38 0.005-1.09-0.404-2.03-1.115-0.57-0.459-1.04-0.86-1.19-1.047-0.47-0.59-0.55-1.173-0.25-1.775 0.17-0.349 0.48-0.792 0.92-1.371l3.2-4.078c0.86-1.092 1.54-1.625 2.03-1.625zm-67.21 1.886a82.2 82.2 0 0 0 -82.196 82.2 82.2 82.2 0 0 0 82.196 82.2 82.2 82.2 0 0 0 82.2 -82.2 82.2 82.2 0 0 0 -82.2 -82.2zm82.52 4.301s0.3 2.008-0.89 2.953l-14.95 11.68 2.68 3.428c0.51 0.663 0.96 1.124 1.61 0.967 0 0 3.77-2.944 7.98-6.241l-3.79 9.826c-0.68 1.564-1.74 0.633-1.74 0.633l0.76 1.037 0.01-0.007 2.66 3.41c0.53 0.669 0.97 1.118 1.61 0.967l16.4-12.833-3.74-4.791-1.03-1.291s0.29 1.864-0.91 2.803l-6.35 4.967 4.11-11.225c0.1-0.281 0.05-0.556-0.16-0.826-0.46-0.596-3.15-4.051-3.15-4.051l-1.11-1.406zm-181.09 33.487l-2.838 8.744h-9.194l7.444 5.396-2.848 8.742 7.436-5.402 7.435 5.402-2.838-8.742 7.444-5.396h-9.194l-2.847-8.744zm196.9 1.16l-2.83 8.744h-9.21l7.45 5.406-2.84 8.742 7.43-5.4 7.44 5.4-2.84-8.742 7.44-5.406h-9.2l-2.84-8.744zm-35.94 111.4c-0.2-0.03-0.41-0.03-0.62 0-0.27 0.04-0.54 0.14-0.77 0.31l-6.52 4.5c-2.35 1.62-3.69 3.01-4.01 4.18-0.33 1.16 0.25 2.78 1.65 4.84l1.23 1.75c0.19 0.26 0.39 0.5 0.62 0.71 0.85 0.81 1.9 1.25 3.16 1.32 1.48 0.06 3.04-0.48 4.7-1.62l2.55-1.75c0.98-0.68 1.78-0.73 2.4-0.15 0.17 0.16 0.27 0.34 0.32 0.56 0 0 0.52 0.91-1.5 2.3l-5.12 3.54c-1.16 0.69-3.24-0.12-3.24-0.12s1.74 2.51 2.81 4.04c0.61 0.9 2.01 1.28 2.95 0.63l0.51-0.35 3.52-2.44 2.55-1.76c2.36-1.62 3.69-3 4.01-4.18s-0.23-2.65-1.64-4.69c0 0-1.08-1.52-1.42-1.93-1.9-2.3-4.92-2.6-7.54-0.8l-2.95 2.04c-1.06 0.73-1.9 0.82-2.5 0.25-0.03-0.02-0.2-0.27-0.21-0.3-0.25-0.46-0.8-1.21 0.77-2.29l5.33-3.68c1.15-0.79 3.32 0.05 3.32 0.05l-2.8-4.03c-0.35-0.51-0.94-0.85-1.56-0.93zm-128.53 0.35c-0.426 0.02-0.804 0.2-1.01 0.55-0.061 0.11-0.044 0.06-0.044 0.06l-6.723 19.39 5.66 3.57c0.765 0.49 1.159 0.59 1.828 0.2l5.985-4.58-2.399 7.8 6.029 3.81c0.749 0.47 1.686 0.41 2.356 0.06l13.992-13.18c1.024-0.83 2.012-0.7 2.012-0.7l-0.852-0.5-4.316-2.73c-0.023-0.02-0.045-0.02-0.078-0.04-0.585-0.37-1.073-0.62-1.539-0.5l-9.493 9.24 3.473-11.17c0.22-1.08 1.951-1.11 1.951-1.11l-1.529-0.98-3.191-2.01c-0.023-0.01-0.033-0.01-0.061-0.03-0.81-0.51-1.569-0.71-2.277-0.26l-9.756 9.05 4.281-10.89c0.551-1.68 2.391-1.29 2.391-1.29l-1.627-1.04-3.664-2.31c-0.017 0-0.041-0.01-0.08-0.04-0.419-0.27-0.893-0.39-1.319-0.37zm111.44 12.05c-0.75 0.05-1.7 0.32-2.85 0.82l-14.33 6.2s1.98 0.36 2.69 1.61l6.64 15.33c0.29 1.08-0.11 2.25-0.3 2.5l13.96-5.99c1.9-0.82 3-1.72 3.31-2.66 0.31-0.96-0.03-2.59-1.01-4.86l-4.15-9.06c-0.44-1-0.65-1.37-0.96-1.97-0.63-1.2-1.49-1.78-2.31-1.9-0.21-0.03-0.44-0.04-0.69-0.02zm-81.131 5.36c-0.578-0.04-1.292 0.19-1.836 1.98l-6.188 17.84 5.756 2 0.45 0.05s-0.109-0.79 0.201-1.93c0 0 5.573-16.19 5.871-16.91 0.298-0.73 1.416-1.13 1.416-1.13-0.563-0.22-2.808-0.95-5.143-1.81-0.152-0.03-0.334-0.07-0.527-0.09zm79.071 0.82c0.14-0.01 0.27 0.01 0.39 0.06 0.25 0.1 0.47 0.3 0.67 0.62 0.26 0.41 3.81 8.33 3.76 8.75-0.04 0.43-0.26 0.74-0.65 0.9l-5.49 2.39-3.22-7.41c-0.2-0.49-0.69-1.61-1.25-2.88l5.37-2.33c0.15-0.06 0.29-0.09 0.42-0.1zm-70.339 2.17c-0.975 0.08-1.398 0.84-1.683 1.76l-0.633 2.86h0.017l-0.289 1.18s1.173-0.89 2.461-0.69l7.316 1.6-12.247 10.32-0.746 3.46 15.963 3.51c1.02 0.23 1.73 0.26 2.09-0.77l1.15-5.28s-1.19 1.16-2.51 0.94l-7.74-1.71 12.53-9.58 0.91-4.08s-15.91-3.49-16.14-3.51c-0.16-0.02-0.31-0.02-0.449-0.01zm51.689 0.15c-0.6 0-1.31 0.07-2.13 0.22l-15.22 2.86s1.92 0.72 2.25 2.17l3.38 18.58 4.24-0.79c0.84-0.15 1.45-0.33 1.61-0.98l-1.14-6.29 2.96-0.59 5.13 6.23 7.59-1.41s-1.31-0.32-2.04-1.02l-4.62-5.11c1.07-0.25 1.94-0.84 2.26-1.37 0.52-0.87 0.54-2.53 0.09-4.97 0 0-0.87-4.27-1.04-4.94-0.33-1.28-1.05-2.06-1.84-2.35-0.38-0.16-0.87-0.24-1.48-0.24zm-28.47 3.18c-0.88 0.01-1.4 0.22-1.78 0.88l-5.6 18.54c-0.35 1.17-2.69 2.08-2.69 2.08h7.68c0.69 0 1.19-0.47 1.39-1.11l0.76-2.64h5.86l0.86 2.04c0.38 1.34-0.83 1.71-0.83 1.71h8.45l-9.72-21.5h-4.38zm25.93 2.44c0.39 0.06 0.69 0.37 0.87 0.91 0.16 0.44 0.39 2 0.25 2.41-0.13 0.4-0.41 0.64-0.84 0.72l-3.51 0.7c-0.8 0.15-1.38 0.98-1.86 1.98l-1.04-5.62 5.69-1.1c0.16-0.02 0.3-0.03 0.44 0zm-23.7 6.91l1.22 3.25h-2.15l0.93-3.25z" transform="matrix(.8 0 0 -.8 30.231 817.57)" fill="#fff"/><path d="m131.76 776.38c-4.3785 0.004-8.6346-0.47053-12.748-1.357 3.0285-1.566 6.0519-4.4395 7.9734-9.682l4.7602 7.0102 4.7672-7.0102c1.9125 5.2245 4.9283 8.102 7.9523 9.668-4.095 0.8865-8.345 1.3666-12.705 1.3711zm-19.041-3.0727c-17.658-5.886-31.662-19.749-37.737-37.322 8.0865 12.146 23.899 25.949 48.073 28.68-2.1285 5.103-6.4479 7.5074-10.336 8.6414zm37.997-0.014c-3.87-1.143-8.1647-3.5468-10.28-8.6273 23.985-2.709 39.749-16.319 47.89-28.392-6.1245 17.424-20.06 31.161-37.61 37.02z" fill="#e31837"/><path d="m152.36 757.64c-2.1617-0.0467-3.1781-0.75938-3.1781-0.75938l-6.9961-3.9164 0.3586-1.3008 1.5258-5.5406s2.8721-7.9838 9.7031-14.815c12.902-12.753 29.373-31.414 27.703-48.473 6.273 9.2925 9.9934 20.441 10.209 32.442-1.044 6.0525-2.986 11.388-5.407 16.045-4.5 8.64-13.198 16.793-23.885 23.098-4.5652 2.6482-7.8719 3.267-10.034 3.2203zm-41.231-0.007c-2.1622 0.0456-5.4636-0.56503-10.027-3.2133-10.688-6.3-19.385-14.456-23.885-23.105-2.4885-4.7925-4.4699-10.3-5.4914-16.573 0.3195-11.866 4.0618-22.874 10.308-32.062-1.782 17.1 14.745 35.835 27.682 48.628 6.8355 6.8265 9.7102 14.815 9.7102 14.815l1.5258 5.5477 0.3586 1.2938-6.9961 3.9164s-1.0229 0.70678-3.1852 0.75235zm20.616-12.642c-0.693-0.495-22.841-16.436-32.597-32.217-13.167-21.298-11.457-33.58-8.0508-40.591 8.487-7.803 19.227-13.192 31.134-15.082l5.1328 72.752 4.275 4.2961 0.0563 0.0563h0.007l0.0492-0.0563 4.282-4.2961 5.168-72.696-0.0703-0.0353c11.997 1.8945 22.815 7.3297 31.338 15.223 3.3525 7.038 4.9399 19.293-8.1281 40.43-9.756 15.782-31.899 31.722-32.597 32.217z" fill="#002b5c"/><path d="m131.74 767.69-0.70312-1.4203-1.3922-2.8406h-0.007l-0.0563-0.11952-0.0563-0.11952-0.75234-1.5328-0.0633-0.1336-0.014-0.0212-1.8703-0.11952c-2.6505-0.1665-5.281-0.53184-7.882-0.97734-1.1542-0.19761-2.3185-0.36755-3.4594-0.61875l3.6774-1.9828 3.6773-1.9828 1.1391-0.61172 1.1391-0.61172-0.68907-2.4961-0.0422-0.14062-0.30938-1.1531-2.0531-7.4391 4.6687 3.4383 3.157 2.3344 0.93515 0.68907 0.92813 0.68906v0.0353l0.0281-0.0212 0.0281 0.0212v-0.0353l0.93515-0.68906 0.93516-0.68907 7.8188-5.7726-2.0461 7.4391-0.17579 0.64687-0.17579 0.64688-0.68906 2.4961 0.73828 0.39375 1.5328 0.82969 4.9711 2.6719 2.3906 1.2938c-1.143 0.252-2.3099 0.42075-3.4664 0.61875-2.6055 0.4455-5.22 0.81084-7.875 0.97734l-1.8774 0.11952-0.0353 0.0773-0.0422 0.0773-0.75234 1.5328-0.0422 0.0914-2.1726 4.4086zm0.014-33.546 0.0492-82.336 9.3234 5.3156 0.0703 0.0353-5.168 72.696-4.275 4.2891z" fill="#c4ced4"/></g></g></g></svg>
